<?xml version="1.0" encoding="utf-8" standalone="no"?>
<!DOCTYPE svg PUBLIC "-//W3C//DTD SVG 1.1//EN"
  "http://www.w3.org/Graphics/SVG/1.1/DTD/svg11.dtd">
<!-- Created with matplotlib (http://matplotlib.org/) -->
<svg height="149pt" version="1.1" viewBox="0 0 291 149" width="291pt" xmlns="http://www.w3.org/2000/svg" xmlns:xlink="http://www.w3.org/1999/xlink">
 <defs>
  <style type="text/css">
*{stroke-linecap:butt;stroke-linejoin:round;}
  </style>
 </defs>
 <g id="figure_1">
  <g id="patch_1">
   <path d="M 0 149.679687 
L 291.6 149.679687 
L 291.6 0 
L 0 0 
z
" style="fill:none;"/>
  </g>
  <g id="axes_1">
   <g id="patch_2">
    <path d="M 43.875 112.6 
L 153.204581 112.6 
L 153.204581 10.7 
L 43.875 10.7 
z
" style="fill:#ffffff;"/>
   </g>
   <g id="patch_3">
    <path clip-path="url(#pcd50dc9103)" d="M 48.844526 112.6 
L 53.941477 112.6 
L 53.941477 15.552381 
L 48.844526 15.552381 
z
" style="fill:#bfbfbf;"/>
   </g>
   <g id="patch_4">
    <path clip-path="url(#pcd50dc9103)" d="M 53.941477 112.6 
L 59.038427 112.6 
L 59.038427 66.837708 
L 53.941477 66.837708 
z
" style="fill:#bfbfbf;"/>
   </g>
   <g id="patch_5">
    <path clip-path="url(#pcd50dc9103)" d="M 59.038427 112.6 
L 64.135377 112.6 
L 64.135377 86.562834 
L 59.038427 86.562834 
z
" style="fill:#bfbfbf;"/>
   </g>
   <g id="patch_6">
    <path clip-path="url(#pcd50dc9103)" d="M 64.135377 112.6 
L 69.232327 112.6 
L 69.232327 96.819899 
L 64.135377 96.819899 
z
" style="fill:#bfbfbf;"/>
   </g>
   <g id="patch_7">
    <path clip-path="url(#pcd50dc9103)" d="M 69.232327 112.6 
L 74.329277 112.6 
L 74.329277 107.076965 
L 69.232327 107.076965 
z
" style="fill:#bfbfbf;"/>
   </g>
   <g id="patch_8">
    <path clip-path="url(#pcd50dc9103)" d="M 74.329277 112.6 
L 79.426227 112.6 
L 79.426227 107.076965 
L 74.329277 107.076965 
z
" style="fill:#bfbfbf;"/>
   </g>
   <g id="patch_9">
    <path clip-path="url(#pcd50dc9103)" d="M 79.426227 112.6 
L 84.523178 112.6 
L 84.523178 109.44398 
L 79.426227 109.44398 
z
" style="fill:#bfbfbf;"/>
   </g>
   <g id="patch_10">
    <path clip-path="url(#pcd50dc9103)" d="M 84.523178 112.6 
L 89.620128 112.6 
L 89.620128 109.44398 
L 84.523178 109.44398 
z
" style="fill:#bfbfbf;"/>
   </g>
   <g id="patch_11">
    <path clip-path="url(#pcd50dc9103)" d="M 89.620128 112.6 
L 94.717078 112.6 
L 94.717078 107.86597 
L 89.620128 107.86597 
z
" style="fill:#bfbfbf;"/>
   </g>
   <g id="patch_12">
    <path clip-path="url(#pcd50dc9103)" d="M 94.717078 112.6 
L 99.814028 112.6 
L 99.814028 106.28796 
L 94.717078 106.28796 
z
" style="fill:#bfbfbf;"/>
   </g>
   <g id="patch_13">
    <path clip-path="url(#pcd50dc9103)" d="M 99.814028 112.6 
L 104.910978 112.6 
L 104.910978 112.6 
L 99.814028 112.6 
z
" style="fill:#bfbfbf;"/>
   </g>
   <g id="patch_14">
    <path clip-path="url(#pcd50dc9103)" d="M 104.910978 112.6 
L 110.007928 112.6 
L 110.007928 110.232985 
L 104.910978 110.232985 
z
" style="fill:#bfbfbf;"/>
   </g>
   <g id="patch_15">
    <path clip-path="url(#pcd50dc9103)" d="M 110.007928 112.6 
L 115.104879 112.6 
L 115.104879 111.02199 
L 110.007928 111.02199 
z
" style="fill:#bfbfbf;"/>
   </g>
   <g id="patch_16">
    <path clip-path="url(#pcd50dc9103)" d="M 115.104879 112.6 
L 120.201829 112.6 
L 120.201829 111.810995 
L 115.104879 111.810995 
z
" style="fill:#bfbfbf;"/>
   </g>
   <g id="patch_17">
    <path clip-path="url(#pcd50dc9103)" d="M 120.201829 112.6 
L 125.298779 112.6 
L 125.298779 112.6 
L 120.201829 112.6 
z
" style="fill:#bfbfbf;"/>
   </g>
   <g id="patch_18">
    <path clip-path="url(#pcd50dc9103)" d="M 125.298779 112.6 
L 130.395729 112.6 
L 130.395729 111.810995 
L 125.298779 111.810995 
z
" style="fill:#bfbfbf;"/>
   </g>
   <g id="patch_19">
    <path clip-path="url(#pcd50dc9103)" d="M 130.395729 112.6 
L 135.492679 112.6 
L 135.492679 111.02199 
L 130.395729 111.02199 
z
" style="fill:#bfbfbf;"/>
   </g>
   <g id="patch_20">
    <path clip-path="url(#pcd50dc9103)" d="M 135.492679 112.6 
L 140.58963 112.6 
L 140.58963 111.810995 
L 135.492679 111.810995 
z
" style="fill:#bfbfbf;"/>
   </g>
   <g id="patch_21">
    <path clip-path="url(#pcd50dc9103)" d="M 140.58963 112.6 
L 145.68658 112.6 
L 145.68658 112.6 
L 140.58963 112.6 
z
" style="fill:#bfbfbf;"/>
   </g>
   <g id="patch_22">
    <path clip-path="url(#pcd50dc9103)" d="M 51.393002 61.689262 
L 52.667239 63.267272 
L 51.418486 63.267272 
L 51.418486 112.6 
L 51.367517 112.6 
L 51.367517 63.267272 
L 50.118764 63.267272 
z
" style="fill:#ff0000;stroke:#ff0000;stroke-linejoin:miter;"/>
   </g>
   <g id="matplotlib.axis_1">
    <g id="xtick_1">
     <g id="line2d_1">
      <defs>
       <path d="M 0 0 
L 0 3.5 
" id="m731cd2f4ac" style="stroke:#000000;stroke-width:0.8;"/>
      </defs>
      <g>
       <use style="stroke:#000000;stroke-width:0.8;" x="48.844526" xlink:href="#m731cd2f4ac" y="112.6"/>
      </g>
     </g>
     <g id="text_1">
      <!-- 0 -->
      <defs>
       <path d="M 31.78125 66.40625 
Q 24.171875 66.40625 20.328125 58.90625 
Q 16.5 51.421875 16.5 36.375 
Q 16.5 21.390625 20.328125 13.890625 
Q 24.171875 6.390625 31.78125 6.390625 
Q 39.453125 6.390625 43.28125 13.890625 
Q 47.125 21.390625 47.125 36.375 
Q 47.125 51.421875 43.28125 58.90625 
Q 39.453125 66.40625 31.78125 66.40625 
z
M 31.78125 74.21875 
Q 44.046875 74.21875 50.515625 64.515625 
Q 56.984375 54.828125 56.984375 36.375 
Q 56.984375 17.96875 50.515625 8.265625 
Q 44.046875 -1.421875 31.78125 -1.421875 
Q 19.53125 -1.421875 13.0625 8.265625 
Q 6.59375 17.96875 6.59375 36.375 
Q 6.59375 54.828125 13.0625 64.515625 
Q 19.53125 74.21875 31.78125 74.21875 
z
" id="DejaVuSans-30"/>
      </defs>
      <g transform="translate(45.663276 127.198437)scale(0.1 -0.1)">
       <use xlink:href="#DejaVuSans-30"/>
      </g>
     </g>
    </g>
    <g id="xtick_2">
     <g id="line2d_2">
      <g>
       <use style="stroke:#000000;stroke-width:0.8;" x="99.814028" xlink:href="#m731cd2f4ac" y="112.6"/>
      </g>
     </g>
     <g id="text_2">
      <!-- 10 -->
      <defs>
       <path d="M 12.40625 8.296875 
L 28.515625 8.296875 
L 28.515625 63.921875 
L 10.984375 60.40625 
L 10.984375 69.390625 
L 28.421875 72.90625 
L 38.28125 72.90625 
L 38.28125 8.296875 
L 54.390625 8.296875 
L 54.390625 0 
L 12.40625 0 
z
" id="DejaVuSans-31"/>
      </defs>
      <g transform="translate(93.451528 127.198437)scale(0.1 -0.1)">
       <use xlink:href="#DejaVuSans-31"/>
       <use x="63.623047" xlink:href="#DejaVuSans-30"/>
      </g>
     </g>
    </g>
    <g id="xtick_3">
     <g id="line2d_3">
      <g>
       <use style="stroke:#000000;stroke-width:0.8;" x="150.78353" xlink:href="#m731cd2f4ac" y="112.6"/>
      </g>
     </g>
     <g id="text_3">
      <!-- 20 -->
      <defs>
       <path d="M 19.1875 8.296875 
L 53.609375 8.296875 
L 53.609375 0 
L 7.328125 0 
L 7.328125 8.296875 
Q 12.9375 14.109375 22.625 23.890625 
Q 32.328125 33.6875 34.8125 36.53125 
Q 39.546875 41.84375 41.421875 45.53125 
Q 43.3125 49.21875 43.3125 52.78125 
Q 43.3125 58.59375 39.234375 62.25 
Q 35.15625 65.921875 28.609375 65.921875 
Q 23.96875 65.921875 18.8125 64.3125 
Q 13.671875 62.703125 7.8125 59.421875 
L 7.8125 69.390625 
Q 13.765625 71.78125 18.9375 73 
Q 24.125 74.21875 28.421875 74.21875 
Q 39.75 74.21875 46.484375 68.546875 
Q 53.21875 62.890625 53.21875 53.421875 
Q 53.21875 48.921875 51.53125 44.890625 
Q 49.859375 40.875 45.40625 35.40625 
Q 44.1875 33.984375 37.640625 27.21875 
Q 31.109375 20.453125 19.1875 8.296875 
z
" id="DejaVuSans-32"/>
      </defs>
      <g transform="translate(144.42103 127.198437)scale(0.1 -0.1)">
       <use xlink:href="#DejaVuSans-32"/>
       <use x="63.623047" xlink:href="#DejaVuSans-30"/>
      </g>
     </g>
    </g>
   </g>
   <g id="matplotlib.axis_2">
    <g id="ytick_1">
     <g id="line2d_4">
      <defs>
       <path d="M 0 0 
L -3.5 0 
" id="m2d9829b0b3" style="stroke:#000000;stroke-width:0.8;"/>
      </defs>
      <g>
       <use style="stroke:#000000;stroke-width:0.8;" x="43.875" xlink:href="#m2d9829b0b3" y="112.6"/>
      </g>
     </g>
     <g id="text_4">
      <!-- 0 -->
      <g transform="translate(30.5125 116.399219)scale(0.1 -0.1)">
       <use xlink:href="#DejaVuSans-30"/>
      </g>
     </g>
    </g>
    <g id="ytick_2">
     <g id="line2d_5">
      <g>
       <use style="stroke:#000000;stroke-width:0.8;" x="43.875" xlink:href="#m2d9829b0b3" y="73.149748"/>
      </g>
     </g>
     <g id="text_5">
      <!-- 50 -->
      <defs>
       <path d="M 10.796875 72.90625 
L 49.515625 72.90625 
L 49.515625 64.59375 
L 19.828125 64.59375 
L 19.828125 46.734375 
Q 21.96875 47.46875 24.109375 47.828125 
Q 26.265625 48.1875 28.421875 48.1875 
Q 40.625 48.1875 47.75 41.5 
Q 54.890625 34.8125 54.890625 23.390625 
Q 54.890625 11.625 47.5625 5.09375 
Q 40.234375 -1.421875 26.90625 -1.421875 
Q 22.3125 -1.421875 17.546875 -0.640625 
Q 12.796875 0.140625 7.71875 1.703125 
L 7.71875 11.625 
Q 12.109375 9.234375 16.796875 8.0625 
Q 21.484375 6.890625 26.703125 6.890625 
Q 35.15625 6.890625 40.078125 11.328125 
Q 45.015625 15.765625 45.015625 23.390625 
Q 45.015625 31 40.078125 35.4375 
Q 35.15625 39.890625 26.703125 39.890625 
Q 22.75 39.890625 18.8125 39.015625 
Q 14.890625 38.140625 10.796875 36.28125 
z
" id="DejaVuSans-35"/>
      </defs>
      <g transform="translate(24.15 76.948967)scale(0.1 -0.1)">
       <use xlink:href="#DejaVuSans-35"/>
       <use x="63.623047" xlink:href="#DejaVuSans-30"/>
      </g>
     </g>
    </g>
    <g id="ytick_3">
     <g id="line2d_6">
      <g>
       <use style="stroke:#000000;stroke-width:0.8;" x="43.875" xlink:href="#m2d9829b0b3" y="33.699497"/>
      </g>
     </g>
     <g id="text_6">
      <!-- 100 -->
      <g transform="translate(17.7875 37.498715)scale(0.1 -0.1)">
       <use xlink:href="#DejaVuSans-31"/>
       <use x="63.623047" xlink:href="#DejaVuSans-30"/>
       <use x="127.246094" xlink:href="#DejaVuSans-30"/>
      </g>
     </g>
    </g>
   </g>
   <g id="line2d_7">
    <path clip-path="url(#pcd50dc9103)" d="M 51.393002 50.081726 
L 56.489952 75.810552 
L 61.586902 89.11617 
L 66.683852 97.119152 
L 71.780802 102.193498 
L 76.877752 105.506026 
L 81.974703 107.711202 
L 87.071653 109.200771 
L 92.168603 110.218635 
L 97.265553 110.92081 
L 102.362503 111.409125 
L 107.459453 111.751089 
L 112.556404 111.992042 
L 117.653354 112.162753 
L 122.750304 112.284302 
L 127.847254 112.371238 
L 132.944204 112.433676 
L 138.041154 112.478692 
L 143.138105 112.511264 
L 148.235055 112.53491 
" style="fill:none;stroke:#0000ff;stroke-linecap:square;"/>
   </g>
   <g id="patch_23">
    <path d="M 43.875 112.6 
L 43.875 10.7 
" style="fill:none;stroke:#000000;stroke-linecap:square;stroke-linejoin:miter;stroke-width:0.8;"/>
   </g>
   <g id="patch_24">
    <path d="M 153.204581 112.6 
L 153.204581 10.7 
" style="fill:none;stroke:#000000;stroke-linecap:square;stroke-linejoin:miter;stroke-width:0.8;"/>
   </g>
   <g id="patch_25">
    <path d="M 43.875 112.6 
L 153.204581 112.6 
" style="fill:none;stroke:#000000;stroke-linecap:square;stroke-linejoin:miter;stroke-width:0.8;"/>
   </g>
   <g id="patch_26">
    <path d="M 43.875 10.7 
L 153.204581 10.7 
" style="fill:none;stroke:#000000;stroke-linecap:square;stroke-linejoin:miter;stroke-width:0.8;"/>
   </g>
  </g>
  <g id="axes_2">
   <g id="patch_27">
    <path d="M 171.570419 112.6 
L 280.9 112.6 
L 280.9 10.7 
L 171.570419 10.7 
z
" style="fill:#ffffff;"/>
   </g>
   <g id="patch_28">
    <path clip-path="url(#p7792a594b6)" d="M 176.539945 112.6 
L 180.290531 112.6 
L 180.290531 84.195819 
L 176.539945 84.195819 
z
" style="fill:#bfbfbf;"/>
   </g>
   <g id="patch_29">
    <path clip-path="url(#p7792a594b6)" d="M 180.290531 112.6 
L 184.041117 112.6 
L 184.041117 88.140844 
L 180.290531 88.140844 
z
" style="fill:#bfbfbf;"/>
   </g>
   <g id="patch_30">
    <path clip-path="url(#p7792a594b6)" d="M 184.041117 112.6 
L 187.791703 112.6 
L 187.791703 103.13194 
L 184.041117 103.13194 
z
" style="fill:#bfbfbf;"/>
   </g>
   <g id="patch_31">
    <path clip-path="url(#p7792a594b6)" d="M 187.791703 112.6 
L 191.542289 112.6 
L 191.542289 105.498955 
L 187.791703 105.498955 
z
" style="fill:#bfbfbf;"/>
   </g>
   <g id="patch_32">
    <path clip-path="url(#p7792a594b6)" d="M 191.542289 112.6 
L 195.292875 112.6 
L 195.292875 109.44398 
L 191.542289 109.44398 
z
" style="fill:#bfbfbf;"/>
   </g>
   <g id="patch_33">
    <path clip-path="url(#p7792a594b6)" d="M 195.292875 112.6 
L 199.043461 112.6 
L 199.043461 111.02199 
L 195.292875 111.02199 
z
" style="fill:#bfbfbf;"/>
   </g>
   <g id="patch_34">
    <path clip-path="url(#p7792a594b6)" d="M 199.043461 112.6 
L 202.794047 112.6 
L 202.794047 108.654975 
L 199.043461 108.654975 
z
" style="fill:#bfbfbf;"/>
   </g>
   <g id="patch_35">
    <path clip-path="url(#p7792a594b6)" d="M 202.794047 112.6 
L 206.544633 112.6 
L 206.544633 110.232985 
L 202.794047 110.232985 
z
" style="fill:#bfbfbf;"/>
   </g>
   <g id="patch_36">
    <path clip-path="url(#p7792a594b6)" d="M 206.544633 112.6 
L 210.295219 112.6 
L 210.295219 108.654975 
L 206.544633 108.654975 
z
" style="fill:#bfbfbf;"/>
   </g>
   <g id="patch_37">
    <path clip-path="url(#p7792a594b6)" d="M 210.295219 112.6 
L 214.045805 112.6 
L 214.045805 112.6 
L 210.295219 112.6 
z
" style="fill:#bfbfbf;"/>
   </g>
   <g id="patch_38">
    <path clip-path="url(#p7792a594b6)" d="M 214.045805 112.6 
L 217.796391 112.6 
L 217.796391 112.6 
L 214.045805 112.6 
z
" style="fill:#bfbfbf;"/>
   </g>
   <g id="patch_39">
    <path clip-path="url(#p7792a594b6)" d="M 217.796391 112.6 
L 221.546977 112.6 
L 221.546977 111.810995 
L 217.796391 111.810995 
z
" style="fill:#bfbfbf;"/>
   </g>
   <g id="patch_40">
    <path clip-path="url(#p7792a594b6)" d="M 221.546977 112.6 
L 225.297563 112.6 
L 225.297563 112.6 
L 221.546977 112.6 
z
" style="fill:#bfbfbf;"/>
   </g>
   <g id="patch_41">
    <path clip-path="url(#p7792a594b6)" d="M 225.297563 112.6 
L 229.048149 112.6 
L 229.048149 111.810995 
L 225.297563 111.810995 
z
" style="fill:#bfbfbf;"/>
   </g>
   <g id="patch_42">
    <path clip-path="url(#p7792a594b6)" d="M 229.048149 112.6 
L 232.798735 112.6 
L 232.798735 111.810995 
L 229.048149 111.810995 
z
" style="fill:#bfbfbf;"/>
   </g>
   <g id="patch_43">
    <path clip-path="url(#p7792a594b6)" d="M 232.798735 112.6 
L 236.549321 112.6 
L 236.549321 112.6 
L 232.798735 112.6 
z
" style="fill:#bfbfbf;"/>
   </g>
   <g id="patch_44">
    <path clip-path="url(#p7792a594b6)" d="M 236.549321 112.6 
L 240.299907 112.6 
L 240.299907 112.6 
L 236.549321 112.6 
z
" style="fill:#bfbfbf;"/>
   </g>
   <g id="patch_45">
    <path clip-path="url(#p7792a594b6)" d="M 240.299907 112.6 
L 244.050493 112.6 
L 244.050493 111.02199 
L 240.299907 111.02199 
z
" style="fill:#bfbfbf;"/>
   </g>
   <g id="patch_46">
    <path clip-path="url(#p7792a594b6)" d="M 244.050493 112.6 
L 247.801079 112.6 
L 247.801079 112.6 
L 244.050493 112.6 
z
" style="fill:#bfbfbf;"/>
   </g>
   <g id="patch_47">
    <path clip-path="url(#p7792a594b6)" d="M 247.801079 112.6 
L 251.551665 112.6 
L 251.551665 112.6 
L 247.801079 112.6 
z
" style="fill:#bfbfbf;"/>
   </g>
   <g id="patch_48">
    <path clip-path="url(#p7792a594b6)" d="M 251.551665 112.6 
L 255.302251 112.6 
L 255.302251 112.6 
L 251.551665 112.6 
z
" style="fill:#bfbfbf;"/>
   </g>
   <g id="patch_49">
    <path clip-path="url(#p7792a594b6)" d="M 255.302251 112.6 
L 259.052837 112.6 
L 259.052837 112.6 
L 255.302251 112.6 
z
" style="fill:#bfbfbf;"/>
   </g>
   <g id="patch_50">
    <path clip-path="url(#p7792a594b6)" d="M 259.052837 112.6 
L 262.803423 112.6 
L 262.803423 112.6 
L 259.052837 112.6 
z
" style="fill:#bfbfbf;"/>
   </g>
   <g id="patch_51">
    <path clip-path="url(#p7792a594b6)" d="M 262.803423 112.6 
L 266.554009 112.6 
L 266.554009 112.6 
L 262.803423 112.6 
z
" style="fill:#bfbfbf;"/>
   </g>
   <g id="patch_52">
    <path clip-path="url(#p7792a594b6)" d="M 266.554009 112.6 
L 270.304595 112.6 
L 270.304595 112.6 
L 266.554009 112.6 
z
" style="fill:#bfbfbf;"/>
   </g>
   <g id="patch_53">
    <path clip-path="url(#p7792a594b6)" d="M 270.304595 112.6 
L 274.055181 112.6 
L 274.055181 112.6 
L 270.304595 112.6 
z
" style="fill:#bfbfbf;"/>
   </g>
   <g id="patch_54">
    <path clip-path="url(#p7792a594b6)" d="M 178.415238 100.580928 
L 179.352885 102.158938 
L 178.433991 102.158938 
L 178.433991 112.6 
L 178.396485 112.6 
L 178.396485 102.158938 
L 177.477592 102.158938 
z
" style="fill:#ff0000;stroke:#ff0000;stroke-linejoin:miter;"/>
   </g>
   <g id="matplotlib.axis_3">
    <g id="xtick_4">
     <g id="line2d_8">
      <g>
       <use style="stroke:#000000;stroke-width:0.8;" x="176.539945" xlink:href="#m731cd2f4ac" y="112.6"/>
      </g>
     </g>
     <g id="text_7">
      <!-- 0 -->
      <g transform="translate(173.358695 127.198437)scale(0.1 -0.1)">
       <use xlink:href="#DejaVuSans-30"/>
      </g>
     </g>
    </g>
    <g id="xtick_5">
     <g id="line2d_9">
      <g>
       <use style="stroke:#000000;stroke-width:0.8;" x="214.045805" xlink:href="#m731cd2f4ac" y="112.6"/>
      </g>
     </g>
     <g id="text_8">
      <!-- 10 -->
      <g transform="translate(207.683305 127.198437)scale(0.1 -0.1)">
       <use xlink:href="#DejaVuSans-31"/>
       <use x="63.623047" xlink:href="#DejaVuSans-30"/>
      </g>
     </g>
    </g>
    <g id="xtick_6">
     <g id="line2d_10">
      <g>
       <use style="stroke:#000000;stroke-width:0.8;" x="251.551665" xlink:href="#m731cd2f4ac" y="112.6"/>
      </g>
     </g>
     <g id="text_9">
      <!-- 20 -->
      <g transform="translate(245.189165 127.198437)scale(0.1 -0.1)">
       <use xlink:href="#DejaVuSans-32"/>
       <use x="63.623047" xlink:href="#DejaVuSans-30"/>
      </g>
     </g>
    </g>
   </g>
   <g id="matplotlib.axis_4">
    <g id="ytick_4">
     <g id="line2d_11">
      <g>
       <use style="stroke:#000000;stroke-width:0.8;" x="171.570419" xlink:href="#m2d9829b0b3" y="112.6"/>
      </g>
     </g>
    </g>
    <g id="ytick_5">
     <g id="line2d_12">
      <g>
       <use style="stroke:#000000;stroke-width:0.8;" x="171.570419" xlink:href="#m2d9829b0b3" y="73.149748"/>
      </g>
     </g>
    </g>
    <g id="ytick_6">
     <g id="line2d_13">
      <g>
       <use style="stroke:#000000;stroke-width:0.8;" x="171.570419" xlink:href="#m2d9829b0b3" y="33.699497"/>
      </g>
     </g>
    </g>
   </g>
   <g id="line2d_14">
    <path clip-path="url(#p7792a594b6)" d="M 178.415238 87.55642 
L 182.165824 96.901542 
L 185.91641 101.928564 
L 189.666996 105.129527 
L 193.417582 107.282706 
L 197.168168 108.772268 
L 200.918754 109.821091 
L 204.66934 110.568862 
L 208.419926 111.107079 
L 212.170512 111.497413 
L 215.921098 111.78228 
L 219.671684 111.991286 
L 223.42227 112.145345 
L 227.172856 112.259367 
L 230.923442 112.344068 
L 234.674028 112.407198 
L 238.424614 112.454394 
L 242.1752 112.489779 
L 245.925786 112.516379 
L 249.676372 112.536424 
L 253.426958 112.551566 
L 257.177544 112.56303 
L 260.92813 112.571727 
L 264.678716 112.578339 
L 268.429302 112.583376 
L 272.179888 112.58722 
L 275.930474 112.590159 
" style="fill:none;stroke:#0000ff;stroke-linecap:square;"/>
   </g>
   <g id="patch_55">
    <path d="M 171.570419 112.6 
L 171.570419 10.7 
" style="fill:none;stroke:#000000;stroke-linecap:square;stroke-linejoin:miter;stroke-width:0.8;"/>
   </g>
   <g id="patch_56">
    <path d="M 280.9 112.6 
L 280.9 10.7 
" style="fill:none;stroke:#000000;stroke-linecap:square;stroke-linejoin:miter;stroke-width:0.8;"/>
   </g>
   <g id="patch_57">
    <path d="M 171.570419 112.6 
L 280.9 112.6 
" style="fill:none;stroke:#000000;stroke-linecap:square;stroke-linejoin:miter;stroke-width:0.8;"/>
   </g>
   <g id="patch_58">
    <path d="M 171.570419 10.7 
L 280.9 10.7 
" style="fill:none;stroke:#000000;stroke-linecap:square;stroke-linejoin:miter;stroke-width:0.8;"/>
   </g>
  </g>
  <g id="text_10">
   <!-- UMI counts -->
   <defs>
    <path d="M 8.6875 72.90625 
L 18.609375 72.90625 
L 18.609375 28.609375 
Q 18.609375 16.890625 22.84375 11.734375 
Q 27.09375 6.59375 36.625 6.59375 
Q 46.09375 6.59375 50.34375 11.734375 
Q 54.59375 16.890625 54.59375 28.609375 
L 54.59375 72.90625 
L 64.5 72.90625 
L 64.5 27.390625 
Q 64.5 13.140625 57.4375 5.859375 
Q 50.390625 -1.421875 36.625 -1.421875 
Q 22.796875 -1.421875 15.734375 5.859375 
Q 8.6875 13.140625 8.6875 27.390625 
z
" id="DejaVuSans-55"/>
    <path d="M 9.8125 72.90625 
L 24.515625 72.90625 
L 43.109375 23.296875 
L 61.8125 72.90625 
L 76.515625 72.90625 
L 76.515625 0 
L 66.890625 0 
L 66.890625 64.015625 
L 48.09375 14.015625 
L 38.1875 14.015625 
L 19.390625 64.015625 
L 19.390625 0 
L 9.8125 0 
z
" id="DejaVuSans-4d"/>
    <path d="M 9.8125 72.90625 
L 19.671875 72.90625 
L 19.671875 0 
L 9.8125 0 
z
" id="DejaVuSans-49"/>
    <path id="DejaVuSans-20"/>
    <path d="M 48.78125 52.59375 
L 48.78125 44.1875 
Q 44.96875 46.296875 41.140625 47.34375 
Q 37.3125 48.390625 33.40625 48.390625 
Q 24.65625 48.390625 19.8125 42.84375 
Q 14.984375 37.3125 14.984375 27.296875 
Q 14.984375 17.28125 19.8125 11.734375 
Q 24.65625 6.203125 33.40625 6.203125 
Q 37.3125 6.203125 41.140625 7.25 
Q 44.96875 8.296875 48.78125 10.40625 
L 48.78125 2.09375 
Q 45.015625 0.34375 40.984375 -0.53125 
Q 36.96875 -1.421875 32.421875 -1.421875 
Q 20.0625 -1.421875 12.78125 6.34375 
Q 5.515625 14.109375 5.515625 27.296875 
Q 5.515625 40.671875 12.859375 48.328125 
Q 20.21875 56 33.015625 56 
Q 37.15625 56 41.109375 55.140625 
Q 45.0625 54.296875 48.78125 52.59375 
z
" id="DejaVuSans-63"/>
    <path d="M 30.609375 48.390625 
Q 23.390625 48.390625 19.1875 42.75 
Q 14.984375 37.109375 14.984375 27.296875 
Q 14.984375 17.484375 19.15625 11.84375 
Q 23.34375 6.203125 30.609375 6.203125 
Q 37.796875 6.203125 41.984375 11.859375 
Q 46.1875 17.53125 46.1875 27.296875 
Q 46.1875 37.015625 41.984375 42.703125 
Q 37.796875 48.390625 30.609375 48.390625 
z
M 30.609375 56 
Q 42.328125 56 49.015625 48.375 
Q 55.71875 40.765625 55.71875 27.296875 
Q 55.71875 13.875 49.015625 6.21875 
Q 42.328125 -1.421875 30.609375 -1.421875 
Q 18.84375 -1.421875 12.171875 6.21875 
Q 5.515625 13.875 5.515625 27.296875 
Q 5.515625 40.765625 12.171875 48.375 
Q 18.84375 56 30.609375 56 
z
" id="DejaVuSans-6f"/>
    <path d="M 8.5 21.578125 
L 8.5 54.6875 
L 17.484375 54.6875 
L 17.484375 21.921875 
Q 17.484375 14.15625 20.5 10.265625 
Q 23.53125 6.390625 29.59375 6.390625 
Q 36.859375 6.390625 41.078125 11.03125 
Q 45.3125 15.671875 45.3125 23.6875 
L 45.3125 54.6875 
L 54.296875 54.6875 
L 54.296875 0 
L 45.3125 0 
L 45.3125 8.40625 
Q 42.046875 3.421875 37.71875 1 
Q 33.40625 -1.421875 27.6875 -1.421875 
Q 18.265625 -1.421875 13.375 4.4375 
Q 8.5 10.296875 8.5 21.578125 
z
M 31.109375 56 
z
" id="DejaVuSans-75"/>
    <path d="M 54.890625 33.015625 
L 54.890625 0 
L 45.90625 0 
L 45.90625 32.71875 
Q 45.90625 40.484375 42.875 44.328125 
Q 39.84375 48.1875 33.796875 48.1875 
Q 26.515625 48.1875 22.3125 43.546875 
Q 18.109375 38.921875 18.109375 30.90625 
L 18.109375 0 
L 9.078125 0 
L 9.078125 54.6875 
L 18.109375 54.6875 
L 18.109375 46.1875 
Q 21.34375 51.125 25.703125 53.5625 
Q 30.078125 56 35.796875 56 
Q 45.21875 56 50.046875 50.171875 
Q 54.890625 44.34375 54.890625 33.015625 
z
" id="DejaVuSans-6e"/>
    <path d="M 18.3125 70.21875 
L 18.3125 54.6875 
L 36.8125 54.6875 
L 36.8125 47.703125 
L 18.3125 47.703125 
L 18.3125 18.015625 
Q 18.3125 11.328125 20.140625 9.421875 
Q 21.96875 7.515625 27.59375 7.515625 
L 36.8125 7.515625 
L 36.8125 0 
L 27.59375 0 
Q 17.1875 0 13.234375 3.875 
Q 9.28125 7.765625 9.28125 18.015625 
L 9.28125 47.703125 
L 2.6875 47.703125 
L 2.6875 54.6875 
L 9.28125 54.6875 
L 9.28125 70.21875 
z
" id="DejaVuSans-74"/>
    <path d="M 44.28125 53.078125 
L 44.28125 44.578125 
Q 40.484375 46.53125 36.375 47.5 
Q 32.28125 48.484375 27.875 48.484375 
Q 21.1875 48.484375 17.84375 46.4375 
Q 14.5 44.390625 14.5 40.28125 
Q 14.5 37.15625 16.890625 35.375 
Q 19.28125 33.59375 26.515625 31.984375 
L 29.59375 31.296875 
Q 39.15625 29.25 43.1875 25.515625 
Q 47.21875 21.78125 47.21875 15.09375 
Q 47.21875 7.46875 41.1875 3.015625 
Q 35.15625 -1.421875 24.609375 -1.421875 
Q 20.21875 -1.421875 15.453125 -0.5625 
Q 10.6875 0.296875 5.421875 2 
L 5.421875 11.28125 
Q 10.40625 8.6875 15.234375 7.390625 
Q 20.0625 6.109375 24.8125 6.109375 
Q 31.15625 6.109375 34.5625 8.28125 
Q 37.984375 10.453125 37.984375 14.40625 
Q 37.984375 18.0625 35.515625 20.015625 
Q 33.0625 21.96875 24.703125 23.78125 
L 21.578125 24.515625 
Q 13.234375 26.265625 9.515625 29.90625 
Q 5.8125 33.546875 5.8125 39.890625 
Q 5.8125 47.609375 11.28125 51.796875 
Q 16.75 56 26.8125 56 
Q 31.78125 56 36.171875 55.265625 
Q 40.578125 54.546875 44.28125 53.078125 
z
" id="DejaVuSans-73"/>
   </defs>
   <g transform="translate(123.451562 140.4)scale(0.1 -0.1)">
    <use xlink:href="#DejaVuSans-55"/>
    <use x="73.193359" xlink:href="#DejaVuSans-4d"/>
    <use x="159.472656" xlink:href="#DejaVuSans-49"/>
    <use x="188.964844" xlink:href="#DejaVuSans-20"/>
    <use x="220.751953" xlink:href="#DejaVuSans-63"/>
    <use x="275.732422" xlink:href="#DejaVuSans-6f"/>
    <use x="336.914062" xlink:href="#DejaVuSans-75"/>
    <use x="400.292969" xlink:href="#DejaVuSans-6e"/>
    <use x="463.671875" xlink:href="#DejaVuSans-74"/>
    <use x="502.880859" xlink:href="#DejaVuSans-73"/>
   </g>
  </g>
  <g id="text_11">
   <!-- Number of cells -->
   <defs>
    <path d="M 9.8125 72.90625 
L 23.09375 72.90625 
L 55.421875 11.921875 
L 55.421875 72.90625 
L 64.984375 72.90625 
L 64.984375 0 
L 51.703125 0 
L 19.390625 60.984375 
L 19.390625 0 
L 9.8125 0 
z
" id="DejaVuSans-4e"/>
    <path d="M 52 44.1875 
Q 55.375 50.25 60.0625 53.125 
Q 64.75 56 71.09375 56 
Q 79.640625 56 84.28125 50.015625 
Q 88.921875 44.046875 88.921875 33.015625 
L 88.921875 0 
L 79.890625 0 
L 79.890625 32.71875 
Q 79.890625 40.578125 77.09375 44.375 
Q 74.3125 48.1875 68.609375 48.1875 
Q 61.625 48.1875 57.5625 43.546875 
Q 53.515625 38.921875 53.515625 30.90625 
L 53.515625 0 
L 44.484375 0 
L 44.484375 32.71875 
Q 44.484375 40.625 41.703125 44.40625 
Q 38.921875 48.1875 33.109375 48.1875 
Q 26.21875 48.1875 22.15625 43.53125 
Q 18.109375 38.875 18.109375 30.90625 
L 18.109375 0 
L 9.078125 0 
L 9.078125 54.6875 
L 18.109375 54.6875 
L 18.109375 46.1875 
Q 21.1875 51.21875 25.484375 53.609375 
Q 29.78125 56 35.6875 56 
Q 41.65625 56 45.828125 52.96875 
Q 50 49.953125 52 44.1875 
z
" id="DejaVuSans-6d"/>
    <path d="M 48.6875 27.296875 
Q 48.6875 37.203125 44.609375 42.84375 
Q 40.53125 48.484375 33.40625 48.484375 
Q 26.265625 48.484375 22.1875 42.84375 
Q 18.109375 37.203125 18.109375 27.296875 
Q 18.109375 17.390625 22.1875 11.75 
Q 26.265625 6.109375 33.40625 6.109375 
Q 40.53125 6.109375 44.609375 11.75 
Q 48.6875 17.390625 48.6875 27.296875 
z
M 18.109375 46.390625 
Q 20.953125 51.265625 25.265625 53.625 
Q 29.59375 56 35.59375 56 
Q 45.5625 56 51.78125 48.09375 
Q 58.015625 40.1875 58.015625 27.296875 
Q 58.015625 14.40625 51.78125 6.484375 
Q 45.5625 -1.421875 35.59375 -1.421875 
Q 29.59375 -1.421875 25.265625 0.953125 
Q 20.953125 3.328125 18.109375 8.203125 
L 18.109375 0 
L 9.078125 0 
L 9.078125 75.984375 
L 18.109375 75.984375 
z
" id="DejaVuSans-62"/>
    <path d="M 56.203125 29.59375 
L 56.203125 25.203125 
L 14.890625 25.203125 
Q 15.484375 15.921875 20.484375 11.0625 
Q 25.484375 6.203125 34.421875 6.203125 
Q 39.59375 6.203125 44.453125 7.46875 
Q 49.3125 8.734375 54.109375 11.28125 
L 54.109375 2.78125 
Q 49.265625 0.734375 44.1875 -0.34375 
Q 39.109375 -1.421875 33.890625 -1.421875 
Q 20.796875 -1.421875 13.15625 6.1875 
Q 5.515625 13.8125 5.515625 26.8125 
Q 5.515625 40.234375 12.765625 48.109375 
Q 20.015625 56 32.328125 56 
Q 43.359375 56 49.78125 48.890625 
Q 56.203125 41.796875 56.203125 29.59375 
z
M 47.21875 32.234375 
Q 47.125 39.59375 43.09375 43.984375 
Q 39.0625 48.390625 32.421875 48.390625 
Q 24.90625 48.390625 20.390625 44.140625 
Q 15.875 39.890625 15.1875 32.171875 
z
" id="DejaVuSans-65"/>
    <path d="M 41.109375 46.296875 
Q 39.59375 47.171875 37.8125 47.578125 
Q 36.03125 48 33.890625 48 
Q 26.265625 48 22.1875 43.046875 
Q 18.109375 38.09375 18.109375 28.8125 
L 18.109375 0 
L 9.078125 0 
L 9.078125 54.6875 
L 18.109375 54.6875 
L 18.109375 46.1875 
Q 20.953125 51.171875 25.484375 53.578125 
Q 30.03125 56 36.53125 56 
Q 37.453125 56 38.578125 55.875 
Q 39.703125 55.765625 41.0625 55.515625 
z
" id="DejaVuSans-72"/>
    <path d="M 37.109375 75.984375 
L 37.109375 68.5 
L 28.515625 68.5 
Q 23.6875 68.5 21.796875 66.546875 
Q 19.921875 64.59375 19.921875 59.515625 
L 19.921875 54.6875 
L 34.71875 54.6875 
L 34.71875 47.703125 
L 19.921875 47.703125 
L 19.921875 0 
L 10.890625 0 
L 10.890625 47.703125 
L 2.296875 47.703125 
L 2.296875 54.6875 
L 10.890625 54.6875 
L 10.890625 58.5 
Q 10.890625 67.625 15.140625 71.796875 
Q 19.390625 75.984375 28.609375 75.984375 
z
" id="DejaVuSans-66"/>
    <path d="M 9.421875 75.984375 
L 18.40625 75.984375 
L 18.40625 0 
L 9.421875 0 
z
" id="DejaVuSans-6c"/>
   </defs>
   <g transform="translate(14.798438 107.692187)rotate(-90)scale(0.1 -0.1)">
    <use xlink:href="#DejaVuSans-4e"/>
    <use x="74.804688" xlink:href="#DejaVuSans-75"/>
    <use x="138.183594" xlink:href="#DejaVuSans-6d"/>
    <use x="235.595703" xlink:href="#DejaVuSans-62"/>
    <use x="299.072266" xlink:href="#DejaVuSans-65"/>
    <use x="360.595703" xlink:href="#DejaVuSans-72"/>
    <use x="401.708984" xlink:href="#DejaVuSans-20"/>
    <use x="433.496094" xlink:href="#DejaVuSans-6f"/>
    <use x="494.677734" xlink:href="#DejaVuSans-66"/>
    <use x="529.882812" xlink:href="#DejaVuSans-20"/>
    <use x="561.669922" xlink:href="#DejaVuSans-63"/>
    <use x="616.650391" xlink:href="#DejaVuSans-65"/>
    <use x="678.173828" xlink:href="#DejaVuSans-6c"/>
    <use x="705.957031" xlink:href="#DejaVuSans-6c"/>
    <use x="733.740234" xlink:href="#DejaVuSans-73"/>
   </g>
  </g>
 </g>
 <defs>
  <clipPath id="pcd50dc9103">
   <rect height="101.9" width="109.329581" x="43.875" y="10.7"/>
  </clipPath>
  <clipPath id="p7792a594b6">
   <rect height="101.9" width="109.329581" x="171.570419" y="10.7"/>
  </clipPath>
 </defs>
</svg>
