<?xml version="1.0" encoding="utf-8" standalone="no"?>
<!DOCTYPE svg PUBLIC "-//W3C//DTD SVG 1.1//EN"
  "http://www.w3.org/Graphics/SVG/1.1/DTD/svg11.dtd">
<!-- Created with matplotlib (http://matplotlib.org/) -->
<svg height="203pt" version="1.1" viewBox="0 0 555 203" width="555pt" xmlns="http://www.w3.org/2000/svg" xmlns:xlink="http://www.w3.org/1999/xlink">
 <defs>
  <style type="text/css">
*{stroke-linecap:butt;stroke-linejoin:round;}
  </style>
 </defs>
 <g id="figure_1">
  <g id="patch_1">
   <path d="M 0 203.474375 
L 555.48837 203.474375 
L 555.48837 0 
L 0 0 
z
" style="fill:none;"/>
  </g>
  <g id="axes_1">
   <g id="patch_2">
    <path d="M 43.78125 165.918125 
L 174.983873 165.918125 
L 174.983873 22.318125 
L 43.78125 22.318125 
z
" style="fill:#ffffff;"/>
   </g>
   <g id="matplotlib.axis_1">
    <g id="xtick_1">
     <g id="line2d_1">
      <defs>
       <path d="M 0 0 
L 0 3.5 
" id="m80c063d77f" style="stroke:#000000;stroke-width:0.8;"/>
      </defs>
      <g>
       <use style="stroke:#000000;stroke-width:0.8;" x="49.745006" xlink:href="#m80c063d77f" y="165.918125"/>
      </g>
     </g>
     <g id="text_1">
      <!-- $\mathdefault{10^{-2}}$ -->
      <defs>
       <path d="M 12.40625 8.296875 
L 28.515625 8.296875 
L 28.515625 63.921875 
L 10.984375 60.40625 
L 10.984375 69.390625 
L 28.421875 72.90625 
L 38.28125 72.90625 
L 38.28125 8.296875 
L 54.390625 8.296875 
L 54.390625 0 
L 12.40625 0 
z
" id="DejaVuSans-31"/>
       <path d="M 31.78125 66.40625 
Q 24.171875 66.40625 20.328125 58.90625 
Q 16.5 51.421875 16.5 36.375 
Q 16.5 21.390625 20.328125 13.890625 
Q 24.171875 6.390625 31.78125 6.390625 
Q 39.453125 6.390625 43.28125 13.890625 
Q 47.125 21.390625 47.125 36.375 
Q 47.125 51.421875 43.28125 58.90625 
Q 39.453125 66.40625 31.78125 66.40625 
z
M 31.78125 74.21875 
Q 44.046875 74.21875 50.515625 64.515625 
Q 56.984375 54.828125 56.984375 36.375 
Q 56.984375 17.96875 50.515625 8.265625 
Q 44.046875 -1.421875 31.78125 -1.421875 
Q 19.53125 -1.421875 13.0625 8.265625 
Q 6.59375 17.96875 6.59375 36.375 
Q 6.59375 54.828125 13.0625 64.515625 
Q 19.53125 74.21875 31.78125 74.21875 
z
" id="DejaVuSans-30"/>
       <path d="M 10.59375 35.5 
L 73.1875 35.5 
L 73.1875 27.203125 
L 10.59375 27.203125 
z
" id="DejaVuSans-2212"/>
       <path d="M 19.1875 8.296875 
L 53.609375 8.296875 
L 53.609375 0 
L 7.328125 0 
L 7.328125 8.296875 
Q 12.9375 14.109375 22.625 23.890625 
Q 32.328125 33.6875 34.8125 36.53125 
Q 39.546875 41.84375 41.421875 45.53125 
Q 43.3125 49.21875 43.3125 52.78125 
Q 43.3125 58.59375 39.234375 62.25 
Q 35.15625 65.921875 28.609375 65.921875 
Q 23.96875 65.921875 18.8125 64.3125 
Q 13.671875 62.703125 7.8125 59.421875 
L 7.8125 69.390625 
Q 13.765625 71.78125 18.9375 73 
Q 24.125 74.21875 28.421875 74.21875 
Q 39.75 74.21875 46.484375 68.546875 
Q 53.21875 62.890625 53.21875 53.421875 
Q 53.21875 48.921875 51.53125 44.890625 
Q 49.859375 40.875 45.40625 35.40625 
Q 44.1875 33.984375 37.640625 27.21875 
Q 31.109375 20.453125 19.1875 8.296875 
z
" id="DejaVuSans-32"/>
      </defs>
      <g transform="translate(37.995006 180.516562)scale(0.1 -0.1)">
       <use transform="translate(0 0.765625)" xlink:href="#DejaVuSans-31"/>
       <use transform="translate(63.623047 0.765625)" xlink:href="#DejaVuSans-30"/>
       <use transform="translate(128.203125 39.046875)scale(0.7)" xlink:href="#DejaVuSans-2212"/>
       <use transform="translate(186.855469 39.046875)scale(0.7)" xlink:href="#DejaVuSans-32"/>
      </g>
     </g>
    </g>
    <g id="xtick_2">
     <g id="line2d_2">
      <g>
       <use style="stroke:#000000;stroke-width:0.8;" x="109.382561" xlink:href="#m80c063d77f" y="165.918125"/>
      </g>
     </g>
     <g id="text_2">
      <!-- $\mathdefault{10^{-1}}$ -->
      <g transform="translate(97.632561 180.516562)scale(0.1 -0.1)">
       <use transform="translate(0 0.684375)" xlink:href="#DejaVuSans-31"/>
       <use transform="translate(63.623047 0.684375)" xlink:href="#DejaVuSans-30"/>
       <use transform="translate(128.203125 38.965625)scale(0.7)" xlink:href="#DejaVuSans-2212"/>
       <use transform="translate(186.855469 38.965625)scale(0.7)" xlink:href="#DejaVuSans-31"/>
      </g>
     </g>
    </g>
    <g id="xtick_3">
     <g id="line2d_3">
      <g>
       <use style="stroke:#000000;stroke-width:0.8;" x="169.020117" xlink:href="#m80c063d77f" y="165.918125"/>
      </g>
     </g>
     <g id="text_3">
      <!-- $\mathdefault{10^{0}}$ -->
      <g transform="translate(160.220117 180.516562)scale(0.1 -0.1)">
       <use transform="translate(0 0.765625)" xlink:href="#DejaVuSans-31"/>
       <use transform="translate(63.623047 0.765625)" xlink:href="#DejaVuSans-30"/>
       <use transform="translate(128.203125 39.046875)scale(0.7)" xlink:href="#DejaVuSans-30"/>
      </g>
     </g>
    </g>
    <g id="xtick_4">
     <g id="line2d_4">
      <defs>
       <path d="M 0 0 
L 0 2 
" id="m220d73cc1b" style="stroke:#000000;stroke-width:0.6;"/>
      </defs>
      <g>
       <use style="stroke:#000000;stroke-width:0.6;" x="43.965529" xlink:href="#m220d73cc1b" y="165.918125"/>
      </g>
     </g>
    </g>
    <g id="xtick_5">
     <g id="line2d_5">
      <g>
       <use style="stroke:#000000;stroke-width:0.6;" x="47.016141" xlink:href="#m220d73cc1b" y="165.918125"/>
      </g>
     </g>
    </g>
    <g id="xtick_6">
     <g id="line2d_6">
      <g>
       <use style="stroke:#000000;stroke-width:0.6;" x="67.697699" xlink:href="#m220d73cc1b" y="165.918125"/>
      </g>
     </g>
    </g>
    <g id="xtick_7">
     <g id="line2d_7">
      <g>
       <use style="stroke:#000000;stroke-width:0.6;" x="78.199351" xlink:href="#m220d73cc1b" y="165.918125"/>
      </g>
     </g>
    </g>
    <g id="xtick_8">
     <g id="line2d_8">
      <g>
       <use style="stroke:#000000;stroke-width:0.6;" x="85.650392" xlink:href="#m220d73cc1b" y="165.918125"/>
      </g>
     </g>
    </g>
    <g id="xtick_9">
     <g id="line2d_9">
      <g>
       <use style="stroke:#000000;stroke-width:0.6;" x="91.429868" xlink:href="#m220d73cc1b" y="165.918125"/>
      </g>
     </g>
    </g>
    <g id="xtick_10">
     <g id="line2d_10">
      <g>
       <use style="stroke:#000000;stroke-width:0.6;" x="96.152044" xlink:href="#m220d73cc1b" y="165.918125"/>
      </g>
     </g>
    </g>
    <g id="xtick_11">
     <g id="line2d_11">
      <g>
       <use style="stroke:#000000;stroke-width:0.6;" x="100.144587" xlink:href="#m220d73cc1b" y="165.918125"/>
      </g>
     </g>
    </g>
    <g id="xtick_12">
     <g id="line2d_12">
      <g>
       <use style="stroke:#000000;stroke-width:0.6;" x="103.603085" xlink:href="#m220d73cc1b" y="165.918125"/>
      </g>
     </g>
    </g>
    <g id="xtick_13">
     <g id="line2d_13">
      <g>
       <use style="stroke:#000000;stroke-width:0.6;" x="106.653696" xlink:href="#m220d73cc1b" y="165.918125"/>
      </g>
     </g>
    </g>
    <g id="xtick_14">
     <g id="line2d_14">
      <g>
       <use style="stroke:#000000;stroke-width:0.6;" x="127.335254" xlink:href="#m220d73cc1b" y="165.918125"/>
      </g>
     </g>
    </g>
    <g id="xtick_15">
     <g id="line2d_15">
      <g>
       <use style="stroke:#000000;stroke-width:0.6;" x="137.836907" xlink:href="#m220d73cc1b" y="165.918125"/>
      </g>
     </g>
    </g>
    <g id="xtick_16">
     <g id="line2d_16">
      <g>
       <use style="stroke:#000000;stroke-width:0.6;" x="145.287948" xlink:href="#m220d73cc1b" y="165.918125"/>
      </g>
     </g>
    </g>
    <g id="xtick_17">
     <g id="line2d_17">
      <g>
       <use style="stroke:#000000;stroke-width:0.6;" x="151.067424" xlink:href="#m220d73cc1b" y="165.918125"/>
      </g>
     </g>
    </g>
    <g id="xtick_18">
     <g id="line2d_18">
      <g>
       <use style="stroke:#000000;stroke-width:0.6;" x="155.7896" xlink:href="#m220d73cc1b" y="165.918125"/>
      </g>
     </g>
    </g>
    <g id="xtick_19">
     <g id="line2d_19">
      <g>
       <use style="stroke:#000000;stroke-width:0.6;" x="159.782143" xlink:href="#m220d73cc1b" y="165.918125"/>
      </g>
     </g>
    </g>
    <g id="xtick_20">
     <g id="line2d_20">
      <g>
       <use style="stroke:#000000;stroke-width:0.6;" x="163.240641" xlink:href="#m220d73cc1b" y="165.918125"/>
      </g>
     </g>
    </g>
    <g id="xtick_21">
     <g id="line2d_21">
      <g>
       <use style="stroke:#000000;stroke-width:0.6;" x="166.291252" xlink:href="#m220d73cc1b" y="165.918125"/>
      </g>
     </g>
    </g>
    <g id="text_4">
     <!-- Relative effect size -->
     <defs>
      <path d="M 44.390625 34.1875 
Q 47.5625 33.109375 50.5625 29.59375 
Q 53.5625 26.078125 56.59375 19.921875 
L 66.609375 0 
L 56 0 
L 46.6875 18.703125 
Q 43.0625 26.03125 39.671875 28.421875 
Q 36.28125 30.8125 30.421875 30.8125 
L 19.671875 30.8125 
L 19.671875 0 
L 9.8125 0 
L 9.8125 72.90625 
L 32.078125 72.90625 
Q 44.578125 72.90625 50.734375 67.671875 
Q 56.890625 62.453125 56.890625 51.90625 
Q 56.890625 45.015625 53.6875 40.46875 
Q 50.484375 35.9375 44.390625 34.1875 
z
M 19.671875 64.796875 
L 19.671875 38.921875 
L 32.078125 38.921875 
Q 39.203125 38.921875 42.84375 42.21875 
Q 46.484375 45.515625 46.484375 51.90625 
Q 46.484375 58.296875 42.84375 61.546875 
Q 39.203125 64.796875 32.078125 64.796875 
z
" id="DejaVuSans-52"/>
      <path d="M 56.203125 29.59375 
L 56.203125 25.203125 
L 14.890625 25.203125 
Q 15.484375 15.921875 20.484375 11.0625 
Q 25.484375 6.203125 34.421875 6.203125 
Q 39.59375 6.203125 44.453125 7.46875 
Q 49.3125 8.734375 54.109375 11.28125 
L 54.109375 2.78125 
Q 49.265625 0.734375 44.1875 -0.34375 
Q 39.109375 -1.421875 33.890625 -1.421875 
Q 20.796875 -1.421875 13.15625 6.1875 
Q 5.515625 13.8125 5.515625 26.8125 
Q 5.515625 40.234375 12.765625 48.109375 
Q 20.015625 56 32.328125 56 
Q 43.359375 56 49.78125 48.890625 
Q 56.203125 41.796875 56.203125 29.59375 
z
M 47.21875 32.234375 
Q 47.125 39.59375 43.09375 43.984375 
Q 39.0625 48.390625 32.421875 48.390625 
Q 24.90625 48.390625 20.390625 44.140625 
Q 15.875 39.890625 15.1875 32.171875 
z
" id="DejaVuSans-65"/>
      <path d="M 9.421875 75.984375 
L 18.40625 75.984375 
L 18.40625 0 
L 9.421875 0 
z
" id="DejaVuSans-6c"/>
      <path d="M 34.28125 27.484375 
Q 23.390625 27.484375 19.1875 25 
Q 14.984375 22.515625 14.984375 16.5 
Q 14.984375 11.71875 18.140625 8.90625 
Q 21.296875 6.109375 26.703125 6.109375 
Q 34.1875 6.109375 38.703125 11.40625 
Q 43.21875 16.703125 43.21875 25.484375 
L 43.21875 27.484375 
z
M 52.203125 31.203125 
L 52.203125 0 
L 43.21875 0 
L 43.21875 8.296875 
Q 40.140625 3.328125 35.546875 0.953125 
Q 30.953125 -1.421875 24.3125 -1.421875 
Q 15.921875 -1.421875 10.953125 3.296875 
Q 6 8.015625 6 15.921875 
Q 6 25.140625 12.171875 29.828125 
Q 18.359375 34.515625 30.609375 34.515625 
L 43.21875 34.515625 
L 43.21875 35.40625 
Q 43.21875 41.609375 39.140625 45 
Q 35.0625 48.390625 27.6875 48.390625 
Q 23 48.390625 18.546875 47.265625 
Q 14.109375 46.140625 10.015625 43.890625 
L 10.015625 52.203125 
Q 14.9375 54.109375 19.578125 55.046875 
Q 24.21875 56 28.609375 56 
Q 40.484375 56 46.34375 49.84375 
Q 52.203125 43.703125 52.203125 31.203125 
z
" id="DejaVuSans-61"/>
      <path d="M 18.3125 70.21875 
L 18.3125 54.6875 
L 36.8125 54.6875 
L 36.8125 47.703125 
L 18.3125 47.703125 
L 18.3125 18.015625 
Q 18.3125 11.328125 20.140625 9.421875 
Q 21.96875 7.515625 27.59375 7.515625 
L 36.8125 7.515625 
L 36.8125 0 
L 27.59375 0 
Q 17.1875 0 13.234375 3.875 
Q 9.28125 7.765625 9.28125 18.015625 
L 9.28125 47.703125 
L 2.6875 47.703125 
L 2.6875 54.6875 
L 9.28125 54.6875 
L 9.28125 70.21875 
z
" id="DejaVuSans-74"/>
      <path d="M 9.421875 54.6875 
L 18.40625 54.6875 
L 18.40625 0 
L 9.421875 0 
z
M 9.421875 75.984375 
L 18.40625 75.984375 
L 18.40625 64.59375 
L 9.421875 64.59375 
z
" id="DejaVuSans-69"/>
      <path d="M 2.984375 54.6875 
L 12.5 54.6875 
L 29.59375 8.796875 
L 46.6875 54.6875 
L 56.203125 54.6875 
L 35.6875 0 
L 23.484375 0 
z
" id="DejaVuSans-76"/>
      <path id="DejaVuSans-20"/>
      <path d="M 37.109375 75.984375 
L 37.109375 68.5 
L 28.515625 68.5 
Q 23.6875 68.5 21.796875 66.546875 
Q 19.921875 64.59375 19.921875 59.515625 
L 19.921875 54.6875 
L 34.71875 54.6875 
L 34.71875 47.703125 
L 19.921875 47.703125 
L 19.921875 0 
L 10.890625 0 
L 10.890625 47.703125 
L 2.296875 47.703125 
L 2.296875 54.6875 
L 10.890625 54.6875 
L 10.890625 58.5 
Q 10.890625 67.625 15.140625 71.796875 
Q 19.390625 75.984375 28.609375 75.984375 
z
" id="DejaVuSans-66"/>
      <path d="M 48.78125 52.59375 
L 48.78125 44.1875 
Q 44.96875 46.296875 41.140625 47.34375 
Q 37.3125 48.390625 33.40625 48.390625 
Q 24.65625 48.390625 19.8125 42.84375 
Q 14.984375 37.3125 14.984375 27.296875 
Q 14.984375 17.28125 19.8125 11.734375 
Q 24.65625 6.203125 33.40625 6.203125 
Q 37.3125 6.203125 41.140625 7.25 
Q 44.96875 8.296875 48.78125 10.40625 
L 48.78125 2.09375 
Q 45.015625 0.34375 40.984375 -0.53125 
Q 36.96875 -1.421875 32.421875 -1.421875 
Q 20.0625 -1.421875 12.78125 6.34375 
Q 5.515625 14.109375 5.515625 27.296875 
Q 5.515625 40.671875 12.859375 48.328125 
Q 20.21875 56 33.015625 56 
Q 37.15625 56 41.109375 55.140625 
Q 45.0625 54.296875 48.78125 52.59375 
z
" id="DejaVuSans-63"/>
      <path d="M 44.28125 53.078125 
L 44.28125 44.578125 
Q 40.484375 46.53125 36.375 47.5 
Q 32.28125 48.484375 27.875 48.484375 
Q 21.1875 48.484375 17.84375 46.4375 
Q 14.5 44.390625 14.5 40.28125 
Q 14.5 37.15625 16.890625 35.375 
Q 19.28125 33.59375 26.515625 31.984375 
L 29.59375 31.296875 
Q 39.15625 29.25 43.1875 25.515625 
Q 47.21875 21.78125 47.21875 15.09375 
Q 47.21875 7.46875 41.1875 3.015625 
Q 35.15625 -1.421875 24.609375 -1.421875 
Q 20.21875 -1.421875 15.453125 -0.5625 
Q 10.6875 0.296875 5.421875 2 
L 5.421875 11.28125 
Q 10.40625 8.6875 15.234375 7.390625 
Q 20.0625 6.109375 24.8125 6.109375 
Q 31.15625 6.109375 34.5625 8.28125 
Q 37.984375 10.453125 37.984375 14.40625 
Q 37.984375 18.0625 35.515625 20.015625 
Q 33.0625 21.96875 24.703125 23.78125 
L 21.578125 24.515625 
Q 13.234375 26.265625 9.515625 29.90625 
Q 5.8125 33.546875 5.8125 39.890625 
Q 5.8125 47.609375 11.28125 51.796875 
Q 16.75 56 26.8125 56 
Q 31.78125 56 36.171875 55.265625 
Q 40.578125 54.546875 44.28125 53.078125 
z
" id="DejaVuSans-73"/>
      <path d="M 5.515625 54.6875 
L 48.1875 54.6875 
L 48.1875 46.484375 
L 14.40625 7.171875 
L 48.1875 7.171875 
L 48.1875 0 
L 4.296875 0 
L 4.296875 8.203125 
L 38.09375 47.515625 
L 5.515625 47.515625 
z
" id="DejaVuSans-7a"/>
     </defs>
     <g transform="translate(61.741155 194.194687)scale(0.1 -0.1)">
      <use xlink:href="#DejaVuSans-52"/>
      <use x="69.419922" xlink:href="#DejaVuSans-65"/>
      <use x="130.943359" xlink:href="#DejaVuSans-6c"/>
      <use x="158.726562" xlink:href="#DejaVuSans-61"/>
      <use x="220.005859" xlink:href="#DejaVuSans-74"/>
      <use x="259.214844" xlink:href="#DejaVuSans-69"/>
      <use x="286.998047" xlink:href="#DejaVuSans-76"/>
      <use x="346.177734" xlink:href="#DejaVuSans-65"/>
      <use x="407.701172" xlink:href="#DejaVuSans-20"/>
      <use x="439.488281" xlink:href="#DejaVuSans-65"/>
      <use x="501.011719" xlink:href="#DejaVuSans-66"/>
      <use x="536.216797" xlink:href="#DejaVuSans-66"/>
      <use x="571.421875" xlink:href="#DejaVuSans-65"/>
      <use x="632.945312" xlink:href="#DejaVuSans-63"/>
      <use x="687.925781" xlink:href="#DejaVuSans-74"/>
      <use x="727.134766" xlink:href="#DejaVuSans-20"/>
      <use x="758.921875" xlink:href="#DejaVuSans-73"/>
      <use x="811.021484" xlink:href="#DejaVuSans-69"/>
      <use x="838.804688" xlink:href="#DejaVuSans-7a"/>
      <use x="891.294922" xlink:href="#DejaVuSans-65"/>
     </g>
    </g>
   </g>
   <g id="matplotlib.axis_2">
    <g id="ytick_1">
     <g id="line2d_22">
      <defs>
       <path d="M 0 0 
L -3.5 0 
" id="m285fe66b28" style="stroke:#000000;stroke-width:0.8;"/>
      </defs>
      <g>
       <use style="stroke:#000000;stroke-width:0.8;" x="43.78125" xlink:href="#m285fe66b28" y="165.918125"/>
      </g>
     </g>
     <g id="text_5">
      <!-- 0.0 -->
      <defs>
       <path d="M 10.6875 12.40625 
L 21 12.40625 
L 21 0 
L 10.6875 0 
z
" id="DejaVuSans-2e"/>
      </defs>
      <g transform="translate(20.878125 169.717344)scale(0.1 -0.1)">
       <use xlink:href="#DejaVuSans-30"/>
       <use x="63.623047" xlink:href="#DejaVuSans-2e"/>
       <use x="95.410156" xlink:href="#DejaVuSans-30"/>
      </g>
     </g>
    </g>
    <g id="ytick_2">
     <g id="line2d_23">
      <g>
       <use style="stroke:#000000;stroke-width:0.8;" x="43.78125" xlink:href="#m285fe66b28" y="137.198125"/>
      </g>
     </g>
     <g id="text_6">
      <!-- 0.2 -->
      <g transform="translate(20.878125 140.997344)scale(0.1 -0.1)">
       <use xlink:href="#DejaVuSans-30"/>
       <use x="63.623047" xlink:href="#DejaVuSans-2e"/>
       <use x="95.410156" xlink:href="#DejaVuSans-32"/>
      </g>
     </g>
    </g>
    <g id="ytick_3">
     <g id="line2d_24">
      <g>
       <use style="stroke:#000000;stroke-width:0.8;" x="43.78125" xlink:href="#m285fe66b28" y="108.478125"/>
      </g>
     </g>
     <g id="text_7">
      <!-- 0.4 -->
      <defs>
       <path d="M 37.796875 64.3125 
L 12.890625 25.390625 
L 37.796875 25.390625 
z
M 35.203125 72.90625 
L 47.609375 72.90625 
L 47.609375 25.390625 
L 58.015625 25.390625 
L 58.015625 17.1875 
L 47.609375 17.1875 
L 47.609375 0 
L 37.796875 0 
L 37.796875 17.1875 
L 4.890625 17.1875 
L 4.890625 26.703125 
z
" id="DejaVuSans-34"/>
      </defs>
      <g transform="translate(20.878125 112.277344)scale(0.1 -0.1)">
       <use xlink:href="#DejaVuSans-30"/>
       <use x="63.623047" xlink:href="#DejaVuSans-2e"/>
       <use x="95.410156" xlink:href="#DejaVuSans-34"/>
      </g>
     </g>
    </g>
    <g id="ytick_4">
     <g id="line2d_25">
      <g>
       <use style="stroke:#000000;stroke-width:0.8;" x="43.78125" xlink:href="#m285fe66b28" y="79.758125"/>
      </g>
     </g>
     <g id="text_8">
      <!-- 0.6 -->
      <defs>
       <path d="M 33.015625 40.375 
Q 26.375 40.375 22.484375 35.828125 
Q 18.609375 31.296875 18.609375 23.390625 
Q 18.609375 15.53125 22.484375 10.953125 
Q 26.375 6.390625 33.015625 6.390625 
Q 39.65625 6.390625 43.53125 10.953125 
Q 47.40625 15.53125 47.40625 23.390625 
Q 47.40625 31.296875 43.53125 35.828125 
Q 39.65625 40.375 33.015625 40.375 
z
M 52.59375 71.296875 
L 52.59375 62.3125 
Q 48.875 64.0625 45.09375 64.984375 
Q 41.3125 65.921875 37.59375 65.921875 
Q 27.828125 65.921875 22.671875 59.328125 
Q 17.53125 52.734375 16.796875 39.40625 
Q 19.671875 43.65625 24.015625 45.921875 
Q 28.375 48.1875 33.59375 48.1875 
Q 44.578125 48.1875 50.953125 41.515625 
Q 57.328125 34.859375 57.328125 23.390625 
Q 57.328125 12.15625 50.6875 5.359375 
Q 44.046875 -1.421875 33.015625 -1.421875 
Q 20.359375 -1.421875 13.671875 8.265625 
Q 6.984375 17.96875 6.984375 36.375 
Q 6.984375 53.65625 15.1875 63.9375 
Q 23.390625 74.21875 37.203125 74.21875 
Q 40.921875 74.21875 44.703125 73.484375 
Q 48.484375 72.75 52.59375 71.296875 
z
" id="DejaVuSans-36"/>
      </defs>
      <g transform="translate(20.878125 83.557344)scale(0.1 -0.1)">
       <use xlink:href="#DejaVuSans-30"/>
       <use x="63.623047" xlink:href="#DejaVuSans-2e"/>
       <use x="95.410156" xlink:href="#DejaVuSans-36"/>
      </g>
     </g>
    </g>
    <g id="ytick_5">
     <g id="line2d_26">
      <g>
       <use style="stroke:#000000;stroke-width:0.8;" x="43.78125" xlink:href="#m285fe66b28" y="51.038125"/>
      </g>
     </g>
     <g id="text_9">
      <!-- 0.8 -->
      <defs>
       <path d="M 31.78125 34.625 
Q 24.75 34.625 20.71875 30.859375 
Q 16.703125 27.09375 16.703125 20.515625 
Q 16.703125 13.921875 20.71875 10.15625 
Q 24.75 6.390625 31.78125 6.390625 
Q 38.8125 6.390625 42.859375 10.171875 
Q 46.921875 13.96875 46.921875 20.515625 
Q 46.921875 27.09375 42.890625 30.859375 
Q 38.875 34.625 31.78125 34.625 
z
M 21.921875 38.8125 
Q 15.578125 40.375 12.03125 44.71875 
Q 8.5 49.078125 8.5 55.328125 
Q 8.5 64.0625 14.71875 69.140625 
Q 20.953125 74.21875 31.78125 74.21875 
Q 42.671875 74.21875 48.875 69.140625 
Q 55.078125 64.0625 55.078125 55.328125 
Q 55.078125 49.078125 51.53125 44.71875 
Q 48 40.375 41.703125 38.8125 
Q 48.828125 37.15625 52.796875 32.3125 
Q 56.78125 27.484375 56.78125 20.515625 
Q 56.78125 9.90625 50.3125 4.234375 
Q 43.84375 -1.421875 31.78125 -1.421875 
Q 19.734375 -1.421875 13.25 4.234375 
Q 6.78125 9.90625 6.78125 20.515625 
Q 6.78125 27.484375 10.78125 32.3125 
Q 14.796875 37.15625 21.921875 38.8125 
z
M 18.3125 54.390625 
Q 18.3125 48.734375 21.84375 45.5625 
Q 25.390625 42.390625 31.78125 42.390625 
Q 38.140625 42.390625 41.71875 45.5625 
Q 45.3125 48.734375 45.3125 54.390625 
Q 45.3125 60.0625 41.71875 63.234375 
Q 38.140625 66.40625 31.78125 66.40625 
Q 25.390625 66.40625 21.84375 63.234375 
Q 18.3125 60.0625 18.3125 54.390625 
z
" id="DejaVuSans-38"/>
      </defs>
      <g transform="translate(20.878125 54.837344)scale(0.1 -0.1)">
       <use xlink:href="#DejaVuSans-30"/>
       <use x="63.623047" xlink:href="#DejaVuSans-2e"/>
       <use x="95.410156" xlink:href="#DejaVuSans-38"/>
      </g>
     </g>
    </g>
    <g id="ytick_6">
     <g id="line2d_27">
      <g>
       <use style="stroke:#000000;stroke-width:0.8;" x="43.78125" xlink:href="#m285fe66b28" y="22.318125"/>
      </g>
     </g>
     <g id="text_10">
      <!-- 1.0 -->
      <g transform="translate(20.878125 26.117344)scale(0.1 -0.1)">
       <use xlink:href="#DejaVuSans-31"/>
       <use x="63.623047" xlink:href="#DejaVuSans-2e"/>
       <use x="95.410156" xlink:href="#DejaVuSans-30"/>
      </g>
     </g>
    </g>
    <g id="text_11">
     <!-- Power at level $5 \times 10^{-6}$ -->
     <defs>
      <path d="M 19.671875 64.796875 
L 19.671875 37.40625 
L 32.078125 37.40625 
Q 38.96875 37.40625 42.71875 40.96875 
Q 46.484375 44.53125 46.484375 51.125 
Q 46.484375 57.671875 42.71875 61.234375 
Q 38.96875 64.796875 32.078125 64.796875 
z
M 9.8125 72.90625 
L 32.078125 72.90625 
Q 44.34375 72.90625 50.609375 67.359375 
Q 56.890625 61.8125 56.890625 51.125 
Q 56.890625 40.328125 50.609375 34.8125 
Q 44.34375 29.296875 32.078125 29.296875 
L 19.671875 29.296875 
L 19.671875 0 
L 9.8125 0 
z
" id="DejaVuSans-50"/>
      <path d="M 30.609375 48.390625 
Q 23.390625 48.390625 19.1875 42.75 
Q 14.984375 37.109375 14.984375 27.296875 
Q 14.984375 17.484375 19.15625 11.84375 
Q 23.34375 6.203125 30.609375 6.203125 
Q 37.796875 6.203125 41.984375 11.859375 
Q 46.1875 17.53125 46.1875 27.296875 
Q 46.1875 37.015625 41.984375 42.703125 
Q 37.796875 48.390625 30.609375 48.390625 
z
M 30.609375 56 
Q 42.328125 56 49.015625 48.375 
Q 55.71875 40.765625 55.71875 27.296875 
Q 55.71875 13.875 49.015625 6.21875 
Q 42.328125 -1.421875 30.609375 -1.421875 
Q 18.84375 -1.421875 12.171875 6.21875 
Q 5.515625 13.875 5.515625 27.296875 
Q 5.515625 40.765625 12.171875 48.375 
Q 18.84375 56 30.609375 56 
z
" id="DejaVuSans-6f"/>
      <path d="M 4.203125 54.6875 
L 13.1875 54.6875 
L 24.421875 12.015625 
L 35.59375 54.6875 
L 46.1875 54.6875 
L 57.421875 12.015625 
L 68.609375 54.6875 
L 77.59375 54.6875 
L 63.28125 0 
L 52.6875 0 
L 40.921875 44.828125 
L 29.109375 0 
L 18.5 0 
z
" id="DejaVuSans-77"/>
      <path d="M 41.109375 46.296875 
Q 39.59375 47.171875 37.8125 47.578125 
Q 36.03125 48 33.890625 48 
Q 26.265625 48 22.1875 43.046875 
Q 18.109375 38.09375 18.109375 28.8125 
L 18.109375 0 
L 9.078125 0 
L 9.078125 54.6875 
L 18.109375 54.6875 
L 18.109375 46.1875 
Q 20.953125 51.171875 25.484375 53.578125 
Q 30.03125 56 36.53125 56 
Q 37.453125 56 38.578125 55.875 
Q 39.703125 55.765625 41.0625 55.515625 
z
" id="DejaVuSans-72"/>
      <path d="M 10.796875 72.90625 
L 49.515625 72.90625 
L 49.515625 64.59375 
L 19.828125 64.59375 
L 19.828125 46.734375 
Q 21.96875 47.46875 24.109375 47.828125 
Q 26.265625 48.1875 28.421875 48.1875 
Q 40.625 48.1875 47.75 41.5 
Q 54.890625 34.8125 54.890625 23.390625 
Q 54.890625 11.625 47.5625 5.09375 
Q 40.234375 -1.421875 26.90625 -1.421875 
Q 22.3125 -1.421875 17.546875 -0.640625 
Q 12.796875 0.140625 7.71875 1.703125 
L 7.71875 11.625 
Q 12.109375 9.234375 16.796875 8.0625 
Q 21.484375 6.890625 26.703125 6.890625 
Q 35.15625 6.890625 40.078125 11.328125 
Q 45.015625 15.765625 45.015625 23.390625 
Q 45.015625 31 40.078125 35.4375 
Q 35.15625 39.890625 26.703125 39.890625 
Q 22.75 39.890625 18.8125 39.015625 
Q 14.890625 38.140625 10.796875 36.28125 
z
" id="DejaVuSans-35"/>
      <path d="M 70.125 53.71875 
L 47.796875 31.296875 
L 70.125 8.984375 
L 64.3125 3.078125 
L 41.890625 25.484375 
L 19.484375 3.078125 
L 13.71875 8.984375 
L 35.984375 31.296875 
L 13.71875 53.71875 
L 19.484375 59.625 
L 41.890625 37.203125 
L 64.3125 59.625 
z
" id="DejaVuSans-d7"/>
     </defs>
     <g transform="translate(14.798438 152.168125)rotate(-90)scale(0.1 -0.1)">
      <use transform="translate(0 0.765625)" xlink:href="#DejaVuSans-50"/>
      <use transform="translate(60.302734 0.765625)" xlink:href="#DejaVuSans-6f"/>
      <use transform="translate(121.484375 0.765625)" xlink:href="#DejaVuSans-77"/>
      <use transform="translate(203.271484 0.765625)" xlink:href="#DejaVuSans-65"/>
      <use transform="translate(264.794922 0.765625)" xlink:href="#DejaVuSans-72"/>
      <use transform="translate(305.908203 0.765625)" xlink:href="#DejaVuSans-20"/>
      <use transform="translate(337.695312 0.765625)" xlink:href="#DejaVuSans-61"/>
      <use transform="translate(398.974609 0.765625)" xlink:href="#DejaVuSans-74"/>
      <use transform="translate(438.183594 0.765625)" xlink:href="#DejaVuSans-20"/>
      <use transform="translate(469.970703 0.765625)" xlink:href="#DejaVuSans-6c"/>
      <use transform="translate(497.753906 0.765625)" xlink:href="#DejaVuSans-65"/>
      <use transform="translate(559.277344 0.765625)" xlink:href="#DejaVuSans-76"/>
      <use transform="translate(618.457031 0.765625)" xlink:href="#DejaVuSans-65"/>
      <use transform="translate(679.980469 0.765625)" xlink:href="#DejaVuSans-6c"/>
      <use transform="translate(707.763672 0.765625)" xlink:href="#DejaVuSans-20"/>
      <use transform="translate(739.550781 0.765625)" xlink:href="#DejaVuSans-35"/>
      <use transform="translate(822.65625 0.765625)" xlink:href="#DejaVuSans-d7"/>
      <use transform="translate(925.927734 0.765625)" xlink:href="#DejaVuSans-31"/>
      <use transform="translate(989.550781 0.765625)" xlink:href="#DejaVuSans-30"/>
      <use transform="translate(1054.130859 39.046875)scale(0.7)" xlink:href="#DejaVuSans-2212"/>
      <use transform="translate(1112.783203 39.046875)scale(0.7)" xlink:href="#DejaVuSans-36"/>
     </g>
    </g>
   </g>
   <g id="line2d_28">
    <path clip-path="url(#pb3c0d275e5)" d="M 49.745006 165.917618 
L 50.949805 165.91761 
L 52.154604 165.917601 
L 53.359403 165.917592 
L 54.564202 165.917582 
L 55.769001 165.917571 
L 56.9738 165.91756 
L 58.178599 165.917547 
L 59.383398 165.917534 
L 60.588198 165.91752 
L 61.792997 165.917505 
L 62.997796 165.917489 
L 64.202595 165.917472 
L 65.407394 165.917453 
L 66.612193 165.917433 
L 67.816992 165.917411 
L 69.021791 165.917388 
L 70.22659 165.917363 
L 71.431389 165.917336 
L 72.636189 165.917306 
L 73.840988 165.917274 
L 75.045787 165.917239 
L 76.250586 165.917201 
L 77.455385 165.917159 
L 78.660184 165.917113 
L 79.864983 165.917063 
L 81.069782 165.917009 
L 82.274581 165.916948 
L 83.479381 165.916882 
L 84.68418 165.916808 
L 85.888979 165.916727 
L 87.093778 165.916637 
L 88.298577 165.916536 
L 89.503376 165.916424 
L 90.708175 165.916298 
L 91.912974 165.916157 
L 93.117773 165.915997 
L 94.322572 165.915818 
L 95.527372 165.915614 
L 96.732171 165.915382 
L 97.93697 165.915118 
L 99.141769 165.914815 
L 100.346568 165.914466 
L 101.551367 165.914064 
L 102.756166 165.913598 
L 103.960965 165.913056 
L 105.165764 165.912423 
L 106.370564 165.91168 
L 107.575363 165.910803 
L 108.780162 165.909765 
L 109.984961 165.908529 
L 111.18976 165.907052 
L 112.394559 165.905275 
L 113.599358 165.903129 
L 114.804157 165.900522 
L 116.008956 165.897339 
L 117.213755 165.893432 
L 118.418555 165.888608 
L 119.623354 165.882619 
L 120.828153 165.875144 
L 122.032952 165.865759 
L 123.237751 165.853912 
L 124.44255 165.83887 
L 125.647349 165.819667 
L 126.852148 165.795016 
L 128.056947 165.763204 
L 129.261747 165.721935 
L 130.466546 165.668132 
L 131.671345 165.597659 
L 132.876144 165.504948 
L 134.080943 165.382499 
L 135.285742 165.220211 
L 136.490541 165.004501 
L 137.69534 164.717145 
L 138.900139 164.333796 
L 140.104939 163.822118 
L 141.309738 163.139504 
L 142.514537 162.230411 
L 143.719336 161.023428 
L 144.924135 159.428373 
L 146.128934 157.333959 
L 147.333733 154.606927 
L 148.538532 151.093957 
L 149.743331 146.628089 
L 150.94813 141.041634 
L 152.15293 134.187304 
L 153.357729 125.968257 
L 154.562528 116.375391 
L 155.767327 105.526576 
L 156.972126 93.698009 
L 158.176925 81.33409 
L 159.381724 69.021857 
L 160.586523 57.421995 
L 161.791322 47.161951 
L 162.996122 38.714909 
L 164.200921 32.302886 
L 165.40572 27.862143 
L 166.610519 25.088584 
L 167.815318 23.546307 
L 169.020117 22.793522 
" style="fill:none;stroke:#ffd006;stroke-linecap:square;"/>
   </g>
   <g id="line2d_29">
    <path clip-path="url(#pb3c0d275e5)" d="M 123.038142 165.918125 
L 123.038142 22.318125 
" style="fill:none;stroke:#bfbfbf;stroke-dasharray:3.7,1.6;stroke-dashoffset:0;"/>
   </g>
   <g id="line2d_30">
    <path clip-path="url(#pb3c0d275e5)" d="M 43.78125 165.906009 
L 174.983873 165.906009 
" style="fill:none;stroke:#bfbfbf;stroke-dasharray:3.7,1.6;stroke-dashoffset:0;"/>
   </g>
   <g id="line2d_31">
    <path clip-path="url(#pb3c0d275e5)" d="M 49.745006 165.917667 
L 50.949805 165.917661 
L 52.154604 165.917656 
L 53.359403 165.91765 
L 54.564202 165.917643 
L 55.769001 165.917637 
L 56.9738 165.91763 
L 58.178599 165.917622 
L 59.383398 165.917614 
L 60.588198 165.917605 
L 61.792997 165.917596 
L 62.997796 165.917586 
L 64.202595 165.917576 
L 65.407394 165.917565 
L 66.612193 165.917553 
L 67.816992 165.91754 
L 69.021791 165.917527 
L 70.22659 165.917512 
L 71.431389 165.917496 
L 72.636189 165.91748 
L 73.840988 165.917462 
L 75.045787 165.917442 
L 76.250586 165.917421 
L 77.455385 165.917399 
L 78.660184 165.917374 
L 79.864983 165.917348 
L 81.069782 165.91732 
L 82.274581 165.917289 
L 83.479381 165.917255 
L 84.68418 165.917218 
L 85.888979 165.917178 
L 87.093778 165.917134 
L 88.298577 165.917087 
L 89.503376 165.917034 
L 90.708175 165.916976 
L 91.912974 165.916913 
L 93.117773 165.916842 
L 94.322572 165.916765 
L 95.527372 165.916679 
L 96.732171 165.916583 
L 97.93697 165.916476 
L 99.141769 165.916356 
L 100.346568 165.916222 
L 101.551367 165.916071 
L 102.756166 165.915901 
L 103.960965 165.915709 
L 105.165764 165.91549 
L 106.370564 165.915241 
L 107.575363 165.914956 
L 108.780162 165.914629 
L 109.984961 165.914253 
L 111.18976 165.913817 
L 112.394559 165.913311 
L 113.599358 165.912721 
L 114.804157 165.912029 
L 116.008956 165.911216 
L 117.213755 165.910255 
L 118.418555 165.909113 
L 119.623354 165.907751 
L 120.828153 165.906117 
L 122.032952 165.904147 
L 123.237751 165.90176 
L 124.44255 165.898853 
L 125.647349 165.895293 
L 126.852148 165.890909 
L 128.056947 165.88548 
L 129.261747 165.87872 
L 130.466546 165.870255 
L 131.671345 165.859596 
L 132.876144 165.846097 
L 134.080943 165.828906 
L 135.285742 165.806894 
L 136.490541 165.778553 
L 137.69534 165.741872 
L 138.900139 165.694157 
L 140.104939 165.631788 
L 141.309738 165.549894 
L 142.514537 165.441918 
L 143.719336 165.299027 
L 144.924135 165.109331 
L 146.128934 164.856859 
L 147.333733 164.52023 
L 148.538532 164.070965 
L 149.743331 163.471391 
L 150.94813 162.672145 
L 152.15293 161.609334 
L 153.357729 160.201572 
L 154.562528 158.3473 
L 155.767327 155.923123 
L 156.972126 152.784276 
L 158.176925 148.768783 
L 159.381724 143.707192 
L 160.586523 137.439833 
L 161.791322 129.842882 
L 162.996122 120.862795 
L 164.200921 110.555609 
L 165.40572 99.123345 
L 166.610519 86.93538 
L 167.815318 74.520378 
L 169.020117 62.517142 
" style="fill:none;stroke:#ff7600;stroke-linecap:square;"/>
   </g>
   <g id="line2d_32">
    <path clip-path="url(#pb3c0d275e5)" d="M 123.038142 165.918125 
L 123.038142 22.318125 
" style="fill:none;stroke:#bfbfbf;stroke-dasharray:3.7,1.6;stroke-dashoffset:0;"/>
   </g>
   <g id="line2d_33">
    <path clip-path="url(#pb3c0d275e5)" d="M 43.78125 165.906009 
L 174.983873 165.906009 
" style="fill:none;stroke:#bfbfbf;stroke-dasharray:3.7,1.6;stroke-dashoffset:0;"/>
   </g>
   <g id="line2d_34">
    <path clip-path="url(#pb3c0d275e5)" d="M 49.745006 165.917687 
L 50.949805 165.917683 
L 52.154604 165.917678 
L 53.359403 165.917674 
L 54.564202 165.917669 
L 55.769001 165.917663 
L 56.9738 165.917658 
L 58.178599 165.917652 
L 59.383398 165.917646 
L 60.588198 165.917639 
L 61.792997 165.917632 
L 62.997796 165.917625 
L 64.202595 165.917617 
L 65.407394 165.917608 
L 66.612193 165.917599 
L 67.816992 165.91759 
L 69.021791 165.91758 
L 70.22659 165.917569 
L 71.431389 165.917557 
L 72.636189 165.917545 
L 73.840988 165.917532 
L 75.045787 165.917517 
L 76.250586 165.917502 
L 77.455385 165.917486 
L 78.660184 165.917468 
L 79.864983 165.917449 
L 81.069782 165.917429 
L 82.274581 165.917407 
L 83.479381 165.917383 
L 84.68418 165.917358 
L 85.888979 165.91733 
L 87.093778 165.9173 
L 88.298577 165.917267 
L 89.503376 165.917232 
L 90.708175 165.917193 
L 91.912974 165.917151 
L 93.117773 165.917104 
L 94.322572 165.917053 
L 95.527372 165.916998 
L 96.732171 165.916936 
L 97.93697 165.916868 
L 99.141769 165.916794 
L 100.346568 165.916711 
L 101.551367 165.916618 
L 102.756166 165.916515 
L 103.960965 165.916401 
L 105.165764 165.916272 
L 106.370564 165.916128 
L 107.575363 165.915965 
L 108.780162 165.915781 
L 109.984961 165.915572 
L 111.18976 165.915334 
L 112.394559 165.915063 
L 113.599358 165.914752 
L 114.804157 165.914394 
L 116.008956 165.91398 
L 117.213755 165.913501 
L 118.418555 165.912943 
L 119.623354 165.91229 
L 120.828153 165.911523 
L 122.032952 165.910618 
L 123.237751 165.909545 
L 124.44255 165.908267 
L 125.647349 165.906737 
L 126.852148 165.904896 
L 128.056947 165.902669 
L 129.261747 165.899962 
L 130.466546 165.896653 
L 131.671345 165.892587 
L 132.876144 165.887561 
L 134.080943 165.881316 
L 135.285742 165.873512 
L 136.490541 165.863704 
L 137.69534 165.851308 
L 138.900139 165.835554 
L 140.104939 165.81542 
L 141.309738 165.789547 
L 142.514537 165.756125 
L 143.719336 165.712725 
L 144.924135 165.656092 
L 146.128934 165.581848 
L 147.333733 165.484099 
L 148.538532 165.354905 
L 149.743331 165.183576 
L 150.94813 164.955738 
L 152.15293 164.652123 
L 153.357729 164.247013 
L 154.562528 163.706297 
L 155.767327 162.985111 
L 156.972126 162.025107 
L 158.176925 160.751502 
L 159.381724 159.070226 
L 160.586523 156.865795 
L 161.791322 154.000852 
L 162.996122 150.318801 
L 164.200921 145.651312 
L 165.40572 139.832688 
L 166.610519 132.722703 
L 167.815318 124.238251 
L 169.020117 114.391555 
" style="fill:none;stroke:#d70b00;stroke-linecap:square;"/>
   </g>
   <g id="line2d_35">
    <path clip-path="url(#pb3c0d275e5)" d="M 123.038142 165.918125 
L 123.038142 22.318125 
" style="fill:none;stroke:#bfbfbf;stroke-dasharray:3.7,1.6;stroke-dashoffset:0;"/>
   </g>
   <g id="line2d_36">
    <path clip-path="url(#pb3c0d275e5)" d="M 43.78125 165.906009 
L 174.983873 165.906009 
" style="fill:none;stroke:#bfbfbf;stroke-dasharray:3.7,1.6;stroke-dashoffset:0;"/>
   </g>
   <g id="line2d_37">
    <path clip-path="url(#pb3c0d275e5)" d="M 49.745006 165.917698 
L 50.949805 165.917695 
L 52.154604 165.917691 
L 53.359403 165.917687 
L 54.564202 165.917683 
L 55.769001 165.917679 
L 56.9738 165.917674 
L 58.178599 165.917669 
L 59.383398 165.917664 
L 60.588198 165.917658 
L 61.792997 165.917653 
L 62.997796 165.917646 
L 64.202595 165.91764 
L 65.407394 165.917633 
L 66.612193 165.917625 
L 67.816992 165.917618 
L 69.021791 165.917609 
L 70.22659 165.9176 
L 71.431389 165.917591 
L 72.636189 165.917581 
L 73.840988 165.91757 
L 75.045787 165.917558 
L 76.250586 165.917546 
L 77.455385 165.917533 
L 78.660184 165.917519 
L 79.864983 165.917504 
L 81.069782 165.917487 
L 82.274581 165.91747 
L 83.479381 165.917451 
L 84.68418 165.917431 
L 85.888979 165.917409 
L 87.093778 165.917386 
L 88.298577 165.91736 
L 89.503376 165.917333 
L 90.708175 165.917303 
L 91.912974 165.91727 
L 93.117773 165.917235 
L 94.322572 165.917197 
L 95.527372 165.917155 
L 96.732171 165.917109 
L 97.93697 165.917058 
L 99.141769 165.917003 
L 100.346568 165.916942 
L 101.551367 165.916875 
L 102.756166 165.916801 
L 103.960965 165.916719 
L 105.165764 165.916627 
L 106.370564 165.916525 
L 107.575363 165.916412 
L 108.780162 165.916285 
L 109.984961 165.916142 
L 111.18976 165.915981 
L 112.394559 165.915799 
L 113.599358 165.915592 
L 114.804157 165.915357 
L 116.008956 165.915089 
L 117.213755 165.914782 
L 118.418555 165.914429 
L 119.623354 165.914021 
L 120.828153 165.913548 
L 122.032952 165.912998 
L 123.237751 165.912355 
L 124.44255 165.911599 
L 125.647349 165.910708 
L 126.852148 165.909652 
L 128.056947 165.908395 
L 129.261747 165.90689 
L 130.466546 165.905081 
L 131.671345 165.902893 
L 132.876144 165.900235 
L 134.080943 165.896988 
L 135.285742 165.892998 
L 136.490541 165.888071 
L 137.69534 165.881952 
L 138.900139 165.874308 
L 140.104939 165.864707 
L 141.309738 165.852579 
L 142.514537 165.837172 
L 143.719336 165.817493 
L 144.924135 165.792218 
L 146.128934 165.759583 
L 147.333733 165.717225 
L 148.538532 165.661976 
L 149.743331 165.589577 
L 150.94813 165.494293 
L 152.15293 165.368399 
L 153.357729 165.201493 
L 154.562528 164.979589 
L 155.767327 164.683929 
L 156.972126 164.289465 
L 158.176925 163.762952 
L 159.381724 163.060626 
L 160.586523 162.125508 
L 161.791322 160.884453 
L 162.996122 159.245277 
L 164.200921 157.094522 
L 165.40572 154.2968 
L 166.610519 150.697062 
L 167.815318 146.127579 
L 169.020117 140.421592 
" style="fill:none;stroke:#7c0200;stroke-linecap:square;"/>
   </g>
   <g id="line2d_38">
    <path clip-path="url(#pb3c0d275e5)" d="M 123.038142 165.918125 
L 123.038142 22.318125 
" style="fill:none;stroke:#bfbfbf;stroke-dasharray:3.7,1.6;stroke-dashoffset:0;"/>
   </g>
   <g id="line2d_39">
    <path clip-path="url(#pb3c0d275e5)" d="M 43.78125 165.906009 
L 174.983873 165.906009 
" style="fill:none;stroke:#bfbfbf;stroke-dasharray:3.7,1.6;stroke-dashoffset:0;"/>
   </g>
   <g id="line2d_40">
    <path clip-path="url(#pb3c0d275e5)" d="M 49.745006 165.917706 
L 50.949805 165.917703 
L 52.154604 165.9177 
L 53.359403 165.917696 
L 54.564202 165.917693 
L 55.769001 165.917689 
L 56.9738 165.917685 
L 58.178599 165.91768 
L 59.383398 165.917676 
L 60.588198 165.917671 
L 61.792997 165.917666 
L 62.997796 165.917661 
L 64.202595 165.917655 
L 65.407394 165.917649 
L 66.612193 165.917642 
L 67.816992 165.917636 
L 69.021791 165.917628 
L 70.22659 165.917621 
L 71.431389 165.917613 
L 72.636189 165.917604 
L 73.840988 165.917595 
L 75.045787 165.917585 
L 76.250586 165.917574 
L 77.455385 165.917563 
L 78.660184 165.917551 
L 79.864983 165.917538 
L 81.069782 165.917525 
L 82.274581 165.91751 
L 83.479381 165.917494 
L 84.68418 165.917477 
L 85.888979 165.917459 
L 87.093778 165.917439 
L 88.298577 165.917418 
L 89.503376 165.917395 
L 90.708175 165.917371 
L 91.912974 165.917344 
L 93.117773 165.917315 
L 94.322572 165.917284 
L 95.527372 165.917249 
L 96.732171 165.917212 
L 97.93697 165.917172 
L 99.141769 165.917127 
L 100.346568 165.917079 
L 101.551367 165.917026 
L 102.756166 165.916967 
L 103.960965 165.916903 
L 105.165764 165.916831 
L 106.370564 165.916752 
L 107.575363 165.916665 
L 108.780162 165.916567 
L 109.984961 165.916459 
L 111.18976 165.916337 
L 112.394559 165.916201 
L 113.599358 165.916047 
L 114.804157 165.915874 
L 116.008956 165.915678 
L 117.213755 165.915455 
L 118.418555 165.9152 
L 119.623354 165.91491 
L 120.828153 165.914576 
L 122.032952 165.914191 
L 123.237751 165.913745 
L 124.44255 165.913228 
L 125.647349 165.912623 
L 126.852148 165.911915 
L 128.056947 165.911081 
L 129.261747 165.910095 
L 130.466546 165.908923 
L 131.671345 165.907523 
L 132.876144 165.905843 
L 134.080943 165.903816 
L 135.285742 165.901358 
L 136.490541 165.898361 
L 137.69534 165.894689 
L 138.900139 165.890162 
L 140.104939 165.884553 
L 141.309738 165.877562 
L 142.514537 165.8688 
L 143.719336 165.857758 
L 144.924135 165.843762 
L 146.128934 165.825924 
L 147.333733 165.803063 
L 148.538532 165.773607 
L 149.743331 165.735452 
L 150.94813 165.685783 
L 152.15293 165.620814 
L 153.357729 165.535451 
L 154.562528 165.422835 
L 155.767327 165.273727 
L 156.972126 165.075692 
L 158.176925 164.812037 
L 159.381724 164.460428 
L 160.586523 163.99114 
L 161.791322 163.364906 
L 162.996122 162.530358 
L 164.200921 161.42115 
L 165.40572 159.953006 
L 166.610519 158.021141 
L 167.815318 155.498831 
L 169.020117 152.238333 
" style="fill:none;stroke:#2b0000;stroke-linecap:square;"/>
   </g>
   <g id="line2d_41">
    <path clip-path="url(#pb3c0d275e5)" d="M 123.038142 165.918125 
L 123.038142 22.318125 
" style="fill:none;stroke:#bfbfbf;stroke-dasharray:3.7,1.6;stroke-dashoffset:0;"/>
   </g>
   <g id="line2d_42">
    <path clip-path="url(#pb3c0d275e5)" d="M 43.78125 165.906009 
L 174.983873 165.906009 
" style="fill:none;stroke:#bfbfbf;stroke-dasharray:3.7,1.6;stroke-dashoffset:0;"/>
   </g>
   <g id="patch_3">
    <path d="M 43.78125 165.918125 
L 43.78125 22.318125 
" style="fill:none;stroke:#000000;stroke-linecap:square;stroke-linejoin:miter;stroke-width:0.8;"/>
   </g>
   <g id="patch_4">
    <path d="M 174.983873 165.918125 
L 174.983873 22.318125 
" style="fill:none;stroke:#000000;stroke-linecap:square;stroke-linejoin:miter;stroke-width:0.8;"/>
   </g>
   <g id="patch_5">
    <path d="M 43.78125 165.918125 
L 174.983873 165.918125 
" style="fill:none;stroke:#000000;stroke-linecap:square;stroke-linejoin:miter;stroke-width:0.8;"/>
   </g>
   <g id="patch_6">
    <path d="M 43.78125 22.318125 
L 174.983873 22.318125 
" style="fill:none;stroke:#000000;stroke-linecap:square;stroke-linejoin:miter;stroke-width:0.8;"/>
   </g>
   <g id="text_12">
    <!-- n = 53 -->
    <defs>
     <path d="M 54.890625 33.015625 
L 54.890625 0 
L 45.90625 0 
L 45.90625 32.71875 
Q 45.90625 40.484375 42.875 44.328125 
Q 39.84375 48.1875 33.796875 48.1875 
Q 26.515625 48.1875 22.3125 43.546875 
Q 18.109375 38.921875 18.109375 30.90625 
L 18.109375 0 
L 9.078125 0 
L 9.078125 54.6875 
L 18.109375 54.6875 
L 18.109375 46.1875 
Q 21.34375 51.125 25.703125 53.5625 
Q 30.078125 56 35.796875 56 
Q 45.21875 56 50.046875 50.171875 
Q 54.890625 44.34375 54.890625 33.015625 
z
" id="DejaVuSans-6e"/>
     <path d="M 10.59375 45.40625 
L 73.1875 45.40625 
L 73.1875 37.203125 
L 10.59375 37.203125 
z
M 10.59375 25.484375 
L 73.1875 25.484375 
L 73.1875 17.1875 
L 10.59375 17.1875 
z
" id="DejaVuSans-3d"/>
     <path d="M 40.578125 39.3125 
Q 47.65625 37.796875 51.625 33 
Q 55.609375 28.21875 55.609375 21.1875 
Q 55.609375 10.40625 48.1875 4.484375 
Q 40.765625 -1.421875 27.09375 -1.421875 
Q 22.515625 -1.421875 17.65625 -0.515625 
Q 12.796875 0.390625 7.625 2.203125 
L 7.625 11.71875 
Q 11.71875 9.328125 16.59375 8.109375 
Q 21.484375 6.890625 26.8125 6.890625 
Q 36.078125 6.890625 40.9375 10.546875 
Q 45.796875 14.203125 45.796875 21.1875 
Q 45.796875 27.640625 41.28125 31.265625 
Q 36.765625 34.90625 28.71875 34.90625 
L 20.21875 34.90625 
L 20.21875 43.015625 
L 29.109375 43.015625 
Q 36.375 43.015625 40.234375 45.921875 
Q 44.09375 48.828125 44.09375 54.296875 
Q 44.09375 59.90625 40.109375 62.90625 
Q 36.140625 65.921875 28.71875 65.921875 
Q 24.65625 65.921875 20.015625 65.03125 
Q 15.375 64.15625 9.8125 62.3125 
L 9.8125 71.09375 
Q 15.4375 72.65625 20.34375 73.4375 
Q 25.25 74.21875 29.59375 74.21875 
Q 40.828125 74.21875 47.359375 69.109375 
Q 53.90625 64.015625 53.90625 55.328125 
Q 53.90625 49.265625 50.4375 45.09375 
Q 46.96875 40.921875 40.578125 39.3125 
z
" id="DejaVuSans-33"/>
    </defs>
    <g transform="translate(89.103499 16.318125)scale(0.12 -0.12)">
     <use xlink:href="#DejaVuSans-6e"/>
     <use x="63.378906" xlink:href="#DejaVuSans-20"/>
     <use x="95.166016" xlink:href="#DejaVuSans-3d"/>
     <use x="178.955078" xlink:href="#DejaVuSans-20"/>
     <use x="210.742188" xlink:href="#DejaVuSans-35"/>
     <use x="274.365234" xlink:href="#DejaVuSans-33"/>
    </g>
   </g>
  </g>
  <g id="axes_2">
   <g id="patch_7">
    <path d="M 196.945999 165.918125 
L 328.148622 165.918125 
L 328.148622 22.318125 
L 196.945999 22.318125 
z
" style="fill:#ffffff;"/>
   </g>
   <g id="matplotlib.axis_3">
    <g id="xtick_22">
     <g id="line2d_43">
      <g>
       <use style="stroke:#000000;stroke-width:0.8;" x="202.909754" xlink:href="#m80c063d77f" y="165.918125"/>
      </g>
     </g>
     <g id="text_13">
      <!-- $\mathdefault{10^{-2}}$ -->
      <g transform="translate(191.159754 180.516562)scale(0.1 -0.1)">
       <use transform="translate(0 0.765625)" xlink:href="#DejaVuSans-31"/>
       <use transform="translate(63.623047 0.765625)" xlink:href="#DejaVuSans-30"/>
       <use transform="translate(128.203125 39.046875)scale(0.7)" xlink:href="#DejaVuSans-2212"/>
       <use transform="translate(186.855469 39.046875)scale(0.7)" xlink:href="#DejaVuSans-32"/>
      </g>
     </g>
    </g>
    <g id="xtick_23">
     <g id="line2d_44">
      <g>
       <use style="stroke:#000000;stroke-width:0.8;" x="262.54731" xlink:href="#m80c063d77f" y="165.918125"/>
      </g>
     </g>
     <g id="text_14">
      <!-- $\mathdefault{10^{-1}}$ -->
      <g transform="translate(250.79731 180.516562)scale(0.1 -0.1)">
       <use transform="translate(0 0.684375)" xlink:href="#DejaVuSans-31"/>
       <use transform="translate(63.623047 0.684375)" xlink:href="#DejaVuSans-30"/>
       <use transform="translate(128.203125 38.965625)scale(0.7)" xlink:href="#DejaVuSans-2212"/>
       <use transform="translate(186.855469 38.965625)scale(0.7)" xlink:href="#DejaVuSans-31"/>
      </g>
     </g>
    </g>
    <g id="xtick_24">
     <g id="line2d_45">
      <g>
       <use style="stroke:#000000;stroke-width:0.8;" x="322.184866" xlink:href="#m80c063d77f" y="165.918125"/>
      </g>
     </g>
     <g id="text_15">
      <!-- $\mathdefault{10^{0}}$ -->
      <g transform="translate(313.384866 180.516562)scale(0.1 -0.1)">
       <use transform="translate(0 0.765625)" xlink:href="#DejaVuSans-31"/>
       <use transform="translate(63.623047 0.765625)" xlink:href="#DejaVuSans-30"/>
       <use transform="translate(128.203125 39.046875)scale(0.7)" xlink:href="#DejaVuSans-30"/>
      </g>
     </g>
    </g>
    <g id="xtick_25">
     <g id="line2d_46">
      <g>
       <use style="stroke:#000000;stroke-width:0.6;" x="197.130278" xlink:href="#m220d73cc1b" y="165.918125"/>
      </g>
     </g>
    </g>
    <g id="xtick_26">
     <g id="line2d_47">
      <g>
       <use style="stroke:#000000;stroke-width:0.6;" x="200.18089" xlink:href="#m220d73cc1b" y="165.918125"/>
      </g>
     </g>
    </g>
    <g id="xtick_27">
     <g id="line2d_48">
      <g>
       <use style="stroke:#000000;stroke-width:0.6;" x="220.862448" xlink:href="#m220d73cc1b" y="165.918125"/>
      </g>
     </g>
    </g>
    <g id="xtick_28">
     <g id="line2d_49">
      <g>
       <use style="stroke:#000000;stroke-width:0.6;" x="231.3641" xlink:href="#m220d73cc1b" y="165.918125"/>
      </g>
     </g>
    </g>
    <g id="xtick_29">
     <g id="line2d_50">
      <g>
       <use style="stroke:#000000;stroke-width:0.6;" x="238.815141" xlink:href="#m220d73cc1b" y="165.918125"/>
      </g>
     </g>
    </g>
    <g id="xtick_30">
     <g id="line2d_51">
      <g>
       <use style="stroke:#000000;stroke-width:0.6;" x="244.594617" xlink:href="#m220d73cc1b" y="165.918125"/>
      </g>
     </g>
    </g>
    <g id="xtick_31">
     <g id="line2d_52">
      <g>
       <use style="stroke:#000000;stroke-width:0.6;" x="249.316793" xlink:href="#m220d73cc1b" y="165.918125"/>
      </g>
     </g>
    </g>
    <g id="xtick_32">
     <g id="line2d_53">
      <g>
       <use style="stroke:#000000;stroke-width:0.6;" x="253.309336" xlink:href="#m220d73cc1b" y="165.918125"/>
      </g>
     </g>
    </g>
    <g id="xtick_33">
     <g id="line2d_54">
      <g>
       <use style="stroke:#000000;stroke-width:0.6;" x="256.767834" xlink:href="#m220d73cc1b" y="165.918125"/>
      </g>
     </g>
    </g>
    <g id="xtick_34">
     <g id="line2d_55">
      <g>
       <use style="stroke:#000000;stroke-width:0.6;" x="259.818445" xlink:href="#m220d73cc1b" y="165.918125"/>
      </g>
     </g>
    </g>
    <g id="xtick_35">
     <g id="line2d_56">
      <g>
       <use style="stroke:#000000;stroke-width:0.6;" x="280.500003" xlink:href="#m220d73cc1b" y="165.918125"/>
      </g>
     </g>
    </g>
    <g id="xtick_36">
     <g id="line2d_57">
      <g>
       <use style="stroke:#000000;stroke-width:0.6;" x="291.001656" xlink:href="#m220d73cc1b" y="165.918125"/>
      </g>
     </g>
    </g>
    <g id="xtick_37">
     <g id="line2d_58">
      <g>
       <use style="stroke:#000000;stroke-width:0.6;" x="298.452697" xlink:href="#m220d73cc1b" y="165.918125"/>
      </g>
     </g>
    </g>
    <g id="xtick_38">
     <g id="line2d_59">
      <g>
       <use style="stroke:#000000;stroke-width:0.6;" x="304.232173" xlink:href="#m220d73cc1b" y="165.918125"/>
      </g>
     </g>
    </g>
    <g id="xtick_39">
     <g id="line2d_60">
      <g>
       <use style="stroke:#000000;stroke-width:0.6;" x="308.954349" xlink:href="#m220d73cc1b" y="165.918125"/>
      </g>
     </g>
    </g>
    <g id="xtick_40">
     <g id="line2d_61">
      <g>
       <use style="stroke:#000000;stroke-width:0.6;" x="312.946892" xlink:href="#m220d73cc1b" y="165.918125"/>
      </g>
     </g>
    </g>
    <g id="xtick_41">
     <g id="line2d_62">
      <g>
       <use style="stroke:#000000;stroke-width:0.6;" x="316.40539" xlink:href="#m220d73cc1b" y="165.918125"/>
      </g>
     </g>
    </g>
    <g id="xtick_42">
     <g id="line2d_63">
      <g>
       <use style="stroke:#000000;stroke-width:0.6;" x="319.456001" xlink:href="#m220d73cc1b" y="165.918125"/>
      </g>
     </g>
    </g>
    <g id="text_16">
     <!-- Relative effect size -->
     <g transform="translate(214.905904 194.194687)scale(0.1 -0.1)">
      <use xlink:href="#DejaVuSans-52"/>
      <use x="69.419922" xlink:href="#DejaVuSans-65"/>
      <use x="130.943359" xlink:href="#DejaVuSans-6c"/>
      <use x="158.726562" xlink:href="#DejaVuSans-61"/>
      <use x="220.005859" xlink:href="#DejaVuSans-74"/>
      <use x="259.214844" xlink:href="#DejaVuSans-69"/>
      <use x="286.998047" xlink:href="#DejaVuSans-76"/>
      <use x="346.177734" xlink:href="#DejaVuSans-65"/>
      <use x="407.701172" xlink:href="#DejaVuSans-20"/>
      <use x="439.488281" xlink:href="#DejaVuSans-65"/>
      <use x="501.011719" xlink:href="#DejaVuSans-66"/>
      <use x="536.216797" xlink:href="#DejaVuSans-66"/>
      <use x="571.421875" xlink:href="#DejaVuSans-65"/>
      <use x="632.945312" xlink:href="#DejaVuSans-63"/>
      <use x="687.925781" xlink:href="#DejaVuSans-74"/>
      <use x="727.134766" xlink:href="#DejaVuSans-20"/>
      <use x="758.921875" xlink:href="#DejaVuSans-73"/>
      <use x="811.021484" xlink:href="#DejaVuSans-69"/>
      <use x="838.804688" xlink:href="#DejaVuSans-7a"/>
      <use x="891.294922" xlink:href="#DejaVuSans-65"/>
     </g>
    </g>
   </g>
   <g id="matplotlib.axis_4">
    <g id="ytick_7">
     <g id="line2d_64">
      <g>
       <use style="stroke:#000000;stroke-width:0.8;" x="196.945999" xlink:href="#m285fe66b28" y="165.918125"/>
      </g>
     </g>
    </g>
    <g id="ytick_8">
     <g id="line2d_65">
      <g>
       <use style="stroke:#000000;stroke-width:0.8;" x="196.945999" xlink:href="#m285fe66b28" y="137.198125"/>
      </g>
     </g>
    </g>
    <g id="ytick_9">
     <g id="line2d_66">
      <g>
       <use style="stroke:#000000;stroke-width:0.8;" x="196.945999" xlink:href="#m285fe66b28" y="108.478125"/>
      </g>
     </g>
    </g>
    <g id="ytick_10">
     <g id="line2d_67">
      <g>
       <use style="stroke:#000000;stroke-width:0.8;" x="196.945999" xlink:href="#m285fe66b28" y="79.758125"/>
      </g>
     </g>
    </g>
    <g id="ytick_11">
     <g id="line2d_68">
      <g>
       <use style="stroke:#000000;stroke-width:0.8;" x="196.945999" xlink:href="#m285fe66b28" y="51.038125"/>
      </g>
     </g>
    </g>
    <g id="ytick_12">
     <g id="line2d_69">
      <g>
       <use style="stroke:#000000;stroke-width:0.8;" x="196.945999" xlink:href="#m285fe66b28" y="22.318125"/>
      </g>
     </g>
    </g>
   </g>
   <g id="line2d_70">
    <path clip-path="url(#p0dba749945)" d="M 202.909754 165.914815 
L 204.114554 165.914467 
L 205.319353 165.914065 
L 206.524152 165.913599 
L 207.728951 165.913058 
L 208.93375 165.912424 
L 210.138549 165.911681 
L 211.343348 165.910805 
L 212.548147 165.909767 
L 213.752946 165.908532 
L 214.957746 165.907055 
L 216.162545 165.90528 
L 217.367344 165.903134 
L 218.572143 165.900529 
L 219.776942 165.897347 
L 220.981741 165.893441 
L 222.18654 165.888619 
L 223.391339 165.882634 
L 224.596138 165.875162 
L 225.800937 165.865782 
L 227.005737 165.853941 
L 228.210536 165.838907 
L 229.415335 165.819714 
L 230.620134 165.795077 
L 231.824933 165.763282 
L 233.029732 165.722037 
L 234.234531 165.668265 
L 235.43933 165.597834 
L 236.644129 165.505179 
L 237.848929 165.382804 
L 239.053728 165.220616 
L 240.258527 165.00504 
L 241.463326 164.717863 
L 242.668125 164.334754 
L 243.872924 163.823397 
L 245.077723 163.141209 
L 246.282522 162.232679 
L 247.487321 161.026434 
L 248.692121 159.432335 
L 249.89692 157.339142 
L 251.101719 154.613643 
L 252.306518 151.102558 
L 253.511317 146.638944 
L 254.716116 141.055094 
L 255.920915 134.203648 
L 257.125714 125.987614 
L 258.330513 116.397657 
L 259.535312 105.551331 
L 260.740112 93.72447 
L 261.944911 81.36112 
L 263.14971 69.048069 
L 264.354509 57.445946 
L 265.559308 47.182401 
L 266.764107 38.731079 
L 267.968906 32.314604 
L 269.173705 27.869838 
L 270.378504 25.093106 
L 271.583304 23.548653 
L 272.788103 22.794579 
L 273.992902 22.47641 
L 275.197701 22.362379 
L 276.4025 22.328318 
L 277.607299 22.320014 
L 278.812098 22.3184 
L 280.016897 22.318155 
L 281.221696 22.318127 
L 282.426495 22.318125 
L 283.631295 22.318125 
L 284.836094 22.318125 
L 286.040893 22.318125 
L 287.245692 22.318125 
L 288.450491 22.318125 
L 289.65529 22.318125 
L 290.860089 22.318125 
L 292.064888 22.318125 
L 293.269687 22.318125 
L 294.474487 22.318125 
L 295.679286 22.318125 
L 296.884085 22.318125 
L 298.088884 22.318125 
L 299.293683 22.318125 
L 300.498482 22.318125 
L 301.703281 22.318125 
L 302.90808 22.318125 
L 304.112879 22.318125 
L 305.317678 22.318125 
L 306.522478 22.318125 
L 307.727277 22.318125 
L 308.932076 22.318125 
L 310.136875 22.318125 
L 311.341674 22.318125 
L 312.546473 22.318125 
L 313.751272 22.318125 
L 314.956071 22.318125 
L 316.16087 22.318125 
L 317.36567 22.318125 
L 318.570469 22.318125 
L 319.775268 22.318125 
L 320.980067 22.318125 
L 322.184866 22.318125 
" style="fill:none;stroke:#ffd006;stroke-linecap:square;"/>
   </g>
   <g id="line2d_71">
    <path clip-path="url(#p0dba749945)" d="M 276.202891 165.918125 
L 276.202891 22.318125 
" style="fill:none;stroke:#bfbfbf;stroke-dasharray:3.7,1.6;stroke-dashoffset:0;"/>
   </g>
   <g id="line2d_72">
    <path clip-path="url(#p0dba749945)" d="M 196.945999 51.000677 
L 328.148622 51.000677 
" style="fill:none;stroke:#bfbfbf;stroke-dasharray:3.7,1.6;stroke-dashoffset:0;"/>
   </g>
   <g id="line2d_73">
    <path clip-path="url(#p0dba749945)" d="M 202.909754 165.916357 
L 204.114554 165.916223 
L 205.319353 165.916072 
L 206.524152 165.915902 
L 207.728951 165.915709 
L 208.93375 165.915491 
L 210.138549 165.915242 
L 211.343348 165.914957 
L 212.548147 165.91463 
L 213.752946 165.914253 
L 214.957746 165.913818 
L 216.162545 165.913312 
L 217.367344 165.912722 
L 218.572143 165.912031 
L 219.776942 165.911218 
L 220.981741 165.910257 
L 222.18654 165.909116 
L 223.391339 165.907754 
L 224.596138 165.906121 
L 225.800937 165.904152 
L 227.005737 165.901766 
L 228.210536 165.89886 
L 229.415335 165.895301 
L 230.620134 165.890919 
L 231.824933 165.885493 
L 233.029732 165.878736 
L 234.234531 165.870276 
L 235.43933 165.859622 
L 236.644129 165.84613 
L 237.848929 165.828949 
L 239.053728 165.806948 
L 240.258527 165.778622 
L 241.463326 165.741963 
L 242.668125 165.694275 
L 243.872924 165.631942 
L 245.077723 165.550097 
L 246.282522 165.442187 
L 247.487321 165.299383 
L 248.692121 165.109804 
L 249.89692 164.85749 
L 251.101719 164.521072 
L 252.306518 164.072088 
L 253.511317 163.472889 
L 254.716116 162.67414 
L 255.920915 161.611983 
L 257.125714 160.205073 
L 258.330513 158.351896 
L 259.535312 155.929106 
L 260.740112 152.791983 
L 261.944911 148.778577 
L 263.14971 143.719438 
L 264.354509 137.454851 
L 265.559308 129.860878 
L 266.764107 120.883782 
L 267.968906 110.579318 
L 269.173705 99.149158 
L 270.378504 86.962314 
L 271.583304 74.547139 
L 272.788103 62.542283 
L 273.992902 51.605151 
L 275.197701 42.29319 
L 276.4025 34.950877 
L 277.607299 29.643029 
L 278.812098 26.163878 
L 280.016897 24.121363 
L 281.221696 23.061855 
L 282.426495 22.583455 
L 283.631295 22.398503 
L 284.836094 22.338383 
L 286.040893 22.322279 
L 287.245692 22.318801 
L 288.450491 22.31821 
L 289.65529 22.318133 
L 290.860089 22.318126 
L 292.064888 22.318125 
L 293.269687 22.318125 
L 294.474487 22.318125 
L 295.679286 22.318125 
L 296.884085 22.318125 
L 298.088884 22.318125 
L 299.293683 22.318125 
L 300.498482 22.318125 
L 301.703281 22.318125 
L 302.90808 22.318125 
L 304.112879 22.318125 
L 305.317678 22.318125 
L 306.522478 22.318125 
L 307.727277 22.318125 
L 308.932076 22.318125 
L 310.136875 22.318125 
L 311.341674 22.318125 
L 312.546473 22.318125 
L 313.751272 22.318125 
L 314.956071 22.318125 
L 316.16087 22.318125 
L 317.36567 22.318125 
L 318.570469 22.318125 
L 319.775268 22.318125 
L 320.980067 22.318125 
L 322.184866 22.318125 
" style="fill:none;stroke:#ff7600;stroke-linecap:square;"/>
   </g>
   <g id="line2d_74">
    <path clip-path="url(#p0dba749945)" d="M 276.202891 165.918125 
L 276.202891 22.318125 
" style="fill:none;stroke:#bfbfbf;stroke-dasharray:3.7,1.6;stroke-dashoffset:0;"/>
   </g>
   <g id="line2d_75">
    <path clip-path="url(#p0dba749945)" d="M 196.945999 51.000677 
L 328.148622 51.000677 
" style="fill:none;stroke:#bfbfbf;stroke-dasharray:3.7,1.6;stroke-dashoffset:0;"/>
   </g>
   <g id="line2d_76">
    <path clip-path="url(#p0dba749945)" d="M 202.909754 165.916794 
L 204.114554 165.916711 
L 205.319353 165.916618 
L 206.524152 165.916516 
L 207.728951 165.916401 
L 208.93375 165.916272 
L 210.138549 165.916128 
L 211.343348 165.915965 
L 212.548147 165.915781 
L 213.752946 165.915572 
L 214.957746 165.915335 
L 216.162545 165.915063 
L 217.367344 165.914752 
L 218.572143 165.914395 
L 219.776942 165.913981 
L 220.981741 165.913502 
L 222.18654 165.912944 
L 223.391339 165.912291 
L 224.596138 165.911525 
L 225.800937 165.91062 
L 227.005737 165.909548 
L 228.210536 165.90827 
L 229.415335 165.906741 
L 230.620134 165.9049 
L 231.824933 165.902675 
L 233.029732 165.899969 
L 234.234531 165.896661 
L 235.43933 165.892597 
L 236.644129 165.887573 
L 237.848929 165.881331 
L 239.053728 165.873531 
L 240.258527 165.863728 
L 241.463326 165.851338 
L 242.668125 165.835592 
L 243.872924 165.815469 
L 245.077723 165.789611 
L 246.282522 165.756207 
L 247.487321 165.712832 
L 248.692121 165.656232 
L 249.89692 165.582032 
L 251.101719 165.484342 
L 252.306518 165.355227 
L 253.511317 165.184003 
L 254.716116 164.956307 
L 255.920915 164.652882 
L 257.125714 164.248026 
L 258.330513 163.707649 
L 259.535312 162.986912 
L 260.740112 162.027501 
L 261.944911 160.754672 
L 263.14971 159.074399 
L 264.354509 156.871245 
L 265.559308 154.007901 
L 266.764107 150.327804 
L 267.968906 145.662639 
L 269.173705 139.846682 
L 270.378504 132.739619 
L 271.583304 124.258181 
L 272.788103 114.41434 
L 273.992902 103.35395 
L 275.197701 91.385153 
L 276.4025 78.982549 
L 277.607299 66.753722 
L 278.812098 55.362135 
L 280.016897 45.415192 
L 281.221696 37.344584 
L 282.426495 31.318574 
L 283.631295 27.222127 
L 284.836094 24.716632 
L 286.040893 23.355802 
L 287.245692 22.708861 
L 288.450491 22.443916 
L 289.65529 22.352073 
L 290.860089 22.32564 
L 292.064888 22.319457 
L 293.269687 22.318309 
L 294.474487 22.318144 
L 295.679286 22.318126 
L 296.884085 22.318125 
L 298.088884 22.318125 
L 299.293683 22.318125 
L 300.498482 22.318125 
L 301.703281 22.318125 
L 302.90808 22.318125 
L 304.112879 22.318125 
L 305.317678 22.318125 
L 306.522478 22.318125 
L 307.727277 22.318125 
L 308.932076 22.318125 
L 310.136875 22.318125 
L 311.341674 22.318125 
L 312.546473 22.318125 
L 313.751272 22.318125 
L 314.956071 22.318125 
L 316.16087 22.318125 
L 317.36567 22.318125 
L 318.570469 22.318125 
L 319.775268 22.318125 
L 320.980067 22.318125 
L 322.184866 22.318125 
" style="fill:none;stroke:#d70b00;stroke-linecap:square;"/>
   </g>
   <g id="line2d_77">
    <path clip-path="url(#p0dba749945)" d="M 276.202891 165.918125 
L 276.202891 22.318125 
" style="fill:none;stroke:#bfbfbf;stroke-dasharray:3.7,1.6;stroke-dashoffset:0;"/>
   </g>
   <g id="line2d_78">
    <path clip-path="url(#p0dba749945)" d="M 196.945999 51.000677 
L 328.148622 51.000677 
" style="fill:none;stroke:#bfbfbf;stroke-dasharray:3.7,1.6;stroke-dashoffset:0;"/>
   </g>
   <g id="line2d_79">
    <path clip-path="url(#p0dba749945)" d="M 202.909754 165.917003 
L 204.114554 165.916942 
L 205.319353 165.916875 
L 206.524152 165.916801 
L 207.728951 165.916719 
L 208.93375 165.916627 
L 210.138549 165.916526 
L 211.343348 165.916412 
L 212.548147 165.916285 
L 213.752946 165.916142 
L 214.957746 165.915981 
L 216.162545 165.915799 
L 217.367344 165.915593 
L 218.572143 165.915358 
L 219.776942 165.91509 
L 220.981741 165.914783 
L 222.18654 165.91443 
L 223.391339 165.914022 
L 224.596138 165.913549 
L 225.800937 165.912999 
L 227.005737 165.912356 
L 228.210536 165.911601 
L 229.415335 165.91071 
L 230.620134 165.909655 
L 231.824933 165.908398 
L 233.029732 165.906894 
L 234.234531 165.905085 
L 235.43933 165.902898 
L 236.644129 165.900241 
L 237.848929 165.896995 
L 239.053728 165.893008 
L 240.258527 165.888083 
L 241.463326 165.881966 
L 242.668125 165.874326 
L 243.872924 165.86473 
L 245.077723 165.852608 
L 246.282522 165.83721 
L 247.487321 165.817542 
L 248.692121 165.79228 
L 249.89692 165.759663 
L 251.101719 165.717329 
L 252.306518 165.662113 
L 253.511317 165.589757 
L 254.716116 165.49453 
L 255.920915 165.368712 
L 257.125714 165.20191 
L 258.330513 164.980143 
L 259.535312 164.684668 
L 260.740112 164.290451 
L 261.944911 163.764268 
L 263.14971 163.062381 
L 264.354509 162.127841 
L 265.559308 160.887542 
L 266.764107 159.249346 
L 267.968906 157.099842 
L 269.173705 154.303686 
L 270.378504 150.705869 
L 271.583304 146.138677 
L 272.788103 140.435327 
L 273.992902 133.451967 
L 275.197701 125.098535 
L 276.4025 115.376545 
L 277.607299 104.418061 
L 278.812098 92.515607 
L 280.016897 80.129176 
L 281.221696 67.856663 
L 282.426495 56.360671 
L 283.631295 46.258936 
L 284.836094 38.003818 
L 286.040893 31.789928 
L 287.245692 27.527012 
L 288.450491 24.892774 
L 289.65529 23.445416 
L 290.860089 22.748386 
L 292.064888 22.458769 
L 293.269687 22.356737 
L 294.474487 22.326839 
L 295.679286 22.319703 
L 296.884085 22.318349 
L 298.088884 22.318149 
L 299.293683 22.318127 
L 300.498482 22.318125 
L 301.703281 22.318125 
L 302.90808 22.318125 
L 304.112879 22.318125 
L 305.317678 22.318125 
L 306.522478 22.318125 
L 307.727277 22.318125 
L 308.932076 22.318125 
L 310.136875 22.318125 
L 311.341674 22.318125 
L 312.546473 22.318125 
L 313.751272 22.318125 
L 314.956071 22.318125 
L 316.16087 22.318125 
L 317.36567 22.318125 
L 318.570469 22.318125 
L 319.775268 22.318125 
L 320.980067 22.318125 
L 322.184866 22.318125 
" style="fill:none;stroke:#7c0200;stroke-linecap:square;"/>
   </g>
   <g id="line2d_80">
    <path clip-path="url(#p0dba749945)" d="M 276.202891 165.918125 
L 276.202891 22.318125 
" style="fill:none;stroke:#bfbfbf;stroke-dasharray:3.7,1.6;stroke-dashoffset:0;"/>
   </g>
   <g id="line2d_81">
    <path clip-path="url(#p0dba749945)" d="M 196.945999 51.000677 
L 328.148622 51.000677 
" style="fill:none;stroke:#bfbfbf;stroke-dasharray:3.7,1.6;stroke-dashoffset:0;"/>
   </g>
   <g id="line2d_82">
    <path clip-path="url(#p0dba749945)" d="M 202.909754 165.917128 
L 204.114554 165.917079 
L 205.319353 165.917026 
L 206.524152 165.916967 
L 207.728951 165.916903 
L 208.93375 165.916831 
L 210.138549 165.916753 
L 211.343348 165.916665 
L 212.548147 165.916568 
L 213.752946 165.916459 
L 214.957746 165.916337 
L 216.162545 165.916201 
L 217.367344 165.916047 
L 218.572143 165.915874 
L 219.776942 165.915678 
L 220.981741 165.915455 
L 222.18654 165.915201 
L 223.391339 165.91491 
L 224.596138 165.914577 
L 225.800937 165.914192 
L 227.005737 165.913746 
L 228.210536 165.913229 
L 229.415335 165.912625 
L 230.620134 165.911917 
L 231.824933 165.911083 
L 233.029732 165.910097 
L 234.234531 165.908925 
L 235.43933 165.907526 
L 236.644129 165.905847 
L 237.848929 165.90382 
L 239.053728 165.901364 
L 240.258527 165.898368 
L 241.463326 165.894697 
L 242.668125 165.890173 
L 243.872924 165.884566 
L 245.077723 165.877579 
L 246.282522 165.868822 
L 247.487321 165.857785 
L 248.692121 165.843797 
L 249.89692 165.825968 
L 251.101719 165.803119 
L 252.306518 165.773679 
L 253.511317 165.735547 
L 254.716116 165.685906 
L 255.920915 165.620975 
L 257.125714 165.535663 
L 258.330513 165.423115 
L 259.535312 165.274098 
L 260.740112 165.076186 
L 261.944911 164.812696 
L 263.14971 164.461307 
L 264.354509 163.992313 
L 265.559308 163.366471 
L 266.764107 162.532441 
L 267.968906 161.423914 
L 269.173705 159.956656 
L 270.378504 158.025926 
L 271.583304 155.505052 
L 272.788103 152.246331 
L 273.992902 148.085894 
L 275.197701 142.854448 
L 276.4025 136.395788 
L 277.607299 128.594193 
L 278.812098 119.409895 
L 280.016897 108.91856 
L 281.221696 97.346312 
L 282.426495 85.08764 
L 283.631295 72.691792 
L 284.836094 60.807056 
L 286.040893 50.083655 
L 287.245692 41.053447 
L 288.450491 34.021318 
L 289.65529 29.008613 
L 290.860089 25.774499 
L 292.064888 23.909309 
L 293.269687 22.960896 
L 294.474487 22.54212 
L 295.679286 22.384212 
L 296.884085 22.334294 
L 298.088884 22.321332 
L 299.293683 22.318628 
L 300.498482 22.318186 
L 301.703281 22.31813 
L 302.90808 22.318125 
L 304.112879 22.318125 
L 305.317678 22.318125 
L 306.522478 22.318125 
L 307.727277 22.318125 
L 308.932076 22.318125 
L 310.136875 22.318125 
L 311.341674 22.318125 
L 312.546473 22.318125 
L 313.751272 22.318125 
L 314.956071 22.318125 
L 316.16087 22.318125 
L 317.36567 22.318125 
L 318.570469 22.318125 
L 319.775268 22.318125 
L 320.980067 22.318125 
L 322.184866 22.318125 
" style="fill:none;stroke:#2b0000;stroke-linecap:square;"/>
   </g>
   <g id="line2d_83">
    <path clip-path="url(#p0dba749945)" d="M 276.202891 165.918125 
L 276.202891 22.318125 
" style="fill:none;stroke:#bfbfbf;stroke-dasharray:3.7,1.6;stroke-dashoffset:0;"/>
   </g>
   <g id="line2d_84">
    <path clip-path="url(#p0dba749945)" d="M 196.945999 51.000677 
L 328.148622 51.000677 
" style="fill:none;stroke:#bfbfbf;stroke-dasharray:3.7,1.6;stroke-dashoffset:0;"/>
   </g>
   <g id="patch_8">
    <path d="M 196.945999 165.918125 
L 196.945999 22.318125 
" style="fill:none;stroke:#000000;stroke-linecap:square;stroke-linejoin:miter;stroke-width:0.8;"/>
   </g>
   <g id="patch_9">
    <path d="M 328.148622 165.918125 
L 328.148622 22.318125 
" style="fill:none;stroke:#000000;stroke-linecap:square;stroke-linejoin:miter;stroke-width:0.8;"/>
   </g>
   <g id="patch_10">
    <path d="M 196.945999 165.918125 
L 328.148622 165.918125 
" style="fill:none;stroke:#000000;stroke-linecap:square;stroke-linejoin:miter;stroke-width:0.8;"/>
   </g>
   <g id="patch_11">
    <path d="M 196.945999 22.318125 
L 328.148622 22.318125 
" style="fill:none;stroke:#000000;stroke-linecap:square;stroke-linejoin:miter;stroke-width:0.8;"/>
   </g>
   <g id="text_17">
    <!-- n = 2403 -->
    <g transform="translate(234.633248 16.318125)scale(0.12 -0.12)">
     <use xlink:href="#DejaVuSans-6e"/>
     <use x="63.378906" xlink:href="#DejaVuSans-20"/>
     <use x="95.166016" xlink:href="#DejaVuSans-3d"/>
     <use x="178.955078" xlink:href="#DejaVuSans-20"/>
     <use x="210.742188" xlink:href="#DejaVuSans-32"/>
     <use x="274.365234" xlink:href="#DejaVuSans-34"/>
     <use x="337.988281" xlink:href="#DejaVuSans-30"/>
     <use x="401.611328" xlink:href="#DejaVuSans-33"/>
    </g>
   </g>
  </g>
  <g id="axes_3">
   <g id="patch_12">
    <path d="M 350.110748 165.918125 
L 481.31337 165.918125 
L 481.31337 22.318125 
L 350.110748 22.318125 
z
" style="fill:#ffffff;"/>
   </g>
   <g id="matplotlib.axis_5">
    <g id="xtick_43">
     <g id="line2d_85">
      <g>
       <use style="stroke:#000000;stroke-width:0.8;" x="356.074503" xlink:href="#m80c063d77f" y="165.918125"/>
      </g>
     </g>
     <g id="text_18">
      <!-- $\mathdefault{10^{-2}}$ -->
      <g transform="translate(344.324503 180.516562)scale(0.1 -0.1)">
       <use transform="translate(0 0.765625)" xlink:href="#DejaVuSans-31"/>
       <use transform="translate(63.623047 0.765625)" xlink:href="#DejaVuSans-30"/>
       <use transform="translate(128.203125 39.046875)scale(0.7)" xlink:href="#DejaVuSans-2212"/>
       <use transform="translate(186.855469 39.046875)scale(0.7)" xlink:href="#DejaVuSans-32"/>
      </g>
     </g>
    </g>
    <g id="xtick_44">
     <g id="line2d_86">
      <g>
       <use style="stroke:#000000;stroke-width:0.8;" x="415.712059" xlink:href="#m80c063d77f" y="165.918125"/>
      </g>
     </g>
     <g id="text_19">
      <!-- $\mathdefault{10^{-1}}$ -->
      <g transform="translate(403.962059 180.516562)scale(0.1 -0.1)">
       <use transform="translate(0 0.684375)" xlink:href="#DejaVuSans-31"/>
       <use transform="translate(63.623047 0.684375)" xlink:href="#DejaVuSans-30"/>
       <use transform="translate(128.203125 38.965625)scale(0.7)" xlink:href="#DejaVuSans-2212"/>
       <use transform="translate(186.855469 38.965625)scale(0.7)" xlink:href="#DejaVuSans-31"/>
      </g>
     </g>
    </g>
    <g id="xtick_45">
     <g id="line2d_87">
      <g>
       <use style="stroke:#000000;stroke-width:0.8;" x="475.349615" xlink:href="#m80c063d77f" y="165.918125"/>
      </g>
     </g>
     <g id="text_20">
      <!-- $\mathdefault{10^{0}}$ -->
      <g transform="translate(466.549615 180.516562)scale(0.1 -0.1)">
       <use transform="translate(0 0.765625)" xlink:href="#DejaVuSans-31"/>
       <use transform="translate(63.623047 0.765625)" xlink:href="#DejaVuSans-30"/>
       <use transform="translate(128.203125 39.046875)scale(0.7)" xlink:href="#DejaVuSans-30"/>
      </g>
     </g>
    </g>
    <g id="xtick_46">
     <g id="line2d_88">
      <g>
       <use style="stroke:#000000;stroke-width:0.6;" x="350.295027" xlink:href="#m220d73cc1b" y="165.918125"/>
      </g>
     </g>
    </g>
    <g id="xtick_47">
     <g id="line2d_89">
      <g>
       <use style="stroke:#000000;stroke-width:0.6;" x="353.345639" xlink:href="#m220d73cc1b" y="165.918125"/>
      </g>
     </g>
    </g>
    <g id="xtick_48">
     <g id="line2d_90">
      <g>
       <use style="stroke:#000000;stroke-width:0.6;" x="374.027197" xlink:href="#m220d73cc1b" y="165.918125"/>
      </g>
     </g>
    </g>
    <g id="xtick_49">
     <g id="line2d_91">
      <g>
       <use style="stroke:#000000;stroke-width:0.6;" x="384.528849" xlink:href="#m220d73cc1b" y="165.918125"/>
      </g>
     </g>
    </g>
    <g id="xtick_50">
     <g id="line2d_92">
      <g>
       <use style="stroke:#000000;stroke-width:0.6;" x="391.97989" xlink:href="#m220d73cc1b" y="165.918125"/>
      </g>
     </g>
    </g>
    <g id="xtick_51">
     <g id="line2d_93">
      <g>
       <use style="stroke:#000000;stroke-width:0.6;" x="397.759366" xlink:href="#m220d73cc1b" y="165.918125"/>
      </g>
     </g>
    </g>
    <g id="xtick_52">
     <g id="line2d_94">
      <g>
       <use style="stroke:#000000;stroke-width:0.6;" x="402.481542" xlink:href="#m220d73cc1b" y="165.918125"/>
      </g>
     </g>
    </g>
    <g id="xtick_53">
     <g id="line2d_95">
      <g>
       <use style="stroke:#000000;stroke-width:0.6;" x="406.474085" xlink:href="#m220d73cc1b" y="165.918125"/>
      </g>
     </g>
    </g>
    <g id="xtick_54">
     <g id="line2d_96">
      <g>
       <use style="stroke:#000000;stroke-width:0.6;" x="409.932583" xlink:href="#m220d73cc1b" y="165.918125"/>
      </g>
     </g>
    </g>
    <g id="xtick_55">
     <g id="line2d_97">
      <g>
       <use style="stroke:#000000;stroke-width:0.6;" x="412.983194" xlink:href="#m220d73cc1b" y="165.918125"/>
      </g>
     </g>
    </g>
    <g id="xtick_56">
     <g id="line2d_98">
      <g>
       <use style="stroke:#000000;stroke-width:0.6;" x="433.664752" xlink:href="#m220d73cc1b" y="165.918125"/>
      </g>
     </g>
    </g>
    <g id="xtick_57">
     <g id="line2d_99">
      <g>
       <use style="stroke:#000000;stroke-width:0.6;" x="444.166405" xlink:href="#m220d73cc1b" y="165.918125"/>
      </g>
     </g>
    </g>
    <g id="xtick_58">
     <g id="line2d_100">
      <g>
       <use style="stroke:#000000;stroke-width:0.6;" x="451.617445" xlink:href="#m220d73cc1b" y="165.918125"/>
      </g>
     </g>
    </g>
    <g id="xtick_59">
     <g id="line2d_101">
      <g>
       <use style="stroke:#000000;stroke-width:0.6;" x="457.396922" xlink:href="#m220d73cc1b" y="165.918125"/>
      </g>
     </g>
    </g>
    <g id="xtick_60">
     <g id="line2d_102">
      <g>
       <use style="stroke:#000000;stroke-width:0.6;" x="462.119098" xlink:href="#m220d73cc1b" y="165.918125"/>
      </g>
     </g>
    </g>
    <g id="xtick_61">
     <g id="line2d_103">
      <g>
       <use style="stroke:#000000;stroke-width:0.6;" x="466.111641" xlink:href="#m220d73cc1b" y="165.918125"/>
      </g>
     </g>
    </g>
    <g id="xtick_62">
     <g id="line2d_104">
      <g>
       <use style="stroke:#000000;stroke-width:0.6;" x="469.570139" xlink:href="#m220d73cc1b" y="165.918125"/>
      </g>
     </g>
    </g>
    <g id="xtick_63">
     <g id="line2d_105">
      <g>
       <use style="stroke:#000000;stroke-width:0.6;" x="472.62075" xlink:href="#m220d73cc1b" y="165.918125"/>
      </g>
     </g>
    </g>
    <g id="text_21">
     <!-- Relative effect size -->
     <g transform="translate(368.070653 194.194687)scale(0.1 -0.1)">
      <use xlink:href="#DejaVuSans-52"/>
      <use x="69.419922" xlink:href="#DejaVuSans-65"/>
      <use x="130.943359" xlink:href="#DejaVuSans-6c"/>
      <use x="158.726562" xlink:href="#DejaVuSans-61"/>
      <use x="220.005859" xlink:href="#DejaVuSans-74"/>
      <use x="259.214844" xlink:href="#DejaVuSans-69"/>
      <use x="286.998047" xlink:href="#DejaVuSans-76"/>
      <use x="346.177734" xlink:href="#DejaVuSans-65"/>
      <use x="407.701172" xlink:href="#DejaVuSans-20"/>
      <use x="439.488281" xlink:href="#DejaVuSans-65"/>
      <use x="501.011719" xlink:href="#DejaVuSans-66"/>
      <use x="536.216797" xlink:href="#DejaVuSans-66"/>
      <use x="571.421875" xlink:href="#DejaVuSans-65"/>
      <use x="632.945312" xlink:href="#DejaVuSans-63"/>
      <use x="687.925781" xlink:href="#DejaVuSans-74"/>
      <use x="727.134766" xlink:href="#DejaVuSans-20"/>
      <use x="758.921875" xlink:href="#DejaVuSans-73"/>
      <use x="811.021484" xlink:href="#DejaVuSans-69"/>
      <use x="838.804688" xlink:href="#DejaVuSans-7a"/>
      <use x="891.294922" xlink:href="#DejaVuSans-65"/>
     </g>
    </g>
   </g>
   <g id="matplotlib.axis_6">
    <g id="ytick_13">
     <g id="line2d_106">
      <g>
       <use style="stroke:#000000;stroke-width:0.8;" x="350.110748" xlink:href="#m285fe66b28" y="165.918125"/>
      </g>
     </g>
    </g>
    <g id="ytick_14">
     <g id="line2d_107">
      <g>
       <use style="stroke:#000000;stroke-width:0.8;" x="350.110748" xlink:href="#m285fe66b28" y="137.198125"/>
      </g>
     </g>
    </g>
    <g id="ytick_15">
     <g id="line2d_108">
      <g>
       <use style="stroke:#000000;stroke-width:0.8;" x="350.110748" xlink:href="#m285fe66b28" y="108.478125"/>
      </g>
     </g>
    </g>
    <g id="ytick_16">
     <g id="line2d_109">
      <g>
       <use style="stroke:#000000;stroke-width:0.8;" x="350.110748" xlink:href="#m285fe66b28" y="79.758125"/>
      </g>
     </g>
    </g>
    <g id="ytick_17">
     <g id="line2d_110">
      <g>
       <use style="stroke:#000000;stroke-width:0.8;" x="350.110748" xlink:href="#m285fe66b28" y="51.038125"/>
      </g>
     </g>
    </g>
    <g id="ytick_18">
     <g id="line2d_111">
      <g>
       <use style="stroke:#000000;stroke-width:0.8;" x="350.110748" xlink:href="#m285fe66b28" y="22.318125"/>
      </g>
     </g>
    </g>
   </g>
   <g id="line2d_112">
    <path clip-path="url(#p837a4897ff)" d="M 356.074503 165.916559 
L 357.279303 165.91645 
L 358.484102 165.916327 
L 359.688901 165.91619 
L 360.8937 165.916035 
L 362.098499 165.91586 
L 363.303298 165.915662 
L 364.508097 165.915436 
L 365.712896 165.91518 
L 366.917695 165.914886 
L 368.122494 165.914548 
L 369.327294 165.914159 
L 370.532093 165.913709 
L 371.736892 165.913185 
L 372.941691 165.912573 
L 374.14649 165.911856 
L 375.351289 165.911012 
L 376.556088 165.910013 
L 377.760887 165.908825 
L 378.965686 165.907406 
L 380.170486 165.905702 
L 381.375285 165.903645 
L 382.580084 165.90115 
L 383.784883 165.898108 
L 384.989682 165.894377 
L 386.194481 165.889777 
L 387.39928 165.884074 
L 388.604079 165.876964 
L 389.808878 165.868049 
L 391.013677 165.856808 
L 392.218477 165.842555 
L 393.423276 165.82438 
L 394.628075 165.801079 
L 395.832874 165.771043 
L 397.037673 165.732123 
L 398.242472 165.681438 
L 399.447271 165.615117 
L 400.65207 165.52795 
L 401.856869 165.41292 
L 403.061669 165.260577 
L 404.266468 165.058204 
L 405.471267 164.788731 
L 406.676066 164.429329 
L 407.880865 163.949629 
L 409.085664 163.309539 
L 410.290463 162.456656 
L 411.495262 161.323375 
L 412.700061 159.823944 
L 413.90486 157.851937 
L 415.10966 155.278964 
L 416.314459 151.95582 
L 417.519258 147.717737 
L 418.724057 142.395666 
L 419.928856 135.835463 
L 421.133655 127.925977 
L 422.338454 118.635035 
L 423.543253 108.048934 
L 424.748052 96.406633 
L 425.952852 84.115706 
L 427.157651 71.73573 
L 428.36245 59.919104 
L 429.567249 49.311236 
L 430.772048 40.429722 
L 431.976847 33.558409 
L 433.181646 28.696317 
L 434.386445 25.585311 
L 435.591244 23.807783 
L 436.796043 22.913354 
L 438.000843 22.523014 
L 439.205642 22.377743 
L 440.410441 22.332486 
L 441.61524 22.320924 
L 442.820039 22.318555 
L 444.024838 22.318176 
L 445.229637 22.318129 
L 446.434436 22.318125 
L 447.639235 22.318125 
L 448.844035 22.318125 
L 450.048834 22.318125 
L 451.253633 22.318125 
L 452.458432 22.318125 
L 453.663231 22.318125 
L 454.86803 22.318125 
L 456.072829 22.318125 
L 457.277628 22.318125 
L 458.482427 22.318125 
L 459.687226 22.318125 
L 460.892026 22.318125 
L 462.096825 22.318125 
L 463.301624 22.318125 
L 464.506423 22.318125 
L 465.711222 22.318125 
L 466.916021 22.318125 
L 468.12082 22.318125 
L 469.325619 22.318125 
L 470.530418 22.318125 
L 471.735218 22.318125 
L 472.940017 22.318125 
L 474.144816 22.318125 
L 475.349615 22.318125 
" style="fill:none;stroke:#ffd006;stroke-linecap:square;"/>
   </g>
   <g id="line2d_113">
    <path clip-path="url(#p837a4897ff)" d="M 429.36764 165.918125 
L 429.36764 22.318125 
" style="fill:none;stroke:#bfbfbf;stroke-dasharray:3.7,1.6;stroke-dashoffset:0;"/>
   </g>
   <g id="line2d_114">
    <path clip-path="url(#p837a4897ff)" d="M 350.110748 50.960903 
L 481.31337 50.960903 
" style="fill:none;stroke:#bfbfbf;stroke-dasharray:3.7,1.6;stroke-dashoffset:0;"/>
   </g>
   <g id="line2d_115">
    <path clip-path="url(#p837a4897ff)" d="M 356.074503 165.917098 
L 357.279303 165.917046 
L 358.484102 165.91699 
L 359.688901 165.916927 
L 360.8937 165.916859 
L 362.098499 165.916783 
L 363.303298 165.916699 
L 364.508097 165.916605 
L 365.712896 165.916501 
L 366.917695 165.916384 
L 368.122494 165.916254 
L 369.327294 165.916107 
L 370.532093 165.915941 
L 371.736892 165.915754 
L 372.941691 165.915542 
L 374.14649 165.9153 
L 375.351289 165.915023 
L 376.556088 165.914706 
L 377.760887 165.914342 
L 378.965686 165.91392 
L 380.170486 165.913431 
L 381.375285 165.912861 
L 382.580084 165.912194 
L 383.784883 165.91141 
L 384.989682 165.910484 
L 386.194481 165.909386 
L 387.39928 165.908077 
L 388.604079 165.906508 
L 389.808878 165.90462 
L 391.013677 165.902335 
L 392.218477 165.899555 
L 393.423276 165.896153 
L 394.628075 165.891971 
L 395.832874 165.886797 
L 397.037673 165.880364 
L 398.242472 165.872318 
L 399.447271 165.862199 
L 400.65207 165.849401 
L 401.856869 165.833122 
L 403.061669 165.812303 
L 404.266468 165.785531 
L 405.471267 165.750921 
L 406.676066 165.705949 
L 407.880865 165.647227 
L 409.085664 165.570199 
L 410.290463 165.468728 
L 411.495262 165.334551 
L 412.700061 165.156539 
L 413.90486 164.919738 
L 415.10966 164.60411 
L 416.314459 164.182929 
L 417.519258 163.620778 
L 418.724057 162.871146 
L 419.928856 161.873644 
L 421.133655 160.551047 
L 422.338454 158.806501 
L 423.543253 156.521547 
L 424.748052 153.555995 
L 425.952852 149.751101 
L 427.157651 144.937878 
L 428.36245 138.95253 
L 429.567249 131.660501 
L 430.772048 122.98921 
L 431.976847 112.966775 
L 433.181646 101.759978 
L 434.386445 89.700227 
L 435.591244 77.28327 
L 436.796043 65.129852 
L 438.000843 53.902906 
L 439.205642 44.192577 
L 440.410441 36.39846 
L 441.61524 30.649393 
L 442.820039 26.794546 
L 444.024838 24.472983 
L 445.229637 23.233744 
L 446.434436 22.655951 
L 447.639235 22.424416 
L 448.844035 22.34608 
L 450.048834 22.324137 
L 451.253633 22.319157 
L 452.458432 22.318263 
L 453.663231 22.318139 
L 454.86803 22.318126 
L 456.072829 22.318125 
L 457.277628 22.318125 
L 458.482427 22.318125 
L 459.687226 22.318125 
L 460.892026 22.318125 
L 462.096825 22.318125 
L 463.301624 22.318125 
L 464.506423 22.318125 
L 465.711222 22.318125 
L 466.916021 22.318125 
L 468.12082 22.318125 
L 469.325619 22.318125 
L 470.530418 22.318125 
L 471.735218 22.318125 
L 472.940017 22.318125 
L 474.144816 22.318125 
L 475.349615 22.318125 
" style="fill:none;stroke:#ff7600;stroke-linecap:square;"/>
   </g>
   <g id="line2d_116">
    <path clip-path="url(#p837a4897ff)" d="M 429.36764 165.918125 
L 429.36764 22.318125 
" style="fill:none;stroke:#bfbfbf;stroke-dasharray:3.7,1.6;stroke-dashoffset:0;"/>
   </g>
   <g id="line2d_117">
    <path clip-path="url(#p837a4897ff)" d="M 350.110748 50.960903 
L 481.31337 50.960903 
" style="fill:none;stroke:#bfbfbf;stroke-dasharray:3.7,1.6;stroke-dashoffset:0;"/>
   </g>
   <g id="line2d_118">
    <path clip-path="url(#p837a4897ff)" d="M 356.074503 165.917275 
L 357.279303 165.91724 
L 358.484102 165.917202 
L 359.688901 165.91716 
L 360.8937 165.917115 
L 362.098499 165.917065 
L 363.303298 165.917011 
L 364.508097 165.91695 
L 365.712896 165.916884 
L 366.917695 165.916811 
L 368.122494 165.91673 
L 369.327294 165.91664 
L 370.532093 165.916539 
L 371.736892 165.916427 
L 372.941691 165.916302 
L 374.14649 165.916161 
L 375.351289 165.916003 
L 376.556088 165.915824 
L 377.760887 165.915621 
L 378.965686 165.91539 
L 380.170486 165.915127 
L 381.375285 165.914825 
L 382.580084 165.914478 
L 383.784883 165.914078 
L 384.989682 165.913615 
L 386.194481 165.913075 
L 387.39928 165.912445 
L 388.604079 165.911706 
L 389.808878 165.910834 
L 391.013677 165.909801 
L 392.218477 165.908573 
L 393.423276 165.907104 
L 394.628075 165.905338 
L 395.832874 165.903205 
L 397.037673 165.900615 
L 398.242472 165.897453 
L 399.447271 165.893571 
L 400.65207 165.88878 
L 401.856869 165.882834 
L 403.061669 165.875412 
L 404.266468 165.866097 
L 405.471267 165.854339 
L 406.676066 165.839414 
L 407.880865 165.820364 
L 409.085664 165.795913 
L 410.290463 165.764364 
L 411.495262 165.723443 
L 412.700061 165.670103 
L 413.90486 165.600246 
L 415.10966 165.508358 
L 416.314459 165.38701 
L 417.519258 165.226198 
L 418.724057 165.012468 
L 419.928856 164.727766 
L 421.133655 164.347971 
L 422.338454 163.841038 
L 423.543253 163.16473 
L 424.748052 162.263966 
L 425.952852 161.067896 
L 427.157651 159.486983 
L 428.36245 157.410646 
L 429.567249 154.706324 
L 430.772048 151.221274 
L 431.976847 146.788815 
L 433.181646 141.240997 
L 434.386445 134.429454 
L 435.591244 126.255163 
L 436.796043 116.705567 
L 438.000843 105.893874 
L 439.205642 94.090864 
L 440.410441 81.735685 
L 441.61524 69.411614 
L 442.820039 57.778468 
L 444.024838 47.466669 
L 445.229637 38.956136 
L 446.434436 32.477941 
L 447.639235 27.977285 
L 448.844035 25.15637 
L 450.048834 23.581533 
L 451.253633 22.809433 
L 452.458432 22.482143 
L 453.663231 22.364234 
L 454.86803 22.328811 
L 456.072829 22.320119 
L 457.277628 22.318417 
L 458.482427 22.318158 
L 459.687226 22.318128 
L 460.892026 22.318125 
L 462.096825 22.318125 
L 463.301624 22.318125 
L 464.506423 22.318125 
L 465.711222 22.318125 
L 466.916021 22.318125 
L 468.12082 22.318125 
L 469.325619 22.318125 
L 470.530418 22.318125 
L 471.735218 22.318125 
L 472.940017 22.318125 
L 474.144816 22.318125 
L 475.349615 22.318125 
" style="fill:none;stroke:#d70b00;stroke-linecap:square;"/>
   </g>
   <g id="line2d_119">
    <path clip-path="url(#p837a4897ff)" d="M 429.36764 165.918125 
L 429.36764 22.318125 
" style="fill:none;stroke:#bfbfbf;stroke-dasharray:3.7,1.6;stroke-dashoffset:0;"/>
   </g>
   <g id="line2d_120">
    <path clip-path="url(#p837a4897ff)" d="M 350.110748 50.960903 
L 481.31337 50.960903 
" style="fill:none;stroke:#bfbfbf;stroke-dasharray:3.7,1.6;stroke-dashoffset:0;"/>
   </g>
   <g id="line2d_121">
    <path clip-path="url(#p837a4897ff)" d="M 356.074503 165.917366 
L 357.279303 165.917339 
L 358.484102 165.91731 
L 359.688901 165.917278 
L 360.8937 165.917243 
L 362.098499 165.917205 
L 363.303298 165.917164 
L 364.508097 165.917119 
L 365.712896 165.91707 
L 366.917695 165.917016 
L 368.122494 165.916956 
L 369.327294 165.916891 
L 370.532093 165.916818 
L 371.736892 165.916738 
L 372.941691 165.916648 
L 374.14649 165.916549 
L 375.351289 165.916438 
L 376.556088 165.916314 
L 377.760887 165.916175 
L 378.965686 165.916018 
L 380.170486 165.915841 
L 381.375285 165.915641 
L 382.580084 165.915413 
L 383.784883 165.915152 
L 384.989682 165.914855 
L 386.194481 165.914512 
L 387.39928 165.914118 
L 388.604079 165.91366 
L 389.808878 165.913128 
L 391.013677 165.912507 
L 392.218477 165.911779 
L 393.423276 165.91092 
L 394.628075 165.909904 
L 395.832874 165.908695 
L 397.037673 165.907251 
L 398.242472 165.905515 
L 399.447271 165.903419 
L 400.65207 165.900876 
L 401.856869 165.897772 
L 403.061669 165.893964 
L 404.266468 165.889266 
L 405.471267 165.883439 
L 406.676066 165.876169 
L 407.880865 165.867049 
L 409.085664 165.855544 
L 410.290463 165.840947 
L 411.495262 165.822325 
L 412.700061 165.798436 
L 413.90486 165.767626 
L 415.10966 165.727684 
L 416.314459 165.675643 
L 417.519258 165.607515 
L 418.724057 165.517937 
L 419.928856 165.39968 
L 421.133655 165.243011 
L 422.338454 165.034838 
L 423.543253 164.757587 
L 424.748052 164.387769 
L 425.952852 163.894156 
L 427.157651 163.235559 
L 428.36245 162.358202 
L 429.567249 161.192813 
L 430.772048 159.651691 
L 431.976847 157.626266 
L 433.181646 154.985981 
L 434.386445 151.579775 
L 435.591244 147.241835 
L 436.796043 141.803591 
L 438.000843 135.113756 
L 439.205642 127.06729 
L 440.410441 117.641993 
L 441.61524 106.937938 
L 442.820039 95.210491 
L 444.024838 82.883664 
L 445.229637 70.529594 
L 446.434436 58.804998 
L 447.639235 48.348094 
L 448.844035 39.657454 
L 450.048834 32.989814 
L 451.253633 28.316162 
L 452.458432 25.357342 
L 453.663231 23.686835 
L 454.86803 22.857437 
L 456.072829 22.500863 
L 457.277628 22.370362 
L 458.482427 22.33046 
L 459.687226 22.320476 
L 460.892026 22.318477 
L 462.096825 22.318165 
L 463.301624 22.318128 
L 464.506423 22.318125 
L 465.711222 22.318125 
L 466.916021 22.318125 
L 468.12082 22.318125 
L 469.325619 22.318125 
L 470.530418 22.318125 
L 471.735218 22.318125 
L 472.940017 22.318125 
L 474.144816 22.318125 
L 475.349615 22.318125 
" style="fill:none;stroke:#7c0200;stroke-linecap:square;"/>
   </g>
   <g id="line2d_122">
    <path clip-path="url(#p837a4897ff)" d="M 429.36764 165.918125 
L 429.36764 22.318125 
" style="fill:none;stroke:#bfbfbf;stroke-dasharray:3.7,1.6;stroke-dashoffset:0;"/>
   </g>
   <g id="line2d_123">
    <path clip-path="url(#p837a4897ff)" d="M 350.110748 50.960903 
L 481.31337 50.960903 
" style="fill:none;stroke:#bfbfbf;stroke-dasharray:3.7,1.6;stroke-dashoffset:0;"/>
   </g>
   <g id="line2d_124">
    <path clip-path="url(#p837a4897ff)" d="M 356.074503 165.917423 
L 357.279303 165.917401 
L 358.484102 165.917376 
L 359.688901 165.91735 
L 360.8937 165.917322 
L 362.098499 165.917291 
L 363.303298 165.917257 
L 364.508097 165.917221 
L 365.712896 165.917181 
L 366.917695 165.917138 
L 368.122494 165.91709 
L 369.327294 165.917038 
L 370.532093 165.916981 
L 371.736892 165.916918 
L 372.941691 165.916848 
L 374.14649 165.916771 
L 375.351289 165.916685 
L 376.556088 165.91659 
L 377.760887 165.916484 
L 378.965686 165.916365 
L 380.170486 165.916232 
L 381.375285 165.916083 
L 382.580084 165.915914 
L 383.784883 165.915724 
L 384.989682 165.915507 
L 386.194481 165.91526 
L 387.39928 165.914978 
L 388.604079 165.914655 
L 389.808878 165.914282 
L 391.013677 165.913851 
L 392.218477 165.91335 
L 393.423276 165.912767 
L 394.628075 165.912083 
L 395.832874 165.91128 
L 397.037673 165.91033 
L 398.242472 165.909203 
L 399.447271 165.907858 
L 400.65207 165.906246 
L 401.856869 165.904303 
L 403.061669 165.90195 
L 404.266468 165.899084 
L 405.471267 165.895577 
L 406.676066 165.891259 
L 407.880865 165.885915 
L 409.085664 165.879263 
L 410.290463 165.870936 
L 411.495262 165.860456 
L 412.700061 165.847189 
L 413.90486 165.8303 
L 415.10966 165.808682 
L 416.314459 165.780861 
L 417.519258 165.744867 
L 418.724057 165.698061 
L 419.928856 165.636901 
L 421.133655 165.556621 
L 422.338454 165.450803 
L 423.543253 165.310802 
L 424.748052 165.124982 
L 425.952852 164.877708 
L 427.157651 164.548045 
L 428.36245 164.108092 
L 429.567249 163.520925 
L 430.772048 162.738118 
L 431.976847 161.696935 
L 433.181646 160.317353 
L 434.386445 158.499351 
L 435.591244 156.121135 
L 436.796043 153.039407 
L 438.000843 149.093188 
L 439.205642 144.11309 
L 440.410441 137.937965 
L 441.61524 130.440321 
L 442.820039 121.560219 
L 444.024838 111.344427 
L 445.229637 99.983395 
L 446.434436 87.8342 
L 447.639235 75.415065 
L 448.844035 63.359424 
L 450.048834 52.327073 
L 451.253633 42.886486 
L 452.458432 35.400062 
L 453.663231 29.952966 
L 454.86803 26.356461 
L 456.072829 24.227704 
L 457.277628 23.113276 
L 458.482427 22.604877 
L 459.687226 22.406054 
L 460.892026 22.340591 
L 462.096825 22.322802 
L 463.301624 22.318899 
L 464.506423 22.318224 
L 465.711222 22.318135 
L 466.916021 22.318126 
L 468.12082 22.318125 
L 469.325619 22.318125 
L 470.530418 22.318125 
L 471.735218 22.318125 
L 472.940017 22.318125 
L 474.144816 22.318125 
L 475.349615 22.318125 
" style="fill:none;stroke:#2b0000;stroke-linecap:square;"/>
   </g>
   <g id="line2d_125">
    <path clip-path="url(#p837a4897ff)" d="M 429.36764 165.918125 
L 429.36764 22.318125 
" style="fill:none;stroke:#bfbfbf;stroke-dasharray:3.7,1.6;stroke-dashoffset:0;"/>
   </g>
   <g id="line2d_126">
    <path clip-path="url(#p837a4897ff)" d="M 350.110748 50.960903 
L 481.31337 50.960903 
" style="fill:none;stroke:#bfbfbf;stroke-dasharray:3.7,1.6;stroke-dashoffset:0;"/>
   </g>
   <g id="patch_13">
    <path d="M 350.110748 165.918125 
L 350.110748 22.318125 
" style="fill:none;stroke:#000000;stroke-linecap:square;stroke-linejoin:miter;stroke-width:0.8;"/>
   </g>
   <g id="patch_14">
    <path d="M 481.31337 165.918125 
L 481.31337 22.318125 
" style="fill:none;stroke:#000000;stroke-linecap:square;stroke-linejoin:miter;stroke-width:0.8;"/>
   </g>
   <g id="patch_15">
    <path d="M 350.110748 165.918125 
L 481.31337 165.918125 
" style="fill:none;stroke:#000000;stroke-linecap:square;stroke-linejoin:miter;stroke-width:0.8;"/>
   </g>
   <g id="patch_16">
    <path d="M 350.110748 22.318125 
L 481.31337 22.318125 
" style="fill:none;stroke:#000000;stroke-linecap:square;stroke-linejoin:miter;stroke-width:0.8;"/>
   </g>
   <g id="text_22">
    <!-- n = 1019 -->
    <defs>
     <path d="M 10.984375 1.515625 
L 10.984375 10.5 
Q 14.703125 8.734375 18.5 7.8125 
Q 22.3125 6.890625 25.984375 6.890625 
Q 35.75 6.890625 40.890625 13.453125 
Q 46.046875 20.015625 46.78125 33.40625 
Q 43.953125 29.203125 39.59375 26.953125 
Q 35.25 24.703125 29.984375 24.703125 
Q 19.046875 24.703125 12.671875 31.3125 
Q 6.296875 37.9375 6.296875 49.421875 
Q 6.296875 60.640625 12.9375 67.421875 
Q 19.578125 74.21875 30.609375 74.21875 
Q 43.265625 74.21875 49.921875 64.515625 
Q 56.59375 54.828125 56.59375 36.375 
Q 56.59375 19.140625 48.40625 8.859375 
Q 40.234375 -1.421875 26.421875 -1.421875 
Q 22.703125 -1.421875 18.890625 -0.6875 
Q 15.09375 0.046875 10.984375 1.515625 
z
M 30.609375 32.421875 
Q 37.25 32.421875 41.125 36.953125 
Q 45.015625 41.5 45.015625 49.421875 
Q 45.015625 57.28125 41.125 61.84375 
Q 37.25 66.40625 30.609375 66.40625 
Q 23.96875 66.40625 20.09375 61.84375 
Q 16.21875 57.28125 16.21875 49.421875 
Q 16.21875 41.5 20.09375 36.953125 
Q 23.96875 32.421875 30.609375 32.421875 
z
" id="DejaVuSans-39"/>
    </defs>
    <g transform="translate(387.797997 16.318125)scale(0.12 -0.12)">
     <use xlink:href="#DejaVuSans-6e"/>
     <use x="63.378906" xlink:href="#DejaVuSans-20"/>
     <use x="95.166016" xlink:href="#DejaVuSans-3d"/>
     <use x="178.955078" xlink:href="#DejaVuSans-20"/>
     <use x="210.742188" xlink:href="#DejaVuSans-31"/>
     <use x="274.365234" xlink:href="#DejaVuSans-30"/>
     <use x="337.988281" xlink:href="#DejaVuSans-31"/>
     <use x="401.611328" xlink:href="#DejaVuSans-39"/>
    </g>
   </g>
   <g id="legend_1">
    <g id="text_23">
     <!-- Noise ratio -->
     <defs>
      <path d="M 9.8125 72.90625 
L 23.09375 72.90625 
L 55.421875 11.921875 
L 55.421875 72.90625 
L 64.984375 72.90625 
L 64.984375 0 
L 51.703125 0 
L 19.390625 60.984375 
L 19.390625 0 
L 9.8125 0 
z
" id="DejaVuSans-4e"/>
     </defs>
     <g transform="translate(490.31337 60.182187)scale(0.1 -0.1)">
      <use xlink:href="#DejaVuSans-4e"/>
      <use x="74.804688" xlink:href="#DejaVuSans-6f"/>
      <use x="135.986328" xlink:href="#DejaVuSans-69"/>
      <use x="163.769531" xlink:href="#DejaVuSans-73"/>
      <use x="215.869141" xlink:href="#DejaVuSans-65"/>
      <use x="277.392578" xlink:href="#DejaVuSans-20"/>
      <use x="309.179688" xlink:href="#DejaVuSans-72"/>
      <use x="350.292969" xlink:href="#DejaVuSans-61"/>
      <use x="411.572266" xlink:href="#DejaVuSans-74"/>
      <use x="450.78125" xlink:href="#DejaVuSans-69"/>
      <use x="478.564453" xlink:href="#DejaVuSans-6f"/>
     </g>
    </g>
    <g id="line2d_127">
     <path d="M 500.11962 71.360312 
L 520.11962 71.360312 
" style="fill:none;stroke:#ffd006;stroke-linecap:square;"/>
    </g>
    <g id="line2d_128"/>
    <g id="text_24">
     <!-- 0 -->
     <g transform="translate(528.11962 74.860312)scale(0.1 -0.1)">
      <use xlink:href="#DejaVuSans-30"/>
     </g>
    </g>
    <g id="line2d_129">
     <path d="M 500.11962 86.038437 
L 520.11962 86.038437 
" style="fill:none;stroke:#ff7600;stroke-linecap:square;"/>
    </g>
    <g id="line2d_130"/>
    <g id="text_25">
     <!-- 1 -->
     <g transform="translate(528.11962 89.538437)scale(0.1 -0.1)">
      <use xlink:href="#DejaVuSans-31"/>
     </g>
    </g>
    <g id="line2d_131">
     <path d="M 500.11962 100.716562 
L 520.11962 100.716562 
" style="fill:none;stroke:#d70b00;stroke-linecap:square;"/>
    </g>
    <g id="line2d_132"/>
    <g id="text_26">
     <!-- 2 -->
     <g transform="translate(528.11962 104.216562)scale(0.1 -0.1)">
      <use xlink:href="#DejaVuSans-32"/>
     </g>
    </g>
    <g id="line2d_133">
     <path d="M 500.11962 115.394687 
L 520.11962 115.394687 
" style="fill:none;stroke:#7c0200;stroke-linecap:square;"/>
    </g>
    <g id="line2d_134"/>
    <g id="text_27">
     <!-- 3 -->
     <g transform="translate(528.11962 118.894687)scale(0.1 -0.1)">
      <use xlink:href="#DejaVuSans-33"/>
     </g>
    </g>
    <g id="line2d_135">
     <path d="M 500.11962 130.072812 
L 520.11962 130.072812 
" style="fill:none;stroke:#2b0000;stroke-linecap:square;"/>
    </g>
    <g id="line2d_136"/>
    <g id="text_28">
     <!-- 4 -->
     <g transform="translate(528.11962 133.572812)scale(0.1 -0.1)">
      <use xlink:href="#DejaVuSans-34"/>
     </g>
    </g>
   </g>
  </g>
 </g>
 <defs>
  <clipPath id="pb3c0d275e5">
   <rect height="143.6" width="131.202623" x="43.78125" y="22.318125"/>
  </clipPath>
  <clipPath id="p0dba749945">
   <rect height="143.6" width="131.202623" x="196.945999" y="22.318125"/>
  </clipPath>
  <clipPath id="p837a4897ff">
   <rect height="143.6" width="131.202623" x="350.110748" y="22.318125"/>
  </clipPath>
 </defs>
</svg>
