<?xml version="1.0" encoding="utf-8" standalone="no"?>
<!DOCTYPE svg PUBLIC "-//W3C//DTD SVG 1.1//EN"
  "http://www.w3.org/Graphics/SVG/1.1/DTD/svg11.dtd">
<!-- Created with matplotlib (http://matplotlib.org/) -->
<svg height="313pt" version="1.1" viewBox="0 0 727 313" width="727pt" xmlns="http://www.w3.org/2000/svg" xmlns:xlink="http://www.w3.org/1999/xlink">
 <defs>
  <style type="text/css">
*{stroke-linecap:butt;stroke-linejoin:round;}
  </style>
 </defs>
 <g id="figure_1">
  <g id="patch_1">
   <path d="M 0 313.770625 
L 727.265625 313.770625 
L 727.265625 0 
L 0 0 
z
" style="fill:none;"/>
  </g>
  <g id="axes_1">
   <g id="patch_2">
    <path d="M 46.965625 239.758125 
L 716.565625 239.758125 
L 716.565625 22.318125 
L 46.965625 22.318125 
z
" style="fill:#ffffff;"/>
   </g>
   <g id="patch_3">
    <path clip-path="url(#pbd1e6c0cfd)" d="M 77.401989 239.758125 
L 86.453695 239.758125 
L 86.453695 175.869979 
L 77.401989 175.869979 
z
"/>
   </g>
   <g id="patch_4">
    <path clip-path="url(#pbd1e6c0cfd)" d="M 88.716622 239.758125 
L 97.768329 239.758125 
L 97.768329 225.805541 
L 88.716622 225.805541 
z
"/>
   </g>
   <g id="patch_5">
    <path clip-path="url(#pbd1e6c0cfd)" d="M 100.031255 239.758125 
L 109.082962 239.758125 
L 109.082962 144.293079 
L 100.031255 144.293079 
z
"/>
   </g>
   <g id="patch_6">
    <path clip-path="url(#pbd1e6c0cfd)" d="M 111.345889 239.758125 
L 120.397595 239.758125 
L 120.397595 84.076666 
L 111.345889 84.076666 
z
"/>
   </g>
   <g id="patch_7">
    <path clip-path="url(#pbd1e6c0cfd)" d="M 122.660522 239.758125 
L 131.712229 239.758125 
L 131.712229 103.904022 
L 122.660522 103.904022 
z
"/>
   </g>
   <g id="patch_8">
    <path clip-path="url(#pbd1e6c0cfd)" d="M 133.975155 239.758125 
L 143.026862 239.758125 
L 143.026862 156.77697 
L 133.975155 156.77697 
z
"/>
   </g>
   <g id="patch_9">
    <path clip-path="url(#pbd1e6c0cfd)" d="M 145.289789 239.758125 
L 154.341495 239.758125 
L 154.341495 32.672411 
L 145.289789 32.672411 
z
"/>
   </g>
   <g id="patch_10">
    <path clip-path="url(#pbd1e6c0cfd)" d="M 156.604422 239.758125 
L 165.656129 239.758125 
L 165.656129 132.543535 
L 156.604422 132.543535 
z
"/>
   </g>
   <g id="patch_11">
    <path clip-path="url(#pbd1e6c0cfd)" d="M 167.919055 239.758125 
L 176.970762 239.758125 
L 176.970762 160.448703 
L 167.919055 160.448703 
z
"/>
   </g>
   <g id="patch_12">
    <path clip-path="url(#pbd1e6c0cfd)" d="M 179.233689 239.758125 
L 188.285395 239.758125 
L 188.285395 175.869979 
L 179.233689 175.869979 
z
"/>
   </g>
   <g id="patch_13">
    <path clip-path="url(#pbd1e6c0cfd)" d="M 190.548322 239.758125 
L 199.600029 239.758125 
L 199.600029 168.526514 
L 190.548322 168.526514 
z
"/>
   </g>
   <g id="patch_14">
    <path clip-path="url(#pbd1e6c0cfd)" d="M 201.862955 239.758125 
L 210.914662 239.758125 
L 210.914662 172.198247 
L 201.862955 172.198247 
z
"/>
   </g>
   <g id="patch_15">
    <path clip-path="url(#pbd1e6c0cfd)" d="M 213.177589 239.758125 
L 222.229295 239.758125 
L 222.229295 147.964812 
L 213.177589 147.964812 
z
"/>
   </g>
   <g id="patch_16">
    <path clip-path="url(#pbd1e6c0cfd)" d="M 224.492222 239.758125 
L 233.543928 239.758125 
L 233.543928 166.323475 
L 224.492222 166.323475 
z
"/>
   </g>
   <g id="patch_17">
    <path clip-path="url(#pbd1e6c0cfd)" d="M 235.806855 239.758125 
L 244.858562 239.758125 
L 244.858562 178.807365 
L 235.806855 178.807365 
z
"/>
   </g>
   <g id="patch_18">
    <path clip-path="url(#pbd1e6c0cfd)" d="M 247.121488 239.758125 
L 256.173195 239.758125 
L 256.173195 185.416484 
L 247.121488 185.416484 
z
"/>
   </g>
   <g id="patch_19">
    <path clip-path="url(#pbd1e6c0cfd)" d="M 258.436122 239.758125 
L 267.487828 239.758125 
L 267.487828 176.604326 
L 258.436122 176.604326 
z
"/>
   </g>
   <g id="patch_20">
    <path clip-path="url(#pbd1e6c0cfd)" d="M 269.750755 239.758125 
L 278.802462 239.758125 
L 278.802462 191.291256 
L 269.750755 191.291256 
z
"/>
   </g>
   <g id="patch_21">
    <path clip-path="url(#pbd1e6c0cfd)" d="M 281.065388 239.758125 
L 290.117095 239.758125 
L 290.117095 142.09004 
L 281.065388 142.09004 
z
"/>
   </g>
   <g id="patch_22">
    <path clip-path="url(#pbd1e6c0cfd)" d="M 292.380022 239.758125 
L 301.431728 239.758125 
L 301.431728 158.245663 
L 292.380022 158.245663 
z
"/>
   </g>
   <g id="patch_23">
    <path clip-path="url(#pbd1e6c0cfd)" d="M 303.694655 239.758125 
L 312.746362 239.758125 
L 312.746362 188.35387 
L 303.694655 188.35387 
z
"/>
   </g>
   <g id="patch_24">
    <path clip-path="url(#pbd1e6c0cfd)" d="M 315.009288 239.758125 
L 324.060995 239.758125 
L 324.060995 190.556909 
L 315.009288 190.556909 
z
"/>
   </g>
   <g id="patch_25">
    <path clip-path="url(#pbd1e6c0cfd)" d="M 326.323922 239.758125 
L 335.375628 239.758125 
L 335.375628 181.010405 
L 326.323922 181.010405 
z
"/>
   </g>
   <g id="patch_26">
    <path clip-path="url(#pbd1e6c0cfd)" d="M 337.638555 239.758125 
L 346.690262 239.758125 
L 346.690262 183.213444 
L 337.638555 183.213444 
z
"/>
   </g>
   <g id="patch_27">
    <path clip-path="url(#pbd1e6c0cfd)" d="M 348.953188 239.758125 
L 358.004895 239.758125 
L 358.004895 160.448703 
L 348.953188 160.448703 
z
"/>
   </g>
   <g id="patch_28">
    <path clip-path="url(#pbd1e6c0cfd)" d="M 360.267822 239.758125 
L 369.319528 239.758125 
L 369.319528 203.775146 
L 360.267822 203.775146 
z
"/>
   </g>
   <g id="patch_29">
    <path clip-path="url(#pbd1e6c0cfd)" d="M 371.582455 239.758125 
L 380.634162 239.758125 
L 380.634162 169.260861 
L 371.582455 169.260861 
z
"/>
   </g>
   <g id="patch_30">
    <path clip-path="url(#pbd1e6c0cfd)" d="M 382.897088 239.758125 
L 391.948795 239.758125 
L 391.948795 164.854782 
L 382.897088 164.854782 
z
"/>
   </g>
   <g id="patch_31">
    <path clip-path="url(#pbd1e6c0cfd)" d="M 394.211722 239.758125 
L 403.263428 239.758125 
L 403.263428 166.323475 
L 394.211722 166.323475 
z
"/>
   </g>
   <g id="patch_32">
    <path clip-path="url(#pbd1e6c0cfd)" d="M 405.526355 239.758125 
L 414.578062 239.758125 
L 414.578062 171.4639 
L 405.526355 171.4639 
z
"/>
   </g>
   <g id="patch_33">
    <path clip-path="url(#pbd1e6c0cfd)" d="M 416.840988 239.758125 
L 425.892695 239.758125 
L 425.892695 183.947791 
L 416.840988 183.947791 
z
"/>
   </g>
   <g id="patch_34">
    <path clip-path="url(#pbd1e6c0cfd)" d="M 428.155622 239.758125 
L 437.207328 239.758125 
L 437.207328 171.4639 
L 428.155622 171.4639 
z
"/>
   </g>
   <g id="patch_35">
    <path clip-path="url(#pbd1e6c0cfd)" d="M 439.470255 239.758125 
L 448.521962 239.758125 
L 448.521962 183.213444 
L 439.470255 183.213444 
z
"/>
   </g>
   <g id="patch_36">
    <path clip-path="url(#pbd1e6c0cfd)" d="M 450.784888 239.758125 
L 459.836595 239.758125 
L 459.836595 156.77697 
L 450.784888 156.77697 
z
"/>
   </g>
   <g id="patch_37">
    <path clip-path="url(#pbd1e6c0cfd)" d="M 462.099522 239.758125 
L 471.151228 239.758125 
L 471.151228 186.885177 
L 462.099522 186.885177 
z
"/>
   </g>
   <g id="patch_38">
    <path clip-path="url(#pbd1e6c0cfd)" d="M 473.414155 239.758125 
L 482.465862 239.758125 
L 482.465862 170.729554 
L 473.414155 170.729554 
z
"/>
   </g>
   <g id="patch_39">
    <path clip-path="url(#pbd1e6c0cfd)" d="M 484.728788 239.758125 
L 493.780495 239.758125 
L 493.780495 167.057821 
L 484.728788 167.057821 
z
"/>
   </g>
   <g id="patch_40">
    <path clip-path="url(#pbd1e6c0cfd)" d="M 496.043422 239.758125 
L 505.095128 239.758125 
L 505.095128 178.073019 
L 496.043422 178.073019 
z
"/>
   </g>
   <g id="patch_41">
    <path clip-path="url(#pbd1e6c0cfd)" d="M 507.358055 239.758125 
L 516.409762 239.758125 
L 516.409762 176.604326 
L 507.358055 176.604326 
z
"/>
   </g>
   <g id="patch_42">
    <path clip-path="url(#pbd1e6c0cfd)" d="M 518.672688 239.758125 
L 527.724395 239.758125 
L 527.724395 160.448703 
L 518.672688 160.448703 
z
"/>
   </g>
   <g id="patch_43">
    <path clip-path="url(#pbd1e6c0cfd)" d="M 529.987322 239.758125 
L 539.039028 239.758125 
L 539.039028 154.57393 
L 529.987322 154.57393 
z
"/>
   </g>
   <g id="patch_44">
    <path clip-path="url(#pbd1e6c0cfd)" d="M 541.301955 239.758125 
L 550.353661 239.758125 
L 550.353661 172.198247 
L 541.301955 172.198247 
z
"/>
   </g>
   <g id="patch_45">
    <path clip-path="url(#pbd1e6c0cfd)" d="M 552.616588 239.758125 
L 561.668295 239.758125 
L 561.668295 163.386089 
L 552.616588 163.386089 
z
"/>
   </g>
   <g id="patch_46">
    <path clip-path="url(#pbd1e6c0cfd)" d="M 563.931221 239.758125 
L 572.982928 239.758125 
L 572.982928 169.995207 
L 563.931221 169.995207 
z
"/>
   </g>
   <g id="patch_47">
    <path clip-path="url(#pbd1e6c0cfd)" d="M 575.245855 239.758125 
L 584.297561 239.758125 
L 584.297561 175.135633 
L 575.245855 175.135633 
z
"/>
   </g>
   <g id="patch_48">
    <path clip-path="url(#pbd1e6c0cfd)" d="M 586.560488 239.758125 
L 595.612195 239.758125 
L 595.612195 171.4639 
L 586.560488 171.4639 
z
"/>
   </g>
   <g id="patch_49">
    <path clip-path="url(#pbd1e6c0cfd)" d="M 597.875121 239.758125 
L 606.926828 239.758125 
L 606.926828 166.323475 
L 597.875121 166.323475 
z
"/>
   </g>
   <g id="patch_50">
    <path clip-path="url(#pbd1e6c0cfd)" d="M 609.189755 239.758125 
L 618.241461 239.758125 
L 618.241461 162.651742 
L 609.189755 162.651742 
z
"/>
   </g>
   <g id="patch_51">
    <path clip-path="url(#pbd1e6c0cfd)" d="M 620.504388 239.758125 
L 629.556095 239.758125 
L 629.556095 190.556909 
L 620.504388 190.556909 
z
"/>
   </g>
   <g id="patch_52">
    <path clip-path="url(#pbd1e6c0cfd)" d="M 631.819021 239.758125 
L 640.870728 239.758125 
L 640.870728 130.340496 
L 631.819021 130.340496 
z
"/>
   </g>
   <g id="patch_53">
    <path clip-path="url(#pbd1e6c0cfd)" d="M 643.133655 239.758125 
L 652.185361 239.758125 
L 652.185361 179.541712 
L 643.133655 179.541712 
z
"/>
   </g>
   <g id="patch_54">
    <path clip-path="url(#pbd1e6c0cfd)" d="M 654.448288 239.758125 
L 663.499995 239.758125 
L 663.499995 167.792168 
L 654.448288 167.792168 
z
"/>
   </g>
   <g id="patch_55">
    <path clip-path="url(#pbd1e6c0cfd)" d="M 665.762921 239.758125 
L 674.814628 239.758125 
L 674.814628 169.995207 
L 665.762921 169.995207 
z
"/>
   </g>
   <g id="patch_56">
    <path clip-path="url(#pbd1e6c0cfd)" d="M 677.077555 239.758125 
L 686.129261 239.758125 
L 686.129261 178.807365 
L 677.077555 178.807365 
z
"/>
   </g>
   <g id="matplotlib.axis_1">
    <g id="xtick_1">
     <g id="line2d_1">
      <defs>
       <path d="M 0 0 
L 0 3.5 
" id="ma283599cbd" style="stroke:#000000;stroke-width:0.8;"/>
      </defs>
      <g>
       <use style="stroke:#000000;stroke-width:0.8;" x="81.927842" xlink:href="#ma283599cbd" y="239.758125"/>
      </g>
     </g>
     <g id="text_1">
      <!-- NA18489 -->
      <defs>
       <path d="M 9.8125 72.90625 
L 23.09375 72.90625 
L 55.421875 11.921875 
L 55.421875 72.90625 
L 64.984375 72.90625 
L 64.984375 0 
L 51.703125 0 
L 19.390625 60.984375 
L 19.390625 0 
L 9.8125 0 
z
" id="DejaVuSans-4e"/>
       <path d="M 34.1875 63.1875 
L 20.796875 26.90625 
L 47.609375 26.90625 
z
M 28.609375 72.90625 
L 39.796875 72.90625 
L 67.578125 0 
L 57.328125 0 
L 50.6875 18.703125 
L 17.828125 18.703125 
L 11.1875 0 
L 0.78125 0 
z
" id="DejaVuSans-41"/>
       <path d="M 12.40625 8.296875 
L 28.515625 8.296875 
L 28.515625 63.921875 
L 10.984375 60.40625 
L 10.984375 69.390625 
L 28.421875 72.90625 
L 38.28125 72.90625 
L 38.28125 8.296875 
L 54.390625 8.296875 
L 54.390625 0 
L 12.40625 0 
z
" id="DejaVuSans-31"/>
       <path d="M 31.78125 34.625 
Q 24.75 34.625 20.71875 30.859375 
Q 16.703125 27.09375 16.703125 20.515625 
Q 16.703125 13.921875 20.71875 10.15625 
Q 24.75 6.390625 31.78125 6.390625 
Q 38.8125 6.390625 42.859375 10.171875 
Q 46.921875 13.96875 46.921875 20.515625 
Q 46.921875 27.09375 42.890625 30.859375 
Q 38.875 34.625 31.78125 34.625 
z
M 21.921875 38.8125 
Q 15.578125 40.375 12.03125 44.71875 
Q 8.5 49.078125 8.5 55.328125 
Q 8.5 64.0625 14.71875 69.140625 
Q 20.953125 74.21875 31.78125 74.21875 
Q 42.671875 74.21875 48.875 69.140625 
Q 55.078125 64.0625 55.078125 55.328125 
Q 55.078125 49.078125 51.53125 44.71875 
Q 48 40.375 41.703125 38.8125 
Q 48.828125 37.15625 52.796875 32.3125 
Q 56.78125 27.484375 56.78125 20.515625 
Q 56.78125 9.90625 50.3125 4.234375 
Q 43.84375 -1.421875 31.78125 -1.421875 
Q 19.734375 -1.421875 13.25 4.234375 
Q 6.78125 9.90625 6.78125 20.515625 
Q 6.78125 27.484375 10.78125 32.3125 
Q 14.796875 37.15625 21.921875 38.8125 
z
M 18.3125 54.390625 
Q 18.3125 48.734375 21.84375 45.5625 
Q 25.390625 42.390625 31.78125 42.390625 
Q 38.140625 42.390625 41.71875 45.5625 
Q 45.3125 48.734375 45.3125 54.390625 
Q 45.3125 60.0625 41.71875 63.234375 
Q 38.140625 66.40625 31.78125 66.40625 
Q 25.390625 66.40625 21.84375 63.234375 
Q 18.3125 60.0625 18.3125 54.390625 
z
" id="DejaVuSans-38"/>
       <path d="M 37.796875 64.3125 
L 12.890625 25.390625 
L 37.796875 25.390625 
z
M 35.203125 72.90625 
L 47.609375 72.90625 
L 47.609375 25.390625 
L 58.015625 25.390625 
L 58.015625 17.1875 
L 47.609375 17.1875 
L 47.609375 0 
L 37.796875 0 
L 37.796875 17.1875 
L 4.890625 17.1875 
L 4.890625 26.703125 
z
" id="DejaVuSans-34"/>
       <path d="M 10.984375 1.515625 
L 10.984375 10.5 
Q 14.703125 8.734375 18.5 7.8125 
Q 22.3125 6.890625 25.984375 6.890625 
Q 35.75 6.890625 40.890625 13.453125 
Q 46.046875 20.015625 46.78125 33.40625 
Q 43.953125 29.203125 39.59375 26.953125 
Q 35.25 24.703125 29.984375 24.703125 
Q 19.046875 24.703125 12.671875 31.3125 
Q 6.296875 37.9375 6.296875 49.421875 
Q 6.296875 60.640625 12.9375 67.421875 
Q 19.578125 74.21875 30.609375 74.21875 
Q 43.265625 74.21875 49.921875 64.515625 
Q 56.59375 54.828125 56.59375 36.375 
Q 56.59375 19.140625 48.40625 8.859375 
Q 40.234375 -1.421875 26.421875 -1.421875 
Q 22.703125 -1.421875 18.890625 -0.6875 
Q 15.09375 0.046875 10.984375 1.515625 
z
M 30.609375 32.421875 
Q 37.25 32.421875 41.125 36.953125 
Q 45.015625 41.5 45.015625 49.421875 
Q 45.015625 57.28125 41.125 61.84375 
Q 37.25 66.40625 30.609375 66.40625 
Q 23.96875 66.40625 20.09375 61.84375 
Q 16.21875 57.28125 16.21875 49.421875 
Q 16.21875 41.5 20.09375 36.953125 
Q 23.96875 32.421875 30.609375 32.421875 
z
" id="DejaVuSans-39"/>
      </defs>
      <g transform="translate(84.687217 292.8925)rotate(-90)scale(0.1 -0.1)">
       <use xlink:href="#DejaVuSans-4e"/>
       <use x="74.804688" xlink:href="#DejaVuSans-41"/>
       <use x="143.212891" xlink:href="#DejaVuSans-31"/>
       <use x="206.835938" xlink:href="#DejaVuSans-38"/>
       <use x="270.458984" xlink:href="#DejaVuSans-34"/>
       <use x="334.082031" xlink:href="#DejaVuSans-38"/>
       <use x="397.705078" xlink:href="#DejaVuSans-39"/>
      </g>
     </g>
    </g>
    <g id="xtick_2">
     <g id="line2d_2">
      <g>
       <use style="stroke:#000000;stroke-width:0.8;" x="93.242475" xlink:href="#ma283599cbd" y="239.758125"/>
      </g>
     </g>
     <g id="text_2">
      <!-- NA18498 -->
      <g transform="translate(96.00185 292.8925)rotate(-90)scale(0.1 -0.1)">
       <use xlink:href="#DejaVuSans-4e"/>
       <use x="74.804688" xlink:href="#DejaVuSans-41"/>
       <use x="143.212891" xlink:href="#DejaVuSans-31"/>
       <use x="206.835938" xlink:href="#DejaVuSans-38"/>
       <use x="270.458984" xlink:href="#DejaVuSans-34"/>
       <use x="334.082031" xlink:href="#DejaVuSans-39"/>
       <use x="397.705078" xlink:href="#DejaVuSans-38"/>
      </g>
     </g>
    </g>
    <g id="xtick_3">
     <g id="line2d_3">
      <g>
       <use style="stroke:#000000;stroke-width:0.8;" x="104.557109" xlink:href="#ma283599cbd" y="239.758125"/>
      </g>
     </g>
     <g id="text_3">
      <!-- NA18499 -->
      <g transform="translate(107.316484 292.8925)rotate(-90)scale(0.1 -0.1)">
       <use xlink:href="#DejaVuSans-4e"/>
       <use x="74.804688" xlink:href="#DejaVuSans-41"/>
       <use x="143.212891" xlink:href="#DejaVuSans-31"/>
       <use x="206.835938" xlink:href="#DejaVuSans-38"/>
       <use x="270.458984" xlink:href="#DejaVuSans-34"/>
       <use x="334.082031" xlink:href="#DejaVuSans-39"/>
       <use x="397.705078" xlink:href="#DejaVuSans-39"/>
      </g>
     </g>
    </g>
    <g id="xtick_4">
     <g id="line2d_4">
      <g>
       <use style="stroke:#000000;stroke-width:0.8;" x="115.871742" xlink:href="#ma283599cbd" y="239.758125"/>
      </g>
     </g>
     <g id="text_4">
      <!-- NA18501 -->
      <defs>
       <path d="M 10.796875 72.90625 
L 49.515625 72.90625 
L 49.515625 64.59375 
L 19.828125 64.59375 
L 19.828125 46.734375 
Q 21.96875 47.46875 24.109375 47.828125 
Q 26.265625 48.1875 28.421875 48.1875 
Q 40.625 48.1875 47.75 41.5 
Q 54.890625 34.8125 54.890625 23.390625 
Q 54.890625 11.625 47.5625 5.09375 
Q 40.234375 -1.421875 26.90625 -1.421875 
Q 22.3125 -1.421875 17.546875 -0.640625 
Q 12.796875 0.140625 7.71875 1.703125 
L 7.71875 11.625 
Q 12.109375 9.234375 16.796875 8.0625 
Q 21.484375 6.890625 26.703125 6.890625 
Q 35.15625 6.890625 40.078125 11.328125 
Q 45.015625 15.765625 45.015625 23.390625 
Q 45.015625 31 40.078125 35.4375 
Q 35.15625 39.890625 26.703125 39.890625 
Q 22.75 39.890625 18.8125 39.015625 
Q 14.890625 38.140625 10.796875 36.28125 
z
" id="DejaVuSans-35"/>
       <path d="M 31.78125 66.40625 
Q 24.171875 66.40625 20.328125 58.90625 
Q 16.5 51.421875 16.5 36.375 
Q 16.5 21.390625 20.328125 13.890625 
Q 24.171875 6.390625 31.78125 6.390625 
Q 39.453125 6.390625 43.28125 13.890625 
Q 47.125 21.390625 47.125 36.375 
Q 47.125 51.421875 43.28125 58.90625 
Q 39.453125 66.40625 31.78125 66.40625 
z
M 31.78125 74.21875 
Q 44.046875 74.21875 50.515625 64.515625 
Q 56.984375 54.828125 56.984375 36.375 
Q 56.984375 17.96875 50.515625 8.265625 
Q 44.046875 -1.421875 31.78125 -1.421875 
Q 19.53125 -1.421875 13.0625 8.265625 
Q 6.59375 17.96875 6.59375 36.375 
Q 6.59375 54.828125 13.0625 64.515625 
Q 19.53125 74.21875 31.78125 74.21875 
z
" id="DejaVuSans-30"/>
      </defs>
      <g transform="translate(118.631117 292.8925)rotate(-90)scale(0.1 -0.1)">
       <use xlink:href="#DejaVuSans-4e"/>
       <use x="74.804688" xlink:href="#DejaVuSans-41"/>
       <use x="143.212891" xlink:href="#DejaVuSans-31"/>
       <use x="206.835938" xlink:href="#DejaVuSans-38"/>
       <use x="270.458984" xlink:href="#DejaVuSans-35"/>
       <use x="334.082031" xlink:href="#DejaVuSans-30"/>
       <use x="397.705078" xlink:href="#DejaVuSans-31"/>
      </g>
     </g>
    </g>
    <g id="xtick_5">
     <g id="line2d_5">
      <g>
       <use style="stroke:#000000;stroke-width:0.8;" x="127.186375" xlink:href="#ma283599cbd" y="239.758125"/>
      </g>
     </g>
     <g id="text_5">
      <!-- NA18502 -->
      <defs>
       <path d="M 19.1875 8.296875 
L 53.609375 8.296875 
L 53.609375 0 
L 7.328125 0 
L 7.328125 8.296875 
Q 12.9375 14.109375 22.625 23.890625 
Q 32.328125 33.6875 34.8125 36.53125 
Q 39.546875 41.84375 41.421875 45.53125 
Q 43.3125 49.21875 43.3125 52.78125 
Q 43.3125 58.59375 39.234375 62.25 
Q 35.15625 65.921875 28.609375 65.921875 
Q 23.96875 65.921875 18.8125 64.3125 
Q 13.671875 62.703125 7.8125 59.421875 
L 7.8125 69.390625 
Q 13.765625 71.78125 18.9375 73 
Q 24.125 74.21875 28.421875 74.21875 
Q 39.75 74.21875 46.484375 68.546875 
Q 53.21875 62.890625 53.21875 53.421875 
Q 53.21875 48.921875 51.53125 44.890625 
Q 49.859375 40.875 45.40625 35.40625 
Q 44.1875 33.984375 37.640625 27.21875 
Q 31.109375 20.453125 19.1875 8.296875 
z
" id="DejaVuSans-32"/>
      </defs>
      <g transform="translate(129.94575 292.8925)rotate(-90)scale(0.1 -0.1)">
       <use xlink:href="#DejaVuSans-4e"/>
       <use x="74.804688" xlink:href="#DejaVuSans-41"/>
       <use x="143.212891" xlink:href="#DejaVuSans-31"/>
       <use x="206.835938" xlink:href="#DejaVuSans-38"/>
       <use x="270.458984" xlink:href="#DejaVuSans-35"/>
       <use x="334.082031" xlink:href="#DejaVuSans-30"/>
       <use x="397.705078" xlink:href="#DejaVuSans-32"/>
      </g>
     </g>
    </g>
    <g id="xtick_6">
     <g id="line2d_6">
      <g>
       <use style="stroke:#000000;stroke-width:0.8;" x="138.501009" xlink:href="#ma283599cbd" y="239.758125"/>
      </g>
     </g>
     <g id="text_6">
      <!-- NA18505 -->
      <g transform="translate(141.260384 292.8925)rotate(-90)scale(0.1 -0.1)">
       <use xlink:href="#DejaVuSans-4e"/>
       <use x="74.804688" xlink:href="#DejaVuSans-41"/>
       <use x="143.212891" xlink:href="#DejaVuSans-31"/>
       <use x="206.835938" xlink:href="#DejaVuSans-38"/>
       <use x="270.458984" xlink:href="#DejaVuSans-35"/>
       <use x="334.082031" xlink:href="#DejaVuSans-30"/>
       <use x="397.705078" xlink:href="#DejaVuSans-35"/>
      </g>
     </g>
    </g>
    <g id="xtick_7">
     <g id="line2d_7">
      <g>
       <use style="stroke:#000000;stroke-width:0.8;" x="149.815642" xlink:href="#ma283599cbd" y="239.758125"/>
      </g>
     </g>
     <g id="text_7">
      <!-- NA18507 -->
      <defs>
       <path d="M 8.203125 72.90625 
L 55.078125 72.90625 
L 55.078125 68.703125 
L 28.609375 0 
L 18.3125 0 
L 43.21875 64.59375 
L 8.203125 64.59375 
z
" id="DejaVuSans-37"/>
      </defs>
      <g transform="translate(152.575017 292.8925)rotate(-90)scale(0.1 -0.1)">
       <use xlink:href="#DejaVuSans-4e"/>
       <use x="74.804688" xlink:href="#DejaVuSans-41"/>
       <use x="143.212891" xlink:href="#DejaVuSans-31"/>
       <use x="206.835938" xlink:href="#DejaVuSans-38"/>
       <use x="270.458984" xlink:href="#DejaVuSans-35"/>
       <use x="334.082031" xlink:href="#DejaVuSans-30"/>
       <use x="397.705078" xlink:href="#DejaVuSans-37"/>
      </g>
     </g>
    </g>
    <g id="xtick_8">
     <g id="line2d_8">
      <g>
       <use style="stroke:#000000;stroke-width:0.8;" x="161.130275" xlink:href="#ma283599cbd" y="239.758125"/>
      </g>
     </g>
     <g id="text_8">
      <!-- NA18508 -->
      <g transform="translate(163.88965 292.8925)rotate(-90)scale(0.1 -0.1)">
       <use xlink:href="#DejaVuSans-4e"/>
       <use x="74.804688" xlink:href="#DejaVuSans-41"/>
       <use x="143.212891" xlink:href="#DejaVuSans-31"/>
       <use x="206.835938" xlink:href="#DejaVuSans-38"/>
       <use x="270.458984" xlink:href="#DejaVuSans-35"/>
       <use x="334.082031" xlink:href="#DejaVuSans-30"/>
       <use x="397.705078" xlink:href="#DejaVuSans-38"/>
      </g>
     </g>
    </g>
    <g id="xtick_9">
     <g id="line2d_9">
      <g>
       <use style="stroke:#000000;stroke-width:0.8;" x="172.444909" xlink:href="#ma283599cbd" y="239.758125"/>
      </g>
     </g>
     <g id="text_9">
      <!-- NA18511 -->
      <g transform="translate(175.204284 292.8925)rotate(-90)scale(0.1 -0.1)">
       <use xlink:href="#DejaVuSans-4e"/>
       <use x="74.804688" xlink:href="#DejaVuSans-41"/>
       <use x="143.212891" xlink:href="#DejaVuSans-31"/>
       <use x="206.835938" xlink:href="#DejaVuSans-38"/>
       <use x="270.458984" xlink:href="#DejaVuSans-35"/>
       <use x="334.082031" xlink:href="#DejaVuSans-31"/>
       <use x="397.705078" xlink:href="#DejaVuSans-31"/>
      </g>
     </g>
    </g>
    <g id="xtick_10">
     <g id="line2d_10">
      <g>
       <use style="stroke:#000000;stroke-width:0.8;" x="183.759542" xlink:href="#ma283599cbd" y="239.758125"/>
      </g>
     </g>
     <g id="text_10">
      <!-- NA18516 -->
      <defs>
       <path d="M 33.015625 40.375 
Q 26.375 40.375 22.484375 35.828125 
Q 18.609375 31.296875 18.609375 23.390625 
Q 18.609375 15.53125 22.484375 10.953125 
Q 26.375 6.390625 33.015625 6.390625 
Q 39.65625 6.390625 43.53125 10.953125 
Q 47.40625 15.53125 47.40625 23.390625 
Q 47.40625 31.296875 43.53125 35.828125 
Q 39.65625 40.375 33.015625 40.375 
z
M 52.59375 71.296875 
L 52.59375 62.3125 
Q 48.875 64.0625 45.09375 64.984375 
Q 41.3125 65.921875 37.59375 65.921875 
Q 27.828125 65.921875 22.671875 59.328125 
Q 17.53125 52.734375 16.796875 39.40625 
Q 19.671875 43.65625 24.015625 45.921875 
Q 28.375 48.1875 33.59375 48.1875 
Q 44.578125 48.1875 50.953125 41.515625 
Q 57.328125 34.859375 57.328125 23.390625 
Q 57.328125 12.15625 50.6875 5.359375 
Q 44.046875 -1.421875 33.015625 -1.421875 
Q 20.359375 -1.421875 13.671875 8.265625 
Q 6.984375 17.96875 6.984375 36.375 
Q 6.984375 53.65625 15.1875 63.9375 
Q 23.390625 74.21875 37.203125 74.21875 
Q 40.921875 74.21875 44.703125 73.484375 
Q 48.484375 72.75 52.59375 71.296875 
z
" id="DejaVuSans-36"/>
      </defs>
      <g transform="translate(186.518917 292.8925)rotate(-90)scale(0.1 -0.1)">
       <use xlink:href="#DejaVuSans-4e"/>
       <use x="74.804688" xlink:href="#DejaVuSans-41"/>
       <use x="143.212891" xlink:href="#DejaVuSans-31"/>
       <use x="206.835938" xlink:href="#DejaVuSans-38"/>
       <use x="270.458984" xlink:href="#DejaVuSans-35"/>
       <use x="334.082031" xlink:href="#DejaVuSans-31"/>
       <use x="397.705078" xlink:href="#DejaVuSans-36"/>
      </g>
     </g>
    </g>
    <g id="xtick_11">
     <g id="line2d_11">
      <g>
       <use style="stroke:#000000;stroke-width:0.8;" x="195.074175" xlink:href="#ma283599cbd" y="239.758125"/>
      </g>
     </g>
     <g id="text_11">
      <!-- NA18517 -->
      <g transform="translate(197.83355 292.8925)rotate(-90)scale(0.1 -0.1)">
       <use xlink:href="#DejaVuSans-4e"/>
       <use x="74.804688" xlink:href="#DejaVuSans-41"/>
       <use x="143.212891" xlink:href="#DejaVuSans-31"/>
       <use x="206.835938" xlink:href="#DejaVuSans-38"/>
       <use x="270.458984" xlink:href="#DejaVuSans-35"/>
       <use x="334.082031" xlink:href="#DejaVuSans-31"/>
       <use x="397.705078" xlink:href="#DejaVuSans-37"/>
      </g>
     </g>
    </g>
    <g id="xtick_12">
     <g id="line2d_12">
      <g>
       <use style="stroke:#000000;stroke-width:0.8;" x="206.388809" xlink:href="#ma283599cbd" y="239.758125"/>
      </g>
     </g>
     <g id="text_12">
      <!-- NA18519 -->
      <g transform="translate(209.148184 292.8925)rotate(-90)scale(0.1 -0.1)">
       <use xlink:href="#DejaVuSans-4e"/>
       <use x="74.804688" xlink:href="#DejaVuSans-41"/>
       <use x="143.212891" xlink:href="#DejaVuSans-31"/>
       <use x="206.835938" xlink:href="#DejaVuSans-38"/>
       <use x="270.458984" xlink:href="#DejaVuSans-35"/>
       <use x="334.082031" xlink:href="#DejaVuSans-31"/>
       <use x="397.705078" xlink:href="#DejaVuSans-39"/>
      </g>
     </g>
    </g>
    <g id="xtick_13">
     <g id="line2d_13">
      <g>
       <use style="stroke:#000000;stroke-width:0.8;" x="217.703442" xlink:href="#ma283599cbd" y="239.758125"/>
      </g>
     </g>
     <g id="text_13">
      <!-- NA18520 -->
      <g transform="translate(220.462817 292.8925)rotate(-90)scale(0.1 -0.1)">
       <use xlink:href="#DejaVuSans-4e"/>
       <use x="74.804688" xlink:href="#DejaVuSans-41"/>
       <use x="143.212891" xlink:href="#DejaVuSans-31"/>
       <use x="206.835938" xlink:href="#DejaVuSans-38"/>
       <use x="270.458984" xlink:href="#DejaVuSans-35"/>
       <use x="334.082031" xlink:href="#DejaVuSans-32"/>
       <use x="397.705078" xlink:href="#DejaVuSans-30"/>
      </g>
     </g>
    </g>
    <g id="xtick_14">
     <g id="line2d_14">
      <g>
       <use style="stroke:#000000;stroke-width:0.8;" x="229.018075" xlink:href="#ma283599cbd" y="239.758125"/>
      </g>
     </g>
     <g id="text_14">
      <!-- NA18522 -->
      <g transform="translate(231.77745 292.8925)rotate(-90)scale(0.1 -0.1)">
       <use xlink:href="#DejaVuSans-4e"/>
       <use x="74.804688" xlink:href="#DejaVuSans-41"/>
       <use x="143.212891" xlink:href="#DejaVuSans-31"/>
       <use x="206.835938" xlink:href="#DejaVuSans-38"/>
       <use x="270.458984" xlink:href="#DejaVuSans-35"/>
       <use x="334.082031" xlink:href="#DejaVuSans-32"/>
       <use x="397.705078" xlink:href="#DejaVuSans-32"/>
      </g>
     </g>
    </g>
    <g id="xtick_15">
     <g id="line2d_15">
      <g>
       <use style="stroke:#000000;stroke-width:0.8;" x="240.332708" xlink:href="#ma283599cbd" y="239.758125"/>
      </g>
     </g>
     <g id="text_15">
      <!-- NA18852 -->
      <g transform="translate(243.092083 292.8925)rotate(-90)scale(0.1 -0.1)">
       <use xlink:href="#DejaVuSans-4e"/>
       <use x="74.804688" xlink:href="#DejaVuSans-41"/>
       <use x="143.212891" xlink:href="#DejaVuSans-31"/>
       <use x="206.835938" xlink:href="#DejaVuSans-38"/>
       <use x="270.458984" xlink:href="#DejaVuSans-38"/>
       <use x="334.082031" xlink:href="#DejaVuSans-35"/>
       <use x="397.705078" xlink:href="#DejaVuSans-32"/>
      </g>
     </g>
    </g>
    <g id="xtick_16">
     <g id="line2d_16">
      <g>
       <use style="stroke:#000000;stroke-width:0.8;" x="251.647342" xlink:href="#ma283599cbd" y="239.758125"/>
      </g>
     </g>
     <g id="text_16">
      <!-- NA18853 -->
      <defs>
       <path d="M 40.578125 39.3125 
Q 47.65625 37.796875 51.625 33 
Q 55.609375 28.21875 55.609375 21.1875 
Q 55.609375 10.40625 48.1875 4.484375 
Q 40.765625 -1.421875 27.09375 -1.421875 
Q 22.515625 -1.421875 17.65625 -0.515625 
Q 12.796875 0.390625 7.625 2.203125 
L 7.625 11.71875 
Q 11.71875 9.328125 16.59375 8.109375 
Q 21.484375 6.890625 26.8125 6.890625 
Q 36.078125 6.890625 40.9375 10.546875 
Q 45.796875 14.203125 45.796875 21.1875 
Q 45.796875 27.640625 41.28125 31.265625 
Q 36.765625 34.90625 28.71875 34.90625 
L 20.21875 34.90625 
L 20.21875 43.015625 
L 29.109375 43.015625 
Q 36.375 43.015625 40.234375 45.921875 
Q 44.09375 48.828125 44.09375 54.296875 
Q 44.09375 59.90625 40.109375 62.90625 
Q 36.140625 65.921875 28.71875 65.921875 
Q 24.65625 65.921875 20.015625 65.03125 
Q 15.375 64.15625 9.8125 62.3125 
L 9.8125 71.09375 
Q 15.4375 72.65625 20.34375 73.4375 
Q 25.25 74.21875 29.59375 74.21875 
Q 40.828125 74.21875 47.359375 69.109375 
Q 53.90625 64.015625 53.90625 55.328125 
Q 53.90625 49.265625 50.4375 45.09375 
Q 46.96875 40.921875 40.578125 39.3125 
z
" id="DejaVuSans-33"/>
      </defs>
      <g transform="translate(254.406717 292.8925)rotate(-90)scale(0.1 -0.1)">
       <use xlink:href="#DejaVuSans-4e"/>
       <use x="74.804688" xlink:href="#DejaVuSans-41"/>
       <use x="143.212891" xlink:href="#DejaVuSans-31"/>
       <use x="206.835938" xlink:href="#DejaVuSans-38"/>
       <use x="270.458984" xlink:href="#DejaVuSans-38"/>
       <use x="334.082031" xlink:href="#DejaVuSans-35"/>
       <use x="397.705078" xlink:href="#DejaVuSans-33"/>
      </g>
     </g>
    </g>
    <g id="xtick_17">
     <g id="line2d_17">
      <g>
       <use style="stroke:#000000;stroke-width:0.8;" x="262.961975" xlink:href="#ma283599cbd" y="239.758125"/>
      </g>
     </g>
     <g id="text_17">
      <!-- NA18855 -->
      <g transform="translate(265.72135 292.8925)rotate(-90)scale(0.1 -0.1)">
       <use xlink:href="#DejaVuSans-4e"/>
       <use x="74.804688" xlink:href="#DejaVuSans-41"/>
       <use x="143.212891" xlink:href="#DejaVuSans-31"/>
       <use x="206.835938" xlink:href="#DejaVuSans-38"/>
       <use x="270.458984" xlink:href="#DejaVuSans-38"/>
       <use x="334.082031" xlink:href="#DejaVuSans-35"/>
       <use x="397.705078" xlink:href="#DejaVuSans-35"/>
      </g>
     </g>
    </g>
    <g id="xtick_18">
     <g id="line2d_18">
      <g>
       <use style="stroke:#000000;stroke-width:0.8;" x="274.276608" xlink:href="#ma283599cbd" y="239.758125"/>
      </g>
     </g>
     <g id="text_18">
      <!-- NA18856 -->
      <g transform="translate(277.035983 292.8925)rotate(-90)scale(0.1 -0.1)">
       <use xlink:href="#DejaVuSans-4e"/>
       <use x="74.804688" xlink:href="#DejaVuSans-41"/>
       <use x="143.212891" xlink:href="#DejaVuSans-31"/>
       <use x="206.835938" xlink:href="#DejaVuSans-38"/>
       <use x="270.458984" xlink:href="#DejaVuSans-38"/>
       <use x="334.082031" xlink:href="#DejaVuSans-35"/>
       <use x="397.705078" xlink:href="#DejaVuSans-36"/>
      </g>
     </g>
    </g>
    <g id="xtick_19">
     <g id="line2d_19">
      <g>
       <use style="stroke:#000000;stroke-width:0.8;" x="285.591242" xlink:href="#ma283599cbd" y="239.758125"/>
      </g>
     </g>
     <g id="text_19">
      <!-- NA18858 -->
      <g transform="translate(288.350617 292.8925)rotate(-90)scale(0.1 -0.1)">
       <use xlink:href="#DejaVuSans-4e"/>
       <use x="74.804688" xlink:href="#DejaVuSans-41"/>
       <use x="143.212891" xlink:href="#DejaVuSans-31"/>
       <use x="206.835938" xlink:href="#DejaVuSans-38"/>
       <use x="270.458984" xlink:href="#DejaVuSans-38"/>
       <use x="334.082031" xlink:href="#DejaVuSans-35"/>
       <use x="397.705078" xlink:href="#DejaVuSans-38"/>
      </g>
     </g>
    </g>
    <g id="xtick_20">
     <g id="line2d_20">
      <g>
       <use style="stroke:#000000;stroke-width:0.8;" x="296.905875" xlink:href="#ma283599cbd" y="239.758125"/>
      </g>
     </g>
     <g id="text_20">
      <!-- NA18859 -->
      <g transform="translate(299.66525 292.8925)rotate(-90)scale(0.1 -0.1)">
       <use xlink:href="#DejaVuSans-4e"/>
       <use x="74.804688" xlink:href="#DejaVuSans-41"/>
       <use x="143.212891" xlink:href="#DejaVuSans-31"/>
       <use x="206.835938" xlink:href="#DejaVuSans-38"/>
       <use x="270.458984" xlink:href="#DejaVuSans-38"/>
       <use x="334.082031" xlink:href="#DejaVuSans-35"/>
       <use x="397.705078" xlink:href="#DejaVuSans-39"/>
      </g>
     </g>
    </g>
    <g id="xtick_21">
     <g id="line2d_21">
      <g>
       <use style="stroke:#000000;stroke-width:0.8;" x="308.220508" xlink:href="#ma283599cbd" y="239.758125"/>
      </g>
     </g>
     <g id="text_21">
      <!-- NA18862 -->
      <g transform="translate(310.979883 292.8925)rotate(-90)scale(0.1 -0.1)">
       <use xlink:href="#DejaVuSans-4e"/>
       <use x="74.804688" xlink:href="#DejaVuSans-41"/>
       <use x="143.212891" xlink:href="#DejaVuSans-31"/>
       <use x="206.835938" xlink:href="#DejaVuSans-38"/>
       <use x="270.458984" xlink:href="#DejaVuSans-38"/>
       <use x="334.082031" xlink:href="#DejaVuSans-36"/>
       <use x="397.705078" xlink:href="#DejaVuSans-32"/>
      </g>
     </g>
    </g>
    <g id="xtick_22">
     <g id="line2d_22">
      <g>
       <use style="stroke:#000000;stroke-width:0.8;" x="319.535142" xlink:href="#ma283599cbd" y="239.758125"/>
      </g>
     </g>
     <g id="text_22">
      <!-- NA18870 -->
      <g transform="translate(322.294517 292.8925)rotate(-90)scale(0.1 -0.1)">
       <use xlink:href="#DejaVuSans-4e"/>
       <use x="74.804688" xlink:href="#DejaVuSans-41"/>
       <use x="143.212891" xlink:href="#DejaVuSans-31"/>
       <use x="206.835938" xlink:href="#DejaVuSans-38"/>
       <use x="270.458984" xlink:href="#DejaVuSans-38"/>
       <use x="334.082031" xlink:href="#DejaVuSans-37"/>
       <use x="397.705078" xlink:href="#DejaVuSans-30"/>
      </g>
     </g>
    </g>
    <g id="xtick_23">
     <g id="line2d_23">
      <g>
       <use style="stroke:#000000;stroke-width:0.8;" x="330.849775" xlink:href="#ma283599cbd" y="239.758125"/>
      </g>
     </g>
     <g id="text_23">
      <!-- NA18907 -->
      <g transform="translate(333.60915 292.8925)rotate(-90)scale(0.1 -0.1)">
       <use xlink:href="#DejaVuSans-4e"/>
       <use x="74.804688" xlink:href="#DejaVuSans-41"/>
       <use x="143.212891" xlink:href="#DejaVuSans-31"/>
       <use x="206.835938" xlink:href="#DejaVuSans-38"/>
       <use x="270.458984" xlink:href="#DejaVuSans-39"/>
       <use x="334.082031" xlink:href="#DejaVuSans-30"/>
       <use x="397.705078" xlink:href="#DejaVuSans-37"/>
      </g>
     </g>
    </g>
    <g id="xtick_24">
     <g id="line2d_24">
      <g>
       <use style="stroke:#000000;stroke-width:0.8;" x="342.164408" xlink:href="#ma283599cbd" y="239.758125"/>
      </g>
     </g>
     <g id="text_24">
      <!-- NA18912 -->
      <g transform="translate(344.923783 292.8925)rotate(-90)scale(0.1 -0.1)">
       <use xlink:href="#DejaVuSans-4e"/>
       <use x="74.804688" xlink:href="#DejaVuSans-41"/>
       <use x="143.212891" xlink:href="#DejaVuSans-31"/>
       <use x="206.835938" xlink:href="#DejaVuSans-38"/>
       <use x="270.458984" xlink:href="#DejaVuSans-39"/>
       <use x="334.082031" xlink:href="#DejaVuSans-31"/>
       <use x="397.705078" xlink:href="#DejaVuSans-32"/>
      </g>
     </g>
    </g>
    <g id="xtick_25">
     <g id="line2d_25">
      <g>
       <use style="stroke:#000000;stroke-width:0.8;" x="353.479042" xlink:href="#ma283599cbd" y="239.758125"/>
      </g>
     </g>
     <g id="text_25">
      <!-- NA18913 -->
      <g transform="translate(356.238417 292.8925)rotate(-90)scale(0.1 -0.1)">
       <use xlink:href="#DejaVuSans-4e"/>
       <use x="74.804688" xlink:href="#DejaVuSans-41"/>
       <use x="143.212891" xlink:href="#DejaVuSans-31"/>
       <use x="206.835938" xlink:href="#DejaVuSans-38"/>
       <use x="270.458984" xlink:href="#DejaVuSans-39"/>
       <use x="334.082031" xlink:href="#DejaVuSans-31"/>
       <use x="397.705078" xlink:href="#DejaVuSans-33"/>
      </g>
     </g>
    </g>
    <g id="xtick_26">
     <g id="line2d_26">
      <g>
       <use style="stroke:#000000;stroke-width:0.8;" x="364.793675" xlink:href="#ma283599cbd" y="239.758125"/>
      </g>
     </g>
     <g id="text_26">
      <!-- NA19092 -->
      <g transform="translate(367.55305 292.8925)rotate(-90)scale(0.1 -0.1)">
       <use xlink:href="#DejaVuSans-4e"/>
       <use x="74.804688" xlink:href="#DejaVuSans-41"/>
       <use x="143.212891" xlink:href="#DejaVuSans-31"/>
       <use x="206.835938" xlink:href="#DejaVuSans-39"/>
       <use x="270.458984" xlink:href="#DejaVuSans-30"/>
       <use x="334.082031" xlink:href="#DejaVuSans-39"/>
       <use x="397.705078" xlink:href="#DejaVuSans-32"/>
      </g>
     </g>
    </g>
    <g id="xtick_27">
     <g id="line2d_27">
      <g>
       <use style="stroke:#000000;stroke-width:0.8;" x="376.108308" xlink:href="#ma283599cbd" y="239.758125"/>
      </g>
     </g>
     <g id="text_27">
      <!-- NA19093 -->
      <g transform="translate(378.867683 292.8925)rotate(-90)scale(0.1 -0.1)">
       <use xlink:href="#DejaVuSans-4e"/>
       <use x="74.804688" xlink:href="#DejaVuSans-41"/>
       <use x="143.212891" xlink:href="#DejaVuSans-31"/>
       <use x="206.835938" xlink:href="#DejaVuSans-39"/>
       <use x="270.458984" xlink:href="#DejaVuSans-30"/>
       <use x="334.082031" xlink:href="#DejaVuSans-39"/>
       <use x="397.705078" xlink:href="#DejaVuSans-33"/>
      </g>
     </g>
    </g>
    <g id="xtick_28">
     <g id="line2d_28">
      <g>
       <use style="stroke:#000000;stroke-width:0.8;" x="387.422942" xlink:href="#ma283599cbd" y="239.758125"/>
      </g>
     </g>
     <g id="text_28">
      <!-- NA19098 -->
      <g transform="translate(390.182317 292.8925)rotate(-90)scale(0.1 -0.1)">
       <use xlink:href="#DejaVuSans-4e"/>
       <use x="74.804688" xlink:href="#DejaVuSans-41"/>
       <use x="143.212891" xlink:href="#DejaVuSans-31"/>
       <use x="206.835938" xlink:href="#DejaVuSans-39"/>
       <use x="270.458984" xlink:href="#DejaVuSans-30"/>
       <use x="334.082031" xlink:href="#DejaVuSans-39"/>
       <use x="397.705078" xlink:href="#DejaVuSans-38"/>
      </g>
     </g>
    </g>
    <g id="xtick_29">
     <g id="line2d_29">
      <g>
       <use style="stroke:#000000;stroke-width:0.8;" x="398.737575" xlink:href="#ma283599cbd" y="239.758125"/>
      </g>
     </g>
     <g id="text_29">
      <!-- NA19099 -->
      <g transform="translate(401.49695 292.8925)rotate(-90)scale(0.1 -0.1)">
       <use xlink:href="#DejaVuSans-4e"/>
       <use x="74.804688" xlink:href="#DejaVuSans-41"/>
       <use x="143.212891" xlink:href="#DejaVuSans-31"/>
       <use x="206.835938" xlink:href="#DejaVuSans-39"/>
       <use x="270.458984" xlink:href="#DejaVuSans-30"/>
       <use x="334.082031" xlink:href="#DejaVuSans-39"/>
       <use x="397.705078" xlink:href="#DejaVuSans-39"/>
      </g>
     </g>
    </g>
    <g id="xtick_30">
     <g id="line2d_30">
      <g>
       <use style="stroke:#000000;stroke-width:0.8;" x="410.052208" xlink:href="#ma283599cbd" y="239.758125"/>
      </g>
     </g>
     <g id="text_30">
      <!-- NA19101 -->
      <g transform="translate(412.811583 292.8925)rotate(-90)scale(0.1 -0.1)">
       <use xlink:href="#DejaVuSans-4e"/>
       <use x="74.804688" xlink:href="#DejaVuSans-41"/>
       <use x="143.212891" xlink:href="#DejaVuSans-31"/>
       <use x="206.835938" xlink:href="#DejaVuSans-39"/>
       <use x="270.458984" xlink:href="#DejaVuSans-31"/>
       <use x="334.082031" xlink:href="#DejaVuSans-30"/>
       <use x="397.705078" xlink:href="#DejaVuSans-31"/>
      </g>
     </g>
    </g>
    <g id="xtick_31">
     <g id="line2d_31">
      <g>
       <use style="stroke:#000000;stroke-width:0.8;" x="421.366842" xlink:href="#ma283599cbd" y="239.758125"/>
      </g>
     </g>
     <g id="text_31">
      <!-- NA19102 -->
      <g transform="translate(424.126217 292.8925)rotate(-90)scale(0.1 -0.1)">
       <use xlink:href="#DejaVuSans-4e"/>
       <use x="74.804688" xlink:href="#DejaVuSans-41"/>
       <use x="143.212891" xlink:href="#DejaVuSans-31"/>
       <use x="206.835938" xlink:href="#DejaVuSans-39"/>
       <use x="270.458984" xlink:href="#DejaVuSans-31"/>
       <use x="334.082031" xlink:href="#DejaVuSans-30"/>
       <use x="397.705078" xlink:href="#DejaVuSans-32"/>
      </g>
     </g>
    </g>
    <g id="xtick_32">
     <g id="line2d_32">
      <g>
       <use style="stroke:#000000;stroke-width:0.8;" x="432.681475" xlink:href="#ma283599cbd" y="239.758125"/>
      </g>
     </g>
     <g id="text_32">
      <!-- NA19108 -->
      <g transform="translate(435.44085 292.8925)rotate(-90)scale(0.1 -0.1)">
       <use xlink:href="#DejaVuSans-4e"/>
       <use x="74.804688" xlink:href="#DejaVuSans-41"/>
       <use x="143.212891" xlink:href="#DejaVuSans-31"/>
       <use x="206.835938" xlink:href="#DejaVuSans-39"/>
       <use x="270.458984" xlink:href="#DejaVuSans-31"/>
       <use x="334.082031" xlink:href="#DejaVuSans-30"/>
       <use x="397.705078" xlink:href="#DejaVuSans-38"/>
      </g>
     </g>
    </g>
    <g id="xtick_33">
     <g id="line2d_33">
      <g>
       <use style="stroke:#000000;stroke-width:0.8;" x="443.996108" xlink:href="#ma283599cbd" y="239.758125"/>
      </g>
     </g>
     <g id="text_33">
      <!-- NA19114 -->
      <g transform="translate(446.755483 292.8925)rotate(-90)scale(0.1 -0.1)">
       <use xlink:href="#DejaVuSans-4e"/>
       <use x="74.804688" xlink:href="#DejaVuSans-41"/>
       <use x="143.212891" xlink:href="#DejaVuSans-31"/>
       <use x="206.835938" xlink:href="#DejaVuSans-39"/>
       <use x="270.458984" xlink:href="#DejaVuSans-31"/>
       <use x="334.082031" xlink:href="#DejaVuSans-31"/>
       <use x="397.705078" xlink:href="#DejaVuSans-34"/>
      </g>
     </g>
    </g>
    <g id="xtick_34">
     <g id="line2d_34">
      <g>
       <use style="stroke:#000000;stroke-width:0.8;" x="455.310742" xlink:href="#ma283599cbd" y="239.758125"/>
      </g>
     </g>
     <g id="text_34">
      <!-- NA19116 -->
      <g transform="translate(458.070117 292.8925)rotate(-90)scale(0.1 -0.1)">
       <use xlink:href="#DejaVuSans-4e"/>
       <use x="74.804688" xlink:href="#DejaVuSans-41"/>
       <use x="143.212891" xlink:href="#DejaVuSans-31"/>
       <use x="206.835938" xlink:href="#DejaVuSans-39"/>
       <use x="270.458984" xlink:href="#DejaVuSans-31"/>
       <use x="334.082031" xlink:href="#DejaVuSans-31"/>
       <use x="397.705078" xlink:href="#DejaVuSans-36"/>
      </g>
     </g>
    </g>
    <g id="xtick_35">
     <g id="line2d_35">
      <g>
       <use style="stroke:#000000;stroke-width:0.8;" x="466.625375" xlink:href="#ma283599cbd" y="239.758125"/>
      </g>
     </g>
     <g id="text_35">
      <!-- NA19127 -->
      <g transform="translate(469.38475 292.8925)rotate(-90)scale(0.1 -0.1)">
       <use xlink:href="#DejaVuSans-4e"/>
       <use x="74.804688" xlink:href="#DejaVuSans-41"/>
       <use x="143.212891" xlink:href="#DejaVuSans-31"/>
       <use x="206.835938" xlink:href="#DejaVuSans-39"/>
       <use x="270.458984" xlink:href="#DejaVuSans-31"/>
       <use x="334.082031" xlink:href="#DejaVuSans-32"/>
       <use x="397.705078" xlink:href="#DejaVuSans-37"/>
      </g>
     </g>
    </g>
    <g id="xtick_36">
     <g id="line2d_36">
      <g>
       <use style="stroke:#000000;stroke-width:0.8;" x="477.940008" xlink:href="#ma283599cbd" y="239.758125"/>
      </g>
     </g>
     <g id="text_36">
      <!-- NA19128 -->
      <g transform="translate(480.699383 292.8925)rotate(-90)scale(0.1 -0.1)">
       <use xlink:href="#DejaVuSans-4e"/>
       <use x="74.804688" xlink:href="#DejaVuSans-41"/>
       <use x="143.212891" xlink:href="#DejaVuSans-31"/>
       <use x="206.835938" xlink:href="#DejaVuSans-39"/>
       <use x="270.458984" xlink:href="#DejaVuSans-31"/>
       <use x="334.082031" xlink:href="#DejaVuSans-32"/>
       <use x="397.705078" xlink:href="#DejaVuSans-38"/>
      </g>
     </g>
    </g>
    <g id="xtick_37">
     <g id="line2d_37">
      <g>
       <use style="stroke:#000000;stroke-width:0.8;" x="489.254642" xlink:href="#ma283599cbd" y="239.758125"/>
      </g>
     </g>
     <g id="text_37">
      <!-- NA19130 -->
      <g transform="translate(492.014017 292.8925)rotate(-90)scale(0.1 -0.1)">
       <use xlink:href="#DejaVuSans-4e"/>
       <use x="74.804688" xlink:href="#DejaVuSans-41"/>
       <use x="143.212891" xlink:href="#DejaVuSans-31"/>
       <use x="206.835938" xlink:href="#DejaVuSans-39"/>
       <use x="270.458984" xlink:href="#DejaVuSans-31"/>
       <use x="334.082031" xlink:href="#DejaVuSans-33"/>
       <use x="397.705078" xlink:href="#DejaVuSans-30"/>
      </g>
     </g>
    </g>
    <g id="xtick_38">
     <g id="line2d_38">
      <g>
       <use style="stroke:#000000;stroke-width:0.8;" x="500.569275" xlink:href="#ma283599cbd" y="239.758125"/>
      </g>
     </g>
     <g id="text_38">
      <!-- NA19140 -->
      <g transform="translate(503.32865 292.8925)rotate(-90)scale(0.1 -0.1)">
       <use xlink:href="#DejaVuSans-4e"/>
       <use x="74.804688" xlink:href="#DejaVuSans-41"/>
       <use x="143.212891" xlink:href="#DejaVuSans-31"/>
       <use x="206.835938" xlink:href="#DejaVuSans-39"/>
       <use x="270.458984" xlink:href="#DejaVuSans-31"/>
       <use x="334.082031" xlink:href="#DejaVuSans-34"/>
       <use x="397.705078" xlink:href="#DejaVuSans-30"/>
      </g>
     </g>
    </g>
    <g id="xtick_39">
     <g id="line2d_39">
      <g>
       <use style="stroke:#000000;stroke-width:0.8;" x="511.883908" xlink:href="#ma283599cbd" y="239.758125"/>
      </g>
     </g>
     <g id="text_39">
      <!-- NA19143 -->
      <g transform="translate(514.643283 292.8925)rotate(-90)scale(0.1 -0.1)">
       <use xlink:href="#DejaVuSans-4e"/>
       <use x="74.804688" xlink:href="#DejaVuSans-41"/>
       <use x="143.212891" xlink:href="#DejaVuSans-31"/>
       <use x="206.835938" xlink:href="#DejaVuSans-39"/>
       <use x="270.458984" xlink:href="#DejaVuSans-31"/>
       <use x="334.082031" xlink:href="#DejaVuSans-34"/>
       <use x="397.705078" xlink:href="#DejaVuSans-33"/>
      </g>
     </g>
    </g>
    <g id="xtick_40">
     <g id="line2d_40">
      <g>
       <use style="stroke:#000000;stroke-width:0.8;" x="523.198542" xlink:href="#ma283599cbd" y="239.758125"/>
      </g>
     </g>
     <g id="text_40">
      <!-- NA19144 -->
      <g transform="translate(525.957917 292.8925)rotate(-90)scale(0.1 -0.1)">
       <use xlink:href="#DejaVuSans-4e"/>
       <use x="74.804688" xlink:href="#DejaVuSans-41"/>
       <use x="143.212891" xlink:href="#DejaVuSans-31"/>
       <use x="206.835938" xlink:href="#DejaVuSans-39"/>
       <use x="270.458984" xlink:href="#DejaVuSans-31"/>
       <use x="334.082031" xlink:href="#DejaVuSans-34"/>
       <use x="397.705078" xlink:href="#DejaVuSans-34"/>
      </g>
     </g>
    </g>
    <g id="xtick_41">
     <g id="line2d_41">
      <g>
       <use style="stroke:#000000;stroke-width:0.8;" x="534.513175" xlink:href="#ma283599cbd" y="239.758125"/>
      </g>
     </g>
     <g id="text_41">
      <!-- NA19152 -->
      <g transform="translate(537.27255 292.8925)rotate(-90)scale(0.1 -0.1)">
       <use xlink:href="#DejaVuSans-4e"/>
       <use x="74.804688" xlink:href="#DejaVuSans-41"/>
       <use x="143.212891" xlink:href="#DejaVuSans-31"/>
       <use x="206.835938" xlink:href="#DejaVuSans-39"/>
       <use x="270.458984" xlink:href="#DejaVuSans-31"/>
       <use x="334.082031" xlink:href="#DejaVuSans-35"/>
       <use x="397.705078" xlink:href="#DejaVuSans-32"/>
      </g>
     </g>
    </g>
    <g id="xtick_42">
     <g id="line2d_42">
      <g>
       <use style="stroke:#000000;stroke-width:0.8;" x="545.827808" xlink:href="#ma283599cbd" y="239.758125"/>
      </g>
     </g>
     <g id="text_42">
      <!-- NA19153 -->
      <g transform="translate(548.587183 292.8925)rotate(-90)scale(0.1 -0.1)">
       <use xlink:href="#DejaVuSans-4e"/>
       <use x="74.804688" xlink:href="#DejaVuSans-41"/>
       <use x="143.212891" xlink:href="#DejaVuSans-31"/>
       <use x="206.835938" xlink:href="#DejaVuSans-39"/>
       <use x="270.458984" xlink:href="#DejaVuSans-31"/>
       <use x="334.082031" xlink:href="#DejaVuSans-35"/>
       <use x="397.705078" xlink:href="#DejaVuSans-33"/>
      </g>
     </g>
    </g>
    <g id="xtick_43">
     <g id="line2d_43">
      <g>
       <use style="stroke:#000000;stroke-width:0.8;" x="557.142441" xlink:href="#ma283599cbd" y="239.758125"/>
      </g>
     </g>
     <g id="text_43">
      <!-- NA19159 -->
      <g transform="translate(559.901816 292.8925)rotate(-90)scale(0.1 -0.1)">
       <use xlink:href="#DejaVuSans-4e"/>
       <use x="74.804688" xlink:href="#DejaVuSans-41"/>
       <use x="143.212891" xlink:href="#DejaVuSans-31"/>
       <use x="206.835938" xlink:href="#DejaVuSans-39"/>
       <use x="270.458984" xlink:href="#DejaVuSans-31"/>
       <use x="334.082031" xlink:href="#DejaVuSans-35"/>
       <use x="397.705078" xlink:href="#DejaVuSans-39"/>
      </g>
     </g>
    </g>
    <g id="xtick_44">
     <g id="line2d_44">
      <g>
       <use style="stroke:#000000;stroke-width:0.8;" x="568.457075" xlink:href="#ma283599cbd" y="239.758125"/>
      </g>
     </g>
     <g id="text_44">
      <!-- NA19160 -->
      <g transform="translate(571.21645 292.8925)rotate(-90)scale(0.1 -0.1)">
       <use xlink:href="#DejaVuSans-4e"/>
       <use x="74.804688" xlink:href="#DejaVuSans-41"/>
       <use x="143.212891" xlink:href="#DejaVuSans-31"/>
       <use x="206.835938" xlink:href="#DejaVuSans-39"/>
       <use x="270.458984" xlink:href="#DejaVuSans-31"/>
       <use x="334.082031" xlink:href="#DejaVuSans-36"/>
       <use x="397.705078" xlink:href="#DejaVuSans-30"/>
      </g>
     </g>
    </g>
    <g id="xtick_45">
     <g id="line2d_45">
      <g>
       <use style="stroke:#000000;stroke-width:0.8;" x="579.771708" xlink:href="#ma283599cbd" y="239.758125"/>
      </g>
     </g>
     <g id="text_45">
      <!-- NA19190 -->
      <g transform="translate(582.531083 292.8925)rotate(-90)scale(0.1 -0.1)">
       <use xlink:href="#DejaVuSans-4e"/>
       <use x="74.804688" xlink:href="#DejaVuSans-41"/>
       <use x="143.212891" xlink:href="#DejaVuSans-31"/>
       <use x="206.835938" xlink:href="#DejaVuSans-39"/>
       <use x="270.458984" xlink:href="#DejaVuSans-31"/>
       <use x="334.082031" xlink:href="#DejaVuSans-39"/>
       <use x="397.705078" xlink:href="#DejaVuSans-30"/>
      </g>
     </g>
    </g>
    <g id="xtick_46">
     <g id="line2d_46">
      <g>
       <use style="stroke:#000000;stroke-width:0.8;" x="591.086341" xlink:href="#ma283599cbd" y="239.758125"/>
      </g>
     </g>
     <g id="text_46">
      <!-- NA19193 -->
      <g transform="translate(593.845716 292.8925)rotate(-90)scale(0.1 -0.1)">
       <use xlink:href="#DejaVuSans-4e"/>
       <use x="74.804688" xlink:href="#DejaVuSans-41"/>
       <use x="143.212891" xlink:href="#DejaVuSans-31"/>
       <use x="206.835938" xlink:href="#DejaVuSans-39"/>
       <use x="270.458984" xlink:href="#DejaVuSans-31"/>
       <use x="334.082031" xlink:href="#DejaVuSans-39"/>
       <use x="397.705078" xlink:href="#DejaVuSans-33"/>
      </g>
     </g>
    </g>
    <g id="xtick_47">
     <g id="line2d_47">
      <g>
       <use style="stroke:#000000;stroke-width:0.8;" x="602.400975" xlink:href="#ma283599cbd" y="239.758125"/>
      </g>
     </g>
     <g id="text_47">
      <!-- NA19203 -->
      <g transform="translate(605.16035 292.8925)rotate(-90)scale(0.1 -0.1)">
       <use xlink:href="#DejaVuSans-4e"/>
       <use x="74.804688" xlink:href="#DejaVuSans-41"/>
       <use x="143.212891" xlink:href="#DejaVuSans-31"/>
       <use x="206.835938" xlink:href="#DejaVuSans-39"/>
       <use x="270.458984" xlink:href="#DejaVuSans-32"/>
       <use x="334.082031" xlink:href="#DejaVuSans-30"/>
       <use x="397.705078" xlink:href="#DejaVuSans-33"/>
      </g>
     </g>
    </g>
    <g id="xtick_48">
     <g id="line2d_48">
      <g>
       <use style="stroke:#000000;stroke-width:0.8;" x="613.715608" xlink:href="#ma283599cbd" y="239.758125"/>
      </g>
     </g>
     <g id="text_48">
      <!-- NA19204 -->
      <g transform="translate(616.474983 292.8925)rotate(-90)scale(0.1 -0.1)">
       <use xlink:href="#DejaVuSans-4e"/>
       <use x="74.804688" xlink:href="#DejaVuSans-41"/>
       <use x="143.212891" xlink:href="#DejaVuSans-31"/>
       <use x="206.835938" xlink:href="#DejaVuSans-39"/>
       <use x="270.458984" xlink:href="#DejaVuSans-32"/>
       <use x="334.082031" xlink:href="#DejaVuSans-30"/>
       <use x="397.705078" xlink:href="#DejaVuSans-34"/>
      </g>
     </g>
    </g>
    <g id="xtick_49">
     <g id="line2d_49">
      <g>
       <use style="stroke:#000000;stroke-width:0.8;" x="625.030241" xlink:href="#ma283599cbd" y="239.758125"/>
      </g>
     </g>
     <g id="text_49">
      <!-- NA19206 -->
      <g transform="translate(627.789616 292.8925)rotate(-90)scale(0.1 -0.1)">
       <use xlink:href="#DejaVuSans-4e"/>
       <use x="74.804688" xlink:href="#DejaVuSans-41"/>
       <use x="143.212891" xlink:href="#DejaVuSans-31"/>
       <use x="206.835938" xlink:href="#DejaVuSans-39"/>
       <use x="270.458984" xlink:href="#DejaVuSans-32"/>
       <use x="334.082031" xlink:href="#DejaVuSans-30"/>
       <use x="397.705078" xlink:href="#DejaVuSans-36"/>
      </g>
     </g>
    </g>
    <g id="xtick_50">
     <g id="line2d_50">
      <g>
       <use style="stroke:#000000;stroke-width:0.8;" x="636.344875" xlink:href="#ma283599cbd" y="239.758125"/>
      </g>
     </g>
     <g id="text_50">
      <!-- NA19207 -->
      <g transform="translate(639.10425 292.8925)rotate(-90)scale(0.1 -0.1)">
       <use xlink:href="#DejaVuSans-4e"/>
       <use x="74.804688" xlink:href="#DejaVuSans-41"/>
       <use x="143.212891" xlink:href="#DejaVuSans-31"/>
       <use x="206.835938" xlink:href="#DejaVuSans-39"/>
       <use x="270.458984" xlink:href="#DejaVuSans-32"/>
       <use x="334.082031" xlink:href="#DejaVuSans-30"/>
       <use x="397.705078" xlink:href="#DejaVuSans-37"/>
      </g>
     </g>
    </g>
    <g id="xtick_51">
     <g id="line2d_51">
      <g>
       <use style="stroke:#000000;stroke-width:0.8;" x="647.659508" xlink:href="#ma283599cbd" y="239.758125"/>
      </g>
     </g>
     <g id="text_51">
      <!-- NA19209 -->
      <g transform="translate(650.418883 292.8925)rotate(-90)scale(0.1 -0.1)">
       <use xlink:href="#DejaVuSans-4e"/>
       <use x="74.804688" xlink:href="#DejaVuSans-41"/>
       <use x="143.212891" xlink:href="#DejaVuSans-31"/>
       <use x="206.835938" xlink:href="#DejaVuSans-39"/>
       <use x="270.458984" xlink:href="#DejaVuSans-32"/>
       <use x="334.082031" xlink:href="#DejaVuSans-30"/>
       <use x="397.705078" xlink:href="#DejaVuSans-39"/>
      </g>
     </g>
    </g>
    <g id="xtick_52">
     <g id="line2d_52">
      <g>
       <use style="stroke:#000000;stroke-width:0.8;" x="658.974141" xlink:href="#ma283599cbd" y="239.758125"/>
      </g>
     </g>
     <g id="text_52">
      <!-- NA19210 -->
      <g transform="translate(661.733516 292.8925)rotate(-90)scale(0.1 -0.1)">
       <use xlink:href="#DejaVuSans-4e"/>
       <use x="74.804688" xlink:href="#DejaVuSans-41"/>
       <use x="143.212891" xlink:href="#DejaVuSans-31"/>
       <use x="206.835938" xlink:href="#DejaVuSans-39"/>
       <use x="270.458984" xlink:href="#DejaVuSans-32"/>
       <use x="334.082031" xlink:href="#DejaVuSans-31"/>
       <use x="397.705078" xlink:href="#DejaVuSans-30"/>
      </g>
     </g>
    </g>
    <g id="xtick_53">
     <g id="line2d_53">
      <g>
       <use style="stroke:#000000;stroke-width:0.8;" x="670.288775" xlink:href="#ma283599cbd" y="239.758125"/>
      </g>
     </g>
     <g id="text_53">
      <!-- NA19225 -->
      <g transform="translate(673.04815 292.8925)rotate(-90)scale(0.1 -0.1)">
       <use xlink:href="#DejaVuSans-4e"/>
       <use x="74.804688" xlink:href="#DejaVuSans-41"/>
       <use x="143.212891" xlink:href="#DejaVuSans-31"/>
       <use x="206.835938" xlink:href="#DejaVuSans-39"/>
       <use x="270.458984" xlink:href="#DejaVuSans-32"/>
       <use x="334.082031" xlink:href="#DejaVuSans-32"/>
       <use x="397.705078" xlink:href="#DejaVuSans-35"/>
      </g>
     </g>
    </g>
    <g id="xtick_54">
     <g id="line2d_54">
      <g>
       <use style="stroke:#000000;stroke-width:0.8;" x="681.603408" xlink:href="#ma283599cbd" y="239.758125"/>
      </g>
     </g>
     <g id="text_54">
      <!-- NA19257 -->
      <g transform="translate(684.362783 292.8925)rotate(-90)scale(0.1 -0.1)">
       <use xlink:href="#DejaVuSans-4e"/>
       <use x="74.804688" xlink:href="#DejaVuSans-41"/>
       <use x="143.212891" xlink:href="#DejaVuSans-31"/>
       <use x="206.835938" xlink:href="#DejaVuSans-39"/>
       <use x="270.458984" xlink:href="#DejaVuSans-32"/>
       <use x="334.082031" xlink:href="#DejaVuSans-35"/>
       <use x="397.705078" xlink:href="#DejaVuSans-37"/>
      </g>
     </g>
    </g>
    <g id="text_55">
     <!-- Individual -->
     <defs>
      <path d="M 9.8125 72.90625 
L 19.671875 72.90625 
L 19.671875 0 
L 9.8125 0 
z
" id="DejaVuSans-49"/>
      <path d="M 54.890625 33.015625 
L 54.890625 0 
L 45.90625 0 
L 45.90625 32.71875 
Q 45.90625 40.484375 42.875 44.328125 
Q 39.84375 48.1875 33.796875 48.1875 
Q 26.515625 48.1875 22.3125 43.546875 
Q 18.109375 38.921875 18.109375 30.90625 
L 18.109375 0 
L 9.078125 0 
L 9.078125 54.6875 
L 18.109375 54.6875 
L 18.109375 46.1875 
Q 21.34375 51.125 25.703125 53.5625 
Q 30.078125 56 35.796875 56 
Q 45.21875 56 50.046875 50.171875 
Q 54.890625 44.34375 54.890625 33.015625 
z
" id="DejaVuSans-6e"/>
      <path d="M 45.40625 46.390625 
L 45.40625 75.984375 
L 54.390625 75.984375 
L 54.390625 0 
L 45.40625 0 
L 45.40625 8.203125 
Q 42.578125 3.328125 38.25 0.953125 
Q 33.9375 -1.421875 27.875 -1.421875 
Q 17.96875 -1.421875 11.734375 6.484375 
Q 5.515625 14.40625 5.515625 27.296875 
Q 5.515625 40.1875 11.734375 48.09375 
Q 17.96875 56 27.875 56 
Q 33.9375 56 38.25 53.625 
Q 42.578125 51.265625 45.40625 46.390625 
z
M 14.796875 27.296875 
Q 14.796875 17.390625 18.875 11.75 
Q 22.953125 6.109375 30.078125 6.109375 
Q 37.203125 6.109375 41.296875 11.75 
Q 45.40625 17.390625 45.40625 27.296875 
Q 45.40625 37.203125 41.296875 42.84375 
Q 37.203125 48.484375 30.078125 48.484375 
Q 22.953125 48.484375 18.875 42.84375 
Q 14.796875 37.203125 14.796875 27.296875 
z
" id="DejaVuSans-64"/>
      <path d="M 9.421875 54.6875 
L 18.40625 54.6875 
L 18.40625 0 
L 9.421875 0 
z
M 9.421875 75.984375 
L 18.40625 75.984375 
L 18.40625 64.59375 
L 9.421875 64.59375 
z
" id="DejaVuSans-69"/>
      <path d="M 2.984375 54.6875 
L 12.5 54.6875 
L 29.59375 8.796875 
L 46.6875 54.6875 
L 56.203125 54.6875 
L 35.6875 0 
L 23.484375 0 
z
" id="DejaVuSans-76"/>
      <path d="M 8.5 21.578125 
L 8.5 54.6875 
L 17.484375 54.6875 
L 17.484375 21.921875 
Q 17.484375 14.15625 20.5 10.265625 
Q 23.53125 6.390625 29.59375 6.390625 
Q 36.859375 6.390625 41.078125 11.03125 
Q 45.3125 15.671875 45.3125 23.6875 
L 45.3125 54.6875 
L 54.296875 54.6875 
L 54.296875 0 
L 45.3125 0 
L 45.3125 8.40625 
Q 42.046875 3.421875 37.71875 1 
Q 33.40625 -1.421875 27.6875 -1.421875 
Q 18.265625 -1.421875 13.375 4.4375 
Q 8.5 10.296875 8.5 21.578125 
z
M 31.109375 56 
z
" id="DejaVuSans-75"/>
      <path d="M 34.28125 27.484375 
Q 23.390625 27.484375 19.1875 25 
Q 14.984375 22.515625 14.984375 16.5 
Q 14.984375 11.71875 18.140625 8.90625 
Q 21.296875 6.109375 26.703125 6.109375 
Q 34.1875 6.109375 38.703125 11.40625 
Q 43.21875 16.703125 43.21875 25.484375 
L 43.21875 27.484375 
z
M 52.203125 31.203125 
L 52.203125 0 
L 43.21875 0 
L 43.21875 8.296875 
Q 40.140625 3.328125 35.546875 0.953125 
Q 30.953125 -1.421875 24.3125 -1.421875 
Q 15.921875 -1.421875 10.953125 3.296875 
Q 6 8.015625 6 15.921875 
Q 6 25.140625 12.171875 29.828125 
Q 18.359375 34.515625 30.609375 34.515625 
L 43.21875 34.515625 
L 43.21875 35.40625 
Q 43.21875 41.609375 39.140625 45 
Q 35.0625 48.390625 27.6875 48.390625 
Q 23 48.390625 18.546875 47.265625 
Q 14.109375 46.140625 10.015625 43.890625 
L 10.015625 52.203125 
Q 14.9375 54.109375 19.578125 55.046875 
Q 24.21875 56 28.609375 56 
Q 40.484375 56 46.34375 49.84375 
Q 52.203125 43.703125 52.203125 31.203125 
z
" id="DejaVuSans-61"/>
      <path d="M 9.421875 75.984375 
L 18.40625 75.984375 
L 18.40625 0 
L 9.421875 0 
z
" id="DejaVuSans-6c"/>
     </defs>
     <g transform="translate(357.414062 304.490937)scale(0.1 -0.1)">
      <use xlink:href="#DejaVuSans-49"/>
      <use x="29.492188" xlink:href="#DejaVuSans-6e"/>
      <use x="92.871094" xlink:href="#DejaVuSans-64"/>
      <use x="156.347656" xlink:href="#DejaVuSans-69"/>
      <use x="184.130859" xlink:href="#DejaVuSans-76"/>
      <use x="243.310547" xlink:href="#DejaVuSans-69"/>
      <use x="271.09375" xlink:href="#DejaVuSans-64"/>
      <use x="334.570312" xlink:href="#DejaVuSans-75"/>
      <use x="397.949219" xlink:href="#DejaVuSans-61"/>
      <use x="459.228516" xlink:href="#DejaVuSans-6c"/>
     </g>
    </g>
   </g>
   <g id="matplotlib.axis_2">
    <g id="ytick_1">
     <g id="line2d_55">
      <defs>
       <path d="M 0 0 
L -3.5 0 
" id="mad39a69b24" style="stroke:#000000;stroke-width:0.8;"/>
      </defs>
      <g>
       <use style="stroke:#000000;stroke-width:0.8;" x="46.965625" xlink:href="#mad39a69b24" y="239.758125"/>
      </g>
     </g>
     <g id="text_56">
      <!-- 0 -->
      <g transform="translate(33.603125 243.557344)scale(0.1 -0.1)">
       <use xlink:href="#DejaVuSans-30"/>
      </g>
     </g>
    </g>
    <g id="ytick_2">
     <g id="line2d_56">
      <g>
       <use style="stroke:#000000;stroke-width:0.8;" x="46.965625" xlink:href="#mad39a69b24" y="203.0408"/>
      </g>
     </g>
     <g id="text_57">
      <!-- 50 -->
      <g transform="translate(27.240625 206.840019)scale(0.1 -0.1)">
       <use xlink:href="#DejaVuSans-35"/>
       <use x="63.623047" xlink:href="#DejaVuSans-30"/>
      </g>
     </g>
    </g>
    <g id="ytick_3">
     <g id="line2d_57">
      <g>
       <use style="stroke:#000000;stroke-width:0.8;" x="46.965625" xlink:href="#mad39a69b24" y="166.323475"/>
      </g>
     </g>
     <g id="text_58">
      <!-- 100 -->
      <g transform="translate(20.878125 170.122693)scale(0.1 -0.1)">
       <use xlink:href="#DejaVuSans-31"/>
       <use x="63.623047" xlink:href="#DejaVuSans-30"/>
       <use x="127.246094" xlink:href="#DejaVuSans-30"/>
      </g>
     </g>
    </g>
    <g id="ytick_4">
     <g id="line2d_58">
      <g>
       <use style="stroke:#000000;stroke-width:0.8;" x="46.965625" xlink:href="#mad39a69b24" y="129.606149"/>
      </g>
     </g>
     <g id="text_59">
      <!-- 150 -->
      <g transform="translate(20.878125 133.405368)scale(0.1 -0.1)">
       <use xlink:href="#DejaVuSans-31"/>
       <use x="63.623047" xlink:href="#DejaVuSans-35"/>
       <use x="127.246094" xlink:href="#DejaVuSans-30"/>
      </g>
     </g>
    </g>
    <g id="ytick_5">
     <g id="line2d_59">
      <g>
       <use style="stroke:#000000;stroke-width:0.8;" x="46.965625" xlink:href="#mad39a69b24" y="92.888824"/>
      </g>
     </g>
     <g id="text_60">
      <!-- 200 -->
      <g transform="translate(20.878125 96.688043)scale(0.1 -0.1)">
       <use xlink:href="#DejaVuSans-32"/>
       <use x="63.623047" xlink:href="#DejaVuSans-30"/>
       <use x="127.246094" xlink:href="#DejaVuSans-30"/>
      </g>
     </g>
    </g>
    <g id="ytick_6">
     <g id="line2d_60">
      <g>
       <use style="stroke:#000000;stroke-width:0.8;" x="46.965625" xlink:href="#mad39a69b24" y="56.171499"/>
      </g>
     </g>
     <g id="text_61">
      <!-- 250 -->
      <g transform="translate(20.878125 59.970718)scale(0.1 -0.1)">
       <use xlink:href="#DejaVuSans-32"/>
       <use x="63.623047" xlink:href="#DejaVuSans-35"/>
       <use x="127.246094" xlink:href="#DejaVuSans-30"/>
      </g>
     </g>
    </g>
    <g id="text_62">
     <!-- Number of cells -->
     <defs>
      <path d="M 52 44.1875 
Q 55.375 50.25 60.0625 53.125 
Q 64.75 56 71.09375 56 
Q 79.640625 56 84.28125 50.015625 
Q 88.921875 44.046875 88.921875 33.015625 
L 88.921875 0 
L 79.890625 0 
L 79.890625 32.71875 
Q 79.890625 40.578125 77.09375 44.375 
Q 74.3125 48.1875 68.609375 48.1875 
Q 61.625 48.1875 57.5625 43.546875 
Q 53.515625 38.921875 53.515625 30.90625 
L 53.515625 0 
L 44.484375 0 
L 44.484375 32.71875 
Q 44.484375 40.625 41.703125 44.40625 
Q 38.921875 48.1875 33.109375 48.1875 
Q 26.21875 48.1875 22.15625 43.53125 
Q 18.109375 38.875 18.109375 30.90625 
L 18.109375 0 
L 9.078125 0 
L 9.078125 54.6875 
L 18.109375 54.6875 
L 18.109375 46.1875 
Q 21.1875 51.21875 25.484375 53.609375 
Q 29.78125 56 35.6875 56 
Q 41.65625 56 45.828125 52.96875 
Q 50 49.953125 52 44.1875 
z
" id="DejaVuSans-6d"/>
      <path d="M 48.6875 27.296875 
Q 48.6875 37.203125 44.609375 42.84375 
Q 40.53125 48.484375 33.40625 48.484375 
Q 26.265625 48.484375 22.1875 42.84375 
Q 18.109375 37.203125 18.109375 27.296875 
Q 18.109375 17.390625 22.1875 11.75 
Q 26.265625 6.109375 33.40625 6.109375 
Q 40.53125 6.109375 44.609375 11.75 
Q 48.6875 17.390625 48.6875 27.296875 
z
M 18.109375 46.390625 
Q 20.953125 51.265625 25.265625 53.625 
Q 29.59375 56 35.59375 56 
Q 45.5625 56 51.78125 48.09375 
Q 58.015625 40.1875 58.015625 27.296875 
Q 58.015625 14.40625 51.78125 6.484375 
Q 45.5625 -1.421875 35.59375 -1.421875 
Q 29.59375 -1.421875 25.265625 0.953125 
Q 20.953125 3.328125 18.109375 8.203125 
L 18.109375 0 
L 9.078125 0 
L 9.078125 75.984375 
L 18.109375 75.984375 
z
" id="DejaVuSans-62"/>
      <path d="M 56.203125 29.59375 
L 56.203125 25.203125 
L 14.890625 25.203125 
Q 15.484375 15.921875 20.484375 11.0625 
Q 25.484375 6.203125 34.421875 6.203125 
Q 39.59375 6.203125 44.453125 7.46875 
Q 49.3125 8.734375 54.109375 11.28125 
L 54.109375 2.78125 
Q 49.265625 0.734375 44.1875 -0.34375 
Q 39.109375 -1.421875 33.890625 -1.421875 
Q 20.796875 -1.421875 13.15625 6.1875 
Q 5.515625 13.8125 5.515625 26.8125 
Q 5.515625 40.234375 12.765625 48.109375 
Q 20.015625 56 32.328125 56 
Q 43.359375 56 49.78125 48.890625 
Q 56.203125 41.796875 56.203125 29.59375 
z
M 47.21875 32.234375 
Q 47.125 39.59375 43.09375 43.984375 
Q 39.0625 48.390625 32.421875 48.390625 
Q 24.90625 48.390625 20.390625 44.140625 
Q 15.875 39.890625 15.1875 32.171875 
z
" id="DejaVuSans-65"/>
      <path d="M 41.109375 46.296875 
Q 39.59375 47.171875 37.8125 47.578125 
Q 36.03125 48 33.890625 48 
Q 26.265625 48 22.1875 43.046875 
Q 18.109375 38.09375 18.109375 28.8125 
L 18.109375 0 
L 9.078125 0 
L 9.078125 54.6875 
L 18.109375 54.6875 
L 18.109375 46.1875 
Q 20.953125 51.171875 25.484375 53.578125 
Q 30.03125 56 36.53125 56 
Q 37.453125 56 38.578125 55.875 
Q 39.703125 55.765625 41.0625 55.515625 
z
" id="DejaVuSans-72"/>
      <path id="DejaVuSans-20"/>
      <path d="M 30.609375 48.390625 
Q 23.390625 48.390625 19.1875 42.75 
Q 14.984375 37.109375 14.984375 27.296875 
Q 14.984375 17.484375 19.15625 11.84375 
Q 23.34375 6.203125 30.609375 6.203125 
Q 37.796875 6.203125 41.984375 11.859375 
Q 46.1875 17.53125 46.1875 27.296875 
Q 46.1875 37.015625 41.984375 42.703125 
Q 37.796875 48.390625 30.609375 48.390625 
z
M 30.609375 56 
Q 42.328125 56 49.015625 48.375 
Q 55.71875 40.765625 55.71875 27.296875 
Q 55.71875 13.875 49.015625 6.21875 
Q 42.328125 -1.421875 30.609375 -1.421875 
Q 18.84375 -1.421875 12.171875 6.21875 
Q 5.515625 13.875 5.515625 27.296875 
Q 5.515625 40.765625 12.171875 48.375 
Q 18.84375 56 30.609375 56 
z
" id="DejaVuSans-6f"/>
      <path d="M 37.109375 75.984375 
L 37.109375 68.5 
L 28.515625 68.5 
Q 23.6875 68.5 21.796875 66.546875 
Q 19.921875 64.59375 19.921875 59.515625 
L 19.921875 54.6875 
L 34.71875 54.6875 
L 34.71875 47.703125 
L 19.921875 47.703125 
L 19.921875 0 
L 10.890625 0 
L 10.890625 47.703125 
L 2.296875 47.703125 
L 2.296875 54.6875 
L 10.890625 54.6875 
L 10.890625 58.5 
Q 10.890625 67.625 15.140625 71.796875 
Q 19.390625 75.984375 28.609375 75.984375 
z
" id="DejaVuSans-66"/>
      <path d="M 48.78125 52.59375 
L 48.78125 44.1875 
Q 44.96875 46.296875 41.140625 47.34375 
Q 37.3125 48.390625 33.40625 48.390625 
Q 24.65625 48.390625 19.8125 42.84375 
Q 14.984375 37.3125 14.984375 27.296875 
Q 14.984375 17.28125 19.8125 11.734375 
Q 24.65625 6.203125 33.40625 6.203125 
Q 37.3125 6.203125 41.140625 7.25 
Q 44.96875 8.296875 48.78125 10.40625 
L 48.78125 2.09375 
Q 45.015625 0.34375 40.984375 -0.53125 
Q 36.96875 -1.421875 32.421875 -1.421875 
Q 20.0625 -1.421875 12.78125 6.34375 
Q 5.515625 14.109375 5.515625 27.296875 
Q 5.515625 40.671875 12.859375 48.328125 
Q 20.21875 56 33.015625 56 
Q 37.15625 56 41.109375 55.140625 
Q 45.0625 54.296875 48.78125 52.59375 
z
" id="DejaVuSans-63"/>
      <path d="M 44.28125 53.078125 
L 44.28125 44.578125 
Q 40.484375 46.53125 36.375 47.5 
Q 32.28125 48.484375 27.875 48.484375 
Q 21.1875 48.484375 17.84375 46.4375 
Q 14.5 44.390625 14.5 40.28125 
Q 14.5 37.15625 16.890625 35.375 
Q 19.28125 33.59375 26.515625 31.984375 
L 29.59375 31.296875 
Q 39.15625 29.25 43.1875 25.515625 
Q 47.21875 21.78125 47.21875 15.09375 
Q 47.21875 7.46875 41.1875 3.015625 
Q 35.15625 -1.421875 24.609375 -1.421875 
Q 20.21875 -1.421875 15.453125 -0.5625 
Q 10.6875 0.296875 5.421875 2 
L 5.421875 11.28125 
Q 10.40625 8.6875 15.234375 7.390625 
Q 20.0625 6.109375 24.8125 6.109375 
Q 31.15625 6.109375 34.5625 8.28125 
Q 37.984375 10.453125 37.984375 14.40625 
Q 37.984375 18.0625 35.515625 20.015625 
Q 33.0625 21.96875 24.703125 23.78125 
L 21.578125 24.515625 
Q 13.234375 26.265625 9.515625 29.90625 
Q 5.8125 33.546875 5.8125 39.890625 
Q 5.8125 47.609375 11.28125 51.796875 
Q 16.75 56 26.8125 56 
Q 31.78125 56 36.171875 55.265625 
Q 40.578125 54.546875 44.28125 53.078125 
z
" id="DejaVuSans-73"/>
     </defs>
     <g transform="translate(14.798438 170.330312)rotate(-90)scale(0.1 -0.1)">
      <use xlink:href="#DejaVuSans-4e"/>
      <use x="74.804688" xlink:href="#DejaVuSans-75"/>
      <use x="138.183594" xlink:href="#DejaVuSans-6d"/>
      <use x="235.595703" xlink:href="#DejaVuSans-62"/>
      <use x="299.072266" xlink:href="#DejaVuSans-65"/>
      <use x="360.595703" xlink:href="#DejaVuSans-72"/>
      <use x="401.708984" xlink:href="#DejaVuSans-20"/>
      <use x="433.496094" xlink:href="#DejaVuSans-6f"/>
      <use x="494.677734" xlink:href="#DejaVuSans-66"/>
      <use x="529.882812" xlink:href="#DejaVuSans-20"/>
      <use x="561.669922" xlink:href="#DejaVuSans-63"/>
      <use x="616.650391" xlink:href="#DejaVuSans-65"/>
      <use x="678.173828" xlink:href="#DejaVuSans-6c"/>
      <use x="705.957031" xlink:href="#DejaVuSans-6c"/>
      <use x="733.740234" xlink:href="#DejaVuSans-73"/>
     </g>
    </g>
   </g>
   <g id="patch_57">
    <path d="M 46.965625 239.758125 
L 46.965625 22.318125 
" style="fill:none;stroke:#000000;stroke-linecap:square;stroke-linejoin:miter;stroke-width:0.8;"/>
   </g>
   <g id="patch_58">
    <path d="M 716.565625 239.758125 
L 716.565625 22.318125 
" style="fill:none;stroke:#000000;stroke-linecap:square;stroke-linejoin:miter;stroke-width:0.8;"/>
   </g>
   <g id="patch_59">
    <path d="M 46.965625 239.758125 
L 716.565625 239.758125 
" style="fill:none;stroke:#000000;stroke-linecap:square;stroke-linejoin:miter;stroke-width:0.8;"/>
   </g>
   <g id="patch_60">
    <path d="M 46.965625 22.318125 
L 716.565625 22.318125 
" style="fill:none;stroke:#000000;stroke-linecap:square;stroke-linejoin:miter;stroke-width:0.8;"/>
   </g>
   <g id="text_63">
    <!-- Number of cells by individual -->
    <defs>
     <path d="M 32.171875 -5.078125 
Q 28.375 -14.84375 24.75 -17.8125 
Q 21.140625 -20.796875 15.09375 -20.796875 
L 7.90625 -20.796875 
L 7.90625 -13.28125 
L 13.1875 -13.28125 
Q 16.890625 -13.28125 18.9375 -11.515625 
Q 21 -9.765625 23.484375 -3.21875 
L 25.09375 0.875 
L 2.984375 54.6875 
L 12.5 54.6875 
L 29.59375 11.921875 
L 46.6875 54.6875 
L 56.203125 54.6875 
z
" id="DejaVuSans-79"/>
    </defs>
    <g transform="translate(294.322187 16.318125)scale(0.12 -0.12)">
     <use xlink:href="#DejaVuSans-4e"/>
     <use x="74.804688" xlink:href="#DejaVuSans-75"/>
     <use x="138.183594" xlink:href="#DejaVuSans-6d"/>
     <use x="235.595703" xlink:href="#DejaVuSans-62"/>
     <use x="299.072266" xlink:href="#DejaVuSans-65"/>
     <use x="360.595703" xlink:href="#DejaVuSans-72"/>
     <use x="401.708984" xlink:href="#DejaVuSans-20"/>
     <use x="433.496094" xlink:href="#DejaVuSans-6f"/>
     <use x="494.677734" xlink:href="#DejaVuSans-66"/>
     <use x="529.882812" xlink:href="#DejaVuSans-20"/>
     <use x="561.669922" xlink:href="#DejaVuSans-63"/>
     <use x="616.650391" xlink:href="#DejaVuSans-65"/>
     <use x="678.173828" xlink:href="#DejaVuSans-6c"/>
     <use x="705.957031" xlink:href="#DejaVuSans-6c"/>
     <use x="733.740234" xlink:href="#DejaVuSans-73"/>
     <use x="785.839844" xlink:href="#DejaVuSans-20"/>
     <use x="817.626953" xlink:href="#DejaVuSans-62"/>
     <use x="881.103516" xlink:href="#DejaVuSans-79"/>
     <use x="940.283203" xlink:href="#DejaVuSans-20"/>
     <use x="972.070312" xlink:href="#DejaVuSans-69"/>
     <use x="999.853516" xlink:href="#DejaVuSans-6e"/>
     <use x="1063.232422" xlink:href="#DejaVuSans-64"/>
     <use x="1126.708984" xlink:href="#DejaVuSans-69"/>
     <use x="1154.492188" xlink:href="#DejaVuSans-76"/>
     <use x="1213.671875" xlink:href="#DejaVuSans-69"/>
     <use x="1241.455078" xlink:href="#DejaVuSans-64"/>
     <use x="1304.931641" xlink:href="#DejaVuSans-75"/>
     <use x="1368.310547" xlink:href="#DejaVuSans-61"/>
     <use x="1429.589844" xlink:href="#DejaVuSans-6c"/>
    </g>
   </g>
  </g>
 </g>
 <defs>
  <clipPath id="pbd1e6c0cfd">
   <rect height="217.44" width="669.6" x="46.965625" y="22.318125"/>
  </clipPath>
 </defs>
</svg>
