<?xml version="1.0" encoding="utf-8" standalone="no"?>
<!DOCTYPE svg PUBLIC "-//W3C//DTD SVG 1.1//EN"
  "http://www.w3.org/Graphics/SVG/1.1/DTD/svg11.dtd">
<!-- Created with matplotlib (http://matplotlib.org/) -->
<svg height="277pt" version="1.1" viewBox="0 0 714 277" width="714pt" xmlns="http://www.w3.org/2000/svg" xmlns:xlink="http://www.w3.org/1999/xlink">
 <defs>
  <style type="text/css">
*{stroke-linecap:butt;stroke-linejoin:round;}
  </style>
 </defs>
 <g id="figure_1">
  <g id="patch_1">
   <path d="M 0 277.314375 
L 714.540625 277.314375 
L 714.540625 0 
L 0 0 
z
" style="fill:none;"/>
  </g>
  <g id="axes_1">
   <g id="patch_2">
    <path d="M 34.240625 239.758125 
L 703.840625 239.758125 
L 703.840625 22.318125 
L 34.240625 22.318125 
z
" style="fill:#ffffff;"/>
   </g>
   <g id="matplotlib.axis_1">
    <g id="xtick_1">
     <g id="line2d_1">
      <defs>
       <path d="M 0 0 
L 0 3.5 
" id="m4c07b1d08b" style="stroke:#000000;stroke-width:0.8;"/>
      </defs>
      <g>
       <use style="stroke:#000000;stroke-width:0.8;" x="110.910103" xlink:href="#m4c07b1d08b" y="239.758125"/>
      </g>
     </g>
     <g id="text_1">
      <!-- 1000000 -->
      <defs>
       <path d="M 12.40625 8.296875 
L 28.515625 8.296875 
L 28.515625 63.921875 
L 10.984375 60.40625 
L 10.984375 69.390625 
L 28.421875 72.90625 
L 38.28125 72.90625 
L 38.28125 8.296875 
L 54.390625 8.296875 
L 54.390625 0 
L 12.40625 0 
z
" id="DejaVuSans-31"/>
       <path d="M 31.78125 66.40625 
Q 24.171875 66.40625 20.328125 58.90625 
Q 16.5 51.421875 16.5 36.375 
Q 16.5 21.390625 20.328125 13.890625 
Q 24.171875 6.390625 31.78125 6.390625 
Q 39.453125 6.390625 43.28125 13.890625 
Q 47.125 21.390625 47.125 36.375 
Q 47.125 51.421875 43.28125 58.90625 
Q 39.453125 66.40625 31.78125 66.40625 
z
M 31.78125 74.21875 
Q 44.046875 74.21875 50.515625 64.515625 
Q 56.984375 54.828125 56.984375 36.375 
Q 56.984375 17.96875 50.515625 8.265625 
Q 44.046875 -1.421875 31.78125 -1.421875 
Q 19.53125 -1.421875 13.0625 8.265625 
Q 6.59375 17.96875 6.59375 36.375 
Q 6.59375 54.828125 13.0625 64.515625 
Q 19.53125 74.21875 31.78125 74.21875 
z
" id="DejaVuSans-30"/>
      </defs>
      <g transform="translate(88.641353 254.356562)scale(0.1 -0.1)">
       <use xlink:href="#DejaVuSans-31"/>
       <use x="63.623047" xlink:href="#DejaVuSans-30"/>
       <use x="127.246094" xlink:href="#DejaVuSans-30"/>
       <use x="190.869141" xlink:href="#DejaVuSans-30"/>
       <use x="254.492188" xlink:href="#DejaVuSans-30"/>
       <use x="318.115234" xlink:href="#DejaVuSans-30"/>
       <use x="381.738281" xlink:href="#DejaVuSans-30"/>
      </g>
     </g>
    </g>
    <g id="xtick_2">
     <g id="line2d_2">
      <g>
       <use style="stroke:#000000;stroke-width:0.8;" x="211.277668" xlink:href="#m4c07b1d08b" y="239.758125"/>
      </g>
     </g>
     <g id="text_2">
      <!-- 2000000 -->
      <defs>
       <path d="M 19.1875 8.296875 
L 53.609375 8.296875 
L 53.609375 0 
L 7.328125 0 
L 7.328125 8.296875 
Q 12.9375 14.109375 22.625 23.890625 
Q 32.328125 33.6875 34.8125 36.53125 
Q 39.546875 41.84375 41.421875 45.53125 
Q 43.3125 49.21875 43.3125 52.78125 
Q 43.3125 58.59375 39.234375 62.25 
Q 35.15625 65.921875 28.609375 65.921875 
Q 23.96875 65.921875 18.8125 64.3125 
Q 13.671875 62.703125 7.8125 59.421875 
L 7.8125 69.390625 
Q 13.765625 71.78125 18.9375 73 
Q 24.125 74.21875 28.421875 74.21875 
Q 39.75 74.21875 46.484375 68.546875 
Q 53.21875 62.890625 53.21875 53.421875 
Q 53.21875 48.921875 51.53125 44.890625 
Q 49.859375 40.875 45.40625 35.40625 
Q 44.1875 33.984375 37.640625 27.21875 
Q 31.109375 20.453125 19.1875 8.296875 
z
" id="DejaVuSans-32"/>
      </defs>
      <g transform="translate(189.008918 254.356562)scale(0.1 -0.1)">
       <use xlink:href="#DejaVuSans-32"/>
       <use x="63.623047" xlink:href="#DejaVuSans-30"/>
       <use x="127.246094" xlink:href="#DejaVuSans-30"/>
       <use x="190.869141" xlink:href="#DejaVuSans-30"/>
       <use x="254.492188" xlink:href="#DejaVuSans-30"/>
       <use x="318.115234" xlink:href="#DejaVuSans-30"/>
       <use x="381.738281" xlink:href="#DejaVuSans-30"/>
      </g>
     </g>
    </g>
    <g id="xtick_3">
     <g id="line2d_3">
      <g>
       <use style="stroke:#000000;stroke-width:0.8;" x="311.645232" xlink:href="#m4c07b1d08b" y="239.758125"/>
      </g>
     </g>
     <g id="text_3">
      <!-- 3000000 -->
      <defs>
       <path d="M 40.578125 39.3125 
Q 47.65625 37.796875 51.625 33 
Q 55.609375 28.21875 55.609375 21.1875 
Q 55.609375 10.40625 48.1875 4.484375 
Q 40.765625 -1.421875 27.09375 -1.421875 
Q 22.515625 -1.421875 17.65625 -0.515625 
Q 12.796875 0.390625 7.625 2.203125 
L 7.625 11.71875 
Q 11.71875 9.328125 16.59375 8.109375 
Q 21.484375 6.890625 26.8125 6.890625 
Q 36.078125 6.890625 40.9375 10.546875 
Q 45.796875 14.203125 45.796875 21.1875 
Q 45.796875 27.640625 41.28125 31.265625 
Q 36.765625 34.90625 28.71875 34.90625 
L 20.21875 34.90625 
L 20.21875 43.015625 
L 29.109375 43.015625 
Q 36.375 43.015625 40.234375 45.921875 
Q 44.09375 48.828125 44.09375 54.296875 
Q 44.09375 59.90625 40.109375 62.90625 
Q 36.140625 65.921875 28.71875 65.921875 
Q 24.65625 65.921875 20.015625 65.03125 
Q 15.375 64.15625 9.8125 62.3125 
L 9.8125 71.09375 
Q 15.4375 72.65625 20.34375 73.4375 
Q 25.25 74.21875 29.59375 74.21875 
Q 40.828125 74.21875 47.359375 69.109375 
Q 53.90625 64.015625 53.90625 55.328125 
Q 53.90625 49.265625 50.4375 45.09375 
Q 46.96875 40.921875 40.578125 39.3125 
z
" id="DejaVuSans-33"/>
      </defs>
      <g transform="translate(289.376482 254.356562)scale(0.1 -0.1)">
       <use xlink:href="#DejaVuSans-33"/>
       <use x="63.623047" xlink:href="#DejaVuSans-30"/>
       <use x="127.246094" xlink:href="#DejaVuSans-30"/>
       <use x="190.869141" xlink:href="#DejaVuSans-30"/>
       <use x="254.492188" xlink:href="#DejaVuSans-30"/>
       <use x="318.115234" xlink:href="#DejaVuSans-30"/>
       <use x="381.738281" xlink:href="#DejaVuSans-30"/>
      </g>
     </g>
    </g>
    <g id="xtick_4">
     <g id="line2d_4">
      <g>
       <use style="stroke:#000000;stroke-width:0.8;" x="412.012797" xlink:href="#m4c07b1d08b" y="239.758125"/>
      </g>
     </g>
     <g id="text_4">
      <!-- 4000000 -->
      <defs>
       <path d="M 37.796875 64.3125 
L 12.890625 25.390625 
L 37.796875 25.390625 
z
M 35.203125 72.90625 
L 47.609375 72.90625 
L 47.609375 25.390625 
L 58.015625 25.390625 
L 58.015625 17.1875 
L 47.609375 17.1875 
L 47.609375 0 
L 37.796875 0 
L 37.796875 17.1875 
L 4.890625 17.1875 
L 4.890625 26.703125 
z
" id="DejaVuSans-34"/>
      </defs>
      <g transform="translate(389.744047 254.356562)scale(0.1 -0.1)">
       <use xlink:href="#DejaVuSans-34"/>
       <use x="63.623047" xlink:href="#DejaVuSans-30"/>
       <use x="127.246094" xlink:href="#DejaVuSans-30"/>
       <use x="190.869141" xlink:href="#DejaVuSans-30"/>
       <use x="254.492188" xlink:href="#DejaVuSans-30"/>
       <use x="318.115234" xlink:href="#DejaVuSans-30"/>
       <use x="381.738281" xlink:href="#DejaVuSans-30"/>
      </g>
     </g>
    </g>
    <g id="xtick_5">
     <g id="line2d_5">
      <g>
       <use style="stroke:#000000;stroke-width:0.8;" x="512.380362" xlink:href="#m4c07b1d08b" y="239.758125"/>
      </g>
     </g>
     <g id="text_5">
      <!-- 5000000 -->
      <defs>
       <path d="M 10.796875 72.90625 
L 49.515625 72.90625 
L 49.515625 64.59375 
L 19.828125 64.59375 
L 19.828125 46.734375 
Q 21.96875 47.46875 24.109375 47.828125 
Q 26.265625 48.1875 28.421875 48.1875 
Q 40.625 48.1875 47.75 41.5 
Q 54.890625 34.8125 54.890625 23.390625 
Q 54.890625 11.625 47.5625 5.09375 
Q 40.234375 -1.421875 26.90625 -1.421875 
Q 22.3125 -1.421875 17.546875 -0.640625 
Q 12.796875 0.140625 7.71875 1.703125 
L 7.71875 11.625 
Q 12.109375 9.234375 16.796875 8.0625 
Q 21.484375 6.890625 26.703125 6.890625 
Q 35.15625 6.890625 40.078125 11.328125 
Q 45.015625 15.765625 45.015625 23.390625 
Q 45.015625 31 40.078125 35.4375 
Q 35.15625 39.890625 26.703125 39.890625 
Q 22.75 39.890625 18.8125 39.015625 
Q 14.890625 38.140625 10.796875 36.28125 
z
" id="DejaVuSans-35"/>
      </defs>
      <g transform="translate(490.111612 254.356562)scale(0.1 -0.1)">
       <use xlink:href="#DejaVuSans-35"/>
       <use x="63.623047" xlink:href="#DejaVuSans-30"/>
       <use x="127.246094" xlink:href="#DejaVuSans-30"/>
       <use x="190.869141" xlink:href="#DejaVuSans-30"/>
       <use x="254.492188" xlink:href="#DejaVuSans-30"/>
       <use x="318.115234" xlink:href="#DejaVuSans-30"/>
       <use x="381.738281" xlink:href="#DejaVuSans-30"/>
      </g>
     </g>
    </g>
    <g id="xtick_6">
     <g id="line2d_6">
      <g>
       <use style="stroke:#000000;stroke-width:0.8;" x="612.747927" xlink:href="#m4c07b1d08b" y="239.758125"/>
      </g>
     </g>
     <g id="text_6">
      <!-- 6000000 -->
      <defs>
       <path d="M 33.015625 40.375 
Q 26.375 40.375 22.484375 35.828125 
Q 18.609375 31.296875 18.609375 23.390625 
Q 18.609375 15.53125 22.484375 10.953125 
Q 26.375 6.390625 33.015625 6.390625 
Q 39.65625 6.390625 43.53125 10.953125 
Q 47.40625 15.53125 47.40625 23.390625 
Q 47.40625 31.296875 43.53125 35.828125 
Q 39.65625 40.375 33.015625 40.375 
z
M 52.59375 71.296875 
L 52.59375 62.3125 
Q 48.875 64.0625 45.09375 64.984375 
Q 41.3125 65.921875 37.59375 65.921875 
Q 27.828125 65.921875 22.671875 59.328125 
Q 17.53125 52.734375 16.796875 39.40625 
Q 19.671875 43.65625 24.015625 45.921875 
Q 28.375 48.1875 33.59375 48.1875 
Q 44.578125 48.1875 50.953125 41.515625 
Q 57.328125 34.859375 57.328125 23.390625 
Q 57.328125 12.15625 50.6875 5.359375 
Q 44.046875 -1.421875 33.015625 -1.421875 
Q 20.359375 -1.421875 13.671875 8.265625 
Q 6.984375 17.96875 6.984375 36.375 
Q 6.984375 53.65625 15.1875 63.9375 
Q 23.390625 74.21875 37.203125 74.21875 
Q 40.921875 74.21875 44.703125 73.484375 
Q 48.484375 72.75 52.59375 71.296875 
z
" id="DejaVuSans-36"/>
      </defs>
      <g transform="translate(590.479177 254.356562)scale(0.1 -0.1)">
       <use xlink:href="#DejaVuSans-36"/>
       <use x="63.623047" xlink:href="#DejaVuSans-30"/>
       <use x="127.246094" xlink:href="#DejaVuSans-30"/>
       <use x="190.869141" xlink:href="#DejaVuSans-30"/>
       <use x="254.492188" xlink:href="#DejaVuSans-30"/>
       <use x="318.115234" xlink:href="#DejaVuSans-30"/>
       <use x="381.738281" xlink:href="#DejaVuSans-30"/>
      </g>
     </g>
    </g>
    <g id="text_7">
     <!-- Read count -->
     <defs>
      <path d="M 44.390625 34.1875 
Q 47.5625 33.109375 50.5625 29.59375 
Q 53.5625 26.078125 56.59375 19.921875 
L 66.609375 0 
L 56 0 
L 46.6875 18.703125 
Q 43.0625 26.03125 39.671875 28.421875 
Q 36.28125 30.8125 30.421875 30.8125 
L 19.671875 30.8125 
L 19.671875 0 
L 9.8125 0 
L 9.8125 72.90625 
L 32.078125 72.90625 
Q 44.578125 72.90625 50.734375 67.671875 
Q 56.890625 62.453125 56.890625 51.90625 
Q 56.890625 45.015625 53.6875 40.46875 
Q 50.484375 35.9375 44.390625 34.1875 
z
M 19.671875 64.796875 
L 19.671875 38.921875 
L 32.078125 38.921875 
Q 39.203125 38.921875 42.84375 42.21875 
Q 46.484375 45.515625 46.484375 51.90625 
Q 46.484375 58.296875 42.84375 61.546875 
Q 39.203125 64.796875 32.078125 64.796875 
z
" id="DejaVuSans-52"/>
      <path d="M 56.203125 29.59375 
L 56.203125 25.203125 
L 14.890625 25.203125 
Q 15.484375 15.921875 20.484375 11.0625 
Q 25.484375 6.203125 34.421875 6.203125 
Q 39.59375 6.203125 44.453125 7.46875 
Q 49.3125 8.734375 54.109375 11.28125 
L 54.109375 2.78125 
Q 49.265625 0.734375 44.1875 -0.34375 
Q 39.109375 -1.421875 33.890625 -1.421875 
Q 20.796875 -1.421875 13.15625 6.1875 
Q 5.515625 13.8125 5.515625 26.8125 
Q 5.515625 40.234375 12.765625 48.109375 
Q 20.015625 56 32.328125 56 
Q 43.359375 56 49.78125 48.890625 
Q 56.203125 41.796875 56.203125 29.59375 
z
M 47.21875 32.234375 
Q 47.125 39.59375 43.09375 43.984375 
Q 39.0625 48.390625 32.421875 48.390625 
Q 24.90625 48.390625 20.390625 44.140625 
Q 15.875 39.890625 15.1875 32.171875 
z
" id="DejaVuSans-65"/>
      <path d="M 34.28125 27.484375 
Q 23.390625 27.484375 19.1875 25 
Q 14.984375 22.515625 14.984375 16.5 
Q 14.984375 11.71875 18.140625 8.90625 
Q 21.296875 6.109375 26.703125 6.109375 
Q 34.1875 6.109375 38.703125 11.40625 
Q 43.21875 16.703125 43.21875 25.484375 
L 43.21875 27.484375 
z
M 52.203125 31.203125 
L 52.203125 0 
L 43.21875 0 
L 43.21875 8.296875 
Q 40.140625 3.328125 35.546875 0.953125 
Q 30.953125 -1.421875 24.3125 -1.421875 
Q 15.921875 -1.421875 10.953125 3.296875 
Q 6 8.015625 6 15.921875 
Q 6 25.140625 12.171875 29.828125 
Q 18.359375 34.515625 30.609375 34.515625 
L 43.21875 34.515625 
L 43.21875 35.40625 
Q 43.21875 41.609375 39.140625 45 
Q 35.0625 48.390625 27.6875 48.390625 
Q 23 48.390625 18.546875 47.265625 
Q 14.109375 46.140625 10.015625 43.890625 
L 10.015625 52.203125 
Q 14.9375 54.109375 19.578125 55.046875 
Q 24.21875 56 28.609375 56 
Q 40.484375 56 46.34375 49.84375 
Q 52.203125 43.703125 52.203125 31.203125 
z
" id="DejaVuSans-61"/>
      <path d="M 45.40625 46.390625 
L 45.40625 75.984375 
L 54.390625 75.984375 
L 54.390625 0 
L 45.40625 0 
L 45.40625 8.203125 
Q 42.578125 3.328125 38.25 0.953125 
Q 33.9375 -1.421875 27.875 -1.421875 
Q 17.96875 -1.421875 11.734375 6.484375 
Q 5.515625 14.40625 5.515625 27.296875 
Q 5.515625 40.1875 11.734375 48.09375 
Q 17.96875 56 27.875 56 
Q 33.9375 56 38.25 53.625 
Q 42.578125 51.265625 45.40625 46.390625 
z
M 14.796875 27.296875 
Q 14.796875 17.390625 18.875 11.75 
Q 22.953125 6.109375 30.078125 6.109375 
Q 37.203125 6.109375 41.296875 11.75 
Q 45.40625 17.390625 45.40625 27.296875 
Q 45.40625 37.203125 41.296875 42.84375 
Q 37.203125 48.484375 30.078125 48.484375 
Q 22.953125 48.484375 18.875 42.84375 
Q 14.796875 37.203125 14.796875 27.296875 
z
" id="DejaVuSans-64"/>
      <path id="DejaVuSans-20"/>
      <path d="M 48.78125 52.59375 
L 48.78125 44.1875 
Q 44.96875 46.296875 41.140625 47.34375 
Q 37.3125 48.390625 33.40625 48.390625 
Q 24.65625 48.390625 19.8125 42.84375 
Q 14.984375 37.3125 14.984375 27.296875 
Q 14.984375 17.28125 19.8125 11.734375 
Q 24.65625 6.203125 33.40625 6.203125 
Q 37.3125 6.203125 41.140625 7.25 
Q 44.96875 8.296875 48.78125 10.40625 
L 48.78125 2.09375 
Q 45.015625 0.34375 40.984375 -0.53125 
Q 36.96875 -1.421875 32.421875 -1.421875 
Q 20.0625 -1.421875 12.78125 6.34375 
Q 5.515625 14.109375 5.515625 27.296875 
Q 5.515625 40.671875 12.859375 48.328125 
Q 20.21875 56 33.015625 56 
Q 37.15625 56 41.109375 55.140625 
Q 45.0625 54.296875 48.78125 52.59375 
z
" id="DejaVuSans-63"/>
      <path d="M 30.609375 48.390625 
Q 23.390625 48.390625 19.1875 42.75 
Q 14.984375 37.109375 14.984375 27.296875 
Q 14.984375 17.484375 19.15625 11.84375 
Q 23.34375 6.203125 30.609375 6.203125 
Q 37.796875 6.203125 41.984375 11.859375 
Q 46.1875 17.53125 46.1875 27.296875 
Q 46.1875 37.015625 41.984375 42.703125 
Q 37.796875 48.390625 30.609375 48.390625 
z
M 30.609375 56 
Q 42.328125 56 49.015625 48.375 
Q 55.71875 40.765625 55.71875 27.296875 
Q 55.71875 13.875 49.015625 6.21875 
Q 42.328125 -1.421875 30.609375 -1.421875 
Q 18.84375 -1.421875 12.171875 6.21875 
Q 5.515625 13.875 5.515625 27.296875 
Q 5.515625 40.765625 12.171875 48.375 
Q 18.84375 56 30.609375 56 
z
" id="DejaVuSans-6f"/>
      <path d="M 8.5 21.578125 
L 8.5 54.6875 
L 17.484375 54.6875 
L 17.484375 21.921875 
Q 17.484375 14.15625 20.5 10.265625 
Q 23.53125 6.390625 29.59375 6.390625 
Q 36.859375 6.390625 41.078125 11.03125 
Q 45.3125 15.671875 45.3125 23.6875 
L 45.3125 54.6875 
L 54.296875 54.6875 
L 54.296875 0 
L 45.3125 0 
L 45.3125 8.40625 
Q 42.046875 3.421875 37.71875 1 
Q 33.40625 -1.421875 27.6875 -1.421875 
Q 18.265625 -1.421875 13.375 4.4375 
Q 8.5 10.296875 8.5 21.578125 
z
M 31.109375 56 
z
" id="DejaVuSans-75"/>
      <path d="M 54.890625 33.015625 
L 54.890625 0 
L 45.90625 0 
L 45.90625 32.71875 
Q 45.90625 40.484375 42.875 44.328125 
Q 39.84375 48.1875 33.796875 48.1875 
Q 26.515625 48.1875 22.3125 43.546875 
Q 18.109375 38.921875 18.109375 30.90625 
L 18.109375 0 
L 9.078125 0 
L 9.078125 54.6875 
L 18.109375 54.6875 
L 18.109375 46.1875 
Q 21.34375 51.125 25.703125 53.5625 
Q 30.078125 56 35.796875 56 
Q 45.21875 56 50.046875 50.171875 
Q 54.890625 44.34375 54.890625 33.015625 
z
" id="DejaVuSans-6e"/>
      <path d="M 18.3125 70.21875 
L 18.3125 54.6875 
L 36.8125 54.6875 
L 36.8125 47.703125 
L 18.3125 47.703125 
L 18.3125 18.015625 
Q 18.3125 11.328125 20.140625 9.421875 
Q 21.96875 7.515625 27.59375 7.515625 
L 36.8125 7.515625 
L 36.8125 0 
L 27.59375 0 
Q 17.1875 0 13.234375 3.875 
Q 9.28125 7.765625 9.28125 18.015625 
L 9.28125 47.703125 
L 2.6875 47.703125 
L 2.6875 54.6875 
L 9.28125 54.6875 
L 9.28125 70.21875 
z
" id="DejaVuSans-74"/>
     </defs>
     <g transform="translate(340.559375 268.034687)scale(0.1 -0.1)">
      <use xlink:href="#DejaVuSans-52"/>
      <use x="69.419922" xlink:href="#DejaVuSans-65"/>
      <use x="130.943359" xlink:href="#DejaVuSans-61"/>
      <use x="192.222656" xlink:href="#DejaVuSans-64"/>
      <use x="255.699219" xlink:href="#DejaVuSans-20"/>
      <use x="287.486328" xlink:href="#DejaVuSans-63"/>
      <use x="342.466797" xlink:href="#DejaVuSans-6f"/>
      <use x="403.648438" xlink:href="#DejaVuSans-75"/>
      <use x="467.027344" xlink:href="#DejaVuSans-6e"/>
      <use x="530.40625" xlink:href="#DejaVuSans-74"/>
     </g>
    </g>
   </g>
   <g id="matplotlib.axis_2">
    <g id="ytick_1">
     <g id="line2d_7">
      <defs>
       <path d="M 0 0 
L -3.5 0 
" id="mdddd8596ca" style="stroke:#000000;stroke-width:0.8;"/>
      </defs>
      <g>
       <use style="stroke:#000000;stroke-width:0.8;" x="34.240625" xlink:href="#mdddd8596ca" y="229.874489"/>
      </g>
     </g>
     <g id="text_8">
      <!-- 0 -->
      <g transform="translate(20.878125 233.673707)scale(0.1 -0.1)">
       <use xlink:href="#DejaVuSans-30"/>
      </g>
     </g>
    </g>
    <g id="ytick_2">
     <g id="line2d_8">
      <g>
       <use style="stroke:#000000;stroke-width:0.8;" x="34.240625" xlink:href="#mdddd8596ca" y="193.761818"/>
      </g>
     </g>
     <g id="text_9">
      <!-- 1 -->
      <g transform="translate(20.878125 197.561037)scale(0.1 -0.1)">
       <use xlink:href="#DejaVuSans-31"/>
      </g>
     </g>
    </g>
    <g id="ytick_3">
     <g id="line2d_9">
      <g>
       <use style="stroke:#000000;stroke-width:0.8;" x="34.240625" xlink:href="#mdddd8596ca" y="157.649147"/>
      </g>
     </g>
     <g id="text_10">
      <!-- 2 -->
      <g transform="translate(20.878125 161.448366)scale(0.1 -0.1)">
       <use xlink:href="#DejaVuSans-32"/>
      </g>
     </g>
    </g>
    <g id="ytick_4">
     <g id="line2d_10">
      <g>
       <use style="stroke:#000000;stroke-width:0.8;" x="34.240625" xlink:href="#mdddd8596ca" y="121.536477"/>
      </g>
     </g>
     <g id="text_11">
      <!-- 3 -->
      <g transform="translate(20.878125 125.335696)scale(0.1 -0.1)">
       <use xlink:href="#DejaVuSans-33"/>
      </g>
     </g>
    </g>
    <g id="ytick_5">
     <g id="line2d_11">
      <g>
       <use style="stroke:#000000;stroke-width:0.8;" x="34.240625" xlink:href="#mdddd8596ca" y="85.423806"/>
      </g>
     </g>
     <g id="text_12">
      <!-- 4 -->
      <g transform="translate(20.878125 89.223025)scale(0.1 -0.1)">
       <use xlink:href="#DejaVuSans-34"/>
      </g>
     </g>
    </g>
    <g id="ytick_6">
     <g id="line2d_12">
      <g>
       <use style="stroke:#000000;stroke-width:0.8;" x="34.240625" xlink:href="#mdddd8596ca" y="49.311136"/>
      </g>
     </g>
     <g id="text_13">
      <!-- 5 -->
      <g transform="translate(20.878125 53.110354)scale(0.1 -0.1)">
       <use xlink:href="#DejaVuSans-35"/>
      </g>
     </g>
    </g>
    <g id="text_14">
     <!-- Density -->
     <defs>
      <path d="M 19.671875 64.796875 
L 19.671875 8.109375 
L 31.59375 8.109375 
Q 46.6875 8.109375 53.6875 14.9375 
Q 60.6875 21.78125 60.6875 36.53125 
Q 60.6875 51.171875 53.6875 57.984375 
Q 46.6875 64.796875 31.59375 64.796875 
z
M 9.8125 72.90625 
L 30.078125 72.90625 
Q 51.265625 72.90625 61.171875 64.09375 
Q 71.09375 55.28125 71.09375 36.53125 
Q 71.09375 17.671875 61.125 8.828125 
Q 51.171875 0 30.078125 0 
L 9.8125 0 
z
" id="DejaVuSans-44"/>
      <path d="M 44.28125 53.078125 
L 44.28125 44.578125 
Q 40.484375 46.53125 36.375 47.5 
Q 32.28125 48.484375 27.875 48.484375 
Q 21.1875 48.484375 17.84375 46.4375 
Q 14.5 44.390625 14.5 40.28125 
Q 14.5 37.15625 16.890625 35.375 
Q 19.28125 33.59375 26.515625 31.984375 
L 29.59375 31.296875 
Q 39.15625 29.25 43.1875 25.515625 
Q 47.21875 21.78125 47.21875 15.09375 
Q 47.21875 7.46875 41.1875 3.015625 
Q 35.15625 -1.421875 24.609375 -1.421875 
Q 20.21875 -1.421875 15.453125 -0.5625 
Q 10.6875 0.296875 5.421875 2 
L 5.421875 11.28125 
Q 10.40625 8.6875 15.234375 7.390625 
Q 20.0625 6.109375 24.8125 6.109375 
Q 31.15625 6.109375 34.5625 8.28125 
Q 37.984375 10.453125 37.984375 14.40625 
Q 37.984375 18.0625 35.515625 20.015625 
Q 33.0625 21.96875 24.703125 23.78125 
L 21.578125 24.515625 
Q 13.234375 26.265625 9.515625 29.90625 
Q 5.8125 33.546875 5.8125 39.890625 
Q 5.8125 47.609375 11.28125 51.796875 
Q 16.75 56 26.8125 56 
Q 31.78125 56 36.171875 55.265625 
Q 40.578125 54.546875 44.28125 53.078125 
z
" id="DejaVuSans-73"/>
      <path d="M 9.421875 54.6875 
L 18.40625 54.6875 
L 18.40625 0 
L 9.421875 0 
z
M 9.421875 75.984375 
L 18.40625 75.984375 
L 18.40625 64.59375 
L 9.421875 64.59375 
z
" id="DejaVuSans-69"/>
      <path d="M 32.171875 -5.078125 
Q 28.375 -14.84375 24.75 -17.8125 
Q 21.140625 -20.796875 15.09375 -20.796875 
L 7.90625 -20.796875 
L 7.90625 -13.28125 
L 13.1875 -13.28125 
Q 16.890625 -13.28125 18.9375 -11.515625 
Q 21 -9.765625 23.484375 -3.21875 
L 25.09375 0.875 
L 2.984375 54.6875 
L 12.5 54.6875 
L 29.59375 11.921875 
L 46.6875 54.6875 
L 56.203125 54.6875 
z
" id="DejaVuSans-79"/>
     </defs>
     <g transform="translate(14.798438 150.046719)rotate(-90)scale(0.1 -0.1)">
      <use xlink:href="#DejaVuSans-44"/>
      <use x="77.001953" xlink:href="#DejaVuSans-65"/>
      <use x="138.525391" xlink:href="#DejaVuSans-6e"/>
      <use x="201.904297" xlink:href="#DejaVuSans-73"/>
      <use x="254.003906" xlink:href="#DejaVuSans-69"/>
      <use x="281.787109" xlink:href="#DejaVuSans-74"/>
      <use x="320.996094" xlink:href="#DejaVuSans-79"/>
     </g>
    </g>
    <g id="text_15">
     <!-- 1e−7 -->
     <defs>
      <path d="M 10.59375 35.5 
L 73.1875 35.5 
L 73.1875 27.203125 
L 10.59375 27.203125 
z
" id="DejaVuSans-2212"/>
      <path d="M 8.203125 72.90625 
L 55.078125 72.90625 
L 55.078125 68.703125 
L 28.609375 0 
L 18.3125 0 
L 43.21875 64.59375 
L 8.203125 64.59375 
z
" id="DejaVuSans-37"/>
     </defs>
     <g transform="translate(34.240625 19.318125)scale(0.1 -0.1)">
      <use xlink:href="#DejaVuSans-31"/>
      <use x="63.623047" xlink:href="#DejaVuSans-65"/>
      <use x="125.146484" xlink:href="#DejaVuSans-2212"/>
      <use x="208.935547" xlink:href="#DejaVuSans-37"/>
     </g>
    </g>
   </g>
   <g id="line2d_13">
    <path clip-path="url(#p05959d990e)" d="M 64.676989 219.654617 
L 67.73592 217.843106 
L 70.794851 215.82982 
L 73.853782 213.610174 
L 76.912713 211.181887 
L 79.971644 208.545552 
L 83.030575 205.705353 
L 86.089506 202.669878 
L 89.148437 199.452959 
L 95.266299 192.560488 
L 104.443092 181.564761 
L 110.560954 174.300092 
L 113.619885 170.831626 
L 116.678816 167.532078 
L 119.737747 164.438255 
L 122.796678 161.577441 
L 125.855609 158.965295 
L 128.91454 156.604457 
L 131.973471 154.483991 
L 135.032402 152.579741 
L 138.091333 150.855564 
L 144.209195 147.755658 
L 150.327057 144.74553 
L 153.385988 143.129086 
L 156.444919 141.366952 
L 159.50385 139.413641 
L 162.562781 137.232303 
L 165.621712 134.795814 
L 168.680643 132.087268 
L 171.739574 129.099923 
L 174.798505 125.836721 
L 177.857436 122.309472 
L 180.916367 118.537847 
L 183.975298 114.54826 
L 190.09316 106.047819 
L 199.269953 92.589487 
L 205.387815 83.658381 
L 211.505678 75.183191 
L 214.564609 71.225964 
L 217.62354 67.509983 
L 220.682471 64.072295 
L 223.741402 60.946186 
L 226.800333 58.160608 
L 229.859264 55.739718 
L 232.918195 53.70259 
L 235.977126 52.063153 
L 239.036057 50.830359 
L 242.094988 50.008579 
L 245.153919 49.59818 
L 248.21285 49.596205 
L 251.271781 49.997048 
L 254.330712 50.793026 
L 257.389643 51.974736 
L 260.448574 53.531141 
L 263.507505 55.449374 
L 266.566436 57.71429 
L 269.625367 60.307871 
L 272.684298 63.208613 
L 275.743229 66.391033 
L 278.80216 69.825451 
L 281.861091 73.478129 
L 287.978953 81.28672 
L 297.155746 93.649541 
L 306.332539 105.888398 
L 312.450401 113.610603 
L 318.568263 120.860078 
L 324.686125 127.637986 
L 330.803987 134.021725 
L 339.98078 143.126276 
L 355.275435 157.83069 
L 361.393297 163.543358 
L 367.511159 169.005537 
L 373.629022 174.082593 
L 379.746884 178.67629 
L 385.864746 182.756131 
L 391.982608 186.365585 
L 398.10047 189.60516 
L 407.277263 194.050025 
L 428.68978 204.189586 
L 447.043366 213.053504 
L 453.161228 215.799646 
L 459.27909 218.321608 
L 465.396952 220.55855 
L 471.514814 222.466151 
L 477.632676 224.018887 
L 483.750538 225.209612 
L 489.8684 226.048035 
L 495.986262 226.559748 
L 502.104124 226.786411 
L 508.221986 226.786003 
L 517.398779 226.520298 
L 532.693435 226.020095 
L 541.870228 225.998937 
L 551.047021 226.249095 
L 563.282745 226.870084 
L 590.813124 228.394944 
L 603.048848 228.873542 
L 615.284572 229.113157 
L 624.461365 229.09322 
L 636.697089 228.838365 
L 655.050675 228.381706 
L 664.227468 228.329953 
L 673.404261 228.45321 
L 673.404261 228.45321 
" style="fill:none;stroke:#4daf4a;stroke-linecap:square;stroke-width:1.5;"/>
   </g>
   <g id="line2d_14">
    <path clip-path="url(#p05959d990e)" d="M 64.676989 206.430913 
L 70.794851 199.987504 
L 76.912713 193.472361 
L 83.030575 187.363318 
L 86.089506 184.591312 
L 89.148437 182.058152 
L 92.207368 179.785876 
L 95.266299 177.782613 
L 98.32523 176.042801 
L 101.384161 174.548437 
L 104.443092 173.271182 
L 107.502023 172.175085 
L 113.619885 170.362492 
L 125.855609 167.148558 
L 131.973471 165.254339 
L 138.091333 162.962305 
L 141.150264 161.6379 
L 144.209195 160.182957 
L 147.268126 158.590669 
L 150.327057 156.855865 
L 153.385988 154.975359 
L 156.444919 152.948393 
L 159.50385 150.776997 
L 165.621712 146.023631 
L 171.739574 140.785985 
L 177.857436 135.161234 
L 183.975298 129.251599 
L 196.211022 116.9883 
L 202.328884 110.904974 
L 208.446747 105.129269 
L 211.505678 102.440781 
L 214.564609 99.931159 
L 217.62354 97.631071 
L 220.682471 95.564726 
L 223.741402 93.74737 
L 226.800333 92.183484 
L 229.859264 90.865981 
L 232.918195 89.776547 
L 235.977126 88.887125 
L 239.036057 88.162369 
L 245.153919 87.048211 
L 260.448574 84.672003 
L 275.743229 82.035326 
L 278.80216 81.650604 
L 281.861091 81.38224 
L 284.920022 81.263297 
L 287.978953 81.327336 
L 291.037884 81.607699 
L 294.096815 82.136587 
L 297.155746 82.943798 
L 300.214677 84.055155 
L 303.273608 85.490646 
L 306.332539 87.262469 
L 309.39147 89.373202 
L 312.450401 91.81435 
L 315.509332 94.565545 
L 318.568263 97.594583 
L 321.627194 100.858424 
L 327.745056 107.876729 
L 336.921849 118.742346 
L 343.039711 125.592075 
L 346.098642 128.79125 
L 349.157573 131.820487 
L 352.216504 134.681098 
L 358.334366 139.957136 
L 364.452228 144.820606 
L 376.687953 154.357914 
L 382.805815 159.431999 
L 388.923677 164.791028 
L 410.336194 183.983358 
L 416.454056 188.928621 
L 422.571918 193.467203 
L 428.68978 197.607972 
L 434.807642 201.397017 
L 440.925504 204.892384 
L 447.043366 208.145256 
L 453.161228 211.188956 
L 459.27909 214.033294 
L 465.396952 216.662528 
L 471.514814 219.038003 
L 477.632676 221.107522 
L 483.750538 222.821067 
L 489.8684 224.148651 
L 495.986262 225.093981 
L 502.104124 225.69897 
L 508.221986 226.03789 
L 517.398779 226.251577 
L 532.693435 226.524421 
L 541.870228 226.893348 
L 557.164883 227.802997 
L 575.518469 228.86801 
L 587.754193 229.358267 
L 599.989917 229.653524 
L 618.343503 229.833335 
L 658.109606 229.874336 
L 673.404261 229.87448 
L 673.404261 229.87448 
" style="fill:none;stroke:#ffff33;stroke-linecap:square;stroke-width:1.5;"/>
   </g>
   <g id="line2d_15">
    <path clip-path="url(#p05959d990e)" d="M 64.676989 193.069711 
L 70.794851 183.275399 
L 76.912713 173.313312 
L 79.971644 168.485294 
L 83.030575 163.873283 
L 86.089506 159.55499 
L 89.148437 155.597242 
L 92.207368 152.052605 
L 95.266299 148.956729 
L 98.32523 146.326612 
L 101.384161 144.159947 
L 104.443092 142.435608 
L 107.502023 141.115256 
L 110.560954 140.145961 
L 113.619885 139.463609 
L 116.678816 138.996832 
L 122.796678 138.412799 
L 128.91454 137.82832 
L 131.973471 137.387235 
L 135.032402 136.78685 
L 138.091333 135.995398 
L 141.150264 134.991387 
L 144.209195 133.762661 
L 147.268126 132.305131 
L 150.327057 130.621397 
L 153.385988 128.719442 
L 156.444919 126.611536 
L 159.50385 124.313427 
L 162.562781 121.843846 
L 168.680643 116.47895 
L 174.798505 110.721526 
L 187.034229 99.045465 
L 193.152091 93.680402 
L 196.211022 91.228035 
L 199.269953 88.962476 
L 202.328884 86.902703 
L 205.387815 85.062826 
L 208.446747 83.452658 
L 211.505678 82.078675 
L 214.564609 80.945233 
L 217.62354 80.055794 
L 220.682471 79.413973 
L 223.741402 79.024194 
L 226.800333 78.891853 
L 229.859264 79.022933 
L 232.918195 79.423157 
L 235.977126 80.096783 
L 239.036057 81.045247 
L 242.094988 82.265851 
L 245.153919 83.75067 
L 248.21285 85.485804 
L 251.271781 87.45107 
L 254.330712 89.620109 
L 260.448574 94.436534 
L 278.80216 109.750935 
L 281.861091 111.996262 
L 284.920022 114.067816 
L 287.978953 115.950155 
L 291.037884 117.638396 
L 294.096815 119.139051 
L 297.155746 120.4702 
L 303.273608 122.749662 
L 312.450401 125.882745 
L 315.509332 127.051542 
L 318.568263 128.360332 
L 321.627194 129.845583 
L 324.686125 131.533889 
L 327.745056 133.440839 
L 330.803987 135.570804 
L 333.862918 137.917564 
L 336.921849 140.465655 
L 339.98078 143.192221 
L 346.098642 149.065191 
L 355.275435 158.448096 
L 364.452228 167.821013 
L 370.570091 173.760753 
L 376.687953 179.301196 
L 382.805815 184.351301 
L 385.864746 186.673486 
L 388.923677 188.855105 
L 391.982608 190.895518 
L 395.041539 192.796946 
L 401.159401 196.206187 
L 407.277263 199.156453 
L 413.395125 201.756822 
L 422.571918 205.279733 
L 443.984435 213.316908 
L 453.161228 216.684576 
L 459.27909 218.712929 
L 465.396952 220.47586 
L 471.514814 221.938021 
L 477.632676 223.110719 
L 483.750538 224.041993 
L 492.927331 225.126929 
L 505.163055 226.253201 
L 517.398779 227.138601 
L 529.634503 227.791679 
L 560.223814 229.056393 
L 575.518469 229.54209 
L 590.813124 229.783996 
L 615.284572 229.869814 
L 673.404261 229.874489 
L 673.404261 229.874489 
" style="fill:none;stroke:#984ea3;stroke-linecap:square;stroke-width:1.5;"/>
   </g>
   <g id="line2d_16">
    <path clip-path="url(#p05959d990e)" d="M 64.676989 197.197123 
L 76.912713 180.739046 
L 79.971644 176.960414 
L 83.030575 173.450016 
L 86.089506 170.2506 
L 89.148437 167.38657 
L 92.207368 164.863364 
L 95.266299 162.668416 
L 98.32523 160.773555 
L 101.384161 159.13848 
L 104.443092 157.714867 
L 110.560954 155.293619 
L 122.796678 150.842925 
L 128.91454 148.255378 
L 131.973471 146.786293 
L 135.032402 145.174426 
L 138.091333 143.401019 
L 141.150264 141.447714 
L 144.209195 139.297292 
L 147.268126 136.935072 
L 150.327057 134.350764 
L 153.385988 131.540503 
L 156.444919 128.508734 
L 159.50385 125.269644 
L 165.621712 118.278179 
L 180.916367 99.925042 
L 183.975298 96.524494 
L 187.034229 93.321636 
L 190.09316 90.347228 
L 193.152091 87.622507 
L 196.211022 85.15977 
L 199.269953 82.963704 
L 202.328884 81.033195 
L 205.387815 79.363265 
L 208.446747 77.9468 
L 211.505678 76.77584 
L 214.564609 75.842268 
L 217.62354 75.137936 
L 220.682471 74.654322 
L 223.741402 74.381969 
L 226.800333 74.309946 
L 229.859264 74.42558 
L 232.918195 74.714615 
L 235.977126 75.161856 
L 239.036057 75.752225 
L 242.094988 76.472051 
L 248.21285 78.259783 
L 254.330712 80.483372 
L 260.448574 83.159386 
L 263.507505 84.680361 
L 266.566436 86.328772 
L 272.684298 90.00379 
L 278.80216 94.129518 
L 284.920022 98.586565 
L 294.096815 105.601215 
L 303.273608 112.827573 
L 309.39147 117.847076 
L 315.509332 123.16924 
L 321.627194 128.889576 
L 327.745056 135.010231 
L 349.157573 157.113422 
L 355.275435 162.659698 
L 361.393297 167.618619 
L 367.511159 172.062441 
L 376.687953 178.179412 
L 385.864746 184.292364 
L 391.982608 188.589618 
L 410.336194 201.835379 
L 416.454056 205.7753 
L 419.512987 207.561229 
L 422.571918 209.208961 
L 425.630849 210.713239 
L 428.68978 212.073696 
L 431.748711 213.294369 
L 434.807642 214.38304 
L 440.925504 216.209807 
L 447.043366 217.662852 
L 453.161228 218.86385 
L 465.396952 220.937992 
L 489.8684 224.86807 
L 499.045193 226.019153 
L 508.221986 226.865992 
L 520.45771 227.662728 
L 544.929159 228.918779 
L 557.164883 229.325656 
L 566.341676 229.429659 
L 575.518469 229.349648 
L 590.813124 228.948782 
L 603.048848 228.665223 
L 612.225641 228.634348 
L 624.461365 228.870124 
L 655.050675 229.701862 
L 673.404261 229.848845 
L 673.404261 229.848845 
" style="fill:none;stroke:#e41a1c;stroke-linecap:square;stroke-width:1.5;"/>
   </g>
   <g id="line2d_17">
    <path clip-path="url(#p05959d990e)" d="M 64.676989 203.738148 
L 67.73592 198.839672 
L 70.794851 193.555457 
L 76.912713 182.19022 
L 83.030575 170.522795 
L 86.089506 164.886392 
L 89.148437 159.538745 
L 92.207368 154.578481 
L 95.266299 150.080671 
L 98.32523 146.092192 
L 101.384161 142.629449 
L 104.443092 139.678632 
L 107.502023 137.198391 
L 110.560954 135.124575 
L 113.619885 133.376462 
L 116.678816 131.863825 
L 128.91454 126.417956 
L 131.973471 124.863088 
L 135.032402 123.151212 
L 138.091333 121.276037 
L 144.209195 117.100064 
L 156.444919 108.187556 
L 159.50385 106.135171 
L 162.562781 104.237533 
L 165.621712 102.515733 
L 168.680643 100.973598 
L 171.739574 99.596453 
L 177.857436 97.190425 
L 183.975298 94.870294 
L 187.034229 93.575601 
L 190.09316 92.105263 
L 193.152091 90.407061 
L 196.211022 88.444384 
L 199.269953 86.199499 
L 202.328884 83.675153 
L 205.387815 80.894467 
L 208.446747 77.899325 
L 214.564609 71.509568 
L 220.682471 65.095767 
L 223.741402 62.08996 
L 226.800333 59.332007 
L 229.859264 56.904229 
L 232.918195 54.88448 
L 235.977126 53.344697 
L 239.036057 52.349431 
L 242.094988 51.954151 
L 245.153919 52.203243 
L 248.21285 53.127745 
L 251.271781 54.742993 
L 254.330712 57.046486 
L 257.389643 60.016307 
L 260.448574 63.610501 
L 263.507505 67.767685 
L 266.566436 72.409079 
L 269.625367 77.441955 
L 275.743229 88.270317 
L 284.920022 104.895393 
L 291.037884 115.279256 
L 294.096815 120.110749 
L 297.155746 124.675521 
L 300.214677 128.972502 
L 303.273608 133.012179 
L 306.332539 136.813352 
L 309.39147 140.400028 
L 315.509332 147.036373 
L 321.627194 153.129249 
L 327.745056 158.853659 
L 333.862918 164.329958 
L 343.039711 172.180808 
L 349.157573 177.13642 
L 355.275435 181.788608 
L 361.393297 186.070352 
L 367.511159 189.958646 
L 373.629022 193.493263 
L 379.746884 196.768238 
L 391.982608 202.982864 
L 404.218332 209.054959 
L 410.336194 211.867356 
L 416.454056 214.319301 
L 419.512987 215.359543 
L 422.571918 216.256154 
L 425.630849 217.001628 
L 428.68978 217.59561 
L 431.748711 218.045255 
L 437.866573 218.5752 
L 443.984435 218.77187 
L 456.220159 219.04482 
L 462.338021 219.462516 
L 468.455883 220.156458 
L 474.573745 221.086698 
L 499.045193 225.22237 
L 505.163055 225.967982 
L 511.280917 226.540514 
L 520.45771 227.113814 
L 532.693435 227.540533 
L 551.047021 228.127802 
L 587.754193 229.603785 
L 603.048848 229.813191 
L 630.579227 229.873191 
L 673.404261 229.874489 
L 673.404261 229.874489 
" style="fill:none;stroke:#ff7f00;stroke-linecap:square;stroke-width:1.5;"/>
   </g>
   <g id="line2d_18">
    <path clip-path="url(#p05959d990e)" d="M 64.676989 210.243327 
L 67.73592 206.651479 
L 70.794851 202.809193 
L 76.912713 194.588363 
L 92.207368 173.39448 
L 98.32523 165.526415 
L 101.384161 161.837756 
L 104.443092 158.343628 
L 107.502023 155.066676 
L 110.560954 152.028664 
L 113.619885 149.249081 
L 116.678816 146.743104 
L 119.737747 144.519301 
L 122.796678 142.57748 
L 125.855609 140.907087 
L 128.91454 139.486406 
L 131.973471 138.282688 
L 135.032402 137.253127 
L 141.150264 135.505048 
L 147.268126 133.766893 
L 150.327057 132.740342 
L 153.385988 131.522864 
L 156.444919 130.053169 
L 159.50385 128.275002 
L 162.562781 126.139617 
L 165.621712 123.608497 
L 168.680643 120.655998 
L 171.739574 117.271523 
L 174.798505 113.460764 
L 177.857436 109.245708 
L 180.916367 104.663321 
L 183.975298 99.763092 
L 190.09316 89.250742 
L 205.387815 61.995 
L 208.446747 56.935826 
L 211.505678 52.171985 
L 214.564609 47.773916 
L 217.62354 43.810107 
L 220.682471 40.345067 
L 223.741402 37.437045 
L 226.800333 35.135747 
L 229.859264 33.480324 
L 232.918195 32.497771 
L 235.977126 32.201761 
L 239.036057 32.591916 
L 242.094988 33.653437 
L 245.153919 35.35708 
L 248.21285 37.659504 
L 251.271781 40.504045 
L 254.330712 43.822053 
L 257.389643 47.53485 
L 260.448574 51.556386 
L 266.566436 60.165081 
L 275.743229 73.224282 
L 281.861091 81.290101 
L 284.920022 85.041895 
L 291.037884 92.036478 
L 303.273608 105.337455 
L 306.332539 108.893304 
L 309.39147 112.65982 
L 312.450401 116.673841 
L 315.509332 120.952644 
L 318.568263 125.492148 
L 324.686125 135.233115 
L 339.98078 160.589893 
L 343.039711 165.276199 
L 346.098642 169.705024 
L 349.157573 173.848245 
L 352.216504 177.693598 
L 355.275435 181.243467 
L 358.334366 184.512399 
L 361.393297 187.523656 
L 364.452228 190.30527 
L 367.511159 192.8861 
L 370.570091 195.292427 
L 373.629022 197.545515 
L 379.746884 201.646119 
L 385.864746 205.243904 
L 391.982608 208.353613 
L 398.10047 211.013848 
L 404.218332 213.318214 
L 413.395125 216.380929 
L 425.630849 220.147917 
L 434.807642 222.729912 
L 440.925504 224.26381 
L 447.043366 225.615856 
L 453.161228 226.772274 
L 459.27909 227.724791 
L 465.396952 228.4706 
L 471.514814 229.01785 
L 477.632676 229.389602 
L 486.809469 229.697258 
L 499.045193 229.840335 
L 532.693435 229.874434 
L 673.404261 229.874489 
L 673.404261 229.874489 
" style="fill:none;stroke:#377eb8;stroke-linecap:square;stroke-width:1.5;"/>
   </g>
   <g id="patch_3">
    <path d="M 34.240625 239.758125 
L 34.240625 22.318125 
" style="fill:none;stroke:#000000;stroke-linecap:square;stroke-linejoin:miter;stroke-width:0.8;"/>
   </g>
   <g id="patch_4">
    <path d="M 703.840625 239.758125 
L 703.840625 22.318125 
" style="fill:none;stroke:#000000;stroke-linecap:square;stroke-linejoin:miter;stroke-width:0.8;"/>
   </g>
   <g id="patch_5">
    <path d="M 34.240625 239.758125 
L 703.840625 239.758125 
" style="fill:none;stroke:#000000;stroke-linecap:square;stroke-linejoin:miter;stroke-width:0.8;"/>
   </g>
   <g id="patch_6">
    <path d="M 34.240625 22.318125 
L 703.840625 22.318125 
" style="fill:none;stroke:#000000;stroke-linecap:square;stroke-linejoin:miter;stroke-width:0.8;"/>
   </g>
   <g id="text_16">
    <!-- Read count by batch -->
    <defs>
     <path d="M 48.6875 27.296875 
Q 48.6875 37.203125 44.609375 42.84375 
Q 40.53125 48.484375 33.40625 48.484375 
Q 26.265625 48.484375 22.1875 42.84375 
Q 18.109375 37.203125 18.109375 27.296875 
Q 18.109375 17.390625 22.1875 11.75 
Q 26.265625 6.109375 33.40625 6.109375 
Q 40.53125 6.109375 44.609375 11.75 
Q 48.6875 17.390625 48.6875 27.296875 
z
M 18.109375 46.390625 
Q 20.953125 51.265625 25.265625 53.625 
Q 29.59375 56 35.59375 56 
Q 45.5625 56 51.78125 48.09375 
Q 58.015625 40.1875 58.015625 27.296875 
Q 58.015625 14.40625 51.78125 6.484375 
Q 45.5625 -1.421875 35.59375 -1.421875 
Q 29.59375 -1.421875 25.265625 0.953125 
Q 20.953125 3.328125 18.109375 8.203125 
L 18.109375 0 
L 9.078125 0 
L 9.078125 75.984375 
L 18.109375 75.984375 
z
" id="DejaVuSans-62"/>
     <path d="M 54.890625 33.015625 
L 54.890625 0 
L 45.90625 0 
L 45.90625 32.71875 
Q 45.90625 40.484375 42.875 44.328125 
Q 39.84375 48.1875 33.796875 48.1875 
Q 26.515625 48.1875 22.3125 43.546875 
Q 18.109375 38.921875 18.109375 30.90625 
L 18.109375 0 
L 9.078125 0 
L 9.078125 75.984375 
L 18.109375 75.984375 
L 18.109375 46.1875 
Q 21.34375 51.125 25.703125 53.5625 
Q 30.078125 56 35.796875 56 
Q 45.21875 56 50.046875 50.171875 
Q 54.890625 44.34375 54.890625 33.015625 
z
" id="DejaVuSans-68"/>
    </defs>
    <g transform="translate(306.749375 16.318125)scale(0.12 -0.12)">
     <use xlink:href="#DejaVuSans-52"/>
     <use x="69.419922" xlink:href="#DejaVuSans-65"/>
     <use x="130.943359" xlink:href="#DejaVuSans-61"/>
     <use x="192.222656" xlink:href="#DejaVuSans-64"/>
     <use x="255.699219" xlink:href="#DejaVuSans-20"/>
     <use x="287.486328" xlink:href="#DejaVuSans-63"/>
     <use x="342.466797" xlink:href="#DejaVuSans-6f"/>
     <use x="403.648438" xlink:href="#DejaVuSans-75"/>
     <use x="467.027344" xlink:href="#DejaVuSans-6e"/>
     <use x="530.40625" xlink:href="#DejaVuSans-74"/>
     <use x="569.615234" xlink:href="#DejaVuSans-20"/>
     <use x="601.402344" xlink:href="#DejaVuSans-62"/>
     <use x="664.878906" xlink:href="#DejaVuSans-79"/>
     <use x="724.058594" xlink:href="#DejaVuSans-20"/>
     <use x="755.845703" xlink:href="#DejaVuSans-62"/>
     <use x="819.322266" xlink:href="#DejaVuSans-61"/>
     <use x="880.601562" xlink:href="#DejaVuSans-74"/>
     <use x="919.810547" xlink:href="#DejaVuSans-63"/>
     <use x="974.791016" xlink:href="#DejaVuSans-68"/>
    </g>
   </g>
   <g id="legend_1">
    <g id="patch_7">
     <path d="M 652.129688 118.386875 
L 696.840625 118.386875 
Q 698.840625 118.386875 698.840625 116.386875 
L 698.840625 29.318125 
Q 698.840625 27.318125 696.840625 27.318125 
L 652.129688 27.318125 
Q 650.129688 27.318125 650.129688 29.318125 
L 650.129688 116.386875 
Q 650.129688 118.386875 652.129688 118.386875 
z
" style="fill:#ffffff;opacity:0.8;stroke:#cccccc;stroke-linejoin:miter;"/>
    </g>
    <g id="line2d_19">
     <path d="M 654.129688 35.416562 
L 674.129688 35.416562 
" style="fill:none;stroke:#4daf4a;stroke-linecap:square;stroke-width:1.5;"/>
    </g>
    <g id="line2d_20"/>
    <g id="text_17">
     <!-- b1 -->
     <g transform="translate(682.129688 38.916562)scale(0.1 -0.1)">
      <use xlink:href="#DejaVuSans-62"/>
      <use x="63.476562" xlink:href="#DejaVuSans-31"/>
     </g>
    </g>
    <g id="line2d_21">
     <path d="M 654.129688 50.094687 
L 674.129688 50.094687 
" style="fill:none;stroke:#ffff33;stroke-linecap:square;stroke-width:1.5;"/>
    </g>
    <g id="line2d_22"/>
    <g id="text_18">
     <!-- b2 -->
     <g transform="translate(682.129688 53.594687)scale(0.1 -0.1)">
      <use xlink:href="#DejaVuSans-62"/>
      <use x="63.476562" xlink:href="#DejaVuSans-32"/>
     </g>
    </g>
    <g id="line2d_23">
     <path d="M 654.129688 64.772812 
L 674.129688 64.772812 
" style="fill:none;stroke:#984ea3;stroke-linecap:square;stroke-width:1.5;"/>
    </g>
    <g id="line2d_24"/>
    <g id="text_19">
     <!-- b3 -->
     <g transform="translate(682.129688 68.272812)scale(0.1 -0.1)">
      <use xlink:href="#DejaVuSans-62"/>
      <use x="63.476562" xlink:href="#DejaVuSans-33"/>
     </g>
    </g>
    <g id="line2d_25">
     <path d="M 654.129688 79.450938 
L 674.129688 79.450938 
" style="fill:none;stroke:#e41a1c;stroke-linecap:square;stroke-width:1.5;"/>
    </g>
    <g id="line2d_26"/>
    <g id="text_20">
     <!-- b4 -->
     <g transform="translate(682.129688 82.950938)scale(0.1 -0.1)">
      <use xlink:href="#DejaVuSans-62"/>
      <use x="63.476562" xlink:href="#DejaVuSans-34"/>
     </g>
    </g>
    <g id="line2d_27">
     <path d="M 654.129688 94.129063 
L 674.129688 94.129063 
" style="fill:none;stroke:#ff7f00;stroke-linecap:square;stroke-width:1.5;"/>
    </g>
    <g id="line2d_28"/>
    <g id="text_21">
     <!-- b5 -->
     <g transform="translate(682.129688 97.629063)scale(0.1 -0.1)">
      <use xlink:href="#DejaVuSans-62"/>
      <use x="63.476562" xlink:href="#DejaVuSans-35"/>
     </g>
    </g>
    <g id="line2d_29">
     <path d="M 654.129688 108.807187 
L 674.129688 108.807187 
" style="fill:none;stroke:#377eb8;stroke-linecap:square;stroke-width:1.5;"/>
    </g>
    <g id="line2d_30"/>
    <g id="text_22">
     <!-- b6 -->
     <g transform="translate(682.129688 112.307187)scale(0.1 -0.1)">
      <use xlink:href="#DejaVuSans-62"/>
      <use x="63.476562" xlink:href="#DejaVuSans-36"/>
     </g>
    </g>
   </g>
  </g>
 </g>
 <defs>
  <clipPath id="p05959d990e">
   <rect height="217.44" width="669.6" x="34.240625" y="22.318125"/>
  </clipPath>
 </defs>
</svg>
