<?xml version="1.0" encoding="utf-8" standalone="no"?>
<!DOCTYPE svg PUBLIC "-//W3C//DTD SVG 1.1//EN"
  "http://www.w3.org/Graphics/SVG/1.1/DTD/svg11.dtd">
<!-- Created with matplotlib (http://matplotlib.org/) -->
<svg height="277pt" version="1.1" viewBox="0 0 720 277" width="720pt" xmlns="http://www.w3.org/2000/svg" xmlns:xlink="http://www.w3.org/1999/xlink">
 <defs>
  <style type="text/css">
*{stroke-linecap:butt;stroke-linejoin:round;}
  </style>
 </defs>
 <g id="figure_1">
  <g id="patch_1">
   <path d="M 0 277.314375 
L 720.903125 277.314375 
L 720.903125 0 
L 0 0 
z
" style="fill:none;"/>
  </g>
  <g id="axes_1">
   <g id="patch_2">
    <path d="M 40.603125 239.758125 
L 710.203125 239.758125 
L 710.203125 22.318125 
L 40.603125 22.318125 
z
" style="fill:#ffffff;"/>
   </g>
   <g id="patch_3">
    <path clip-path="url(#pe6613bd120)" d="M 81.840745 239.758125 
L 81.840745 217.57037 
L 93.799265 217.57037 
L 93.799265 217.57037 
L 105.757786 217.57037 
L 105.757786 202.778533 
L 117.716306 202.778533 
L 117.716306 165.798941 
L 129.674826 165.798941 
L 129.674826 158.403023 
L 141.633347 158.403023 
L 141.633347 165.798941 
L 153.591867 165.798941 
L 153.591867 180.590778 
L 165.550387 180.590778 
L 165.550387 165.798941 
L 177.508907 165.798941 
L 177.508907 147.309145 
L 189.467428 147.309145 
L 189.467428 151.007105 
L 201.425948 151.007105 
L 201.425948 84.443839 
L 213.384468 84.443839 
L 213.384468 117.725472 
L 225.342989 117.725472 
L 225.342989 88.141798 
L 237.301509 88.141798 
L 237.301509 51.162207 
L 249.260029 51.162207 
L 249.260029 88.141798 
L 261.21855 88.141798 
L 261.21855 77.047921 
L 273.17707 77.047921 
L 273.17707 69.652003 
L 285.13559 69.652003 
L 285.13559 99.235676 
L 297.094111 99.235676 
L 297.094111 132.517309 
L 309.052631 132.517309 
L 309.052631 139.913227 
L 321.011151 139.913227 
L 321.011151 147.309145 
L 332.969672 147.309145 
L 332.969672 158.403023 
L 344.928192 158.403023 
L 344.928192 151.007105 
L 356.886712 151.007105 
L 356.886712 199.080574 
L 368.845233 199.080574 
L 368.845233 176.892819 
L 380.803753 176.892819 
L 380.803753 217.57037 
L 392.762273 217.57037 
L 392.762273 191.684656 
L 404.720794 191.684656 
L 404.720794 210.174452 
L 416.679314 210.174452 
L 416.679314 206.476492 
L 428.637834 206.476492 
L 428.637834 221.268329 
L 440.596355 221.268329 
L 440.596355 217.57037 
L 452.554875 217.57037 
L 452.554875 232.362207 
L 464.513395 232.362207 
L 464.513395 232.362207 
L 476.471916 232.362207 
L 476.471916 239.758125 
L 488.430436 239.758125 
L 488.430436 236.060166 
L 500.388956 236.060166 
L 500.388956 239.758125 
L 512.347477 239.758125 
L 512.347477 239.758125 
L 524.305997 239.758125 
L 524.305997 232.362207 
L 536.264517 232.362207 
L 536.264517 236.060166 
L 548.223038 236.060166 
L 548.223038 236.060166 
L 560.181558 236.060166 
L 560.181558 236.060166 
L 572.140078 236.060166 
L 572.140078 239.758125 
L 584.098599 239.758125 
L 584.098599 236.060166 
L 596.057119 236.060166 
L 596.057119 239.758125 
L 608.015639 239.758125 
L 608.015639 239.758125 
L 619.97416 239.758125 
L 619.97416 239.758125 
L 631.93268 239.758125 
L 631.93268 239.758125 
L 643.8912 239.758125 
L 643.8912 239.758125 
L 655.849721 239.758125 
L 655.849721 236.060166 
L 667.808241 236.060166 
L 667.808241 236.060166 
L 679.766761 236.060166 
L 679.766761 239.758125 
" style="fill:none;stroke:#4daf4a;stroke-linejoin:miter;"/>
   </g>
   <g id="patch_4">
    <path clip-path="url(#pe6613bd120)" d="M 71.295426 239.758125 
L 71.295426 221.268329 
L 81.259151 221.268329 
L 81.259151 195.382615 
L 91.222876 195.382615 
L 91.222876 154.705064 
L 101.186601 154.705064 
L 101.186601 169.496901 
L 111.150326 169.496901 
L 111.150326 184.288737 
L 121.114051 184.288737 
L 121.114051 206.476492 
L 131.077776 206.476492 
L 131.077776 176.892819 
L 141.041501 176.892819 
L 141.041501 162.100982 
L 151.005226 162.100982 
L 151.005226 176.892819 
L 160.968951 176.892819 
L 160.968951 165.798941 
L 170.932676 165.798941 
L 170.932676 180.590778 
L 180.896401 180.590778 
L 180.896401 121.423431 
L 190.860126 121.423431 
L 190.860126 125.12139 
L 200.823851 125.12139 
L 200.823851 147.309145 
L 210.787576 147.309145 
L 210.787576 128.819349 
L 220.751301 128.819349 
L 220.751301 69.652003 
L 230.715026 69.652003 
L 230.715026 69.652003 
L 240.678751 69.652003 
L 240.678751 106.631594 
L 250.642476 106.631594 
L 250.642476 125.12139 
L 260.606201 125.12139 
L 260.606201 99.235676 
L 270.569926 99.235676 
L 270.569926 65.954043 
L 280.533651 65.954043 
L 280.533651 106.631594 
L 290.497376 106.631594 
L 290.497376 84.443839 
L 300.461101 84.443839 
L 300.461101 88.141798 
L 310.424826 88.141798 
L 310.424826 80.74588 
L 320.388551 80.74588 
L 320.388551 84.443839 
L 330.352276 84.443839 
L 330.352276 117.725472 
L 340.316001 117.725472 
L 340.316001 165.798941 
L 350.279726 165.798941 
L 350.279726 151.007105 
L 360.243451 151.007105 
L 360.243451 139.913227 
L 370.207176 139.913227 
L 370.207176 176.892819 
L 380.170901 176.892819 
L 380.170901 125.12139 
L 390.134627 125.12139 
L 390.134627 187.986696 
L 400.098352 187.986696 
L 400.098352 187.986696 
L 410.062077 187.986696 
L 410.062077 206.476492 
L 420.025802 206.476492 
L 420.025802 206.476492 
L 429.989527 206.476492 
L 429.989527 191.684656 
L 439.953252 191.684656 
L 439.953252 228.664247 
L 449.916977 228.664247 
L 449.916977 221.268329 
L 459.880702 221.268329 
L 459.880702 217.57037 
L 469.844427 217.57037 
L 469.844427 228.664247 
L 479.808152 228.664247 
L 479.808152 239.758125 
L 489.771877 239.758125 
L 489.771877 239.758125 
L 499.735602 239.758125 
L 499.735602 236.060166 
L 509.699327 236.060166 
L 509.699327 236.060166 
L 519.663052 236.060166 
L 519.663052 239.758125 
L 529.626777 239.758125 
L 529.626777 228.664247 
L 539.590502 228.664247 
L 539.590502 236.060166 
L 549.554227 236.060166 
L 549.554227 239.758125 
L 559.517952 239.758125 
L 559.517952 236.060166 
L 569.481677 236.060166 
L 569.481677 239.758125 
" style="fill:none;stroke:#ffff33;stroke-linejoin:miter;"/>
   </g>
   <g id="patch_5">
    <path clip-path="url(#pe6613bd120)" d="M 71.039489 239.758125 
L 71.039489 191.684656 
L 80.550042 191.684656 
L 80.550042 184.288737 
L 90.060595 184.288737 
L 90.060595 143.611186 
L 99.571149 143.611186 
L 99.571149 125.12139 
L 109.081702 125.12139 
L 109.081702 125.12139 
L 118.592256 125.12139 
L 118.592256 165.798941 
L 128.102809 165.798941 
L 128.102809 165.798941 
L 137.613363 165.798941 
L 137.613363 162.100982 
L 147.123916 162.100982 
L 147.123916 147.309145 
L 156.634469 147.309145 
L 156.634469 154.705064 
L 166.145023 154.705064 
L 166.145023 114.027513 
L 175.655576 114.027513 
L 175.655576 121.423431 
L 185.16613 121.423431 
L 185.16613 154.705064 
L 194.676683 154.705064 
L 194.676683 73.349962 
L 204.187237 73.349962 
L 204.187237 80.74588 
L 213.69779 80.74588 
L 213.69779 99.235676 
L 223.208343 99.235676 
L 223.208343 99.235676 
L 232.718897 99.235676 
L 232.718897 77.047921 
L 242.22945 77.047921 
L 242.22945 69.652003 
L 251.740004 69.652003 
L 251.740004 80.74588 
L 261.250557 80.74588 
L 261.250557 136.215268 
L 270.76111 136.215268 
L 270.76111 110.329554 
L 280.271664 110.329554 
L 280.271664 99.235676 
L 289.782217 99.235676 
L 289.782217 165.798941 
L 299.292771 165.798941 
L 299.292771 143.611186 
L 308.803324 143.611186 
L 308.803324 128.819349 
L 318.313878 128.819349 
L 318.313878 139.913227 
L 327.824431 139.913227 
L 327.824431 114.027513 
L 337.334984 114.027513 
L 337.334984 154.705064 
L 346.845538 154.705064 
L 346.845538 154.705064 
L 356.356091 154.705064 
L 356.356091 176.892819 
L 365.866645 176.892819 
L 365.866645 180.590778 
L 375.377198 180.590778 
L 375.377198 173.19486 
L 384.887751 173.19486 
L 384.887751 221.268329 
L 394.398305 221.268329 
L 394.398305 202.778533 
L 403.908858 202.778533 
L 403.908858 206.476492 
L 413.419412 206.476492 
L 413.419412 217.57037 
L 422.929965 217.57037 
L 422.929965 221.268329 
L 432.440519 221.268329 
L 432.440519 206.476492 
L 441.951072 206.476492 
L 441.951072 221.268329 
L 451.461625 221.268329 
L 451.461625 228.664247 
L 460.972179 228.664247 
L 460.972179 236.060166 
L 470.482732 236.060166 
L 470.482732 228.664247 
L 479.993286 228.664247 
L 479.993286 239.758125 
L 489.503839 239.758125 
L 489.503839 239.758125 
L 499.014393 239.758125 
L 499.014393 224.966288 
L 508.524946 224.966288 
L 508.524946 239.758125 
L 518.035499 239.758125 
L 518.035499 239.758125 
L 527.546053 239.758125 
L 527.546053 239.758125 
L 537.056606 239.758125 
L 537.056606 232.362207 
L 546.56716 232.362207 
L 546.56716 239.758125 
" style="fill:none;stroke:#984ea3;stroke-linejoin:miter;"/>
   </g>
   <g id="patch_6">
    <path clip-path="url(#pe6613bd120)" d="M 72.844097 239.758125 
L 72.844097 184.288737 
L 83.791188 184.288737 
L 83.791188 136.215268 
L 94.738278 136.215268 
L 94.738278 147.309145 
L 105.685368 147.309145 
L 105.685368 154.705064 
L 116.632459 154.705064 
L 116.632459 191.684656 
L 127.579549 191.684656 
L 127.579549 114.027513 
L 138.526639 114.027513 
L 138.526639 169.496901 
L 149.473729 169.496901 
L 149.473729 143.611186 
L 160.42082 143.611186 
L 160.42082 121.423431 
L 171.36791 121.423431 
L 171.36791 158.403023 
L 182.315 158.403023 
L 182.315 36.37037 
L 193.262091 36.37037 
L 193.262091 69.652003 
L 204.209181 69.652003 
L 204.209181 77.047921 
L 215.156271 77.047921 
L 215.156271 65.954043 
L 226.103361 65.954043 
L 226.103361 32.672411 
L 237.050452 32.672411 
L 237.050452 73.349962 
L 247.997542 73.349962 
L 247.997542 91.839758 
L 258.944632 91.839758 
L 258.944632 65.954043 
L 269.891723 65.954043 
L 269.891723 36.37037 
L 280.838813 36.37037 
L 280.838813 110.329554 
L 291.785903 110.329554 
L 291.785903 80.74588 
L 302.732993 80.74588 
L 302.732993 136.215268 
L 313.680084 136.215268 
L 313.680084 110.329554 
L 324.627174 110.329554 
L 324.627174 106.631594 
L 335.574264 106.631594 
L 335.574264 147.309145 
L 346.521355 147.309145 
L 346.521355 151.007105 
L 357.468445 151.007105 
L 357.468445 184.288737 
L 368.415535 184.288737 
L 368.415535 180.590778 
L 379.362625 180.590778 
L 379.362625 176.892819 
L 390.309716 176.892819 
L 390.309716 176.892819 
L 401.256806 176.892819 
L 401.256806 210.174452 
L 412.203896 210.174452 
L 412.203896 213.872411 
L 423.150987 213.872411 
L 423.150987 224.966288 
L 434.098077 224.966288 
L 434.098077 221.268329 
L 445.045167 221.268329 
L 445.045167 228.664247 
L 455.992257 228.664247 
L 455.992257 232.362207 
L 466.939348 232.362207 
L 466.939348 228.664247 
L 477.886438 228.664247 
L 477.886438 224.966288 
L 488.833528 224.966288 
L 488.833528 239.758125 
L 499.780619 239.758125 
L 499.780619 236.060166 
L 510.727709 236.060166 
L 510.727709 239.758125 
L 521.674799 239.758125 
L 521.674799 236.060166 
L 532.621889 236.060166 
L 532.621889 236.060166 
L 543.56898 236.060166 
L 543.56898 239.758125 
L 554.51607 239.758125 
L 554.51607 239.758125 
L 565.46316 239.758125 
L 565.46316 239.758125 
L 576.410251 239.758125 
L 576.410251 239.758125 
L 587.357341 239.758125 
L 587.357341 239.758125 
L 598.304431 239.758125 
L 598.304431 239.758125 
L 609.251521 239.758125 
L 609.251521 232.362207 
L 620.198612 232.362207 
L 620.198612 239.758125 
" style="fill:none;stroke:#e41a1c;stroke-linejoin:miter;"/>
   </g>
   <g id="patch_7">
    <path clip-path="url(#pe6613bd120)" d="M 79.40372 239.758125 
L 79.40372 187.986696 
L 89.032189 187.986696 
L 89.032189 173.19486 
L 98.660659 173.19486 
L 98.660659 95.537717 
L 108.289128 95.537717 
L 108.289128 143.611186 
L 117.917597 143.611186 
L 117.917597 136.215268 
L 127.546066 136.215268 
L 127.546066 158.403023 
L 137.174536 158.403023 
L 137.174536 147.309145 
L 146.803005 147.309145 
L 146.803005 117.725472 
L 156.431474 117.725472 
L 156.431474 117.725472 
L 166.059943 117.725472 
L 166.059943 106.631594 
L 175.688413 106.631594 
L 175.688413 69.652003 
L 185.316882 69.652003 
L 185.316882 132.517309 
L 194.945351 132.517309 
L 194.945351 121.423431 
L 204.57382 121.423431 
L 204.57382 95.537717 
L 214.202289 95.537717 
L 214.202289 95.537717 
L 223.830759 95.537717 
L 223.830759 47.464247 
L 233.459228 47.464247 
L 233.459228 73.349962 
L 243.087697 73.349962 
L 243.087697 36.37037 
L 252.716166 36.37037 
L 252.716166 32.672411 
L 262.344636 32.672411 
L 262.344636 51.162207 
L 271.973105 51.162207 
L 271.973105 65.954043 
L 281.601574 65.954043 
L 281.601574 136.215268 
L 291.230043 136.215268 
L 291.230043 139.913227 
L 300.858513 139.913227 
L 300.858513 132.517309 
L 310.486982 132.517309 
L 310.486982 143.611186 
L 320.115451 143.611186 
L 320.115451 180.590778 
L 329.74392 180.590778 
L 329.74392 176.892819 
L 339.37239 176.892819 
L 339.37239 151.007105 
L 349.000859 151.007105 
L 349.000859 202.778533 
L 358.629328 202.778533 
L 358.629328 199.080574 
L 368.257797 199.080574 
L 368.257797 195.382615 
L 377.886267 195.382615 
L 377.886267 213.872411 
L 387.514736 213.872411 
L 387.514736 199.080574 
L 397.143205 199.080574 
L 397.143205 217.57037 
L 406.771674 217.57037 
L 406.771674 210.174452 
L 416.400144 210.174452 
L 416.400144 236.060166 
L 426.028613 236.060166 
L 426.028613 232.362207 
L 435.657082 232.362207 
L 435.657082 236.060166 
L 445.285551 236.060166 
L 445.285551 228.664247 
L 454.914021 228.664247 
L 454.914021 217.57037 
L 464.54249 217.57037 
L 464.54249 228.664247 
L 474.170959 228.664247 
L 474.170959 228.664247 
L 483.799428 228.664247 
L 483.799428 232.362207 
L 493.427898 232.362207 
L 493.427898 239.758125 
L 503.056367 239.758125 
L 503.056367 232.362207 
L 512.684836 232.362207 
L 512.684836 239.758125 
L 522.313305 239.758125 
L 522.313305 239.758125 
L 531.941775 239.758125 
L 531.941775 236.060166 
L 541.570244 236.060166 
L 541.570244 236.060166 
L 551.198713 236.060166 
L 551.198713 236.060166 
L 560.827182 236.060166 
L 560.827182 239.758125 
" style="fill:none;stroke:#ff7f00;stroke-linejoin:miter;"/>
   </g>
   <g id="patch_8">
    <path clip-path="url(#pe6613bd120)" d="M 75.343551 239.758125 
L 75.343551 228.664247 
L 82.893854 228.664247 
L 82.893854 187.986696 
L 90.444156 187.986696 
L 90.444156 210.174452 
L 97.994459 210.174452 
L 97.994459 210.174452 
L 105.544761 210.174452 
L 105.544761 184.288737 
L 113.095064 184.288737 
L 113.095064 173.19486 
L 120.645367 173.19486 
L 120.645367 187.986696 
L 128.195669 187.986696 
L 128.195669 176.892819 
L 135.745972 176.892819 
L 135.745972 162.100982 
L 143.296274 162.100982 
L 143.296274 187.986696 
L 150.846577 187.986696 
L 150.846577 184.288737 
L 158.39688 184.288737 
L 158.39688 158.403023 
L 165.947182 158.403023 
L 165.947182 176.892819 
L 173.497485 176.892819 
L 173.497485 187.986696 
L 181.047788 187.986696 
L 181.047788 180.590778 
L 188.59809 180.590778 
L 188.59809 132.517309 
L 196.148393 132.517309 
L 196.148393 139.913227 
L 203.698695 139.913227 
L 203.698695 139.913227 
L 211.248998 139.913227 
L 211.248998 143.611186 
L 218.799301 143.611186 
L 218.799301 69.652003 
L 226.349603 69.652003 
L 226.349603 110.329554 
L 233.899906 110.329554 
L 233.899906 88.141798 
L 241.450208 88.141798 
L 241.450208 110.329554 
L 249.000511 110.329554 
L 249.000511 117.725472 
L 256.550814 117.725472 
L 256.550814 88.141798 
L 264.101116 88.141798 
L 264.101116 125.12139 
L 271.651419 125.12139 
L 271.651419 136.215268 
L 279.201722 136.215268 
L 279.201722 132.517309 
L 286.752024 132.517309 
L 286.752024 147.309145 
L 294.302327 147.309145 
L 294.302327 151.007105 
L 301.852629 151.007105 
L 301.852629 147.309145 
L 309.402932 147.309145 
L 309.402932 162.100982 
L 316.953235 162.100982 
L 316.953235 162.100982 
L 324.503537 162.100982 
L 324.503537 158.403023 
L 332.05384 158.403023 
L 332.05384 199.080574 
L 339.604142 199.080574 
L 339.604142 184.288737 
L 347.154445 184.288737 
L 347.154445 191.684656 
L 354.704748 191.684656 
L 354.704748 232.362207 
L 362.25505 232.362207 
L 362.25505 206.476492 
L 369.805353 206.476492 
L 369.805353 213.872411 
L 377.355656 213.872411 
L 377.355656 210.174452 
L 384.905958 210.174452 
L 384.905958 232.362207 
L 392.456261 232.362207 
L 392.456261 224.966288 
L 400.006563 224.966288 
L 400.006563 236.060166 
L 407.556866 236.060166 
L 407.556866 221.268329 
L 415.107169 221.268329 
L 415.107169 228.664247 
L 422.657471 228.664247 
L 422.657471 232.362207 
L 430.207774 232.362207 
L 430.207774 239.758125 
L 437.758076 239.758125 
L 437.758076 236.060166 
L 445.308379 236.060166 
L 445.308379 232.362207 
L 452.858682 232.362207 
L 452.858682 239.758125 
" style="fill:none;stroke:#377eb8;stroke-linejoin:miter;"/>
   </g>
   <g id="matplotlib.axis_1">
    <g id="xtick_1">
     <g id="line2d_1">
      <defs>
       <path d="M 0 0 
L 0 3.5 
" id="ma4b353ac0f" style="stroke:#000000;stroke-width:0.8;"/>
      </defs>
      <g>
       <use style="stroke:#000000;stroke-width:0.8;" x="117.272603" xlink:href="#ma4b353ac0f" y="239.758125"/>
      </g>
     </g>
     <g id="text_1">
      <!-- 1000000 -->
      <defs>
       <path d="M 12.40625 8.296875 
L 28.515625 8.296875 
L 28.515625 63.921875 
L 10.984375 60.40625 
L 10.984375 69.390625 
L 28.421875 72.90625 
L 38.28125 72.90625 
L 38.28125 8.296875 
L 54.390625 8.296875 
L 54.390625 0 
L 12.40625 0 
z
" id="DejaVuSans-31"/>
       <path d="M 31.78125 66.40625 
Q 24.171875 66.40625 20.328125 58.90625 
Q 16.5 51.421875 16.5 36.375 
Q 16.5 21.390625 20.328125 13.890625 
Q 24.171875 6.390625 31.78125 6.390625 
Q 39.453125 6.390625 43.28125 13.890625 
Q 47.125 21.390625 47.125 36.375 
Q 47.125 51.421875 43.28125 58.90625 
Q 39.453125 66.40625 31.78125 66.40625 
z
M 31.78125 74.21875 
Q 44.046875 74.21875 50.515625 64.515625 
Q 56.984375 54.828125 56.984375 36.375 
Q 56.984375 17.96875 50.515625 8.265625 
Q 44.046875 -1.421875 31.78125 -1.421875 
Q 19.53125 -1.421875 13.0625 8.265625 
Q 6.59375 17.96875 6.59375 36.375 
Q 6.59375 54.828125 13.0625 64.515625 
Q 19.53125 74.21875 31.78125 74.21875 
z
" id="DejaVuSans-30"/>
      </defs>
      <g transform="translate(95.003853 254.356562)scale(0.1 -0.1)">
       <use xlink:href="#DejaVuSans-31"/>
       <use x="63.623047" xlink:href="#DejaVuSans-30"/>
       <use x="127.246094" xlink:href="#DejaVuSans-30"/>
       <use x="190.869141" xlink:href="#DejaVuSans-30"/>
       <use x="254.492188" xlink:href="#DejaVuSans-30"/>
       <use x="318.115234" xlink:href="#DejaVuSans-30"/>
       <use x="381.738281" xlink:href="#DejaVuSans-30"/>
      </g>
     </g>
    </g>
    <g id="xtick_2">
     <g id="line2d_2">
      <g>
       <use style="stroke:#000000;stroke-width:0.8;" x="217.640168" xlink:href="#ma4b353ac0f" y="239.758125"/>
      </g>
     </g>
     <g id="text_2">
      <!-- 2000000 -->
      <defs>
       <path d="M 19.1875 8.296875 
L 53.609375 8.296875 
L 53.609375 0 
L 7.328125 0 
L 7.328125 8.296875 
Q 12.9375 14.109375 22.625 23.890625 
Q 32.328125 33.6875 34.8125 36.53125 
Q 39.546875 41.84375 41.421875 45.53125 
Q 43.3125 49.21875 43.3125 52.78125 
Q 43.3125 58.59375 39.234375 62.25 
Q 35.15625 65.921875 28.609375 65.921875 
Q 23.96875 65.921875 18.8125 64.3125 
Q 13.671875 62.703125 7.8125 59.421875 
L 7.8125 69.390625 
Q 13.765625 71.78125 18.9375 73 
Q 24.125 74.21875 28.421875 74.21875 
Q 39.75 74.21875 46.484375 68.546875 
Q 53.21875 62.890625 53.21875 53.421875 
Q 53.21875 48.921875 51.53125 44.890625 
Q 49.859375 40.875 45.40625 35.40625 
Q 44.1875 33.984375 37.640625 27.21875 
Q 31.109375 20.453125 19.1875 8.296875 
z
" id="DejaVuSans-32"/>
      </defs>
      <g transform="translate(195.371418 254.356562)scale(0.1 -0.1)">
       <use xlink:href="#DejaVuSans-32"/>
       <use x="63.623047" xlink:href="#DejaVuSans-30"/>
       <use x="127.246094" xlink:href="#DejaVuSans-30"/>
       <use x="190.869141" xlink:href="#DejaVuSans-30"/>
       <use x="254.492188" xlink:href="#DejaVuSans-30"/>
       <use x="318.115234" xlink:href="#DejaVuSans-30"/>
       <use x="381.738281" xlink:href="#DejaVuSans-30"/>
      </g>
     </g>
    </g>
    <g id="xtick_3">
     <g id="line2d_3">
      <g>
       <use style="stroke:#000000;stroke-width:0.8;" x="318.007732" xlink:href="#ma4b353ac0f" y="239.758125"/>
      </g>
     </g>
     <g id="text_3">
      <!-- 3000000 -->
      <defs>
       <path d="M 40.578125 39.3125 
Q 47.65625 37.796875 51.625 33 
Q 55.609375 28.21875 55.609375 21.1875 
Q 55.609375 10.40625 48.1875 4.484375 
Q 40.765625 -1.421875 27.09375 -1.421875 
Q 22.515625 -1.421875 17.65625 -0.515625 
Q 12.796875 0.390625 7.625 2.203125 
L 7.625 11.71875 
Q 11.71875 9.328125 16.59375 8.109375 
Q 21.484375 6.890625 26.8125 6.890625 
Q 36.078125 6.890625 40.9375 10.546875 
Q 45.796875 14.203125 45.796875 21.1875 
Q 45.796875 27.640625 41.28125 31.265625 
Q 36.765625 34.90625 28.71875 34.90625 
L 20.21875 34.90625 
L 20.21875 43.015625 
L 29.109375 43.015625 
Q 36.375 43.015625 40.234375 45.921875 
Q 44.09375 48.828125 44.09375 54.296875 
Q 44.09375 59.90625 40.109375 62.90625 
Q 36.140625 65.921875 28.71875 65.921875 
Q 24.65625 65.921875 20.015625 65.03125 
Q 15.375 64.15625 9.8125 62.3125 
L 9.8125 71.09375 
Q 15.4375 72.65625 20.34375 73.4375 
Q 25.25 74.21875 29.59375 74.21875 
Q 40.828125 74.21875 47.359375 69.109375 
Q 53.90625 64.015625 53.90625 55.328125 
Q 53.90625 49.265625 50.4375 45.09375 
Q 46.96875 40.921875 40.578125 39.3125 
z
" id="DejaVuSans-33"/>
      </defs>
      <g transform="translate(295.738982 254.356562)scale(0.1 -0.1)">
       <use xlink:href="#DejaVuSans-33"/>
       <use x="63.623047" xlink:href="#DejaVuSans-30"/>
       <use x="127.246094" xlink:href="#DejaVuSans-30"/>
       <use x="190.869141" xlink:href="#DejaVuSans-30"/>
       <use x="254.492188" xlink:href="#DejaVuSans-30"/>
       <use x="318.115234" xlink:href="#DejaVuSans-30"/>
       <use x="381.738281" xlink:href="#DejaVuSans-30"/>
      </g>
     </g>
    </g>
    <g id="xtick_4">
     <g id="line2d_4">
      <g>
       <use style="stroke:#000000;stroke-width:0.8;" x="418.375297" xlink:href="#ma4b353ac0f" y="239.758125"/>
      </g>
     </g>
     <g id="text_4">
      <!-- 4000000 -->
      <defs>
       <path d="M 37.796875 64.3125 
L 12.890625 25.390625 
L 37.796875 25.390625 
z
M 35.203125 72.90625 
L 47.609375 72.90625 
L 47.609375 25.390625 
L 58.015625 25.390625 
L 58.015625 17.1875 
L 47.609375 17.1875 
L 47.609375 0 
L 37.796875 0 
L 37.796875 17.1875 
L 4.890625 17.1875 
L 4.890625 26.703125 
z
" id="DejaVuSans-34"/>
      </defs>
      <g transform="translate(396.106547 254.356562)scale(0.1 -0.1)">
       <use xlink:href="#DejaVuSans-34"/>
       <use x="63.623047" xlink:href="#DejaVuSans-30"/>
       <use x="127.246094" xlink:href="#DejaVuSans-30"/>
       <use x="190.869141" xlink:href="#DejaVuSans-30"/>
       <use x="254.492188" xlink:href="#DejaVuSans-30"/>
       <use x="318.115234" xlink:href="#DejaVuSans-30"/>
       <use x="381.738281" xlink:href="#DejaVuSans-30"/>
      </g>
     </g>
    </g>
    <g id="xtick_5">
     <g id="line2d_5">
      <g>
       <use style="stroke:#000000;stroke-width:0.8;" x="518.742862" xlink:href="#ma4b353ac0f" y="239.758125"/>
      </g>
     </g>
     <g id="text_5">
      <!-- 5000000 -->
      <defs>
       <path d="M 10.796875 72.90625 
L 49.515625 72.90625 
L 49.515625 64.59375 
L 19.828125 64.59375 
L 19.828125 46.734375 
Q 21.96875 47.46875 24.109375 47.828125 
Q 26.265625 48.1875 28.421875 48.1875 
Q 40.625 48.1875 47.75 41.5 
Q 54.890625 34.8125 54.890625 23.390625 
Q 54.890625 11.625 47.5625 5.09375 
Q 40.234375 -1.421875 26.90625 -1.421875 
Q 22.3125 -1.421875 17.546875 -0.640625 
Q 12.796875 0.140625 7.71875 1.703125 
L 7.71875 11.625 
Q 12.109375 9.234375 16.796875 8.0625 
Q 21.484375 6.890625 26.703125 6.890625 
Q 35.15625 6.890625 40.078125 11.328125 
Q 45.015625 15.765625 45.015625 23.390625 
Q 45.015625 31 40.078125 35.4375 
Q 35.15625 39.890625 26.703125 39.890625 
Q 22.75 39.890625 18.8125 39.015625 
Q 14.890625 38.140625 10.796875 36.28125 
z
" id="DejaVuSans-35"/>
      </defs>
      <g transform="translate(496.474112 254.356562)scale(0.1 -0.1)">
       <use xlink:href="#DejaVuSans-35"/>
       <use x="63.623047" xlink:href="#DejaVuSans-30"/>
       <use x="127.246094" xlink:href="#DejaVuSans-30"/>
       <use x="190.869141" xlink:href="#DejaVuSans-30"/>
       <use x="254.492188" xlink:href="#DejaVuSans-30"/>
       <use x="318.115234" xlink:href="#DejaVuSans-30"/>
       <use x="381.738281" xlink:href="#DejaVuSans-30"/>
      </g>
     </g>
    </g>
    <g id="xtick_6">
     <g id="line2d_6">
      <g>
       <use style="stroke:#000000;stroke-width:0.8;" x="619.110427" xlink:href="#ma4b353ac0f" y="239.758125"/>
      </g>
     </g>
     <g id="text_6">
      <!-- 6000000 -->
      <defs>
       <path d="M 33.015625 40.375 
Q 26.375 40.375 22.484375 35.828125 
Q 18.609375 31.296875 18.609375 23.390625 
Q 18.609375 15.53125 22.484375 10.953125 
Q 26.375 6.390625 33.015625 6.390625 
Q 39.65625 6.390625 43.53125 10.953125 
Q 47.40625 15.53125 47.40625 23.390625 
Q 47.40625 31.296875 43.53125 35.828125 
Q 39.65625 40.375 33.015625 40.375 
z
M 52.59375 71.296875 
L 52.59375 62.3125 
Q 48.875 64.0625 45.09375 64.984375 
Q 41.3125 65.921875 37.59375 65.921875 
Q 27.828125 65.921875 22.671875 59.328125 
Q 17.53125 52.734375 16.796875 39.40625 
Q 19.671875 43.65625 24.015625 45.921875 
Q 28.375 48.1875 33.59375 48.1875 
Q 44.578125 48.1875 50.953125 41.515625 
Q 57.328125 34.859375 57.328125 23.390625 
Q 57.328125 12.15625 50.6875 5.359375 
Q 44.046875 -1.421875 33.015625 -1.421875 
Q 20.359375 -1.421875 13.671875 8.265625 
Q 6.984375 17.96875 6.984375 36.375 
Q 6.984375 53.65625 15.1875 63.9375 
Q 23.390625 74.21875 37.203125 74.21875 
Q 40.921875 74.21875 44.703125 73.484375 
Q 48.484375 72.75 52.59375 71.296875 
z
" id="DejaVuSans-36"/>
      </defs>
      <g transform="translate(596.841677 254.356562)scale(0.1 -0.1)">
       <use xlink:href="#DejaVuSans-36"/>
       <use x="63.623047" xlink:href="#DejaVuSans-30"/>
       <use x="127.246094" xlink:href="#DejaVuSans-30"/>
       <use x="190.869141" xlink:href="#DejaVuSans-30"/>
       <use x="254.492188" xlink:href="#DejaVuSans-30"/>
       <use x="318.115234" xlink:href="#DejaVuSans-30"/>
       <use x="381.738281" xlink:href="#DejaVuSans-30"/>
      </g>
     </g>
    </g>
    <g id="text_7">
     <!-- Read count -->
     <defs>
      <path d="M 44.390625 34.1875 
Q 47.5625 33.109375 50.5625 29.59375 
Q 53.5625 26.078125 56.59375 19.921875 
L 66.609375 0 
L 56 0 
L 46.6875 18.703125 
Q 43.0625 26.03125 39.671875 28.421875 
Q 36.28125 30.8125 30.421875 30.8125 
L 19.671875 30.8125 
L 19.671875 0 
L 9.8125 0 
L 9.8125 72.90625 
L 32.078125 72.90625 
Q 44.578125 72.90625 50.734375 67.671875 
Q 56.890625 62.453125 56.890625 51.90625 
Q 56.890625 45.015625 53.6875 40.46875 
Q 50.484375 35.9375 44.390625 34.1875 
z
M 19.671875 64.796875 
L 19.671875 38.921875 
L 32.078125 38.921875 
Q 39.203125 38.921875 42.84375 42.21875 
Q 46.484375 45.515625 46.484375 51.90625 
Q 46.484375 58.296875 42.84375 61.546875 
Q 39.203125 64.796875 32.078125 64.796875 
z
" id="DejaVuSans-52"/>
      <path d="M 56.203125 29.59375 
L 56.203125 25.203125 
L 14.890625 25.203125 
Q 15.484375 15.921875 20.484375 11.0625 
Q 25.484375 6.203125 34.421875 6.203125 
Q 39.59375 6.203125 44.453125 7.46875 
Q 49.3125 8.734375 54.109375 11.28125 
L 54.109375 2.78125 
Q 49.265625 0.734375 44.1875 -0.34375 
Q 39.109375 -1.421875 33.890625 -1.421875 
Q 20.796875 -1.421875 13.15625 6.1875 
Q 5.515625 13.8125 5.515625 26.8125 
Q 5.515625 40.234375 12.765625 48.109375 
Q 20.015625 56 32.328125 56 
Q 43.359375 56 49.78125 48.890625 
Q 56.203125 41.796875 56.203125 29.59375 
z
M 47.21875 32.234375 
Q 47.125 39.59375 43.09375 43.984375 
Q 39.0625 48.390625 32.421875 48.390625 
Q 24.90625 48.390625 20.390625 44.140625 
Q 15.875 39.890625 15.1875 32.171875 
z
" id="DejaVuSans-65"/>
      <path d="M 34.28125 27.484375 
Q 23.390625 27.484375 19.1875 25 
Q 14.984375 22.515625 14.984375 16.5 
Q 14.984375 11.71875 18.140625 8.90625 
Q 21.296875 6.109375 26.703125 6.109375 
Q 34.1875 6.109375 38.703125 11.40625 
Q 43.21875 16.703125 43.21875 25.484375 
L 43.21875 27.484375 
z
M 52.203125 31.203125 
L 52.203125 0 
L 43.21875 0 
L 43.21875 8.296875 
Q 40.140625 3.328125 35.546875 0.953125 
Q 30.953125 -1.421875 24.3125 -1.421875 
Q 15.921875 -1.421875 10.953125 3.296875 
Q 6 8.015625 6 15.921875 
Q 6 25.140625 12.171875 29.828125 
Q 18.359375 34.515625 30.609375 34.515625 
L 43.21875 34.515625 
L 43.21875 35.40625 
Q 43.21875 41.609375 39.140625 45 
Q 35.0625 48.390625 27.6875 48.390625 
Q 23 48.390625 18.546875 47.265625 
Q 14.109375 46.140625 10.015625 43.890625 
L 10.015625 52.203125 
Q 14.9375 54.109375 19.578125 55.046875 
Q 24.21875 56 28.609375 56 
Q 40.484375 56 46.34375 49.84375 
Q 52.203125 43.703125 52.203125 31.203125 
z
" id="DejaVuSans-61"/>
      <path d="M 45.40625 46.390625 
L 45.40625 75.984375 
L 54.390625 75.984375 
L 54.390625 0 
L 45.40625 0 
L 45.40625 8.203125 
Q 42.578125 3.328125 38.25 0.953125 
Q 33.9375 -1.421875 27.875 -1.421875 
Q 17.96875 -1.421875 11.734375 6.484375 
Q 5.515625 14.40625 5.515625 27.296875 
Q 5.515625 40.1875 11.734375 48.09375 
Q 17.96875 56 27.875 56 
Q 33.9375 56 38.25 53.625 
Q 42.578125 51.265625 45.40625 46.390625 
z
M 14.796875 27.296875 
Q 14.796875 17.390625 18.875 11.75 
Q 22.953125 6.109375 30.078125 6.109375 
Q 37.203125 6.109375 41.296875 11.75 
Q 45.40625 17.390625 45.40625 27.296875 
Q 45.40625 37.203125 41.296875 42.84375 
Q 37.203125 48.484375 30.078125 48.484375 
Q 22.953125 48.484375 18.875 42.84375 
Q 14.796875 37.203125 14.796875 27.296875 
z
" id="DejaVuSans-64"/>
      <path id="DejaVuSans-20"/>
      <path d="M 48.78125 52.59375 
L 48.78125 44.1875 
Q 44.96875 46.296875 41.140625 47.34375 
Q 37.3125 48.390625 33.40625 48.390625 
Q 24.65625 48.390625 19.8125 42.84375 
Q 14.984375 37.3125 14.984375 27.296875 
Q 14.984375 17.28125 19.8125 11.734375 
Q 24.65625 6.203125 33.40625 6.203125 
Q 37.3125 6.203125 41.140625 7.25 
Q 44.96875 8.296875 48.78125 10.40625 
L 48.78125 2.09375 
Q 45.015625 0.34375 40.984375 -0.53125 
Q 36.96875 -1.421875 32.421875 -1.421875 
Q 20.0625 -1.421875 12.78125 6.34375 
Q 5.515625 14.109375 5.515625 27.296875 
Q 5.515625 40.671875 12.859375 48.328125 
Q 20.21875 56 33.015625 56 
Q 37.15625 56 41.109375 55.140625 
Q 45.0625 54.296875 48.78125 52.59375 
z
" id="DejaVuSans-63"/>
      <path d="M 30.609375 48.390625 
Q 23.390625 48.390625 19.1875 42.75 
Q 14.984375 37.109375 14.984375 27.296875 
Q 14.984375 17.484375 19.15625 11.84375 
Q 23.34375 6.203125 30.609375 6.203125 
Q 37.796875 6.203125 41.984375 11.859375 
Q 46.1875 17.53125 46.1875 27.296875 
Q 46.1875 37.015625 41.984375 42.703125 
Q 37.796875 48.390625 30.609375 48.390625 
z
M 30.609375 56 
Q 42.328125 56 49.015625 48.375 
Q 55.71875 40.765625 55.71875 27.296875 
Q 55.71875 13.875 49.015625 6.21875 
Q 42.328125 -1.421875 30.609375 -1.421875 
Q 18.84375 -1.421875 12.171875 6.21875 
Q 5.515625 13.875 5.515625 27.296875 
Q 5.515625 40.765625 12.171875 48.375 
Q 18.84375 56 30.609375 56 
z
" id="DejaVuSans-6f"/>
      <path d="M 8.5 21.578125 
L 8.5 54.6875 
L 17.484375 54.6875 
L 17.484375 21.921875 
Q 17.484375 14.15625 20.5 10.265625 
Q 23.53125 6.390625 29.59375 6.390625 
Q 36.859375 6.390625 41.078125 11.03125 
Q 45.3125 15.671875 45.3125 23.6875 
L 45.3125 54.6875 
L 54.296875 54.6875 
L 54.296875 0 
L 45.3125 0 
L 45.3125 8.40625 
Q 42.046875 3.421875 37.71875 1 
Q 33.40625 -1.421875 27.6875 -1.421875 
Q 18.265625 -1.421875 13.375 4.4375 
Q 8.5 10.296875 8.5 21.578125 
z
M 31.109375 56 
z
" id="DejaVuSans-75"/>
      <path d="M 54.890625 33.015625 
L 54.890625 0 
L 45.90625 0 
L 45.90625 32.71875 
Q 45.90625 40.484375 42.875 44.328125 
Q 39.84375 48.1875 33.796875 48.1875 
Q 26.515625 48.1875 22.3125 43.546875 
Q 18.109375 38.921875 18.109375 30.90625 
L 18.109375 0 
L 9.078125 0 
L 9.078125 54.6875 
L 18.109375 54.6875 
L 18.109375 46.1875 
Q 21.34375 51.125 25.703125 53.5625 
Q 30.078125 56 35.796875 56 
Q 45.21875 56 50.046875 50.171875 
Q 54.890625 44.34375 54.890625 33.015625 
z
" id="DejaVuSans-6e"/>
      <path d="M 18.3125 70.21875 
L 18.3125 54.6875 
L 36.8125 54.6875 
L 36.8125 47.703125 
L 18.3125 47.703125 
L 18.3125 18.015625 
Q 18.3125 11.328125 20.140625 9.421875 
Q 21.96875 7.515625 27.59375 7.515625 
L 36.8125 7.515625 
L 36.8125 0 
L 27.59375 0 
Q 17.1875 0 13.234375 3.875 
Q 9.28125 7.765625 9.28125 18.015625 
L 9.28125 47.703125 
L 2.6875 47.703125 
L 2.6875 54.6875 
L 9.28125 54.6875 
L 9.28125 70.21875 
z
" id="DejaVuSans-74"/>
     </defs>
     <g transform="translate(346.921875 268.034687)scale(0.1 -0.1)">
      <use xlink:href="#DejaVuSans-52"/>
      <use x="69.419922" xlink:href="#DejaVuSans-65"/>
      <use x="130.943359" xlink:href="#DejaVuSans-61"/>
      <use x="192.222656" xlink:href="#DejaVuSans-64"/>
      <use x="255.699219" xlink:href="#DejaVuSans-20"/>
      <use x="287.486328" xlink:href="#DejaVuSans-63"/>
      <use x="342.466797" xlink:href="#DejaVuSans-6f"/>
      <use x="403.648438" xlink:href="#DejaVuSans-75"/>
      <use x="467.027344" xlink:href="#DejaVuSans-6e"/>
      <use x="530.40625" xlink:href="#DejaVuSans-74"/>
     </g>
    </g>
   </g>
   <g id="matplotlib.axis_2">
    <g id="ytick_1">
     <g id="line2d_7">
      <defs>
       <path d="M 0 0 
L -3.5 0 
" id="mcb2f19a019" style="stroke:#000000;stroke-width:0.8;"/>
      </defs>
      <g>
       <use style="stroke:#000000;stroke-width:0.8;" x="40.603125" xlink:href="#mcb2f19a019" y="239.758125"/>
      </g>
     </g>
     <g id="text_8">
      <!-- 0 -->
      <g transform="translate(27.240625 243.557344)scale(0.1 -0.1)">
       <use xlink:href="#DejaVuSans-30"/>
      </g>
     </g>
    </g>
    <g id="ytick_2">
     <g id="line2d_8">
      <g>
       <use style="stroke:#000000;stroke-width:0.8;" x="40.603125" xlink:href="#mcb2f19a019" y="202.778533"/>
      </g>
     </g>
     <g id="text_9">
      <!-- 10 -->
      <g transform="translate(20.878125 206.577752)scale(0.1 -0.1)">
       <use xlink:href="#DejaVuSans-31"/>
       <use x="63.623047" xlink:href="#DejaVuSans-30"/>
      </g>
     </g>
    </g>
    <g id="ytick_3">
     <g id="line2d_9">
      <g>
       <use style="stroke:#000000;stroke-width:0.8;" x="40.603125" xlink:href="#mcb2f19a019" y="165.798941"/>
      </g>
     </g>
     <g id="text_10">
      <!-- 20 -->
      <g transform="translate(20.878125 169.59816)scale(0.1 -0.1)">
       <use xlink:href="#DejaVuSans-32"/>
       <use x="63.623047" xlink:href="#DejaVuSans-30"/>
      </g>
     </g>
    </g>
    <g id="ytick_4">
     <g id="line2d_10">
      <g>
       <use style="stroke:#000000;stroke-width:0.8;" x="40.603125" xlink:href="#mcb2f19a019" y="128.819349"/>
      </g>
     </g>
     <g id="text_11">
      <!-- 30 -->
      <g transform="translate(20.878125 132.618568)scale(0.1 -0.1)">
       <use xlink:href="#DejaVuSans-33"/>
       <use x="63.623047" xlink:href="#DejaVuSans-30"/>
      </g>
     </g>
    </g>
    <g id="ytick_5">
     <g id="line2d_11">
      <g>
       <use style="stroke:#000000;stroke-width:0.8;" x="40.603125" xlink:href="#mcb2f19a019" y="91.839758"/>
      </g>
     </g>
     <g id="text_12">
      <!-- 40 -->
      <g transform="translate(20.878125 95.638976)scale(0.1 -0.1)">
       <use xlink:href="#DejaVuSans-34"/>
       <use x="63.623047" xlink:href="#DejaVuSans-30"/>
      </g>
     </g>
    </g>
    <g id="ytick_6">
     <g id="line2d_12">
      <g>
       <use style="stroke:#000000;stroke-width:0.8;" x="40.603125" xlink:href="#mcb2f19a019" y="54.860166"/>
      </g>
     </g>
     <g id="text_13">
      <!-- 50 -->
      <g transform="translate(20.878125 58.659385)scale(0.1 -0.1)">
       <use xlink:href="#DejaVuSans-35"/>
       <use x="63.623047" xlink:href="#DejaVuSans-30"/>
      </g>
     </g>
    </g>
    <g id="text_14">
     <!-- Density -->
     <defs>
      <path d="M 19.671875 64.796875 
L 19.671875 8.109375 
L 31.59375 8.109375 
Q 46.6875 8.109375 53.6875 14.9375 
Q 60.6875 21.78125 60.6875 36.53125 
Q 60.6875 51.171875 53.6875 57.984375 
Q 46.6875 64.796875 31.59375 64.796875 
z
M 9.8125 72.90625 
L 30.078125 72.90625 
Q 51.265625 72.90625 61.171875 64.09375 
Q 71.09375 55.28125 71.09375 36.53125 
Q 71.09375 17.671875 61.125 8.828125 
Q 51.171875 0 30.078125 0 
L 9.8125 0 
z
" id="DejaVuSans-44"/>
      <path d="M 44.28125 53.078125 
L 44.28125 44.578125 
Q 40.484375 46.53125 36.375 47.5 
Q 32.28125 48.484375 27.875 48.484375 
Q 21.1875 48.484375 17.84375 46.4375 
Q 14.5 44.390625 14.5 40.28125 
Q 14.5 37.15625 16.890625 35.375 
Q 19.28125 33.59375 26.515625 31.984375 
L 29.59375 31.296875 
Q 39.15625 29.25 43.1875 25.515625 
Q 47.21875 21.78125 47.21875 15.09375 
Q 47.21875 7.46875 41.1875 3.015625 
Q 35.15625 -1.421875 24.609375 -1.421875 
Q 20.21875 -1.421875 15.453125 -0.5625 
Q 10.6875 0.296875 5.421875 2 
L 5.421875 11.28125 
Q 10.40625 8.6875 15.234375 7.390625 
Q 20.0625 6.109375 24.8125 6.109375 
Q 31.15625 6.109375 34.5625 8.28125 
Q 37.984375 10.453125 37.984375 14.40625 
Q 37.984375 18.0625 35.515625 20.015625 
Q 33.0625 21.96875 24.703125 23.78125 
L 21.578125 24.515625 
Q 13.234375 26.265625 9.515625 29.90625 
Q 5.8125 33.546875 5.8125 39.890625 
Q 5.8125 47.609375 11.28125 51.796875 
Q 16.75 56 26.8125 56 
Q 31.78125 56 36.171875 55.265625 
Q 40.578125 54.546875 44.28125 53.078125 
z
" id="DejaVuSans-73"/>
      <path d="M 9.421875 54.6875 
L 18.40625 54.6875 
L 18.40625 0 
L 9.421875 0 
z
M 9.421875 75.984375 
L 18.40625 75.984375 
L 18.40625 64.59375 
L 9.421875 64.59375 
z
" id="DejaVuSans-69"/>
      <path d="M 32.171875 -5.078125 
Q 28.375 -14.84375 24.75 -17.8125 
Q 21.140625 -20.796875 15.09375 -20.796875 
L 7.90625 -20.796875 
L 7.90625 -13.28125 
L 13.1875 -13.28125 
Q 16.890625 -13.28125 18.9375 -11.515625 
Q 21 -9.765625 23.484375 -3.21875 
L 25.09375 0.875 
L 2.984375 54.6875 
L 12.5 54.6875 
L 29.59375 11.921875 
L 46.6875 54.6875 
L 56.203125 54.6875 
z
" id="DejaVuSans-79"/>
     </defs>
     <g transform="translate(14.798438 150.046719)rotate(-90)scale(0.1 -0.1)">
      <use xlink:href="#DejaVuSans-44"/>
      <use x="77.001953" xlink:href="#DejaVuSans-65"/>
      <use x="138.525391" xlink:href="#DejaVuSans-6e"/>
      <use x="201.904297" xlink:href="#DejaVuSans-73"/>
      <use x="254.003906" xlink:href="#DejaVuSans-69"/>
      <use x="281.787109" xlink:href="#DejaVuSans-74"/>
      <use x="320.996094" xlink:href="#DejaVuSans-79"/>
     </g>
    </g>
   </g>
   <g id="patch_9">
    <path d="M 40.603125 239.758125 
L 40.603125 22.318125 
" style="fill:none;stroke:#000000;stroke-linecap:square;stroke-linejoin:miter;stroke-width:0.8;"/>
   </g>
   <g id="patch_10">
    <path d="M 710.203125 239.758125 
L 710.203125 22.318125 
" style="fill:none;stroke:#000000;stroke-linecap:square;stroke-linejoin:miter;stroke-width:0.8;"/>
   </g>
   <g id="patch_11">
    <path d="M 40.603125 239.758125 
L 710.203125 239.758125 
" style="fill:none;stroke:#000000;stroke-linecap:square;stroke-linejoin:miter;stroke-width:0.8;"/>
   </g>
   <g id="patch_12">
    <path d="M 40.603125 22.318125 
L 710.203125 22.318125 
" style="fill:none;stroke:#000000;stroke-linecap:square;stroke-linejoin:miter;stroke-width:0.8;"/>
   </g>
   <g id="text_15">
    <!-- Read count by batch -->
    <defs>
     <path d="M 48.6875 27.296875 
Q 48.6875 37.203125 44.609375 42.84375 
Q 40.53125 48.484375 33.40625 48.484375 
Q 26.265625 48.484375 22.1875 42.84375 
Q 18.109375 37.203125 18.109375 27.296875 
Q 18.109375 17.390625 22.1875 11.75 
Q 26.265625 6.109375 33.40625 6.109375 
Q 40.53125 6.109375 44.609375 11.75 
Q 48.6875 17.390625 48.6875 27.296875 
z
M 18.109375 46.390625 
Q 20.953125 51.265625 25.265625 53.625 
Q 29.59375 56 35.59375 56 
Q 45.5625 56 51.78125 48.09375 
Q 58.015625 40.1875 58.015625 27.296875 
Q 58.015625 14.40625 51.78125 6.484375 
Q 45.5625 -1.421875 35.59375 -1.421875 
Q 29.59375 -1.421875 25.265625 0.953125 
Q 20.953125 3.328125 18.109375 8.203125 
L 18.109375 0 
L 9.078125 0 
L 9.078125 75.984375 
L 18.109375 75.984375 
z
" id="DejaVuSans-62"/>
     <path d="M 54.890625 33.015625 
L 54.890625 0 
L 45.90625 0 
L 45.90625 32.71875 
Q 45.90625 40.484375 42.875 44.328125 
Q 39.84375 48.1875 33.796875 48.1875 
Q 26.515625 48.1875 22.3125 43.546875 
Q 18.109375 38.921875 18.109375 30.90625 
L 18.109375 0 
L 9.078125 0 
L 9.078125 75.984375 
L 18.109375 75.984375 
L 18.109375 46.1875 
Q 21.34375 51.125 25.703125 53.5625 
Q 30.078125 56 35.796875 56 
Q 45.21875 56 50.046875 50.171875 
Q 54.890625 44.34375 54.890625 33.015625 
z
" id="DejaVuSans-68"/>
    </defs>
    <g transform="translate(313.111875 16.318125)scale(0.12 -0.12)">
     <use xlink:href="#DejaVuSans-52"/>
     <use x="69.419922" xlink:href="#DejaVuSans-65"/>
     <use x="130.943359" xlink:href="#DejaVuSans-61"/>
     <use x="192.222656" xlink:href="#DejaVuSans-64"/>
     <use x="255.699219" xlink:href="#DejaVuSans-20"/>
     <use x="287.486328" xlink:href="#DejaVuSans-63"/>
     <use x="342.466797" xlink:href="#DejaVuSans-6f"/>
     <use x="403.648438" xlink:href="#DejaVuSans-75"/>
     <use x="467.027344" xlink:href="#DejaVuSans-6e"/>
     <use x="530.40625" xlink:href="#DejaVuSans-74"/>
     <use x="569.615234" xlink:href="#DejaVuSans-20"/>
     <use x="601.402344" xlink:href="#DejaVuSans-62"/>
     <use x="664.878906" xlink:href="#DejaVuSans-79"/>
     <use x="724.058594" xlink:href="#DejaVuSans-20"/>
     <use x="755.845703" xlink:href="#DejaVuSans-62"/>
     <use x="819.322266" xlink:href="#DejaVuSans-61"/>
     <use x="880.601562" xlink:href="#DejaVuSans-74"/>
     <use x="919.810547" xlink:href="#DejaVuSans-63"/>
     <use x="974.791016" xlink:href="#DejaVuSans-68"/>
    </g>
   </g>
   <g id="legend_1">
    <g id="patch_13">
     <path d="M 658.492188 118.386875 
L 703.203125 118.386875 
Q 705.203125 118.386875 705.203125 116.386875 
L 705.203125 29.318125 
Q 705.203125 27.318125 703.203125 27.318125 
L 658.492188 27.318125 
Q 656.492188 27.318125 656.492188 29.318125 
L 656.492188 116.386875 
Q 656.492188 118.386875 658.492188 118.386875 
z
" style="fill:#ffffff;opacity:0.8;stroke:#cccccc;stroke-linejoin:miter;"/>
    </g>
    <g id="patch_14">
     <path d="M 660.492188 38.916562 
L 680.492188 38.916562 
L 680.492188 31.916562 
L 660.492188 31.916562 
z
" style="fill:none;stroke:#4daf4a;stroke-linejoin:miter;"/>
    </g>
    <g id="text_16">
     <!-- b1 -->
     <g transform="translate(688.492188 38.916562)scale(0.1 -0.1)">
      <use xlink:href="#DejaVuSans-62"/>
      <use x="63.476562" xlink:href="#DejaVuSans-31"/>
     </g>
    </g>
    <g id="patch_15">
     <path d="M 660.492188 53.594687 
L 680.492188 53.594687 
L 680.492188 46.594687 
L 660.492188 46.594687 
z
" style="fill:none;stroke:#ffff33;stroke-linejoin:miter;"/>
    </g>
    <g id="text_17">
     <!-- b2 -->
     <g transform="translate(688.492188 53.594687)scale(0.1 -0.1)">
      <use xlink:href="#DejaVuSans-62"/>
      <use x="63.476562" xlink:href="#DejaVuSans-32"/>
     </g>
    </g>
    <g id="patch_16">
     <path d="M 660.492188 68.272812 
L 680.492188 68.272812 
L 680.492188 61.272812 
L 660.492188 61.272812 
z
" style="fill:none;stroke:#984ea3;stroke-linejoin:miter;"/>
    </g>
    <g id="text_18">
     <!-- b3 -->
     <g transform="translate(688.492188 68.272812)scale(0.1 -0.1)">
      <use xlink:href="#DejaVuSans-62"/>
      <use x="63.476562" xlink:href="#DejaVuSans-33"/>
     </g>
    </g>
    <g id="patch_17">
     <path d="M 660.492188 82.950938 
L 680.492188 82.950938 
L 680.492188 75.950938 
L 660.492188 75.950938 
z
" style="fill:none;stroke:#e41a1c;stroke-linejoin:miter;"/>
    </g>
    <g id="text_19">
     <!-- b4 -->
     <g transform="translate(688.492188 82.950938)scale(0.1 -0.1)">
      <use xlink:href="#DejaVuSans-62"/>
      <use x="63.476562" xlink:href="#DejaVuSans-34"/>
     </g>
    </g>
    <g id="patch_18">
     <path d="M 660.492188 97.629063 
L 680.492188 97.629063 
L 680.492188 90.629063 
L 660.492188 90.629063 
z
" style="fill:none;stroke:#ff7f00;stroke-linejoin:miter;"/>
    </g>
    <g id="text_20">
     <!-- b5 -->
     <g transform="translate(688.492188 97.629063)scale(0.1 -0.1)">
      <use xlink:href="#DejaVuSans-62"/>
      <use x="63.476562" xlink:href="#DejaVuSans-35"/>
     </g>
    </g>
    <g id="patch_19">
     <path d="M 660.492188 112.307187 
L 680.492188 112.307187 
L 680.492188 105.307187 
L 660.492188 105.307187 
z
" style="fill:none;stroke:#377eb8;stroke-linejoin:miter;"/>
    </g>
    <g id="text_21">
     <!-- b6 -->
     <g transform="translate(688.492188 112.307187)scale(0.1 -0.1)">
      <use xlink:href="#DejaVuSans-62"/>
      <use x="63.476562" xlink:href="#DejaVuSans-36"/>
     </g>
    </g>
   </g>
  </g>
 </g>
 <defs>
  <clipPath id="pe6613bd120">
   <rect height="217.44" width="669.6" x="40.603125" y="22.318125"/>
  </clipPath>
 </defs>
</svg>
