<?xml version="1.0" encoding="utf-8" standalone="no"?>
<!DOCTYPE svg PUBLIC "-//W3C//DTD SVG 1.1//EN"
  "http://www.w3.org/Graphics/SVG/1.1/DTD/svg11.dtd">
<!-- Created with matplotlib (http://matplotlib.org/) -->
<svg height="277pt" version="1.1" viewBox="0 0 720 277" width="720pt" xmlns="http://www.w3.org/2000/svg" xmlns:xlink="http://www.w3.org/1999/xlink">
 <defs>
  <style type="text/css">
*{stroke-linecap:butt;stroke-linejoin:round;}
  </style>
 </defs>
 <g id="figure_1">
  <g id="patch_1">
   <path d="M 0 277.314375 
L 720.903125 277.314375 
L 720.903125 0 
L 0 0 
z
" style="fill:none;"/>
  </g>
  <g id="axes_1">
   <g id="patch_2">
    <path d="M 40.603125 239.758125 
L 710.203125 239.758125 
L 710.203125 22.318125 
L 40.603125 22.318125 
z
" style="fill:#ffffff;"/>
   </g>
   <g id="patch_3">
    <path clip-path="url(#p0ee7db538d)" d="M 78.543653 239.758125 
L 78.543653 232.73827 
L 90.568115 232.73827 
L 90.568115 211.678706 
L 102.592577 211.678706 
L 102.592577 201.148924 
L 114.617039 201.148924 
L 114.617039 173.069505 
L 126.641501 173.069505 
L 126.641501 155.519868 
L 138.665964 155.519868 
L 138.665964 127.440449 
L 150.690426 127.440449 
L 150.690426 144.990086 
L 162.714888 144.990086 
L 162.714888 127.440449 
L 174.73935 127.440449 
L 174.73935 102.870958 
L 186.763812 102.870958 
L 186.763812 57.241902 
L 198.788274 57.241902 
L 198.788274 71.281612 
L 210.812737 71.281612 
L 210.812737 53.731975 
L 222.837199 53.731975 
L 222.837199 85.321321 
L 234.861661 85.321321 
L 234.861661 99.361031 
L 246.886123 99.361031 
L 246.886123 109.890813 
L 258.910585 109.890813 
L 258.910585 141.480159 
L 270.935048 141.480159 
L 270.935048 148.500014 
L 282.95951 148.500014 
L 282.95951 106.380885 
L 294.983972 106.380885 
L 294.983972 197.638997 
L 307.008434 197.638997 
L 307.008434 169.559578 
L 319.032896 169.559578 
L 319.032896 162.539723 
L 331.057358 162.539723 
L 331.057358 204.658851 
L 343.081821 204.658851 
L 343.081821 176.579433 
L 355.106283 176.579433 
L 355.106283 201.148924 
L 367.130745 201.148924 
L 367.130745 190.619142 
L 379.155207 190.619142 
L 379.155207 222.208488 
L 391.179669 222.208488 
L 391.179669 211.678706 
L 403.204131 211.678706 
L 403.204131 222.208488 
L 415.228594 222.208488 
L 415.228594 222.208488 
L 427.253056 222.208488 
L 427.253056 215.188633 
L 439.277518 215.188633 
L 439.277518 215.188633 
L 451.30198 215.188633 
L 451.30198 232.73827 
L 463.326442 232.73827 
L 463.326442 239.758125 
L 475.350904 239.758125 
L 475.350904 239.758125 
L 487.375367 239.758125 
L 487.375367 239.758125 
L 499.399829 239.758125 
L 499.399829 236.248198 
L 511.424291 236.248198 
L 511.424291 239.758125 
L 523.448753 239.758125 
L 523.448753 236.248198 
L 535.473215 236.248198 
L 535.473215 232.73827 
L 547.497677 232.73827 
L 547.497677 239.758125 
L 559.52214 239.758125 
L 559.52214 232.73827 
L 571.546602 232.73827 
L 571.546602 239.758125 
L 583.571064 239.758125 
L 583.571064 239.758125 
L 595.595526 239.758125 
L 595.595526 236.248198 
L 607.619988 236.248198 
L 607.619988 239.758125 
L 619.644451 239.758125 
L 619.644451 239.758125 
L 631.668913 239.758125 
L 631.668913 239.758125 
L 643.693375 239.758125 
L 643.693375 239.758125 
L 655.717837 239.758125 
L 655.717837 236.248198 
L 667.742299 236.248198 
L 667.742299 236.248198 
L 679.766761 236.248198 
L 679.766761 239.758125 
" style="fill:none;stroke:#e41a1c;stroke-linejoin:miter;"/>
   </g>
   <g id="patch_4">
    <path clip-path="url(#p0ee7db538d)" d="M 75.264563 239.758125 
L 75.264563 187.109215 
L 84.480985 187.109215 
L 84.480985 169.559578 
L 93.697408 169.559578 
L 93.697408 176.579433 
L 102.913831 176.579433 
L 102.913831 166.04965 
L 112.130253 166.04965 
L 112.130253 183.599287 
L 121.346676 183.599287 
L 121.346676 180.08936 
L 130.563098 180.08936 
L 130.563098 176.579433 
L 139.779521 176.579433 
L 139.779521 166.04965 
L 148.995943 166.04965 
L 148.995943 159.029796 
L 158.212366 159.029796 
L 158.212366 190.619142 
L 167.428788 190.619142 
L 167.428788 155.519868 
L 176.645211 155.519868 
L 176.645211 144.990086 
L 185.861633 144.990086 
L 185.861633 134.460304 
L 195.078056 134.460304 
L 195.078056 123.930522 
L 204.294479 123.930522 
L 204.294479 144.990086 
L 213.510901 144.990086 
L 213.510901 106.380885 
L 222.727324 106.380885 
L 222.727324 102.870958 
L 231.943746 102.870958 
L 231.943746 67.771684 
L 241.160169 67.771684 
L 241.160169 92.341176 
L 250.376591 92.341176 
L 250.376591 120.420595 
L 259.593014 120.420595 
L 259.593014 116.910667 
L 268.809436 116.910667 
L 268.809436 102.870958 
L 278.025859 102.870958 
L 278.025859 109.890813 
L 287.242281 109.890813 
L 287.242281 116.910667 
L 296.458704 116.910667 
L 296.458704 130.950377 
L 305.675126 130.950377 
L 305.675126 113.40074 
L 314.891549 113.40074 
L 314.891549 113.40074 
L 324.107972 113.40074 
L 324.107972 144.990086 
L 333.324394 144.990086 
L 333.324394 159.029796 
L 342.540817 159.029796 
L 342.540817 180.08936 
L 351.757239 180.08936 
L 351.757239 197.638997 
L 360.973662 197.638997 
L 360.973662 159.029796 
L 370.190084 159.029796 
L 370.190084 190.619142 
L 379.406507 190.619142 
L 379.406507 180.08936 
L 388.622929 180.08936 
L 388.622929 176.579433 
L 397.839352 176.579433 
L 397.839352 197.638997 
L 407.055774 197.638997 
L 407.055774 208.168779 
L 416.272197 208.168779 
L 416.272197 218.698561 
L 425.48862 218.698561 
L 425.48862 211.678706 
L 434.705042 211.678706 
L 434.705042 218.698561 
L 443.921465 218.698561 
L 443.921465 225.718416 
L 453.137887 225.718416 
L 453.137887 229.228343 
L 462.35431 229.228343 
L 462.35431 218.698561 
L 471.570732 218.698561 
L 471.570732 236.248198 
L 480.787155 236.248198 
L 480.787155 239.758125 
L 490.003577 239.758125 
L 490.003577 239.758125 
L 499.22 239.758125 
L 499.22 239.758125 
L 508.436422 239.758125 
L 508.436422 239.758125 
L 517.652845 239.758125 
L 517.652845 239.758125 
L 526.869268 239.758125 
L 526.869268 232.73827 
L 536.08569 232.73827 
L 536.08569 239.758125 
" style="fill:none;stroke:#4daf4a;stroke-linejoin:miter;"/>
   </g>
   <g id="patch_5">
    <path clip-path="url(#p0ee7db538d)" d="M 71.039489 239.758125 
L 71.039489 208.168779 
L 80.520028 208.168779 
L 80.520028 162.539723 
L 90.000568 162.539723 
L 90.000568 169.559578 
L 99.481107 169.559578 
L 99.481107 155.519868 
L 108.961647 155.519868 
L 108.961647 102.870958 
L 118.442186 102.870958 
L 118.442186 137.970232 
L 127.922726 137.970232 
L 127.922726 134.460304 
L 137.403266 134.460304 
L 137.403266 123.930522 
L 146.883805 123.930522 
L 146.883805 85.321321 
L 156.364345 85.321321 
L 156.364345 123.930522 
L 165.844884 123.930522 
L 165.844884 127.440449 
L 175.325424 127.440449 
L 175.325424 109.890813 
L 184.805963 109.890813 
L 184.805963 123.930522 
L 194.286503 123.930522 
L 194.286503 116.910667 
L 203.767043 116.910667 
L 203.767043 74.791539 
L 213.247582 74.791539 
L 213.247582 116.910667 
L 222.728122 116.910667 
L 222.728122 116.910667 
L 232.208661 116.910667 
L 232.208661 99.361031 
L 241.689201 99.361031 
L 241.689201 130.950377 
L 251.16974 130.950377 
L 251.16974 99.361031 
L 260.65028 99.361031 
L 260.65028 155.519868 
L 270.13082 155.519868 
L 270.13082 116.910667 
L 279.611359 116.910667 
L 279.611359 113.40074 
L 289.091899 113.40074 
L 289.091899 152.009941 
L 298.572438 152.009941 
L 298.572438 173.069505 
L 308.052978 173.069505 
L 308.052978 134.460304 
L 317.533517 134.460304 
L 317.533517 134.460304 
L 327.014057 134.460304 
L 327.014057 120.420595 
L 336.494597 120.420595 
L 336.494597 187.109215 
L 345.975136 187.109215 
L 345.975136 187.109215 
L 355.455676 187.109215 
L 355.455676 173.069505 
L 364.936215 173.069505 
L 364.936215 208.168779 
L 374.416755 208.168779 
L 374.416755 194.129069 
L 383.897294 194.129069 
L 383.897294 218.698561 
L 393.377834 218.698561 
L 393.377834 215.188633 
L 402.858373 215.188633 
L 402.858373 211.678706 
L 412.338913 211.678706 
L 412.338913 211.678706 
L 421.819453 211.678706 
L 421.819453 232.73827 
L 431.299992 232.73827 
L 431.299992 204.658851 
L 440.780532 204.658851 
L 440.780532 225.718416 
L 450.261071 225.718416 
L 450.261071 229.228343 
L 459.741611 229.228343 
L 459.741611 232.73827 
L 469.22215 232.73827 
L 469.22215 232.73827 
L 478.70269 232.73827 
L 478.70269 236.248198 
L 488.18323 236.248198 
L 488.18323 239.758125 
L 497.663769 239.758125 
L 497.663769 225.718416 
L 507.144309 225.718416 
L 507.144309 239.758125 
L 516.624848 239.758125 
L 516.624848 239.758125 
L 526.105388 239.758125 
L 526.105388 239.758125 
L 535.585927 239.758125 
L 535.585927 232.73827 
L 545.066467 232.73827 
L 545.066467 239.758125 
" style="fill:none;stroke:#377eb8;stroke-linejoin:miter;"/>
   </g>
   <g id="patch_6">
    <path clip-path="url(#p0ee7db538d)" d="M 73.88406 239.758125 
L 73.88406 176.579433 
L 84.756995 176.579433 
L 84.756995 106.380885 
L 95.629931 106.380885 
L 95.629931 109.890813 
L 106.502866 109.890813 
L 106.502866 169.559578 
L 117.375801 169.559578 
L 117.375801 190.619142 
L 128.248737 190.619142 
L 128.248737 134.460304 
L 139.121672 134.460304 
L 139.121672 148.500014 
L 149.994607 148.500014 
L 149.994607 155.519868 
L 160.867543 155.519868 
L 160.867543 148.500014 
L 171.740478 148.500014 
L 171.740478 141.480159 
L 182.613413 141.480159 
L 182.613413 71.281612 
L 193.486349 71.281612 
L 193.486349 67.771684 
L 204.359284 67.771684 
L 204.359284 85.321321 
L 215.232219 85.321321 
L 215.232219 92.341176 
L 226.105155 92.341176 
L 226.105155 46.71212 
L 236.97809 46.71212 
L 236.97809 74.791539 
L 247.851025 74.791539 
L 247.851025 74.791539 
L 258.723961 74.791539 
L 258.723961 85.321321 
L 269.596896 85.321321 
L 269.596896 57.241902 
L 280.469831 57.241902 
L 280.469831 92.341176 
L 291.342767 92.341176 
L 291.342767 109.890813 
L 302.215702 109.890813 
L 302.215702 113.40074 
L 313.088637 113.40074 
L 313.088637 120.420595 
L 323.961573 120.420595 
L 323.961573 109.890813 
L 334.834508 109.890813 
L 334.834508 148.500014 
L 345.707443 148.500014 
L 345.707443 148.500014 
L 356.580379 148.500014 
L 356.580379 187.109215 
L 367.453314 187.109215 
L 367.453314 190.619142 
L 378.326249 190.619142 
L 378.326249 173.069505 
L 389.199185 173.069505 
L 389.199185 180.08936 
L 400.07212 180.08936 
L 400.07212 204.658851 
L 410.945055 204.658851 
L 410.945055 218.698561 
L 421.817991 218.698561 
L 421.817991 222.208488 
L 432.690926 222.208488 
L 432.690926 222.208488 
L 443.563861 222.208488 
L 443.563861 229.228343 
L 454.436797 229.228343 
L 454.436797 232.73827 
L 465.309732 232.73827 
L 465.309732 229.228343 
L 476.182667 229.228343 
L 476.182667 225.718416 
L 487.055603 225.718416 
L 487.055603 239.758125 
L 497.928538 239.758125 
L 497.928538 239.758125 
L 508.801473 239.758125 
L 508.801473 236.248198 
L 519.674409 236.248198 
L 519.674409 236.248198 
L 530.547344 236.248198 
L 530.547344 236.248198 
L 541.420279 236.248198 
L 541.420279 239.758125 
L 552.293215 239.758125 
L 552.293215 239.758125 
L 563.16615 239.758125 
L 563.16615 239.758125 
L 574.039085 239.758125 
L 574.039085 239.758125 
L 584.912021 239.758125 
L 584.912021 239.758125 
L 595.784956 239.758125 
L 595.784956 239.758125 
L 606.657891 239.758125 
L 606.657891 232.73827 
L 617.530827 232.73827 
L 617.530827 239.758125 
" style="fill:none;stroke:#ff7f00;stroke-linejoin:miter;"/>
   </g>
   <g id="patch_7">
    <path clip-path="url(#p0ee7db538d)" d="M 74.215653 239.758125 
L 74.215653 208.168779 
L 83.913349 208.168779 
L 83.913349 169.559578 
L 93.611046 169.559578 
L 93.611046 123.930522 
L 103.308742 123.930522 
L 103.308742 109.890813 
L 113.006438 109.890813 
L 113.006438 144.990086 
L 122.704134 144.990086 
L 122.704134 137.970232 
L 132.40183 137.970232 
L 132.40183 166.04965 
L 142.099526 166.04965 
L 142.099526 148.500014 
L 151.797223 148.500014 
L 151.797223 109.890813 
L 161.494919 109.890813 
L 161.494919 116.910667 
L 171.192615 116.910667 
L 171.192615 99.361031 
L 180.890311 99.361031 
L 180.890311 88.831248 
L 190.588007 88.831248 
L 190.588007 113.40074 
L 200.285703 113.40074 
L 200.285703 130.950377 
L 209.9834 130.950377 
L 209.9834 78.301466 
L 219.681096 78.301466 
L 219.681096 71.281612 
L 229.378792 71.281612 
L 229.378792 57.241902 
L 239.076488 57.241902 
L 239.076488 67.771684 
L 248.774184 67.771684 
L 248.774184 46.71212 
L 258.471881 46.71212 
L 258.471881 57.241902 
L 268.169577 57.241902 
L 268.169577 32.672411 
L 277.867273 32.672411 
L 277.867273 127.440449 
L 287.564969 127.440449 
L 287.564969 141.480159 
L 297.262665 141.480159 
L 297.262665 141.480159 
L 306.960361 141.480159 
L 306.960361 144.990086 
L 316.658058 144.990086 
L 316.658058 162.539723 
L 326.355754 162.539723 
L 326.355754 180.08936 
L 336.05345 180.08936 
L 336.05345 180.08936 
L 345.751146 180.08936 
L 345.751146 183.599287 
L 355.448842 183.599287 
L 355.448842 204.658851 
L 365.146538 204.658851 
L 365.146538 204.658851 
L 374.844235 204.658851 
L 374.844235 215.188633 
L 384.541931 215.188633 
L 384.541931 211.678706 
L 394.239627 211.678706 
L 394.239627 215.188633 
L 403.937323 215.188633 
L 403.937323 218.698561 
L 413.635019 218.698561 
L 413.635019 229.228343 
L 423.332715 229.228343 
L 423.332715 232.73827 
L 433.030412 232.73827 
L 433.030412 236.248198 
L 442.728108 236.248198 
L 442.728108 232.73827 
L 452.425804 232.73827 
L 452.425804 218.698561 
L 462.1235 218.698561 
L 462.1235 232.73827 
L 471.821196 232.73827 
L 471.821196 222.208488 
L 481.518893 222.208488 
L 481.518893 236.248198 
L 491.216589 236.248198 
L 491.216589 236.248198 
L 500.914285 236.248198 
L 500.914285 232.73827 
L 510.611981 232.73827 
L 510.611981 239.758125 
L 520.309677 239.758125 
L 520.309677 239.758125 
L 530.007373 239.758125 
L 530.007373 236.248198 
L 539.70507 236.248198 
L 539.70507 236.248198 
L 549.402766 236.248198 
L 549.402766 236.248198 
L 559.100462 236.248198 
L 559.100462 239.758125 
" style="fill:none;stroke:#ffff33;stroke-linejoin:miter;"/>
   </g>
   <g id="patch_8">
    <path clip-path="url(#p0ee7db538d)" d="M 74.037954 239.758125 
L 74.037954 232.73827 
L 76.724344 232.73827 
L 76.724344 229.228343 
L 79.410734 229.228343 
L 79.410734 236.248198 
L 82.097125 236.248198 
L 82.097125 232.73827 
L 84.783515 232.73827 
L 84.783515 239.758125 
L 87.469905 239.758125 
L 87.469905 232.73827 
L 90.156295 232.73827 
L 90.156295 222.208488 
L 92.842685 222.208488 
L 92.842685 208.168779 
L 95.529076 208.168779 
L 95.529076 173.069505 
L 98.215466 173.069505 
L 98.215466 190.619142 
L 100.901856 190.619142 
L 100.901856 173.069505 
L 103.588246 173.069505 
L 103.588246 127.440449 
L 106.274636 127.440449 
L 106.274636 144.990086 
L 108.961027 144.990086 
L 108.961027 102.870958 
L 111.647417 102.870958 
L 111.647417 155.519868 
L 114.333807 155.519868 
L 114.333807 169.559578 
L 117.020197 169.559578 
L 117.020197 127.440449 
L 119.706587 127.440449 
L 119.706587 144.990086 
L 122.392978 144.990086 
L 122.392978 159.029796 
L 125.079368 159.029796 
L 125.079368 109.890813 
L 127.765758 109.890813 
L 127.765758 148.500014 
L 130.452148 148.500014 
L 130.452148 109.890813 
L 133.138538 109.890813 
L 133.138538 169.559578 
L 135.824929 169.559578 
L 135.824929 137.970232 
L 138.511319 137.970232 
L 138.511319 148.500014 
L 141.197709 148.500014 
L 141.197709 159.029796 
L 143.884099 159.029796 
L 143.884099 169.559578 
L 146.570489 169.559578 
L 146.570489 173.069505 
L 149.25688 173.069505 
L 149.25688 194.129069 
L 151.94327 194.129069 
L 151.94327 176.579433 
L 154.62966 176.579433 
L 154.62966 197.638997 
L 157.31605 197.638997 
L 157.31605 187.109215 
L 160.00244 187.109215 
L 160.00244 204.658851 
L 162.688831 204.658851 
L 162.688831 215.188633 
L 165.375221 215.188633 
L 165.375221 222.208488 
L 168.061611 222.208488 
L 168.061611 215.188633 
L 170.748001 215.188633 
L 170.748001 229.228343 
L 173.434391 229.228343 
L 173.434391 218.698561 
L 176.120782 218.698561 
L 176.120782 222.208488 
L 178.807172 222.208488 
L 178.807172 232.73827 
L 181.493562 232.73827 
L 181.493562 232.73827 
L 184.179952 232.73827 
L 184.179952 232.73827 
L 186.866343 232.73827 
L 186.866343 229.228343 
L 189.552733 229.228343 
L 189.552733 232.73827 
L 192.239123 232.73827 
L 192.239123 236.248198 
L 194.925513 236.248198 
L 194.925513 236.248198 
L 197.611903 236.248198 
L 197.611903 236.248198 
L 200.298294 236.248198 
L 200.298294 236.248198 
L 202.984684 236.248198 
L 202.984684 236.248198 
L 205.671074 236.248198 
L 205.671074 236.248198 
L 208.357464 236.248198 
L 208.357464 239.758125 
" style="fill:none;stroke:#984ea3;stroke-linejoin:miter;"/>
   </g>
   <g id="matplotlib.axis_1">
    <g id="xtick_1">
     <g id="line2d_1">
      <defs>
       <path d="M 0 0 
L 0 3.5 
" id="m78535972c3" style="stroke:#000000;stroke-width:0.8;"/>
      </defs>
      <g>
       <use style="stroke:#000000;stroke-width:0.8;" x="122.576426" xlink:href="#m78535972c3" y="239.758125"/>
      </g>
     </g>
     <g id="text_1">
      <!-- 1000000 -->
      <defs>
       <path d="M 12.40625 8.296875 
L 28.515625 8.296875 
L 28.515625 63.921875 
L 10.984375 60.40625 
L 10.984375 69.390625 
L 28.421875 72.90625 
L 38.28125 72.90625 
L 38.28125 8.296875 
L 54.390625 8.296875 
L 54.390625 0 
L 12.40625 0 
z
" id="DejaVuSans-31"/>
       <path d="M 31.78125 66.40625 
Q 24.171875 66.40625 20.328125 58.90625 
Q 16.5 51.421875 16.5 36.375 
Q 16.5 21.390625 20.328125 13.890625 
Q 24.171875 6.390625 31.78125 6.390625 
Q 39.453125 6.390625 43.28125 13.890625 
Q 47.125 21.390625 47.125 36.375 
Q 47.125 51.421875 43.28125 58.90625 
Q 39.453125 66.40625 31.78125 66.40625 
z
M 31.78125 74.21875 
Q 44.046875 74.21875 50.515625 64.515625 
Q 56.984375 54.828125 56.984375 36.375 
Q 56.984375 17.96875 50.515625 8.265625 
Q 44.046875 -1.421875 31.78125 -1.421875 
Q 19.53125 -1.421875 13.0625 8.265625 
Q 6.59375 17.96875 6.59375 36.375 
Q 6.59375 54.828125 13.0625 64.515625 
Q 19.53125 74.21875 31.78125 74.21875 
z
" id="DejaVuSans-30"/>
      </defs>
      <g transform="translate(100.307676 254.356562)scale(0.1 -0.1)">
       <use xlink:href="#DejaVuSans-31"/>
       <use x="63.623047" xlink:href="#DejaVuSans-30"/>
       <use x="127.246094" xlink:href="#DejaVuSans-30"/>
       <use x="190.869141" xlink:href="#DejaVuSans-30"/>
       <use x="254.492188" xlink:href="#DejaVuSans-30"/>
       <use x="318.115234" xlink:href="#DejaVuSans-30"/>
       <use x="381.738281" xlink:href="#DejaVuSans-30"/>
      </g>
     </g>
    </g>
    <g id="xtick_2">
     <g id="line2d_2">
      <g>
       <use style="stroke:#000000;stroke-width:0.8;" x="221.353119" xlink:href="#m78535972c3" y="239.758125"/>
      </g>
     </g>
     <g id="text_2">
      <!-- 2000000 -->
      <defs>
       <path d="M 19.1875 8.296875 
L 53.609375 8.296875 
L 53.609375 0 
L 7.328125 0 
L 7.328125 8.296875 
Q 12.9375 14.109375 22.625 23.890625 
Q 32.328125 33.6875 34.8125 36.53125 
Q 39.546875 41.84375 41.421875 45.53125 
Q 43.3125 49.21875 43.3125 52.78125 
Q 43.3125 58.59375 39.234375 62.25 
Q 35.15625 65.921875 28.609375 65.921875 
Q 23.96875 65.921875 18.8125 64.3125 
Q 13.671875 62.703125 7.8125 59.421875 
L 7.8125 69.390625 
Q 13.765625 71.78125 18.9375 73 
Q 24.125 74.21875 28.421875 74.21875 
Q 39.75 74.21875 46.484375 68.546875 
Q 53.21875 62.890625 53.21875 53.421875 
Q 53.21875 48.921875 51.53125 44.890625 
Q 49.859375 40.875 45.40625 35.40625 
Q 44.1875 33.984375 37.640625 27.21875 
Q 31.109375 20.453125 19.1875 8.296875 
z
" id="DejaVuSans-32"/>
      </defs>
      <g transform="translate(199.084369 254.356562)scale(0.1 -0.1)">
       <use xlink:href="#DejaVuSans-32"/>
       <use x="63.623047" xlink:href="#DejaVuSans-30"/>
       <use x="127.246094" xlink:href="#DejaVuSans-30"/>
       <use x="190.869141" xlink:href="#DejaVuSans-30"/>
       <use x="254.492188" xlink:href="#DejaVuSans-30"/>
       <use x="318.115234" xlink:href="#DejaVuSans-30"/>
       <use x="381.738281" xlink:href="#DejaVuSans-30"/>
      </g>
     </g>
    </g>
    <g id="xtick_3">
     <g id="line2d_3">
      <g>
       <use style="stroke:#000000;stroke-width:0.8;" x="320.129811" xlink:href="#m78535972c3" y="239.758125"/>
      </g>
     </g>
     <g id="text_3">
      <!-- 3000000 -->
      <defs>
       <path d="M 40.578125 39.3125 
Q 47.65625 37.796875 51.625 33 
Q 55.609375 28.21875 55.609375 21.1875 
Q 55.609375 10.40625 48.1875 4.484375 
Q 40.765625 -1.421875 27.09375 -1.421875 
Q 22.515625 -1.421875 17.65625 -0.515625 
Q 12.796875 0.390625 7.625 2.203125 
L 7.625 11.71875 
Q 11.71875 9.328125 16.59375 8.109375 
Q 21.484375 6.890625 26.8125 6.890625 
Q 36.078125 6.890625 40.9375 10.546875 
Q 45.796875 14.203125 45.796875 21.1875 
Q 45.796875 27.640625 41.28125 31.265625 
Q 36.765625 34.90625 28.71875 34.90625 
L 20.21875 34.90625 
L 20.21875 43.015625 
L 29.109375 43.015625 
Q 36.375 43.015625 40.234375 45.921875 
Q 44.09375 48.828125 44.09375 54.296875 
Q 44.09375 59.90625 40.109375 62.90625 
Q 36.140625 65.921875 28.71875 65.921875 
Q 24.65625 65.921875 20.015625 65.03125 
Q 15.375 64.15625 9.8125 62.3125 
L 9.8125 71.09375 
Q 15.4375 72.65625 20.34375 73.4375 
Q 25.25 74.21875 29.59375 74.21875 
Q 40.828125 74.21875 47.359375 69.109375 
Q 53.90625 64.015625 53.90625 55.328125 
Q 53.90625 49.265625 50.4375 45.09375 
Q 46.96875 40.921875 40.578125 39.3125 
z
" id="DejaVuSans-33"/>
      </defs>
      <g transform="translate(297.861061 254.356562)scale(0.1 -0.1)">
       <use xlink:href="#DejaVuSans-33"/>
       <use x="63.623047" xlink:href="#DejaVuSans-30"/>
       <use x="127.246094" xlink:href="#DejaVuSans-30"/>
       <use x="190.869141" xlink:href="#DejaVuSans-30"/>
       <use x="254.492188" xlink:href="#DejaVuSans-30"/>
       <use x="318.115234" xlink:href="#DejaVuSans-30"/>
       <use x="381.738281" xlink:href="#DejaVuSans-30"/>
      </g>
     </g>
    </g>
    <g id="xtick_4">
     <g id="line2d_4">
      <g>
       <use style="stroke:#000000;stroke-width:0.8;" x="418.906504" xlink:href="#m78535972c3" y="239.758125"/>
      </g>
     </g>
     <g id="text_4">
      <!-- 4000000 -->
      <defs>
       <path d="M 37.796875 64.3125 
L 12.890625 25.390625 
L 37.796875 25.390625 
z
M 35.203125 72.90625 
L 47.609375 72.90625 
L 47.609375 25.390625 
L 58.015625 25.390625 
L 58.015625 17.1875 
L 47.609375 17.1875 
L 47.609375 0 
L 37.796875 0 
L 37.796875 17.1875 
L 4.890625 17.1875 
L 4.890625 26.703125 
z
" id="DejaVuSans-34"/>
      </defs>
      <g transform="translate(396.637754 254.356562)scale(0.1 -0.1)">
       <use xlink:href="#DejaVuSans-34"/>
       <use x="63.623047" xlink:href="#DejaVuSans-30"/>
       <use x="127.246094" xlink:href="#DejaVuSans-30"/>
       <use x="190.869141" xlink:href="#DejaVuSans-30"/>
       <use x="254.492188" xlink:href="#DejaVuSans-30"/>
       <use x="318.115234" xlink:href="#DejaVuSans-30"/>
       <use x="381.738281" xlink:href="#DejaVuSans-30"/>
      </g>
     </g>
    </g>
    <g id="xtick_5">
     <g id="line2d_5">
      <g>
       <use style="stroke:#000000;stroke-width:0.8;" x="517.683197" xlink:href="#m78535972c3" y="239.758125"/>
      </g>
     </g>
     <g id="text_5">
      <!-- 5000000 -->
      <defs>
       <path d="M 10.796875 72.90625 
L 49.515625 72.90625 
L 49.515625 64.59375 
L 19.828125 64.59375 
L 19.828125 46.734375 
Q 21.96875 47.46875 24.109375 47.828125 
Q 26.265625 48.1875 28.421875 48.1875 
Q 40.625 48.1875 47.75 41.5 
Q 54.890625 34.8125 54.890625 23.390625 
Q 54.890625 11.625 47.5625 5.09375 
Q 40.234375 -1.421875 26.90625 -1.421875 
Q 22.3125 -1.421875 17.546875 -0.640625 
Q 12.796875 0.140625 7.71875 1.703125 
L 7.71875 11.625 
Q 12.109375 9.234375 16.796875 8.0625 
Q 21.484375 6.890625 26.703125 6.890625 
Q 35.15625 6.890625 40.078125 11.328125 
Q 45.015625 15.765625 45.015625 23.390625 
Q 45.015625 31 40.078125 35.4375 
Q 35.15625 39.890625 26.703125 39.890625 
Q 22.75 39.890625 18.8125 39.015625 
Q 14.890625 38.140625 10.796875 36.28125 
z
" id="DejaVuSans-35"/>
      </defs>
      <g transform="translate(495.414447 254.356562)scale(0.1 -0.1)">
       <use xlink:href="#DejaVuSans-35"/>
       <use x="63.623047" xlink:href="#DejaVuSans-30"/>
       <use x="127.246094" xlink:href="#DejaVuSans-30"/>
       <use x="190.869141" xlink:href="#DejaVuSans-30"/>
       <use x="254.492188" xlink:href="#DejaVuSans-30"/>
       <use x="318.115234" xlink:href="#DejaVuSans-30"/>
       <use x="381.738281" xlink:href="#DejaVuSans-30"/>
      </g>
     </g>
    </g>
    <g id="xtick_6">
     <g id="line2d_6">
      <g>
       <use style="stroke:#000000;stroke-width:0.8;" x="616.45989" xlink:href="#m78535972c3" y="239.758125"/>
      </g>
     </g>
     <g id="text_6">
      <!-- 6000000 -->
      <defs>
       <path d="M 33.015625 40.375 
Q 26.375 40.375 22.484375 35.828125 
Q 18.609375 31.296875 18.609375 23.390625 
Q 18.609375 15.53125 22.484375 10.953125 
Q 26.375 6.390625 33.015625 6.390625 
Q 39.65625 6.390625 43.53125 10.953125 
Q 47.40625 15.53125 47.40625 23.390625 
Q 47.40625 31.296875 43.53125 35.828125 
Q 39.65625 40.375 33.015625 40.375 
z
M 52.59375 71.296875 
L 52.59375 62.3125 
Q 48.875 64.0625 45.09375 64.984375 
Q 41.3125 65.921875 37.59375 65.921875 
Q 27.828125 65.921875 22.671875 59.328125 
Q 17.53125 52.734375 16.796875 39.40625 
Q 19.671875 43.65625 24.015625 45.921875 
Q 28.375 48.1875 33.59375 48.1875 
Q 44.578125 48.1875 50.953125 41.515625 
Q 57.328125 34.859375 57.328125 23.390625 
Q 57.328125 12.15625 50.6875 5.359375 
Q 44.046875 -1.421875 33.015625 -1.421875 
Q 20.359375 -1.421875 13.671875 8.265625 
Q 6.984375 17.96875 6.984375 36.375 
Q 6.984375 53.65625 15.1875 63.9375 
Q 23.390625 74.21875 37.203125 74.21875 
Q 40.921875 74.21875 44.703125 73.484375 
Q 48.484375 72.75 52.59375 71.296875 
z
" id="DejaVuSans-36"/>
      </defs>
      <g transform="translate(594.19114 254.356562)scale(0.1 -0.1)">
       <use xlink:href="#DejaVuSans-36"/>
       <use x="63.623047" xlink:href="#DejaVuSans-30"/>
       <use x="127.246094" xlink:href="#DejaVuSans-30"/>
       <use x="190.869141" xlink:href="#DejaVuSans-30"/>
       <use x="254.492188" xlink:href="#DejaVuSans-30"/>
       <use x="318.115234" xlink:href="#DejaVuSans-30"/>
       <use x="381.738281" xlink:href="#DejaVuSans-30"/>
      </g>
     </g>
    </g>
    <g id="text_7">
     <!-- Read count -->
     <defs>
      <path d="M 44.390625 34.1875 
Q 47.5625 33.109375 50.5625 29.59375 
Q 53.5625 26.078125 56.59375 19.921875 
L 66.609375 0 
L 56 0 
L 46.6875 18.703125 
Q 43.0625 26.03125 39.671875 28.421875 
Q 36.28125 30.8125 30.421875 30.8125 
L 19.671875 30.8125 
L 19.671875 0 
L 9.8125 0 
L 9.8125 72.90625 
L 32.078125 72.90625 
Q 44.578125 72.90625 50.734375 67.671875 
Q 56.890625 62.453125 56.890625 51.90625 
Q 56.890625 45.015625 53.6875 40.46875 
Q 50.484375 35.9375 44.390625 34.1875 
z
M 19.671875 64.796875 
L 19.671875 38.921875 
L 32.078125 38.921875 
Q 39.203125 38.921875 42.84375 42.21875 
Q 46.484375 45.515625 46.484375 51.90625 
Q 46.484375 58.296875 42.84375 61.546875 
Q 39.203125 64.796875 32.078125 64.796875 
z
" id="DejaVuSans-52"/>
      <path d="M 56.203125 29.59375 
L 56.203125 25.203125 
L 14.890625 25.203125 
Q 15.484375 15.921875 20.484375 11.0625 
Q 25.484375 6.203125 34.421875 6.203125 
Q 39.59375 6.203125 44.453125 7.46875 
Q 49.3125 8.734375 54.109375 11.28125 
L 54.109375 2.78125 
Q 49.265625 0.734375 44.1875 -0.34375 
Q 39.109375 -1.421875 33.890625 -1.421875 
Q 20.796875 -1.421875 13.15625 6.1875 
Q 5.515625 13.8125 5.515625 26.8125 
Q 5.515625 40.234375 12.765625 48.109375 
Q 20.015625 56 32.328125 56 
Q 43.359375 56 49.78125 48.890625 
Q 56.203125 41.796875 56.203125 29.59375 
z
M 47.21875 32.234375 
Q 47.125 39.59375 43.09375 43.984375 
Q 39.0625 48.390625 32.421875 48.390625 
Q 24.90625 48.390625 20.390625 44.140625 
Q 15.875 39.890625 15.1875 32.171875 
z
" id="DejaVuSans-65"/>
      <path d="M 34.28125 27.484375 
Q 23.390625 27.484375 19.1875 25 
Q 14.984375 22.515625 14.984375 16.5 
Q 14.984375 11.71875 18.140625 8.90625 
Q 21.296875 6.109375 26.703125 6.109375 
Q 34.1875 6.109375 38.703125 11.40625 
Q 43.21875 16.703125 43.21875 25.484375 
L 43.21875 27.484375 
z
M 52.203125 31.203125 
L 52.203125 0 
L 43.21875 0 
L 43.21875 8.296875 
Q 40.140625 3.328125 35.546875 0.953125 
Q 30.953125 -1.421875 24.3125 -1.421875 
Q 15.921875 -1.421875 10.953125 3.296875 
Q 6 8.015625 6 15.921875 
Q 6 25.140625 12.171875 29.828125 
Q 18.359375 34.515625 30.609375 34.515625 
L 43.21875 34.515625 
L 43.21875 35.40625 
Q 43.21875 41.609375 39.140625 45 
Q 35.0625 48.390625 27.6875 48.390625 
Q 23 48.390625 18.546875 47.265625 
Q 14.109375 46.140625 10.015625 43.890625 
L 10.015625 52.203125 
Q 14.9375 54.109375 19.578125 55.046875 
Q 24.21875 56 28.609375 56 
Q 40.484375 56 46.34375 49.84375 
Q 52.203125 43.703125 52.203125 31.203125 
z
" id="DejaVuSans-61"/>
      <path d="M 45.40625 46.390625 
L 45.40625 75.984375 
L 54.390625 75.984375 
L 54.390625 0 
L 45.40625 0 
L 45.40625 8.203125 
Q 42.578125 3.328125 38.25 0.953125 
Q 33.9375 -1.421875 27.875 -1.421875 
Q 17.96875 -1.421875 11.734375 6.484375 
Q 5.515625 14.40625 5.515625 27.296875 
Q 5.515625 40.1875 11.734375 48.09375 
Q 17.96875 56 27.875 56 
Q 33.9375 56 38.25 53.625 
Q 42.578125 51.265625 45.40625 46.390625 
z
M 14.796875 27.296875 
Q 14.796875 17.390625 18.875 11.75 
Q 22.953125 6.109375 30.078125 6.109375 
Q 37.203125 6.109375 41.296875 11.75 
Q 45.40625 17.390625 45.40625 27.296875 
Q 45.40625 37.203125 41.296875 42.84375 
Q 37.203125 48.484375 30.078125 48.484375 
Q 22.953125 48.484375 18.875 42.84375 
Q 14.796875 37.203125 14.796875 27.296875 
z
" id="DejaVuSans-64"/>
      <path id="DejaVuSans-20"/>
      <path d="M 48.78125 52.59375 
L 48.78125 44.1875 
Q 44.96875 46.296875 41.140625 47.34375 
Q 37.3125 48.390625 33.40625 48.390625 
Q 24.65625 48.390625 19.8125 42.84375 
Q 14.984375 37.3125 14.984375 27.296875 
Q 14.984375 17.28125 19.8125 11.734375 
Q 24.65625 6.203125 33.40625 6.203125 
Q 37.3125 6.203125 41.140625 7.25 
Q 44.96875 8.296875 48.78125 10.40625 
L 48.78125 2.09375 
Q 45.015625 0.34375 40.984375 -0.53125 
Q 36.96875 -1.421875 32.421875 -1.421875 
Q 20.0625 -1.421875 12.78125 6.34375 
Q 5.515625 14.109375 5.515625 27.296875 
Q 5.515625 40.671875 12.859375 48.328125 
Q 20.21875 56 33.015625 56 
Q 37.15625 56 41.109375 55.140625 
Q 45.0625 54.296875 48.78125 52.59375 
z
" id="DejaVuSans-63"/>
      <path d="M 30.609375 48.390625 
Q 23.390625 48.390625 19.1875 42.75 
Q 14.984375 37.109375 14.984375 27.296875 
Q 14.984375 17.484375 19.15625 11.84375 
Q 23.34375 6.203125 30.609375 6.203125 
Q 37.796875 6.203125 41.984375 11.859375 
Q 46.1875 17.53125 46.1875 27.296875 
Q 46.1875 37.015625 41.984375 42.703125 
Q 37.796875 48.390625 30.609375 48.390625 
z
M 30.609375 56 
Q 42.328125 56 49.015625 48.375 
Q 55.71875 40.765625 55.71875 27.296875 
Q 55.71875 13.875 49.015625 6.21875 
Q 42.328125 -1.421875 30.609375 -1.421875 
Q 18.84375 -1.421875 12.171875 6.21875 
Q 5.515625 13.875 5.515625 27.296875 
Q 5.515625 40.765625 12.171875 48.375 
Q 18.84375 56 30.609375 56 
z
" id="DejaVuSans-6f"/>
      <path d="M 8.5 21.578125 
L 8.5 54.6875 
L 17.484375 54.6875 
L 17.484375 21.921875 
Q 17.484375 14.15625 20.5 10.265625 
Q 23.53125 6.390625 29.59375 6.390625 
Q 36.859375 6.390625 41.078125 11.03125 
Q 45.3125 15.671875 45.3125 23.6875 
L 45.3125 54.6875 
L 54.296875 54.6875 
L 54.296875 0 
L 45.3125 0 
L 45.3125 8.40625 
Q 42.046875 3.421875 37.71875 1 
Q 33.40625 -1.421875 27.6875 -1.421875 
Q 18.265625 -1.421875 13.375 4.4375 
Q 8.5 10.296875 8.5 21.578125 
z
M 31.109375 56 
z
" id="DejaVuSans-75"/>
      <path d="M 54.890625 33.015625 
L 54.890625 0 
L 45.90625 0 
L 45.90625 32.71875 
Q 45.90625 40.484375 42.875 44.328125 
Q 39.84375 48.1875 33.796875 48.1875 
Q 26.515625 48.1875 22.3125 43.546875 
Q 18.109375 38.921875 18.109375 30.90625 
L 18.109375 0 
L 9.078125 0 
L 9.078125 54.6875 
L 18.109375 54.6875 
L 18.109375 46.1875 
Q 21.34375 51.125 25.703125 53.5625 
Q 30.078125 56 35.796875 56 
Q 45.21875 56 50.046875 50.171875 
Q 54.890625 44.34375 54.890625 33.015625 
z
" id="DejaVuSans-6e"/>
      <path d="M 18.3125 70.21875 
L 18.3125 54.6875 
L 36.8125 54.6875 
L 36.8125 47.703125 
L 18.3125 47.703125 
L 18.3125 18.015625 
Q 18.3125 11.328125 20.140625 9.421875 
Q 21.96875 7.515625 27.59375 7.515625 
L 36.8125 7.515625 
L 36.8125 0 
L 27.59375 0 
Q 17.1875 0 13.234375 3.875 
Q 9.28125 7.765625 9.28125 18.015625 
L 9.28125 47.703125 
L 2.6875 47.703125 
L 2.6875 54.6875 
L 9.28125 54.6875 
L 9.28125 70.21875 
z
" id="DejaVuSans-74"/>
     </defs>
     <g transform="translate(346.921875 268.034687)scale(0.1 -0.1)">
      <use xlink:href="#DejaVuSans-52"/>
      <use x="69.419922" xlink:href="#DejaVuSans-65"/>
      <use x="130.943359" xlink:href="#DejaVuSans-61"/>
      <use x="192.222656" xlink:href="#DejaVuSans-64"/>
      <use x="255.699219" xlink:href="#DejaVuSans-20"/>
      <use x="287.486328" xlink:href="#DejaVuSans-63"/>
      <use x="342.466797" xlink:href="#DejaVuSans-6f"/>
      <use x="403.648438" xlink:href="#DejaVuSans-75"/>
      <use x="467.027344" xlink:href="#DejaVuSans-6e"/>
      <use x="530.40625" xlink:href="#DejaVuSans-74"/>
     </g>
    </g>
   </g>
   <g id="matplotlib.axis_2">
    <g id="ytick_1">
     <g id="line2d_7">
      <defs>
       <path d="M 0 0 
L -3.5 0 
" id="m1b4763bb97" style="stroke:#000000;stroke-width:0.8;"/>
      </defs>
      <g>
       <use style="stroke:#000000;stroke-width:0.8;" x="40.603125" xlink:href="#m1b4763bb97" y="239.758125"/>
      </g>
     </g>
     <g id="text_8">
      <!-- 0 -->
      <g transform="translate(27.240625 243.557344)scale(0.1 -0.1)">
       <use xlink:href="#DejaVuSans-30"/>
      </g>
     </g>
    </g>
    <g id="ytick_2">
     <g id="line2d_8">
      <g>
       <use style="stroke:#000000;stroke-width:0.8;" x="40.603125" xlink:href="#m1b4763bb97" y="204.658851"/>
      </g>
     </g>
     <g id="text_9">
      <!-- 10 -->
      <g transform="translate(20.878125 208.45807)scale(0.1 -0.1)">
       <use xlink:href="#DejaVuSans-31"/>
       <use x="63.623047" xlink:href="#DejaVuSans-30"/>
      </g>
     </g>
    </g>
    <g id="ytick_3">
     <g id="line2d_9">
      <g>
       <use style="stroke:#000000;stroke-width:0.8;" x="40.603125" xlink:href="#m1b4763bb97" y="169.559578"/>
      </g>
     </g>
     <g id="text_10">
      <!-- 20 -->
      <g transform="translate(20.878125 173.358797)scale(0.1 -0.1)">
       <use xlink:href="#DejaVuSans-32"/>
       <use x="63.623047" xlink:href="#DejaVuSans-30"/>
      </g>
     </g>
    </g>
    <g id="ytick_4">
     <g id="line2d_10">
      <g>
       <use style="stroke:#000000;stroke-width:0.8;" x="40.603125" xlink:href="#m1b4763bb97" y="134.460304"/>
      </g>
     </g>
     <g id="text_11">
      <!-- 30 -->
      <g transform="translate(20.878125 138.259523)scale(0.1 -0.1)">
       <use xlink:href="#DejaVuSans-33"/>
       <use x="63.623047" xlink:href="#DejaVuSans-30"/>
      </g>
     </g>
    </g>
    <g id="ytick_5">
     <g id="line2d_11">
      <g>
       <use style="stroke:#000000;stroke-width:0.8;" x="40.603125" xlink:href="#m1b4763bb97" y="99.361031"/>
      </g>
     </g>
     <g id="text_12">
      <!-- 40 -->
      <g transform="translate(20.878125 103.160249)scale(0.1 -0.1)">
       <use xlink:href="#DejaVuSans-34"/>
       <use x="63.623047" xlink:href="#DejaVuSans-30"/>
      </g>
     </g>
    </g>
    <g id="ytick_6">
     <g id="line2d_12">
      <g>
       <use style="stroke:#000000;stroke-width:0.8;" x="40.603125" xlink:href="#m1b4763bb97" y="64.261757"/>
      </g>
     </g>
     <g id="text_13">
      <!-- 50 -->
      <g transform="translate(20.878125 68.060976)scale(0.1 -0.1)">
       <use xlink:href="#DejaVuSans-35"/>
       <use x="63.623047" xlink:href="#DejaVuSans-30"/>
      </g>
     </g>
    </g>
    <g id="ytick_7">
     <g id="line2d_13">
      <g>
       <use style="stroke:#000000;stroke-width:0.8;" x="40.603125" xlink:href="#m1b4763bb97" y="29.162483"/>
      </g>
     </g>
     <g id="text_14">
      <!-- 60 -->
      <g transform="translate(20.878125 32.961702)scale(0.1 -0.1)">
       <use xlink:href="#DejaVuSans-36"/>
       <use x="63.623047" xlink:href="#DejaVuSans-30"/>
      </g>
     </g>
    </g>
    <g id="text_15">
     <!-- Density -->
     <defs>
      <path d="M 19.671875 64.796875 
L 19.671875 8.109375 
L 31.59375 8.109375 
Q 46.6875 8.109375 53.6875 14.9375 
Q 60.6875 21.78125 60.6875 36.53125 
Q 60.6875 51.171875 53.6875 57.984375 
Q 46.6875 64.796875 31.59375 64.796875 
z
M 9.8125 72.90625 
L 30.078125 72.90625 
Q 51.265625 72.90625 61.171875 64.09375 
Q 71.09375 55.28125 71.09375 36.53125 
Q 71.09375 17.671875 61.125 8.828125 
Q 51.171875 0 30.078125 0 
L 9.8125 0 
z
" id="DejaVuSans-44"/>
      <path d="M 44.28125 53.078125 
L 44.28125 44.578125 
Q 40.484375 46.53125 36.375 47.5 
Q 32.28125 48.484375 27.875 48.484375 
Q 21.1875 48.484375 17.84375 46.4375 
Q 14.5 44.390625 14.5 40.28125 
Q 14.5 37.15625 16.890625 35.375 
Q 19.28125 33.59375 26.515625 31.984375 
L 29.59375 31.296875 
Q 39.15625 29.25 43.1875 25.515625 
Q 47.21875 21.78125 47.21875 15.09375 
Q 47.21875 7.46875 41.1875 3.015625 
Q 35.15625 -1.421875 24.609375 -1.421875 
Q 20.21875 -1.421875 15.453125 -0.5625 
Q 10.6875 0.296875 5.421875 2 
L 5.421875 11.28125 
Q 10.40625 8.6875 15.234375 7.390625 
Q 20.0625 6.109375 24.8125 6.109375 
Q 31.15625 6.109375 34.5625 8.28125 
Q 37.984375 10.453125 37.984375 14.40625 
Q 37.984375 18.0625 35.515625 20.015625 
Q 33.0625 21.96875 24.703125 23.78125 
L 21.578125 24.515625 
Q 13.234375 26.265625 9.515625 29.90625 
Q 5.8125 33.546875 5.8125 39.890625 
Q 5.8125 47.609375 11.28125 51.796875 
Q 16.75 56 26.8125 56 
Q 31.78125 56 36.171875 55.265625 
Q 40.578125 54.546875 44.28125 53.078125 
z
" id="DejaVuSans-73"/>
      <path d="M 9.421875 54.6875 
L 18.40625 54.6875 
L 18.40625 0 
L 9.421875 0 
z
M 9.421875 75.984375 
L 18.40625 75.984375 
L 18.40625 64.59375 
L 9.421875 64.59375 
z
" id="DejaVuSans-69"/>
      <path d="M 32.171875 -5.078125 
Q 28.375 -14.84375 24.75 -17.8125 
Q 21.140625 -20.796875 15.09375 -20.796875 
L 7.90625 -20.796875 
L 7.90625 -13.28125 
L 13.1875 -13.28125 
Q 16.890625 -13.28125 18.9375 -11.515625 
Q 21 -9.765625 23.484375 -3.21875 
L 25.09375 0.875 
L 2.984375 54.6875 
L 12.5 54.6875 
L 29.59375 11.921875 
L 46.6875 54.6875 
L 56.203125 54.6875 
z
" id="DejaVuSans-79"/>
     </defs>
     <g transform="translate(14.798438 150.046719)rotate(-90)scale(0.1 -0.1)">
      <use xlink:href="#DejaVuSans-44"/>
      <use x="77.001953" xlink:href="#DejaVuSans-65"/>
      <use x="138.525391" xlink:href="#DejaVuSans-6e"/>
      <use x="201.904297" xlink:href="#DejaVuSans-73"/>
      <use x="254.003906" xlink:href="#DejaVuSans-69"/>
      <use x="281.787109" xlink:href="#DejaVuSans-74"/>
      <use x="320.996094" xlink:href="#DejaVuSans-79"/>
     </g>
    </g>
   </g>
   <g id="patch_9">
    <path d="M 40.603125 239.758125 
L 40.603125 22.318125 
" style="fill:none;stroke:#000000;stroke-linecap:square;stroke-linejoin:miter;stroke-width:0.8;"/>
   </g>
   <g id="patch_10">
    <path d="M 710.203125 239.758125 
L 710.203125 22.318125 
" style="fill:none;stroke:#000000;stroke-linecap:square;stroke-linejoin:miter;stroke-width:0.8;"/>
   </g>
   <g id="patch_11">
    <path d="M 40.603125 239.758125 
L 710.203125 239.758125 
" style="fill:none;stroke:#000000;stroke-linecap:square;stroke-linejoin:miter;stroke-width:0.8;"/>
   </g>
   <g id="patch_12">
    <path d="M 40.603125 22.318125 
L 710.203125 22.318125 
" style="fill:none;stroke:#000000;stroke-linecap:square;stroke-linejoin:miter;stroke-width:0.8;"/>
   </g>
   <g id="text_16">
    <!-- Read count by batch -->
    <defs>
     <path d="M 48.6875 27.296875 
Q 48.6875 37.203125 44.609375 42.84375 
Q 40.53125 48.484375 33.40625 48.484375 
Q 26.265625 48.484375 22.1875 42.84375 
Q 18.109375 37.203125 18.109375 27.296875 
Q 18.109375 17.390625 22.1875 11.75 
Q 26.265625 6.109375 33.40625 6.109375 
Q 40.53125 6.109375 44.609375 11.75 
Q 48.6875 17.390625 48.6875 27.296875 
z
M 18.109375 46.390625 
Q 20.953125 51.265625 25.265625 53.625 
Q 29.59375 56 35.59375 56 
Q 45.5625 56 51.78125 48.09375 
Q 58.015625 40.1875 58.015625 27.296875 
Q 58.015625 14.40625 51.78125 6.484375 
Q 45.5625 -1.421875 35.59375 -1.421875 
Q 29.59375 -1.421875 25.265625 0.953125 
Q 20.953125 3.328125 18.109375 8.203125 
L 18.109375 0 
L 9.078125 0 
L 9.078125 75.984375 
L 18.109375 75.984375 
z
" id="DejaVuSans-62"/>
     <path d="M 54.890625 33.015625 
L 54.890625 0 
L 45.90625 0 
L 45.90625 32.71875 
Q 45.90625 40.484375 42.875 44.328125 
Q 39.84375 48.1875 33.796875 48.1875 
Q 26.515625 48.1875 22.3125 43.546875 
Q 18.109375 38.921875 18.109375 30.90625 
L 18.109375 0 
L 9.078125 0 
L 9.078125 75.984375 
L 18.109375 75.984375 
L 18.109375 46.1875 
Q 21.34375 51.125 25.703125 53.5625 
Q 30.078125 56 35.796875 56 
Q 45.21875 56 50.046875 50.171875 
Q 54.890625 44.34375 54.890625 33.015625 
z
" id="DejaVuSans-68"/>
    </defs>
    <g transform="translate(313.111875 16.318125)scale(0.12 -0.12)">
     <use xlink:href="#DejaVuSans-52"/>
     <use x="69.419922" xlink:href="#DejaVuSans-65"/>
     <use x="130.943359" xlink:href="#DejaVuSans-61"/>
     <use x="192.222656" xlink:href="#DejaVuSans-64"/>
     <use x="255.699219" xlink:href="#DejaVuSans-20"/>
     <use x="287.486328" xlink:href="#DejaVuSans-63"/>
     <use x="342.466797" xlink:href="#DejaVuSans-6f"/>
     <use x="403.648438" xlink:href="#DejaVuSans-75"/>
     <use x="467.027344" xlink:href="#DejaVuSans-6e"/>
     <use x="530.40625" xlink:href="#DejaVuSans-74"/>
     <use x="569.615234" xlink:href="#DejaVuSans-20"/>
     <use x="601.402344" xlink:href="#DejaVuSans-62"/>
     <use x="664.878906" xlink:href="#DejaVuSans-79"/>
     <use x="724.058594" xlink:href="#DejaVuSans-20"/>
     <use x="755.845703" xlink:href="#DejaVuSans-62"/>
     <use x="819.322266" xlink:href="#DejaVuSans-61"/>
     <use x="880.601562" xlink:href="#DejaVuSans-74"/>
     <use x="919.810547" xlink:href="#DejaVuSans-63"/>
     <use x="974.791016" xlink:href="#DejaVuSans-68"/>
    </g>
   </g>
   <g id="legend_1">
    <g id="patch_13">
     <path d="M 658.492188 118.386875 
L 703.203125 118.386875 
Q 705.203125 118.386875 705.203125 116.386875 
L 705.203125 29.318125 
Q 705.203125 27.318125 703.203125 27.318125 
L 658.492188 27.318125 
Q 656.492188 27.318125 656.492188 29.318125 
L 656.492188 116.386875 
Q 656.492188 118.386875 658.492188 118.386875 
z
" style="fill:#ffffff;opacity:0.8;stroke:#cccccc;stroke-linejoin:miter;"/>
    </g>
    <g id="patch_14">
     <path d="M 660.492188 38.916562 
L 680.492188 38.916562 
L 680.492188 31.916562 
L 660.492188 31.916562 
z
" style="fill:none;stroke:#e41a1c;stroke-linejoin:miter;"/>
    </g>
    <g id="text_17">
     <!-- b1 -->
     <g transform="translate(688.492188 38.916562)scale(0.1 -0.1)">
      <use xlink:href="#DejaVuSans-62"/>
      <use x="63.476562" xlink:href="#DejaVuSans-31"/>
     </g>
    </g>
    <g id="patch_15">
     <path d="M 660.492188 53.594687 
L 680.492188 53.594687 
L 680.492188 46.594687 
L 660.492188 46.594687 
z
" style="fill:none;stroke:#4daf4a;stroke-linejoin:miter;"/>
    </g>
    <g id="text_18">
     <!-- b2 -->
     <g transform="translate(688.492188 53.594687)scale(0.1 -0.1)">
      <use xlink:href="#DejaVuSans-62"/>
      <use x="63.476562" xlink:href="#DejaVuSans-32"/>
     </g>
    </g>
    <g id="patch_16">
     <path d="M 660.492188 68.272812 
L 680.492188 68.272812 
L 680.492188 61.272812 
L 660.492188 61.272812 
z
" style="fill:none;stroke:#377eb8;stroke-linejoin:miter;"/>
    </g>
    <g id="text_19">
     <!-- b3 -->
     <g transform="translate(688.492188 68.272812)scale(0.1 -0.1)">
      <use xlink:href="#DejaVuSans-62"/>
      <use x="63.476562" xlink:href="#DejaVuSans-33"/>
     </g>
    </g>
    <g id="patch_17">
     <path d="M 660.492188 82.950938 
L 680.492188 82.950938 
L 680.492188 75.950938 
L 660.492188 75.950938 
z
" style="fill:none;stroke:#ff7f00;stroke-linejoin:miter;"/>
    </g>
    <g id="text_20">
     <!-- b4 -->
     <g transform="translate(688.492188 82.950938)scale(0.1 -0.1)">
      <use xlink:href="#DejaVuSans-62"/>
      <use x="63.476562" xlink:href="#DejaVuSans-34"/>
     </g>
    </g>
    <g id="patch_18">
     <path d="M 660.492188 97.629063 
L 680.492188 97.629063 
L 680.492188 90.629063 
L 660.492188 90.629063 
z
" style="fill:none;stroke:#ffff33;stroke-linejoin:miter;"/>
    </g>
    <g id="text_21">
     <!-- b5 -->
     <g transform="translate(688.492188 97.629063)scale(0.1 -0.1)">
      <use xlink:href="#DejaVuSans-62"/>
      <use x="63.476562" xlink:href="#DejaVuSans-35"/>
     </g>
    </g>
    <g id="patch_19">
     <path d="M 660.492188 112.307187 
L 680.492188 112.307187 
L 680.492188 105.307187 
L 660.492188 105.307187 
z
" style="fill:none;stroke:#984ea3;stroke-linejoin:miter;"/>
    </g>
    <g id="text_22">
     <!-- b6 -->
     <g transform="translate(688.492188 112.307187)scale(0.1 -0.1)">
      <use xlink:href="#DejaVuSans-62"/>
      <use x="63.476562" xlink:href="#DejaVuSans-36"/>
     </g>
    </g>
   </g>
  </g>
 </g>
 <defs>
  <clipPath id="p0ee7db538d">
   <rect height="217.44" width="669.6" x="40.603125" y="22.318125"/>
  </clipPath>
 </defs>
</svg>
