<?xml version="1.0" encoding="utf-8" standalone="no"?>
<!DOCTYPE svg PUBLIC "-//W3C//DTD SVG 1.1//EN"
  "http://www.w3.org/Graphics/SVG/1.1/DTD/svg11.dtd">
<!-- Created with matplotlib (http://matplotlib.org/) -->
<svg height="277pt" version="1.1" viewBox="0 0 762 277" width="762pt" xmlns="http://www.w3.org/2000/svg" xmlns:xlink="http://www.w3.org/1999/xlink">
 <defs>
  <style type="text/css">
*{stroke-linecap:butt;stroke-linejoin:round;}
  </style>
 </defs>
 <g id="figure_1">
  <g id="patch_1">
   <path d="M 0 277.314375 
L 762.25625 277.314375 
L 762.25625 0 
L 0 0 
z
" style="fill:none;"/>
  </g>
  <g id="axes_1">
   <g id="patch_2">
    <path d="M 81.95625 239.758125 
L 751.55625 239.758125 
L 751.55625 22.318125 
L 81.95625 22.318125 
z
" style="fill:#ffffff;"/>
   </g>
   <g id="matplotlib.axis_1">
    <g id="xtick_1">
     <g id="line2d_1">
      <defs>
       <path d="M 0 0 
L 0 3.5 
" id="m445f5c7fa0" style="stroke:#000000;stroke-width:0.8;"/>
      </defs>
      <g>
       <use style="stroke:#000000;stroke-width:0.8;" x="163.929551" xlink:href="#m445f5c7fa0" y="239.758125"/>
      </g>
     </g>
     <g id="text_1">
      <!-- 1000000 -->
      <defs>
       <path d="M 12.40625 8.296875 
L 28.515625 8.296875 
L 28.515625 63.921875 
L 10.984375 60.40625 
L 10.984375 69.390625 
L 28.421875 72.90625 
L 38.28125 72.90625 
L 38.28125 8.296875 
L 54.390625 8.296875 
L 54.390625 0 
L 12.40625 0 
z
" id="DejaVuSans-31"/>
       <path d="M 31.78125 66.40625 
Q 24.171875 66.40625 20.328125 58.90625 
Q 16.5 51.421875 16.5 36.375 
Q 16.5 21.390625 20.328125 13.890625 
Q 24.171875 6.390625 31.78125 6.390625 
Q 39.453125 6.390625 43.28125 13.890625 
Q 47.125 21.390625 47.125 36.375 
Q 47.125 51.421875 43.28125 58.90625 
Q 39.453125 66.40625 31.78125 66.40625 
z
M 31.78125 74.21875 
Q 44.046875 74.21875 50.515625 64.515625 
Q 56.984375 54.828125 56.984375 36.375 
Q 56.984375 17.96875 50.515625 8.265625 
Q 44.046875 -1.421875 31.78125 -1.421875 
Q 19.53125 -1.421875 13.0625 8.265625 
Q 6.59375 17.96875 6.59375 36.375 
Q 6.59375 54.828125 13.0625 64.515625 
Q 19.53125 74.21875 31.78125 74.21875 
z
" id="DejaVuSans-30"/>
      </defs>
      <g transform="translate(141.660801 254.356562)scale(0.1 -0.1)">
       <use xlink:href="#DejaVuSans-31"/>
       <use x="63.623047" xlink:href="#DejaVuSans-30"/>
       <use x="127.246094" xlink:href="#DejaVuSans-30"/>
       <use x="190.869141" xlink:href="#DejaVuSans-30"/>
       <use x="254.492188" xlink:href="#DejaVuSans-30"/>
       <use x="318.115234" xlink:href="#DejaVuSans-30"/>
       <use x="381.738281" xlink:href="#DejaVuSans-30"/>
      </g>
     </g>
    </g>
    <g id="xtick_2">
     <g id="line2d_2">
      <g>
       <use style="stroke:#000000;stroke-width:0.8;" x="262.706244" xlink:href="#m445f5c7fa0" y="239.758125"/>
      </g>
     </g>
     <g id="text_2">
      <!-- 2000000 -->
      <defs>
       <path d="M 19.1875 8.296875 
L 53.609375 8.296875 
L 53.609375 0 
L 7.328125 0 
L 7.328125 8.296875 
Q 12.9375 14.109375 22.625 23.890625 
Q 32.328125 33.6875 34.8125 36.53125 
Q 39.546875 41.84375 41.421875 45.53125 
Q 43.3125 49.21875 43.3125 52.78125 
Q 43.3125 58.59375 39.234375 62.25 
Q 35.15625 65.921875 28.609375 65.921875 
Q 23.96875 65.921875 18.8125 64.3125 
Q 13.671875 62.703125 7.8125 59.421875 
L 7.8125 69.390625 
Q 13.765625 71.78125 18.9375 73 
Q 24.125 74.21875 28.421875 74.21875 
Q 39.75 74.21875 46.484375 68.546875 
Q 53.21875 62.890625 53.21875 53.421875 
Q 53.21875 48.921875 51.53125 44.890625 
Q 49.859375 40.875 45.40625 35.40625 
Q 44.1875 33.984375 37.640625 27.21875 
Q 31.109375 20.453125 19.1875 8.296875 
z
" id="DejaVuSans-32"/>
      </defs>
      <g transform="translate(240.437494 254.356562)scale(0.1 -0.1)">
       <use xlink:href="#DejaVuSans-32"/>
       <use x="63.623047" xlink:href="#DejaVuSans-30"/>
       <use x="127.246094" xlink:href="#DejaVuSans-30"/>
       <use x="190.869141" xlink:href="#DejaVuSans-30"/>
       <use x="254.492188" xlink:href="#DejaVuSans-30"/>
       <use x="318.115234" xlink:href="#DejaVuSans-30"/>
       <use x="381.738281" xlink:href="#DejaVuSans-30"/>
      </g>
     </g>
    </g>
    <g id="xtick_3">
     <g id="line2d_3">
      <g>
       <use style="stroke:#000000;stroke-width:0.8;" x="361.482936" xlink:href="#m445f5c7fa0" y="239.758125"/>
      </g>
     </g>
     <g id="text_3">
      <!-- 3000000 -->
      <defs>
       <path d="M 40.578125 39.3125 
Q 47.65625 37.796875 51.625 33 
Q 55.609375 28.21875 55.609375 21.1875 
Q 55.609375 10.40625 48.1875 4.484375 
Q 40.765625 -1.421875 27.09375 -1.421875 
Q 22.515625 -1.421875 17.65625 -0.515625 
Q 12.796875 0.390625 7.625 2.203125 
L 7.625 11.71875 
Q 11.71875 9.328125 16.59375 8.109375 
Q 21.484375 6.890625 26.8125 6.890625 
Q 36.078125 6.890625 40.9375 10.546875 
Q 45.796875 14.203125 45.796875 21.1875 
Q 45.796875 27.640625 41.28125 31.265625 
Q 36.765625 34.90625 28.71875 34.90625 
L 20.21875 34.90625 
L 20.21875 43.015625 
L 29.109375 43.015625 
Q 36.375 43.015625 40.234375 45.921875 
Q 44.09375 48.828125 44.09375 54.296875 
Q 44.09375 59.90625 40.109375 62.90625 
Q 36.140625 65.921875 28.71875 65.921875 
Q 24.65625 65.921875 20.015625 65.03125 
Q 15.375 64.15625 9.8125 62.3125 
L 9.8125 71.09375 
Q 15.4375 72.65625 20.34375 73.4375 
Q 25.25 74.21875 29.59375 74.21875 
Q 40.828125 74.21875 47.359375 69.109375 
Q 53.90625 64.015625 53.90625 55.328125 
Q 53.90625 49.265625 50.4375 45.09375 
Q 46.96875 40.921875 40.578125 39.3125 
z
" id="DejaVuSans-33"/>
      </defs>
      <g transform="translate(339.214186 254.356562)scale(0.1 -0.1)">
       <use xlink:href="#DejaVuSans-33"/>
       <use x="63.623047" xlink:href="#DejaVuSans-30"/>
       <use x="127.246094" xlink:href="#DejaVuSans-30"/>
       <use x="190.869141" xlink:href="#DejaVuSans-30"/>
       <use x="254.492188" xlink:href="#DejaVuSans-30"/>
       <use x="318.115234" xlink:href="#DejaVuSans-30"/>
       <use x="381.738281" xlink:href="#DejaVuSans-30"/>
      </g>
     </g>
    </g>
    <g id="xtick_4">
     <g id="line2d_4">
      <g>
       <use style="stroke:#000000;stroke-width:0.8;" x="460.259629" xlink:href="#m445f5c7fa0" y="239.758125"/>
      </g>
     </g>
     <g id="text_4">
      <!-- 4000000 -->
      <defs>
       <path d="M 37.796875 64.3125 
L 12.890625 25.390625 
L 37.796875 25.390625 
z
M 35.203125 72.90625 
L 47.609375 72.90625 
L 47.609375 25.390625 
L 58.015625 25.390625 
L 58.015625 17.1875 
L 47.609375 17.1875 
L 47.609375 0 
L 37.796875 0 
L 37.796875 17.1875 
L 4.890625 17.1875 
L 4.890625 26.703125 
z
" id="DejaVuSans-34"/>
      </defs>
      <g transform="translate(437.990879 254.356562)scale(0.1 -0.1)">
       <use xlink:href="#DejaVuSans-34"/>
       <use x="63.623047" xlink:href="#DejaVuSans-30"/>
       <use x="127.246094" xlink:href="#DejaVuSans-30"/>
       <use x="190.869141" xlink:href="#DejaVuSans-30"/>
       <use x="254.492188" xlink:href="#DejaVuSans-30"/>
       <use x="318.115234" xlink:href="#DejaVuSans-30"/>
       <use x="381.738281" xlink:href="#DejaVuSans-30"/>
      </g>
     </g>
    </g>
    <g id="xtick_5">
     <g id="line2d_5">
      <g>
       <use style="stroke:#000000;stroke-width:0.8;" x="559.036322" xlink:href="#m445f5c7fa0" y="239.758125"/>
      </g>
     </g>
     <g id="text_5">
      <!-- 5000000 -->
      <defs>
       <path d="M 10.796875 72.90625 
L 49.515625 72.90625 
L 49.515625 64.59375 
L 19.828125 64.59375 
L 19.828125 46.734375 
Q 21.96875 47.46875 24.109375 47.828125 
Q 26.265625 48.1875 28.421875 48.1875 
Q 40.625 48.1875 47.75 41.5 
Q 54.890625 34.8125 54.890625 23.390625 
Q 54.890625 11.625 47.5625 5.09375 
Q 40.234375 -1.421875 26.90625 -1.421875 
Q 22.3125 -1.421875 17.546875 -0.640625 
Q 12.796875 0.140625 7.71875 1.703125 
L 7.71875 11.625 
Q 12.109375 9.234375 16.796875 8.0625 
Q 21.484375 6.890625 26.703125 6.890625 
Q 35.15625 6.890625 40.078125 11.328125 
Q 45.015625 15.765625 45.015625 23.390625 
Q 45.015625 31 40.078125 35.4375 
Q 35.15625 39.890625 26.703125 39.890625 
Q 22.75 39.890625 18.8125 39.015625 
Q 14.890625 38.140625 10.796875 36.28125 
z
" id="DejaVuSans-35"/>
      </defs>
      <g transform="translate(536.767572 254.356562)scale(0.1 -0.1)">
       <use xlink:href="#DejaVuSans-35"/>
       <use x="63.623047" xlink:href="#DejaVuSans-30"/>
       <use x="127.246094" xlink:href="#DejaVuSans-30"/>
       <use x="190.869141" xlink:href="#DejaVuSans-30"/>
       <use x="254.492188" xlink:href="#DejaVuSans-30"/>
       <use x="318.115234" xlink:href="#DejaVuSans-30"/>
       <use x="381.738281" xlink:href="#DejaVuSans-30"/>
      </g>
     </g>
    </g>
    <g id="xtick_6">
     <g id="line2d_6">
      <g>
       <use style="stroke:#000000;stroke-width:0.8;" x="657.813015" xlink:href="#m445f5c7fa0" y="239.758125"/>
      </g>
     </g>
     <g id="text_6">
      <!-- 6000000 -->
      <defs>
       <path d="M 33.015625 40.375 
Q 26.375 40.375 22.484375 35.828125 
Q 18.609375 31.296875 18.609375 23.390625 
Q 18.609375 15.53125 22.484375 10.953125 
Q 26.375 6.390625 33.015625 6.390625 
Q 39.65625 6.390625 43.53125 10.953125 
Q 47.40625 15.53125 47.40625 23.390625 
Q 47.40625 31.296875 43.53125 35.828125 
Q 39.65625 40.375 33.015625 40.375 
z
M 52.59375 71.296875 
L 52.59375 62.3125 
Q 48.875 64.0625 45.09375 64.984375 
Q 41.3125 65.921875 37.59375 65.921875 
Q 27.828125 65.921875 22.671875 59.328125 
Q 17.53125 52.734375 16.796875 39.40625 
Q 19.671875 43.65625 24.015625 45.921875 
Q 28.375 48.1875 33.59375 48.1875 
Q 44.578125 48.1875 50.953125 41.515625 
Q 57.328125 34.859375 57.328125 23.390625 
Q 57.328125 12.15625 50.6875 5.359375 
Q 44.046875 -1.421875 33.015625 -1.421875 
Q 20.359375 -1.421875 13.671875 8.265625 
Q 6.984375 17.96875 6.984375 36.375 
Q 6.984375 53.65625 15.1875 63.9375 
Q 23.390625 74.21875 37.203125 74.21875 
Q 40.921875 74.21875 44.703125 73.484375 
Q 48.484375 72.75 52.59375 71.296875 
z
" id="DejaVuSans-36"/>
      </defs>
      <g transform="translate(635.544265 254.356562)scale(0.1 -0.1)">
       <use xlink:href="#DejaVuSans-36"/>
       <use x="63.623047" xlink:href="#DejaVuSans-30"/>
       <use x="127.246094" xlink:href="#DejaVuSans-30"/>
       <use x="190.869141" xlink:href="#DejaVuSans-30"/>
       <use x="254.492188" xlink:href="#DejaVuSans-30"/>
       <use x="318.115234" xlink:href="#DejaVuSans-30"/>
       <use x="381.738281" xlink:href="#DejaVuSans-30"/>
      </g>
     </g>
    </g>
    <g id="text_7">
     <!-- Read count -->
     <defs>
      <path d="M 44.390625 34.1875 
Q 47.5625 33.109375 50.5625 29.59375 
Q 53.5625 26.078125 56.59375 19.921875 
L 66.609375 0 
L 56 0 
L 46.6875 18.703125 
Q 43.0625 26.03125 39.671875 28.421875 
Q 36.28125 30.8125 30.421875 30.8125 
L 19.671875 30.8125 
L 19.671875 0 
L 9.8125 0 
L 9.8125 72.90625 
L 32.078125 72.90625 
Q 44.578125 72.90625 50.734375 67.671875 
Q 56.890625 62.453125 56.890625 51.90625 
Q 56.890625 45.015625 53.6875 40.46875 
Q 50.484375 35.9375 44.390625 34.1875 
z
M 19.671875 64.796875 
L 19.671875 38.921875 
L 32.078125 38.921875 
Q 39.203125 38.921875 42.84375 42.21875 
Q 46.484375 45.515625 46.484375 51.90625 
Q 46.484375 58.296875 42.84375 61.546875 
Q 39.203125 64.796875 32.078125 64.796875 
z
" id="DejaVuSans-52"/>
      <path d="M 56.203125 29.59375 
L 56.203125 25.203125 
L 14.890625 25.203125 
Q 15.484375 15.921875 20.484375 11.0625 
Q 25.484375 6.203125 34.421875 6.203125 
Q 39.59375 6.203125 44.453125 7.46875 
Q 49.3125 8.734375 54.109375 11.28125 
L 54.109375 2.78125 
Q 49.265625 0.734375 44.1875 -0.34375 
Q 39.109375 -1.421875 33.890625 -1.421875 
Q 20.796875 -1.421875 13.15625 6.1875 
Q 5.515625 13.8125 5.515625 26.8125 
Q 5.515625 40.234375 12.765625 48.109375 
Q 20.015625 56 32.328125 56 
Q 43.359375 56 49.78125 48.890625 
Q 56.203125 41.796875 56.203125 29.59375 
z
M 47.21875 32.234375 
Q 47.125 39.59375 43.09375 43.984375 
Q 39.0625 48.390625 32.421875 48.390625 
Q 24.90625 48.390625 20.390625 44.140625 
Q 15.875 39.890625 15.1875 32.171875 
z
" id="DejaVuSans-65"/>
      <path d="M 34.28125 27.484375 
Q 23.390625 27.484375 19.1875 25 
Q 14.984375 22.515625 14.984375 16.5 
Q 14.984375 11.71875 18.140625 8.90625 
Q 21.296875 6.109375 26.703125 6.109375 
Q 34.1875 6.109375 38.703125 11.40625 
Q 43.21875 16.703125 43.21875 25.484375 
L 43.21875 27.484375 
z
M 52.203125 31.203125 
L 52.203125 0 
L 43.21875 0 
L 43.21875 8.296875 
Q 40.140625 3.328125 35.546875 0.953125 
Q 30.953125 -1.421875 24.3125 -1.421875 
Q 15.921875 -1.421875 10.953125 3.296875 
Q 6 8.015625 6 15.921875 
Q 6 25.140625 12.171875 29.828125 
Q 18.359375 34.515625 30.609375 34.515625 
L 43.21875 34.515625 
L 43.21875 35.40625 
Q 43.21875 41.609375 39.140625 45 
Q 35.0625 48.390625 27.6875 48.390625 
Q 23 48.390625 18.546875 47.265625 
Q 14.109375 46.140625 10.015625 43.890625 
L 10.015625 52.203125 
Q 14.9375 54.109375 19.578125 55.046875 
Q 24.21875 56 28.609375 56 
Q 40.484375 56 46.34375 49.84375 
Q 52.203125 43.703125 52.203125 31.203125 
z
" id="DejaVuSans-61"/>
      <path d="M 45.40625 46.390625 
L 45.40625 75.984375 
L 54.390625 75.984375 
L 54.390625 0 
L 45.40625 0 
L 45.40625 8.203125 
Q 42.578125 3.328125 38.25 0.953125 
Q 33.9375 -1.421875 27.875 -1.421875 
Q 17.96875 -1.421875 11.734375 6.484375 
Q 5.515625 14.40625 5.515625 27.296875 
Q 5.515625 40.1875 11.734375 48.09375 
Q 17.96875 56 27.875 56 
Q 33.9375 56 38.25 53.625 
Q 42.578125 51.265625 45.40625 46.390625 
z
M 14.796875 27.296875 
Q 14.796875 17.390625 18.875 11.75 
Q 22.953125 6.109375 30.078125 6.109375 
Q 37.203125 6.109375 41.296875 11.75 
Q 45.40625 17.390625 45.40625 27.296875 
Q 45.40625 37.203125 41.296875 42.84375 
Q 37.203125 48.484375 30.078125 48.484375 
Q 22.953125 48.484375 18.875 42.84375 
Q 14.796875 37.203125 14.796875 27.296875 
z
" id="DejaVuSans-64"/>
      <path id="DejaVuSans-20"/>
      <path d="M 48.78125 52.59375 
L 48.78125 44.1875 
Q 44.96875 46.296875 41.140625 47.34375 
Q 37.3125 48.390625 33.40625 48.390625 
Q 24.65625 48.390625 19.8125 42.84375 
Q 14.984375 37.3125 14.984375 27.296875 
Q 14.984375 17.28125 19.8125 11.734375 
Q 24.65625 6.203125 33.40625 6.203125 
Q 37.3125 6.203125 41.140625 7.25 
Q 44.96875 8.296875 48.78125 10.40625 
L 48.78125 2.09375 
Q 45.015625 0.34375 40.984375 -0.53125 
Q 36.96875 -1.421875 32.421875 -1.421875 
Q 20.0625 -1.421875 12.78125 6.34375 
Q 5.515625 14.109375 5.515625 27.296875 
Q 5.515625 40.671875 12.859375 48.328125 
Q 20.21875 56 33.015625 56 
Q 37.15625 56 41.109375 55.140625 
Q 45.0625 54.296875 48.78125 52.59375 
z
" id="DejaVuSans-63"/>
      <path d="M 30.609375 48.390625 
Q 23.390625 48.390625 19.1875 42.75 
Q 14.984375 37.109375 14.984375 27.296875 
Q 14.984375 17.484375 19.15625 11.84375 
Q 23.34375 6.203125 30.609375 6.203125 
Q 37.796875 6.203125 41.984375 11.859375 
Q 46.1875 17.53125 46.1875 27.296875 
Q 46.1875 37.015625 41.984375 42.703125 
Q 37.796875 48.390625 30.609375 48.390625 
z
M 30.609375 56 
Q 42.328125 56 49.015625 48.375 
Q 55.71875 40.765625 55.71875 27.296875 
Q 55.71875 13.875 49.015625 6.21875 
Q 42.328125 -1.421875 30.609375 -1.421875 
Q 18.84375 -1.421875 12.171875 6.21875 
Q 5.515625 13.875 5.515625 27.296875 
Q 5.515625 40.765625 12.171875 48.375 
Q 18.84375 56 30.609375 56 
z
" id="DejaVuSans-6f"/>
      <path d="M 8.5 21.578125 
L 8.5 54.6875 
L 17.484375 54.6875 
L 17.484375 21.921875 
Q 17.484375 14.15625 20.5 10.265625 
Q 23.53125 6.390625 29.59375 6.390625 
Q 36.859375 6.390625 41.078125 11.03125 
Q 45.3125 15.671875 45.3125 23.6875 
L 45.3125 54.6875 
L 54.296875 54.6875 
L 54.296875 0 
L 45.3125 0 
L 45.3125 8.40625 
Q 42.046875 3.421875 37.71875 1 
Q 33.40625 -1.421875 27.6875 -1.421875 
Q 18.265625 -1.421875 13.375 4.4375 
Q 8.5 10.296875 8.5 21.578125 
z
M 31.109375 56 
z
" id="DejaVuSans-75"/>
      <path d="M 54.890625 33.015625 
L 54.890625 0 
L 45.90625 0 
L 45.90625 32.71875 
Q 45.90625 40.484375 42.875 44.328125 
Q 39.84375 48.1875 33.796875 48.1875 
Q 26.515625 48.1875 22.3125 43.546875 
Q 18.109375 38.921875 18.109375 30.90625 
L 18.109375 0 
L 9.078125 0 
L 9.078125 54.6875 
L 18.109375 54.6875 
L 18.109375 46.1875 
Q 21.34375 51.125 25.703125 53.5625 
Q 30.078125 56 35.796875 56 
Q 45.21875 56 50.046875 50.171875 
Q 54.890625 44.34375 54.890625 33.015625 
z
" id="DejaVuSans-6e"/>
      <path d="M 18.3125 70.21875 
L 18.3125 54.6875 
L 36.8125 54.6875 
L 36.8125 47.703125 
L 18.3125 47.703125 
L 18.3125 18.015625 
Q 18.3125 11.328125 20.140625 9.421875 
Q 21.96875 7.515625 27.59375 7.515625 
L 36.8125 7.515625 
L 36.8125 0 
L 27.59375 0 
Q 17.1875 0 13.234375 3.875 
Q 9.28125 7.765625 9.28125 18.015625 
L 9.28125 47.703125 
L 2.6875 47.703125 
L 2.6875 54.6875 
L 9.28125 54.6875 
L 9.28125 70.21875 
z
" id="DejaVuSans-74"/>
     </defs>
     <g transform="translate(388.275 268.034687)scale(0.1 -0.1)">
      <use xlink:href="#DejaVuSans-52"/>
      <use x="69.419922" xlink:href="#DejaVuSans-65"/>
      <use x="130.943359" xlink:href="#DejaVuSans-61"/>
      <use x="192.222656" xlink:href="#DejaVuSans-64"/>
      <use x="255.699219" xlink:href="#DejaVuSans-20"/>
      <use x="287.486328" xlink:href="#DejaVuSans-63"/>
      <use x="342.466797" xlink:href="#DejaVuSans-6f"/>
      <use x="403.648438" xlink:href="#DejaVuSans-75"/>
      <use x="467.027344" xlink:href="#DejaVuSans-6e"/>
      <use x="530.40625" xlink:href="#DejaVuSans-74"/>
     </g>
    </g>
   </g>
   <g id="matplotlib.axis_2">
    <g id="ytick_1">
     <g id="line2d_7">
      <defs>
       <path d="M 0 0 
L -3.5 0 
" id="mfe2c9dc6b3" style="stroke:#000000;stroke-width:0.8;"/>
      </defs>
      <g>
       <use style="stroke:#000000;stroke-width:0.8;" x="81.95625" xlink:href="#mfe2c9dc6b3" y="229.874489"/>
      </g>
     </g>
     <g id="text_8">
      <!-- 0.0000000 -->
      <defs>
       <path d="M 10.6875 12.40625 
L 21 12.40625 
L 21 0 
L 10.6875 0 
z
" id="DejaVuSans-2e"/>
      </defs>
      <g transform="translate(20.878125 233.673707)scale(0.1 -0.1)">
       <use xlink:href="#DejaVuSans-30"/>
       <use x="63.623047" xlink:href="#DejaVuSans-2e"/>
       <use x="95.410156" xlink:href="#DejaVuSans-30"/>
       <use x="159.033203" xlink:href="#DejaVuSans-30"/>
       <use x="222.65625" xlink:href="#DejaVuSans-30"/>
       <use x="286.279297" xlink:href="#DejaVuSans-30"/>
       <use x="349.902344" xlink:href="#DejaVuSans-30"/>
       <use x="413.525391" xlink:href="#DejaVuSans-30"/>
       <use x="477.148438" xlink:href="#DejaVuSans-30"/>
      </g>
     </g>
    </g>
    <g id="ytick_2">
     <g id="line2d_8">
      <g>
       <use style="stroke:#000000;stroke-width:0.8;" x="81.95625" xlink:href="#mfe2c9dc6b3" y="205.240611"/>
      </g>
     </g>
     <g id="text_9">
      <!-- 0.0000002 -->
      <g transform="translate(20.878125 209.03983)scale(0.1 -0.1)">
       <use xlink:href="#DejaVuSans-30"/>
       <use x="63.623047" xlink:href="#DejaVuSans-2e"/>
       <use x="95.410156" xlink:href="#DejaVuSans-30"/>
       <use x="159.033203" xlink:href="#DejaVuSans-30"/>
       <use x="222.65625" xlink:href="#DejaVuSans-30"/>
       <use x="286.279297" xlink:href="#DejaVuSans-30"/>
       <use x="349.902344" xlink:href="#DejaVuSans-30"/>
       <use x="413.525391" xlink:href="#DejaVuSans-30"/>
       <use x="477.148438" xlink:href="#DejaVuSans-32"/>
      </g>
     </g>
    </g>
    <g id="ytick_3">
     <g id="line2d_9">
      <g>
       <use style="stroke:#000000;stroke-width:0.8;" x="81.95625" xlink:href="#mfe2c9dc6b3" y="180.606733"/>
      </g>
     </g>
     <g id="text_10">
      <!-- 0.0000004 -->
      <g transform="translate(20.878125 184.405952)scale(0.1 -0.1)">
       <use xlink:href="#DejaVuSans-30"/>
       <use x="63.623047" xlink:href="#DejaVuSans-2e"/>
       <use x="95.410156" xlink:href="#DejaVuSans-30"/>
       <use x="159.033203" xlink:href="#DejaVuSans-30"/>
       <use x="222.65625" xlink:href="#DejaVuSans-30"/>
       <use x="286.279297" xlink:href="#DejaVuSans-30"/>
       <use x="349.902344" xlink:href="#DejaVuSans-30"/>
       <use x="413.525391" xlink:href="#DejaVuSans-30"/>
       <use x="477.148438" xlink:href="#DejaVuSans-34"/>
      </g>
     </g>
    </g>
    <g id="ytick_4">
     <g id="line2d_10">
      <g>
       <use style="stroke:#000000;stroke-width:0.8;" x="81.95625" xlink:href="#mfe2c9dc6b3" y="155.972856"/>
      </g>
     </g>
     <g id="text_11">
      <!-- 0.0000006 -->
      <g transform="translate(20.878125 159.772074)scale(0.1 -0.1)">
       <use xlink:href="#DejaVuSans-30"/>
       <use x="63.623047" xlink:href="#DejaVuSans-2e"/>
       <use x="95.410156" xlink:href="#DejaVuSans-30"/>
       <use x="159.033203" xlink:href="#DejaVuSans-30"/>
       <use x="222.65625" xlink:href="#DejaVuSans-30"/>
       <use x="286.279297" xlink:href="#DejaVuSans-30"/>
       <use x="349.902344" xlink:href="#DejaVuSans-30"/>
       <use x="413.525391" xlink:href="#DejaVuSans-30"/>
       <use x="477.148438" xlink:href="#DejaVuSans-36"/>
      </g>
     </g>
    </g>
    <g id="ytick_5">
     <g id="line2d_11">
      <g>
       <use style="stroke:#000000;stroke-width:0.8;" x="81.95625" xlink:href="#mfe2c9dc6b3" y="131.338978"/>
      </g>
     </g>
     <g id="text_12">
      <!-- 0.0000008 -->
      <defs>
       <path d="M 31.78125 34.625 
Q 24.75 34.625 20.71875 30.859375 
Q 16.703125 27.09375 16.703125 20.515625 
Q 16.703125 13.921875 20.71875 10.15625 
Q 24.75 6.390625 31.78125 6.390625 
Q 38.8125 6.390625 42.859375 10.171875 
Q 46.921875 13.96875 46.921875 20.515625 
Q 46.921875 27.09375 42.890625 30.859375 
Q 38.875 34.625 31.78125 34.625 
z
M 21.921875 38.8125 
Q 15.578125 40.375 12.03125 44.71875 
Q 8.5 49.078125 8.5 55.328125 
Q 8.5 64.0625 14.71875 69.140625 
Q 20.953125 74.21875 31.78125 74.21875 
Q 42.671875 74.21875 48.875 69.140625 
Q 55.078125 64.0625 55.078125 55.328125 
Q 55.078125 49.078125 51.53125 44.71875 
Q 48 40.375 41.703125 38.8125 
Q 48.828125 37.15625 52.796875 32.3125 
Q 56.78125 27.484375 56.78125 20.515625 
Q 56.78125 9.90625 50.3125 4.234375 
Q 43.84375 -1.421875 31.78125 -1.421875 
Q 19.734375 -1.421875 13.25 4.234375 
Q 6.78125 9.90625 6.78125 20.515625 
Q 6.78125 27.484375 10.78125 32.3125 
Q 14.796875 37.15625 21.921875 38.8125 
z
M 18.3125 54.390625 
Q 18.3125 48.734375 21.84375 45.5625 
Q 25.390625 42.390625 31.78125 42.390625 
Q 38.140625 42.390625 41.71875 45.5625 
Q 45.3125 48.734375 45.3125 54.390625 
Q 45.3125 60.0625 41.71875 63.234375 
Q 38.140625 66.40625 31.78125 66.40625 
Q 25.390625 66.40625 21.84375 63.234375 
Q 18.3125 60.0625 18.3125 54.390625 
z
" id="DejaVuSans-38"/>
      </defs>
      <g transform="translate(20.878125 135.138197)scale(0.1 -0.1)">
       <use xlink:href="#DejaVuSans-30"/>
       <use x="63.623047" xlink:href="#DejaVuSans-2e"/>
       <use x="95.410156" xlink:href="#DejaVuSans-30"/>
       <use x="159.033203" xlink:href="#DejaVuSans-30"/>
       <use x="222.65625" xlink:href="#DejaVuSans-30"/>
       <use x="286.279297" xlink:href="#DejaVuSans-30"/>
       <use x="349.902344" xlink:href="#DejaVuSans-30"/>
       <use x="413.525391" xlink:href="#DejaVuSans-30"/>
       <use x="477.148438" xlink:href="#DejaVuSans-38"/>
      </g>
     </g>
    </g>
    <g id="ytick_6">
     <g id="line2d_12">
      <g>
       <use style="stroke:#000000;stroke-width:0.8;" x="81.95625" xlink:href="#mfe2c9dc6b3" y="106.7051"/>
      </g>
     </g>
     <g id="text_13">
      <!-- 0.0000010 -->
      <g transform="translate(20.878125 110.504319)scale(0.1 -0.1)">
       <use xlink:href="#DejaVuSans-30"/>
       <use x="63.623047" xlink:href="#DejaVuSans-2e"/>
       <use x="95.410156" xlink:href="#DejaVuSans-30"/>
       <use x="159.033203" xlink:href="#DejaVuSans-30"/>
       <use x="222.65625" xlink:href="#DejaVuSans-30"/>
       <use x="286.279297" xlink:href="#DejaVuSans-30"/>
       <use x="349.902344" xlink:href="#DejaVuSans-30"/>
       <use x="413.525391" xlink:href="#DejaVuSans-31"/>
       <use x="477.148438" xlink:href="#DejaVuSans-30"/>
      </g>
     </g>
    </g>
    <g id="ytick_7">
     <g id="line2d_13">
      <g>
       <use style="stroke:#000000;stroke-width:0.8;" x="81.95625" xlink:href="#mfe2c9dc6b3" y="82.071223"/>
      </g>
     </g>
     <g id="text_14">
      <!-- 0.0000012 -->
      <g transform="translate(20.878125 85.870442)scale(0.1 -0.1)">
       <use xlink:href="#DejaVuSans-30"/>
       <use x="63.623047" xlink:href="#DejaVuSans-2e"/>
       <use x="95.410156" xlink:href="#DejaVuSans-30"/>
       <use x="159.033203" xlink:href="#DejaVuSans-30"/>
       <use x="222.65625" xlink:href="#DejaVuSans-30"/>
       <use x="286.279297" xlink:href="#DejaVuSans-30"/>
       <use x="349.902344" xlink:href="#DejaVuSans-30"/>
       <use x="413.525391" xlink:href="#DejaVuSans-31"/>
       <use x="477.148438" xlink:href="#DejaVuSans-32"/>
      </g>
     </g>
    </g>
    <g id="ytick_8">
     <g id="line2d_14">
      <g>
       <use style="stroke:#000000;stroke-width:0.8;" x="81.95625" xlink:href="#mfe2c9dc6b3" y="57.437345"/>
      </g>
     </g>
     <g id="text_15">
      <!-- 0.0000014 -->
      <g transform="translate(20.878125 61.236564)scale(0.1 -0.1)">
       <use xlink:href="#DejaVuSans-30"/>
       <use x="63.623047" xlink:href="#DejaVuSans-2e"/>
       <use x="95.410156" xlink:href="#DejaVuSans-30"/>
       <use x="159.033203" xlink:href="#DejaVuSans-30"/>
       <use x="222.65625" xlink:href="#DejaVuSans-30"/>
       <use x="286.279297" xlink:href="#DejaVuSans-30"/>
       <use x="349.902344" xlink:href="#DejaVuSans-30"/>
       <use x="413.525391" xlink:href="#DejaVuSans-31"/>
       <use x="477.148438" xlink:href="#DejaVuSans-34"/>
      </g>
     </g>
    </g>
    <g id="ytick_9">
     <g id="line2d_15">
      <g>
       <use style="stroke:#000000;stroke-width:0.8;" x="81.95625" xlink:href="#mfe2c9dc6b3" y="32.803467"/>
      </g>
     </g>
     <g id="text_16">
      <!-- 0.0000016 -->
      <g transform="translate(20.878125 36.602686)scale(0.1 -0.1)">
       <use xlink:href="#DejaVuSans-30"/>
       <use x="63.623047" xlink:href="#DejaVuSans-2e"/>
       <use x="95.410156" xlink:href="#DejaVuSans-30"/>
       <use x="159.033203" xlink:href="#DejaVuSans-30"/>
       <use x="222.65625" xlink:href="#DejaVuSans-30"/>
       <use x="286.279297" xlink:href="#DejaVuSans-30"/>
       <use x="349.902344" xlink:href="#DejaVuSans-30"/>
       <use x="413.525391" xlink:href="#DejaVuSans-31"/>
       <use x="477.148438" xlink:href="#DejaVuSans-36"/>
      </g>
     </g>
    </g>
    <g id="text_17">
     <!-- Density -->
     <defs>
      <path d="M 19.671875 64.796875 
L 19.671875 8.109375 
L 31.59375 8.109375 
Q 46.6875 8.109375 53.6875 14.9375 
Q 60.6875 21.78125 60.6875 36.53125 
Q 60.6875 51.171875 53.6875 57.984375 
Q 46.6875 64.796875 31.59375 64.796875 
z
M 9.8125 72.90625 
L 30.078125 72.90625 
Q 51.265625 72.90625 61.171875 64.09375 
Q 71.09375 55.28125 71.09375 36.53125 
Q 71.09375 17.671875 61.125 8.828125 
Q 51.171875 0 30.078125 0 
L 9.8125 0 
z
" id="DejaVuSans-44"/>
      <path d="M 44.28125 53.078125 
L 44.28125 44.578125 
Q 40.484375 46.53125 36.375 47.5 
Q 32.28125 48.484375 27.875 48.484375 
Q 21.1875 48.484375 17.84375 46.4375 
Q 14.5 44.390625 14.5 40.28125 
Q 14.5 37.15625 16.890625 35.375 
Q 19.28125 33.59375 26.515625 31.984375 
L 29.59375 31.296875 
Q 39.15625 29.25 43.1875 25.515625 
Q 47.21875 21.78125 47.21875 15.09375 
Q 47.21875 7.46875 41.1875 3.015625 
Q 35.15625 -1.421875 24.609375 -1.421875 
Q 20.21875 -1.421875 15.453125 -0.5625 
Q 10.6875 0.296875 5.421875 2 
L 5.421875 11.28125 
Q 10.40625 8.6875 15.234375 7.390625 
Q 20.0625 6.109375 24.8125 6.109375 
Q 31.15625 6.109375 34.5625 8.28125 
Q 37.984375 10.453125 37.984375 14.40625 
Q 37.984375 18.0625 35.515625 20.015625 
Q 33.0625 21.96875 24.703125 23.78125 
L 21.578125 24.515625 
Q 13.234375 26.265625 9.515625 29.90625 
Q 5.8125 33.546875 5.8125 39.890625 
Q 5.8125 47.609375 11.28125 51.796875 
Q 16.75 56 26.8125 56 
Q 31.78125 56 36.171875 55.265625 
Q 40.578125 54.546875 44.28125 53.078125 
z
" id="DejaVuSans-73"/>
      <path d="M 9.421875 54.6875 
L 18.40625 54.6875 
L 18.40625 0 
L 9.421875 0 
z
M 9.421875 75.984375 
L 18.40625 75.984375 
L 18.40625 64.59375 
L 9.421875 64.59375 
z
" id="DejaVuSans-69"/>
      <path d="M 32.171875 -5.078125 
Q 28.375 -14.84375 24.75 -17.8125 
Q 21.140625 -20.796875 15.09375 -20.796875 
L 7.90625 -20.796875 
L 7.90625 -13.28125 
L 13.1875 -13.28125 
Q 16.890625 -13.28125 18.9375 -11.515625 
Q 21 -9.765625 23.484375 -3.21875 
L 25.09375 0.875 
L 2.984375 54.6875 
L 12.5 54.6875 
L 29.59375 11.921875 
L 46.6875 54.6875 
L 56.203125 54.6875 
z
" id="DejaVuSans-79"/>
     </defs>
     <g transform="translate(14.798437 150.046719)rotate(-90)scale(0.1 -0.1)">
      <use xlink:href="#DejaVuSans-44"/>
      <use x="77.001953" xlink:href="#DejaVuSans-65"/>
      <use x="138.525391" xlink:href="#DejaVuSans-6e"/>
      <use x="201.904297" xlink:href="#DejaVuSans-73"/>
      <use x="254.003906" xlink:href="#DejaVuSans-69"/>
      <use x="281.787109" xlink:href="#DejaVuSans-74"/>
      <use x="320.996094" xlink:href="#DejaVuSans-79"/>
     </g>
    </g>
   </g>
   <g id="line2d_16">
    <path clip-path="url(#p77d62fd4b0)" d="M 112.392614 226.474449 
L 118.510476 224.981792 
L 124.628338 223.085147 
L 130.7462 220.772103 
L 136.864062 218.062095 
L 142.981924 215.009002 
L 149.099786 211.697773 
L 176.630165 196.32869 
L 185.806958 191.664326 
L 222.51413 173.505302 
L 228.631992 170.857475 
L 231.690923 169.683895 
L 234.749854 168.634941 
L 237.808785 167.727208 
L 240.867716 166.97521 
L 243.926647 166.39091 
L 246.985578 165.983344 
L 250.044509 165.758356 
L 253.10344 165.718437 
L 256.162372 165.862673 
L 259.221303 166.1868 
L 262.280234 166.683358 
L 265.339165 167.341947 
L 268.398096 168.149565 
L 271.457027 169.091028 
L 277.574889 171.306799 
L 283.692751 173.843676 
L 295.928475 179.316182 
L 305.105268 183.350722 
L 314.282061 187.141848 
L 323.458854 190.699753 
L 332.635647 194.066428 
L 341.81244 197.21111 
L 350.989233 200.046694 
L 360.166026 202.532573 
L 369.342819 204.736385 
L 415.226784 215.062082 
L 424.403578 216.94284 
L 430.52144 218.036379 
L 436.639302 218.974175 
L 445.816095 220.091598 
L 454.992888 220.943642 
L 476.405405 222.805585 
L 485.582198 223.861109 
L 516.171508 227.736215 
L 525.348301 228.466698 
L 534.525094 228.890245 
L 543.701887 229.056951 
L 555.937611 229.006626 
L 592.644784 228.549058 
L 607.939439 228.719253 
L 659.941266 229.573224 
L 678.294852 229.56705 
L 718.060955 229.365082 
L 721.119886 229.385014 
L 721.119886 229.385014 
" style="fill:none;stroke:#e41a1c;stroke-linecap:square;stroke-width:1.5;"/>
   </g>
   <g id="line2d_17">
    <path clip-path="url(#p77d62fd4b0)" d="M 112.392614 219.956555 
L 130.7462 212.201409 
L 136.864062 210.080224 
L 142.981924 208.378228 
L 149.099786 207.098351 
L 155.217648 206.175262 
L 161.33551 205.500935 
L 182.748027 203.49259 
L 188.865889 202.687221 
L 194.983751 201.688869 
L 201.101613 200.471015 
L 207.219475 199.022921 
L 213.337337 197.353938 
L 219.455199 195.49351 
L 228.631992 192.4399 
L 256.162372 182.928132 
L 262.280234 181.156507 
L 268.398096 179.707285 
L 274.515958 178.66217 
L 280.63382 178.060325 
L 286.751682 177.886354 
L 292.869544 178.076218 
L 298.987406 178.538424 
L 308.164199 179.546063 
L 320.399923 181.182791 
L 329.576716 182.583429 
L 338.753509 184.24255 
L 344.871371 185.583667 
L 350.989233 187.182288 
L 357.107095 189.076502 
L 363.224957 191.259401 
L 372.40175 194.911584 
L 381.578543 198.606867 
L 387.696405 200.8417 
L 393.814267 202.76968 
L 399.932129 204.364636 
L 406.049991 205.675926 
L 418.285716 207.887439 
L 427.462509 209.639555 
L 436.639302 211.699653 
L 448.875026 214.784803 
L 461.11075 217.783979 
L 470.287543 219.752844 
L 479.464336 221.459419 
L 491.70006 223.431082 
L 506.994715 225.5956 
L 519.230439 227.105157 
L 528.407232 228.030332 
L 537.584025 228.708388 
L 546.760818 229.120964 
L 555.937611 229.313692 
L 577.350128 229.422754 
L 604.880508 229.694732 
L 629.351956 229.849869 
L 687.471645 229.874486 
L 721.119886 229.874489 
L 721.119886 229.874489 
" style="fill:none;stroke:#4daf4a;stroke-linecap:square;stroke-width:1.5;"/>
   </g>
   <g id="line2d_18">
    <path clip-path="url(#p77d62fd4b0)" d="M 112.392614 217.93645 
L 118.510476 214.471186 
L 127.687269 208.865996 
L 136.864062 203.315851 
L 142.981924 199.924157 
L 149.099786 196.914411 
L 155.217648 194.338897 
L 161.33551 192.195563 
L 167.453372 190.443394 
L 173.571234 189.02413 
L 179.689096 187.881742 
L 185.806958 186.972313 
L 191.92482 186.262146 
L 201.101613 185.496429 
L 213.337337 184.796946 
L 246.985578 183.064269 
L 253.10344 182.986802 
L 259.221303 183.07519 
L 265.339165 183.335654 
L 271.457027 183.761738 
L 280.63382 184.685621 
L 289.810613 185.906407 
L 302.046337 187.858993 
L 326.517785 191.945154 
L 341.81244 194.18323 
L 354.048164 196.029989 
L 360.166026 197.162172 
L 366.283888 198.529544 
L 372.40175 200.162948 
L 378.519612 202.043006 
L 387.696405 205.175826 
L 402.99106 210.470131 
L 409.108922 212.395801 
L 415.226784 214.148736 
L 421.344647 215.711918 
L 427.462509 217.079732 
L 433.580371 218.255597 
L 439.698233 219.251862 
L 448.875026 220.459091 
L 458.051819 221.419092 
L 491.70006 224.671826 
L 510.053646 226.538455 
L 519.230439 227.254456 
L 531.466163 227.928979 
L 546.760818 228.488866 
L 568.173335 229.027149 
L 598.762646 229.494525 
L 629.351956 229.814061 
L 663.000197 229.873305 
L 721.119886 229.874489 
L 721.119886 229.874489 
" style="fill:none;stroke:#377eb8;stroke-linecap:square;stroke-width:1.5;"/>
   </g>
   <g id="line2d_19">
    <path clip-path="url(#p77d62fd4b0)" d="M 112.392614 216.461201 
L 121.569407 211.420064 
L 127.687269 208.41888 
L 130.7462 207.129805 
L 133.805131 206.013441 
L 136.864062 205.082435 
L 139.922993 204.339639 
L 142.981924 203.778279 
L 146.040855 203.382884 
L 149.099786 203.130859 
L 155.217648 202.94334 
L 173.571234 202.856551 
L 179.689096 202.454321 
L 185.806958 201.749847 
L 191.92482 200.72606 
L 198.042682 199.373311 
L 204.160544 197.688927 
L 210.278406 195.690832 
L 216.396268 193.433978 
L 237.808785 185.153783 
L 243.926647 183.203045 
L 250.044509 181.588374 
L 256.162372 180.327253 
L 262.280234 179.411558 
L 268.398096 178.8218 
L 274.515958 178.533884 
L 280.63382 178.518756 
L 286.751682 178.741237 
L 292.869544 179.164019 
L 298.987406 179.756962 
L 305.105268 180.505602 
L 311.22313 181.411606 
L 317.340992 182.482903 
L 323.458854 183.718792 
L 332.635647 185.833342 
L 344.871371 188.941265 
L 357.107095 192.236069 
L 366.283888 194.923105 
L 375.460681 197.890069 
L 402.99106 207.213096 
L 409.108922 208.96199 
L 418.285716 211.29331 
L 464.169681 222.064618 
L 470.287543 223.191198 
L 476.405405 224.124058 
L 482.523267 224.869113 
L 491.70006 225.696256 
L 503.935784 226.468913 
L 540.642956 228.374641 
L 555.937611 228.89338 
L 577.350128 229.330252 
L 601.821577 229.673853 
L 620.175163 229.698664 
L 666.059128 229.5191 
L 718.060955 229.865131 
L 721.119886 229.86803 
L 721.119886 229.86803 
" style="fill:none;stroke:#ff7f00;stroke-linecap:square;stroke-width:1.5;"/>
   </g>
   <g id="line2d_20">
    <path clip-path="url(#p77d62fd4b0)" d="M 112.392614 219.337083 
L 118.510476 215.622794 
L 133.805131 205.711465 
L 136.864062 203.953271 
L 139.922993 202.356314 
L 142.981924 200.943994 
L 146.040855 199.729556 
L 149.099786 198.71537 
L 152.158717 197.893033 
L 155.217648 197.244288 
L 158.276579 196.742667 
L 164.394441 196.047366 
L 176.630165 194.903961 
L 182.748027 194.021812 
L 188.865889 192.817683 
L 194.983751 191.344065 
L 210.278406 187.372006 
L 216.396268 186.008165 
L 222.51413 184.842834 
L 240.867716 181.589598 
L 246.985578 180.169172 
L 253.10344 178.497179 
L 271.457027 173.111671 
L 277.574889 171.771232 
L 280.63382 171.281823 
L 283.692751 170.936738 
L 286.751682 170.751922 
L 289.810613 170.741698 
L 292.869544 170.918418 
L 295.928475 171.291853 
L 298.987406 171.868365 
L 302.046337 172.649979 
L 305.105268 173.6335 
L 308.164199 174.809876 
L 311.22313 176.163949 
L 314.282061 177.674714 
L 320.399923 181.058478 
L 341.81244 193.610908 
L 347.930302 196.716248 
L 354.048164 199.517946 
L 360.166026 202.048397 
L 366.283888 204.351732 
L 375.460681 207.47459 
L 384.637474 210.309431 
L 393.814267 212.933691 
L 402.99106 215.337585 
L 412.167853 217.447344 
L 421.344647 219.222514 
L 430.52144 220.727802 
L 448.875026 223.408931 
L 458.051819 224.618937 
L 467.228612 225.570032 
L 473.346474 225.989168 
L 479.464336 226.225312 
L 488.641129 226.315182 
L 506.994715 226.37137 
L 516.171508 226.673372 
L 528.407232 227.342803 
L 546.760818 228.358652 
L 558.996542 228.786947 
L 574.291197 229.048841 
L 617.116232 229.601351 
L 638.528749 229.816943 
L 672.17699 229.873685 
L 721.119886 229.874489 
L 721.119886 229.874489 
" style="fill:none;stroke:#ffff33;stroke-linecap:square;stroke-width:1.5;"/>
   </g>
   <g id="line2d_21">
    <path clip-path="url(#p77d62fd4b0)" d="M 112.392614 225.417477 
L 118.510476 220.766867 
L 121.569407 218.006481 
L 124.628338 213.358412 
L 127.687269 204.619541 
L 130.7462 189.980149 
L 133.805131 169.119873 
L 136.864062 143.389581 
L 142.981924 87.457695 
L 146.040855 63.873407 
L 149.099786 47.805419 
L 152.158717 40.280714 
L 155.217648 38.79204 
L 158.276579 38.994171 
L 161.33551 37.782451 
L 164.394441 34.876037 
L 167.453372 32.201761 
L 170.512303 32.205012 
L 173.571234 36.282784 
L 176.630165 44.339898 
L 179.689096 55.548066 
L 182.748027 69.050842 
L 188.865889 98.790795 
L 191.92482 112.84947 
L 198.042682 138.654004 
L 204.160544 164.30367 
L 207.219475 175.845957 
L 210.278406 185.326041 
L 213.337337 192.726361 
L 216.396268 198.673457 
L 219.455199 203.749043 
L 222.51413 208.084989 
L 225.573061 211.604692 
L 228.631992 214.446856 
L 231.690923 216.939518 
L 234.749854 219.244854 
L 237.808785 221.2561 
L 240.867716 222.85846 
L 246.985578 225.350844 
L 253.10344 227.76395 
L 256.162372 228.717954 
L 259.221303 229.344618 
L 262.280234 229.674726 
L 268.398096 229.859373 
L 298.987406 229.874489 
L 721.119886 229.874489 
L 721.119886 229.874489 
" style="fill:none;stroke:#984ea3;stroke-linecap:square;stroke-width:1.5;"/>
   </g>
   <g id="patch_3">
    <path d="M 81.95625 239.758125 
L 81.95625 22.318125 
" style="fill:none;stroke:#000000;stroke-linecap:square;stroke-linejoin:miter;stroke-width:0.8;"/>
   </g>
   <g id="patch_4">
    <path d="M 751.55625 239.758125 
L 751.55625 22.318125 
" style="fill:none;stroke:#000000;stroke-linecap:square;stroke-linejoin:miter;stroke-width:0.8;"/>
   </g>
   <g id="patch_5">
    <path d="M 81.95625 239.758125 
L 751.55625 239.758125 
" style="fill:none;stroke:#000000;stroke-linecap:square;stroke-linejoin:miter;stroke-width:0.8;"/>
   </g>
   <g id="patch_6">
    <path d="M 81.95625 22.318125 
L 751.55625 22.318125 
" style="fill:none;stroke:#000000;stroke-linecap:square;stroke-linejoin:miter;stroke-width:0.8;"/>
   </g>
   <g id="text_18">
    <!-- Read count by batch -->
    <defs>
     <path d="M 48.6875 27.296875 
Q 48.6875 37.203125 44.609375 42.84375 
Q 40.53125 48.484375 33.40625 48.484375 
Q 26.265625 48.484375 22.1875 42.84375 
Q 18.109375 37.203125 18.109375 27.296875 
Q 18.109375 17.390625 22.1875 11.75 
Q 26.265625 6.109375 33.40625 6.109375 
Q 40.53125 6.109375 44.609375 11.75 
Q 48.6875 17.390625 48.6875 27.296875 
z
M 18.109375 46.390625 
Q 20.953125 51.265625 25.265625 53.625 
Q 29.59375 56 35.59375 56 
Q 45.5625 56 51.78125 48.09375 
Q 58.015625 40.1875 58.015625 27.296875 
Q 58.015625 14.40625 51.78125 6.484375 
Q 45.5625 -1.421875 35.59375 -1.421875 
Q 29.59375 -1.421875 25.265625 0.953125 
Q 20.953125 3.328125 18.109375 8.203125 
L 18.109375 0 
L 9.078125 0 
L 9.078125 75.984375 
L 18.109375 75.984375 
z
" id="DejaVuSans-62"/>
     <path d="M 54.890625 33.015625 
L 54.890625 0 
L 45.90625 0 
L 45.90625 32.71875 
Q 45.90625 40.484375 42.875 44.328125 
Q 39.84375 48.1875 33.796875 48.1875 
Q 26.515625 48.1875 22.3125 43.546875 
Q 18.109375 38.921875 18.109375 30.90625 
L 18.109375 0 
L 9.078125 0 
L 9.078125 75.984375 
L 18.109375 75.984375 
L 18.109375 46.1875 
Q 21.34375 51.125 25.703125 53.5625 
Q 30.078125 56 35.796875 56 
Q 45.21875 56 50.046875 50.171875 
Q 54.890625 44.34375 54.890625 33.015625 
z
" id="DejaVuSans-68"/>
    </defs>
    <g transform="translate(354.465 16.318125)scale(0.12 -0.12)">
     <use xlink:href="#DejaVuSans-52"/>
     <use x="69.419922" xlink:href="#DejaVuSans-65"/>
     <use x="130.943359" xlink:href="#DejaVuSans-61"/>
     <use x="192.222656" xlink:href="#DejaVuSans-64"/>
     <use x="255.699219" xlink:href="#DejaVuSans-20"/>
     <use x="287.486328" xlink:href="#DejaVuSans-63"/>
     <use x="342.466797" xlink:href="#DejaVuSans-6f"/>
     <use x="403.648438" xlink:href="#DejaVuSans-75"/>
     <use x="467.027344" xlink:href="#DejaVuSans-6e"/>
     <use x="530.40625" xlink:href="#DejaVuSans-74"/>
     <use x="569.615234" xlink:href="#DejaVuSans-20"/>
     <use x="601.402344" xlink:href="#DejaVuSans-62"/>
     <use x="664.878906" xlink:href="#DejaVuSans-79"/>
     <use x="724.058594" xlink:href="#DejaVuSans-20"/>
     <use x="755.845703" xlink:href="#DejaVuSans-62"/>
     <use x="819.322266" xlink:href="#DejaVuSans-61"/>
     <use x="880.601562" xlink:href="#DejaVuSans-74"/>
     <use x="919.810547" xlink:href="#DejaVuSans-63"/>
     <use x="974.791016" xlink:href="#DejaVuSans-68"/>
    </g>
   </g>
   <g id="legend_1">
    <g id="patch_7">
     <path d="M 699.845312 118.386875 
L 744.55625 118.386875 
Q 746.55625 118.386875 746.55625 116.386875 
L 746.55625 29.318125 
Q 746.55625 27.318125 744.55625 27.318125 
L 699.845312 27.318125 
Q 697.845312 27.318125 697.845312 29.318125 
L 697.845312 116.386875 
Q 697.845312 118.386875 699.845312 118.386875 
z
" style="fill:#ffffff;opacity:0.8;stroke:#cccccc;stroke-linejoin:miter;"/>
    </g>
    <g id="line2d_22">
     <path d="M 701.845312 35.416562 
L 721.845312 35.416562 
" style="fill:none;stroke:#e41a1c;stroke-linecap:square;stroke-width:1.5;"/>
    </g>
    <g id="line2d_23"/>
    <g id="text_19">
     <!-- b1 -->
     <g transform="translate(729.845312 38.916562)scale(0.1 -0.1)">
      <use xlink:href="#DejaVuSans-62"/>
      <use x="63.476562" xlink:href="#DejaVuSans-31"/>
     </g>
    </g>
    <g id="line2d_24">
     <path d="M 701.845312 50.094687 
L 721.845312 50.094687 
" style="fill:none;stroke:#4daf4a;stroke-linecap:square;stroke-width:1.5;"/>
    </g>
    <g id="line2d_25"/>
    <g id="text_20">
     <!-- b2 -->
     <g transform="translate(729.845312 53.594687)scale(0.1 -0.1)">
      <use xlink:href="#DejaVuSans-62"/>
      <use x="63.476562" xlink:href="#DejaVuSans-32"/>
     </g>
    </g>
    <g id="line2d_26">
     <path d="M 701.845312 64.772812 
L 721.845312 64.772812 
" style="fill:none;stroke:#377eb8;stroke-linecap:square;stroke-width:1.5;"/>
    </g>
    <g id="line2d_27"/>
    <g id="text_21">
     <!-- b3 -->
     <g transform="translate(729.845312 68.272812)scale(0.1 -0.1)">
      <use xlink:href="#DejaVuSans-62"/>
      <use x="63.476562" xlink:href="#DejaVuSans-33"/>
     </g>
    </g>
    <g id="line2d_28">
     <path d="M 701.845312 79.450938 
L 721.845312 79.450938 
" style="fill:none;stroke:#ff7f00;stroke-linecap:square;stroke-width:1.5;"/>
    </g>
    <g id="line2d_29"/>
    <g id="text_22">
     <!-- b4 -->
     <g transform="translate(729.845312 82.950938)scale(0.1 -0.1)">
      <use xlink:href="#DejaVuSans-62"/>
      <use x="63.476562" xlink:href="#DejaVuSans-34"/>
     </g>
    </g>
    <g id="line2d_30">
     <path d="M 701.845312 94.129063 
L 721.845312 94.129063 
" style="fill:none;stroke:#ffff33;stroke-linecap:square;stroke-width:1.5;"/>
    </g>
    <g id="line2d_31"/>
    <g id="text_23">
     <!-- b5 -->
     <g transform="translate(729.845312 97.629063)scale(0.1 -0.1)">
      <use xlink:href="#DejaVuSans-62"/>
      <use x="63.476562" xlink:href="#DejaVuSans-35"/>
     </g>
    </g>
    <g id="line2d_32">
     <path d="M 701.845312 108.807187 
L 721.845312 108.807187 
" style="fill:none;stroke:#984ea3;stroke-linecap:square;stroke-width:1.5;"/>
    </g>
    <g id="line2d_33"/>
    <g id="text_24">
     <!-- b6 -->
     <g transform="translate(729.845312 112.307187)scale(0.1 -0.1)">
      <use xlink:href="#DejaVuSans-62"/>
      <use x="63.476562" xlink:href="#DejaVuSans-36"/>
     </g>
    </g>
   </g>
  </g>
 </g>
 <defs>
  <clipPath id="p77d62fd4b0">
   <rect height="217.44" width="669.6" x="81.95625" y="22.318125"/>
  </clipPath>
 </defs>
</svg>
